<?xml version="1.0" encoding="UTF-8" standalone="no"?><svg xmlns="http://www.w3.org/2000/svg" xmlns:xlink="http://www.w3.org/1999/xlink" contentStyleType="text/css" height="238px" preserveAspectRatio="none" style="width:1028px;height:238px;background:#FFFFFF;" version="1.1" viewBox="0 0 1028 238" width="1028px" zoomAndPan="magnify"><defs/><g><!--MD5=[85072a6facfe2eae9bad630a0f4b93dd]
class MotiveConnectModel--><g id="elem_MotiveConnectModel"><rect codeLine="1" fill="#F1F1F1" height="83.2188" id="MotiveConnectModel" rx="2.5" ry="2.5" style="stroke:#181818;stroke-width:0.5;" width="264" x="508" y="77.5"/><ellipse cx="569.75" cy="93.5" fill="#ADD1B2" rx="11" ry="11" style="stroke:#181818;stroke-width:1.0;"/><path d="M572.5156,89.375 Q572.6719,89.1563 572.8594,89.0469 Q573.0469,88.9375 573.2656,88.9375 Q573.6406,88.9375 573.875,89.2031 Q574.1094,89.4531 574.1094,90.0625 L574.1094,91.5156 Q574.1094,92.125 573.875,92.3906 Q573.6406,92.6563 573.2656,92.6563 Q572.9219,92.6563 572.7188,92.4531 Q572.5156,92.2656 572.4063,91.75 Q572.3594,91.3906 572.1719,91.2031 Q571.8438,90.8281 571.2344,90.6094 Q570.625,90.3906 570,90.3906 Q569.2344,90.3906 568.5938,90.7188 Q567.9688,91.0469 567.4688,91.7969 Q566.9844,92.5469 566.9844,93.5781 L566.9844,94.6719 Q566.9844,95.9063 567.875,96.7344 Q568.7656,97.5469 570.3594,97.5469 Q571.2969,97.5469 571.9531,97.2969 Q572.3438,97.1406 572.7656,96.7031 Q573.0313,96.4375 573.1719,96.3594 Q573.3281,96.2813 573.5313,96.2813 Q573.8594,96.2813 574.1094,96.5469 Q574.375,96.7969 574.375,97.1406 Q574.375,97.4844 574.0313,97.8906 Q573.5313,98.4688 572.7344,98.7969 Q571.6563,99.25 570.3594,99.25 Q568.8438,99.25 567.6406,98.625 Q566.6563,98.125 565.9688,97.0625 Q565.2813,95.9844 565.2813,94.7031 L565.2813,93.5469 Q565.2813,92.2188 565.8906,91.0781 Q566.5156,89.9219 567.6094,89.3125 Q568.7031,88.6875 569.9375,88.6875 Q570.6719,88.6875 571.3125,88.8594 Q571.9688,89.0156 572.5156,89.375 Z " fill="#000000"/><text fill="#000000" font-family="sans-serif" font-size="14" lengthAdjust="spacing" textLength="132" x="590.25" y="99.2285">MotiveConnectModel</text><line style="stroke:#181818;stroke-width:0.5;" x1="509" x2="771" y1="109.5" y2="109.5"/><line style="stroke:#181818;stroke-width:0.5;" x1="509" x2="771" y1="117.5" y2="117.5"/><ellipse cx="519" cy="128.5" fill="#84BE84" rx="3" ry="3" style="stroke:#038048;stroke-width:1.0;"/><text fill="#000000" font-family="sans-serif" font-size="14" lengthAdjust="spacing" textLength="197" x="528" y="136.0332">«override» OnChanged() : void</text><ellipse cx="519" cy="146.1094" fill="#84BE84" rx="3" ry="3" style="stroke:#038048;stroke-width:1.0;"/><text fill="#000000" font-family="sans-serif" font-size="14" lengthAdjust="spacing" textLength="238" x="528" y="153.6426">«override» CreateUI() : VisualElement</text></g><!--MD5=[7e20e022571e30ec1001cf6eabd7f3e2]
class Model--><g id="elem_Model"><rect codeLine="1" fill="#F1F1F1" height="224.0938" id="Model" rx="2.5" ry="2.5" style="stroke:#181818;stroke-width:0.5;" width="250" x="198" y="7"/><ellipse cx="299.25" cy="23" fill="#A9DCDF" rx="11" ry="11" style="stroke:#181818;stroke-width:1.0;"/><path d="M301.4375,24.7656 L297.2969,24.7656 L296.875,25.7969 L297.2969,25.7969 Q297.9063,25.7969 298.1719,26.0313 Q298.4375,26.2656 298.4375,26.6563 Q298.4375,27.0313 298.1719,27.2656 Q297.9063,27.5 297.2969,27.5 L295,27.5 Q294.3906,27.5 294.1406,27.2656 Q293.875,27.0313 293.875,26.6406 Q293.875,26.2656 294.1563,26.0313 Q294.4219,25.7813 295.0469,25.7969 L297.7188,19.1406 L296.6094,19.1406 Q296,19.1406 295.7344,18.9063 Q295.4688,18.6719 295.4688,18.2813 Q295.4688,17.9063 295.7344,17.6719 Q296,17.4375 296.6094,17.4375 L300.2813,17.4375 L303.6719,25.7969 Q304.2656,25.7969 304.4531,25.9375 Q304.8438,26.2031 304.8438,26.6563 Q304.8438,27.0313 304.5781,27.2656 Q304.3281,27.5 303.7188,27.5 L301.4219,27.5 Q300.8125,27.5 300.5469,27.2656 Q300.2813,27.0313 300.2813,26.6406 Q300.2813,26.2656 300.5469,26.0313 Q300.8125,25.7969 301.4219,25.7969 L301.8438,25.7969 L301.4375,24.7656 Z M300.7188,23.0625 L299.3594,19.6875 L297.9844,23.0625 L300.7188,23.0625 Z " fill="#000000"/><text fill="#000000" font-family="sans-serif" font-size="14" font-style="italic" lengthAdjust="spacing" textLength="39" x="319.75" y="28.7285">Model</text><line style="stroke:#181818;stroke-width:0.5;" x1="199" x2="447" y1="39" y2="39"/><text fill="#000000" font-family="sans-serif" font-size="14" lengthAdjust="spacing" textLength="164" x="218" y="57.5332">shoudUpdate : bool = true</text><ellipse cx="209" cy="67.6094" fill="none" rx="3" ry="3" style="stroke:#038048;stroke-width:1.0;"/><text fill="#000000" font-family="sans-serif" font-size="14" lengthAdjust="spacing" textLength="154" x="218" y="75.1426">shouldDraw : bool = true</text><line style="stroke:#181818;stroke-width:0.5;" x1="199" x2="447" y1="82.2188" y2="82.2188"/><ellipse cx="209" cy="93.2188" fill="#84BE84" rx="3" ry="3" style="stroke:#038048;stroke-width:1.0;"/><text fill="#000000" font-family="sans-serif" font-size="14" lengthAdjust="spacing" textLength="136" x="218" y="100.752">«virtual» Start() : void</text><ellipse cx="209" cy="110.8281" fill="#84BE84" rx="3" ry="3" style="stroke:#038048;stroke-width:1.0;"/><text fill="#000000" font-family="sans-serif" font-size="14" lengthAdjust="spacing" textLength="224" x="218" y="118.3613">«virtual» CreateUI() : VisualElement</text><ellipse cx="209" cy="128.4375" fill="#84BE84" rx="3" ry="3" style="stroke:#038048;stroke-width:1.0;"/><text fill="#000000" font-family="sans-serif" font-size="14" lengthAdjust="spacing" textLength="183" x="218" y="135.9707">«virtual» OnChanged() : void</text><polygon fill="#FFFF44" points="209,141.0469,213,145.0469,209,149.0469,205,145.0469" style="stroke:#B38D22;stroke-width:1.0;"/><text fill="#000000" font-family="sans-serif" font-size="14" lengthAdjust="spacing" textLength="151" x="218" y="153.5801">«virtual» Update() : void</text><ellipse cx="209" cy="163.6563" fill="#84BE84" rx="3" ry="3" style="stroke:#038048;stroke-width:1.0;"/><text fill="#000000" font-family="sans-serif" font-size="14" lengthAdjust="spacing" textLength="180" x="218" y="171.1895">UpdateOnNextFrame() : void</text><ellipse cx="209" cy="181.2656" fill="#84BE84" rx="3" ry="3" style="stroke:#038048;stroke-width:1.0;"/><text fill="#000000" font-family="sans-serif" font-size="14" lengthAdjust="spacing" textLength="111" x="218" y="188.7988">OnEnable() : void</text><ellipse cx="209" cy="198.875" fill="#84BE84" rx="3" ry="3" style="stroke:#038048;stroke-width:1.0;"/><text fill="#000000" font-family="sans-serif" font-size="14" lengthAdjust="spacing" textLength="114" x="218" y="206.4082">OnDisable() : void</text><ellipse cx="209" cy="216.4844" fill="#84BE84" rx="3" ry="3" style="stroke:#038048;stroke-width:1.0;"/><text fill="#000000" font-family="sans-serif" font-size="14" lengthAdjust="spacing" textLength="118" x="218" y="224.0176">OnValidate() : void</text></g><!--MD5=[51540090ed7005cf61f81099c0b21f22]
class OptitrackStreamingClient--><g id="elem_OptitrackStreamingClient"><rect fill="#F1F1F1" height="48" id="OptitrackStreamingClient" rx="2.5" ry="2.5" style="stroke:#181818;stroke-width:0.5;" width="189" x="832" y="95"/><ellipse cx="847" cy="111" fill="#ADD1B2" rx="11" ry="11" style="stroke:#181818;stroke-width:1.0;"/><path d="M849.7656,106.875 Q849.9219,106.6563 850.1094,106.5469 Q850.2969,106.4375 850.5156,106.4375 Q850.8906,106.4375 851.125,106.7031 Q851.3594,106.9531 851.3594,107.5625 L851.3594,109.0156 Q851.3594,109.625 851.125,109.8906 Q850.8906,110.1563 850.5156,110.1563 Q850.1719,110.1563 849.9688,109.9531 Q849.7656,109.7656 849.6563,109.25 Q849.6094,108.8906 849.4219,108.7031 Q849.0938,108.3281 848.4844,108.1094 Q847.875,107.8906 847.25,107.8906 Q846.4844,107.8906 845.8438,108.2188 Q845.2188,108.5469 844.7188,109.2969 Q844.2344,110.0469 844.2344,111.0781 L844.2344,112.1719 Q844.2344,113.4063 845.125,114.2344 Q846.0156,115.0469 847.6094,115.0469 Q848.5469,115.0469 849.2031,114.7969 Q849.5938,114.6406 850.0156,114.2031 Q850.2813,113.9375 850.4219,113.8594 Q850.5781,113.7813 850.7813,113.7813 Q851.1094,113.7813 851.3594,114.0469 Q851.625,114.2969 851.625,114.6406 Q851.625,114.9844 851.2813,115.3906 Q850.7813,115.9688 849.9844,116.2969 Q848.9063,116.75 847.6094,116.75 Q846.0938,116.75 844.8906,116.125 Q843.9063,115.625 843.2188,114.5625 Q842.5313,113.4844 842.5313,112.2031 L842.5313,111.0469 Q842.5313,109.7188 843.1406,108.5781 Q843.7656,107.4219 844.8594,106.8125 Q845.9531,106.1875 847.1875,106.1875 Q847.9219,106.1875 848.5625,106.3594 Q849.2188,106.5156 849.7656,106.875 Z " fill="#000000"/><text fill="#000000" font-family="sans-serif" font-size="14" lengthAdjust="spacing" textLength="157" x="861" y="116.7285">OptitrackStreamingClient</text><line style="stroke:#181818;stroke-width:0.5;" x1="833" x2="1020" y1="127" y2="127"/><line style="stroke:#181818;stroke-width:0.5;" x1="833" x2="1020" y1="135" y2="135"/></g><!--MD5=[83b3cf3d23d77c6f1e1b5291a241bc2a]
class MonoBehaviour--><g id="elem_MonoBehaviour"><rect fill="#F1F1F1" height="48" id="MonoBehaviour" rx="2.5" ry="2.5" style="stroke:#181818;stroke-width:0.5;" width="131" x="7" y="95"/><ellipse cx="22" cy="111" fill="#ADD1B2" rx="11" ry="11" style="stroke:#181818;stroke-width:1.0;"/><path d="M24.7656,106.875 Q24.9219,106.6563 25.1094,106.5469 Q25.2969,106.4375 25.5156,106.4375 Q25.8906,106.4375 26.125,106.7031 Q26.3594,106.9531 26.3594,107.5625 L26.3594,109.0156 Q26.3594,109.625 26.125,109.8906 Q25.8906,110.1563 25.5156,110.1563 Q25.1719,110.1563 24.9688,109.9531 Q24.7656,109.7656 24.6563,109.25 Q24.6094,108.8906 24.4219,108.7031 Q24.0938,108.3281 23.4844,108.1094 Q22.875,107.8906 22.25,107.8906 Q21.4844,107.8906 20.8438,108.2188 Q20.2188,108.5469 19.7188,109.2969 Q19.2344,110.0469 19.2344,111.0781 L19.2344,112.1719 Q19.2344,113.4063 20.125,114.2344 Q21.0156,115.0469 22.6094,115.0469 Q23.5469,115.0469 24.2031,114.7969 Q24.5938,114.6406 25.0156,114.2031 Q25.2813,113.9375 25.4219,113.8594 Q25.5781,113.7813 25.7813,113.7813 Q26.1094,113.7813 26.3594,114.0469 Q26.625,114.2969 26.625,114.6406 Q26.625,114.9844 26.2813,115.3906 Q25.7813,115.9688 24.9844,116.2969 Q23.9063,116.75 22.6094,116.75 Q21.0938,116.75 19.8906,116.125 Q18.9063,115.625 18.2188,114.5625 Q17.5313,113.4844 17.5313,112.2031 L17.5313,111.0469 Q17.5313,109.7188 18.1406,108.5781 Q18.7656,107.4219 19.8594,106.8125 Q20.9531,106.1875 22.1875,106.1875 Q22.9219,106.1875 23.5625,106.3594 Q24.2188,106.5156 24.7656,106.875 Z " fill="#000000"/><text fill="#000000" font-family="sans-serif" font-size="14" lengthAdjust="spacing" textLength="99" x="36" y="116.7285">MonoBehaviour</text><line style="stroke:#181818;stroke-width:0.5;" x1="8" x2="137" y1="127" y2="127"/><line style="stroke:#181818;stroke-width:0.5;" x1="8" x2="137" y1="135" y2="135"/></g><!--MD5=[51f0590549e5092f7930a52ce366b739]
reverse link Model to MotiveConnectModel--><g id="link_Model_MotiveConnectModel"><path codeLine="5" d="M468.49,119 C481.6,119 494.83,119 507.81,119 " fill="none" id="Model-backto-MotiveConnectModel" style="stroke:#181818;stroke-width:1.0;"/><polygon fill="none" points="468.04,126,448.04,119,468.04,112,468.04,126" style="stroke:#181818;stroke-width:1.0;"/></g><!--MD5=[f496063c27fa974afd298b3614c90040]
link MotiveConnectModel to OptitrackStreamingClient--><g id="link_MotiveConnectModel_OptitrackStreamingClient"><path codeLine="6" d="M772.01,119 C790.25,119 808.73,119 826.26,119 " fill="none" id="MotiveConnectModel-to-OptitrackStreamingClient" style="stroke:#181818;stroke-width:1.0;"/><polygon fill="#181818" points="831.67,119,822.6815,114.9743,826.67,118.9857,822.6586,122.9743,831.67,119" style="stroke:#181818;stroke-width:1.0;"/><text fill="#000000" font-family="sans-serif" font-size="13" lengthAdjust="spacing" textLength="31" x="792.9124" y="133.07">client</text></g><!--MD5=[f54166a4bfd7691965a2a28e4010c83f]
reverse link MonoBehaviour to Model--><g id="link_MonoBehaviour_Model"><path codeLine="13" d="M158.3,119 C171.1,119 184.52,119 197.93,119 " fill="none" id="MonoBehaviour-backto-Model" style="stroke:#181818;stroke-width:1.0;"/><polygon fill="none" points="158.14,126,138.14,119,158.14,112,158.14,126" style="stroke:#181818;stroke-width:1.0;"/></g><!--MD5=[ee17f81de0a6b57f60826e0581e123dc]
@startuml
left to right direction
!include ..\..\..\out_puml\Scripts\Models\MotiveConnectModel.puml
!include ..\..\..\out_puml\Scripts\Models\Model.puml

@enduml

@startuml
left to right direction
class MotiveConnectModel {
    + <<override>> OnChanged() : void
    + <<override>> CreateUI() : VisualElement
}
Model <|- - MotiveConnectModel
MotiveConnectModel - -> "client" OptitrackStreamingClient
abstract class Model {
    shoudUpdate : bool = true
    + shouldDraw : bool = true
    + <<virtual>> Start() : void
    + <<virtual>> CreateUI() : VisualElement
    + <<virtual>> OnChanged() : void
    # <<virtual>> Update() : void
    + UpdateOnNextFrame() : void
    + OnEnable() : void
    + OnDisable() : void
    + OnValidate() : void
}
MonoBehaviour <|- - Model

@enduml

PlantUML version 1.2022.5(Sat Apr 30 20:55:52 AEST 2022)
(GPL source distribution)
Java Runtime: Java(TM) SE Runtime Environment
JVM: Java HotSpot(TM) 64-Bit Server VM
Default Encoding: Cp1252
Language: en
Country: AU
--></g></svg>