<?xml version="1.0" encoding="UTF-8" standalone="no"?><svg xmlns="http://www.w3.org/2000/svg" xmlns:xlink="http://www.w3.org/1999/xlink" contentStyleType="text/css" height="313px" preserveAspectRatio="none" style="width:333px;height:313px;background:#FFFFFF;" version="1.1" viewBox="0 0 333 313" width="333px" zoomAndPan="magnify"><defs/><g><!--MD5=[5e6b289f1b4ac0b2379b4092542ac984]
class AddRigidBody--><g id="elem_AddRigidBody"><rect codeLine="1" fill="#F1F1F1" height="83.2188" id="AddRigidBody" rx="2.5" ry="2.5" style="stroke:#181818;stroke-width:0.5;" width="319" x="7" y="115"/><ellipse cx="117.75" cy="131" fill="#ADD1B2" rx="11" ry="11" style="stroke:#181818;stroke-width:1.0;"/><path d="M120.5156,126.875 Q120.6719,126.6563 120.8594,126.5469 Q121.0469,126.4375 121.2656,126.4375 Q121.6406,126.4375 121.875,126.7031 Q122.1094,126.9531 122.1094,127.5625 L122.1094,129.0156 Q122.1094,129.625 121.875,129.8906 Q121.6406,130.1563 121.2656,130.1563 Q120.9219,130.1563 120.7188,129.9531 Q120.5156,129.7656 120.4063,129.25 Q120.3594,128.8906 120.1719,128.7031 Q119.8438,128.3281 119.2344,128.1094 Q118.625,127.8906 118,127.8906 Q117.2344,127.8906 116.5938,128.2188 Q115.9688,128.5469 115.4688,129.2969 Q114.9844,130.0469 114.9844,131.0781 L114.9844,132.1719 Q114.9844,133.4063 115.875,134.2344 Q116.7656,135.0469 118.3594,135.0469 Q119.2969,135.0469 119.9531,134.7969 Q120.3438,134.6406 120.7656,134.2031 Q121.0313,133.9375 121.1719,133.8594 Q121.3281,133.7813 121.5313,133.7813 Q121.8594,133.7813 122.1094,134.0469 Q122.375,134.2969 122.375,134.6406 Q122.375,134.9844 122.0313,135.3906 Q121.5313,135.9688 120.7344,136.2969 Q119.6563,136.75 118.3594,136.75 Q116.8438,136.75 115.6406,136.125 Q114.6563,135.625 113.9688,134.5625 Q113.2813,133.4844 113.2813,132.2031 L113.2813,131.0469 Q113.2813,129.7188 113.8906,128.5781 Q114.5156,127.4219 115.6094,126.8125 Q116.7031,126.1875 117.9375,126.1875 Q118.6719,126.1875 119.3125,126.3594 Q119.9688,126.5156 120.5156,126.875 Z " fill="#000000"/><text fill="#000000" font-family="sans-serif" font-size="14" lengthAdjust="spacing" textLength="89" x="138.25" y="136.7285">AddRigidBody</text><line style="stroke:#181818;stroke-width:0.5;" x1="8" x2="325" y1="147" y2="147"/><ellipse cx="18" cy="158" fill="none" rx="3" ry="3" style="stroke:#038048;stroke-width:1.0;"/><text fill="#000000" font-family="sans-serif" font-size="14" lengthAdjust="spacing" textLength="293" x="27" y="165.5332">«event» onRigidBodyAdded : RigidBodyAdded</text><line style="stroke:#181818;stroke-width:0.5;" x1="8" x2="325" y1="172.6094" y2="172.6094"/><ellipse cx="18" cy="183.6094" fill="#84BE84" rx="3" ry="3" style="stroke:#038048;stroke-width:1.0;"/><text fill="#000000" font-family="sans-serif" font-size="14" lengthAdjust="spacing" textLength="99" x="27" y="191.1426">AddRigidBody()</text></g><!--MD5=[e77834a0fda1b3f817ae7f2b19e4424d]
class VisualElement--><g id="elem_VisualElement"><rect fill="#F1F1F1" height="48" id="VisualElement" rx="2.5" ry="2.5" style="stroke:#181818;stroke-width:0.5;" width="121" x="106" y="7"/><ellipse cx="121" cy="23" fill="#ADD1B2" rx="11" ry="11" style="stroke:#181818;stroke-width:1.0;"/><path d="M123.7656,18.875 Q123.9219,18.6563 124.1094,18.5469 Q124.2969,18.4375 124.5156,18.4375 Q124.8906,18.4375 125.125,18.7031 Q125.3594,18.9531 125.3594,19.5625 L125.3594,21.0156 Q125.3594,21.625 125.125,21.8906 Q124.8906,22.1563 124.5156,22.1563 Q124.1719,22.1563 123.9688,21.9531 Q123.7656,21.7656 123.6563,21.25 Q123.6094,20.8906 123.4219,20.7031 Q123.0938,20.3281 122.4844,20.1094 Q121.875,19.8906 121.25,19.8906 Q120.4844,19.8906 119.8438,20.2188 Q119.2188,20.5469 118.7188,21.2969 Q118.2344,22.0469 118.2344,23.0781 L118.2344,24.1719 Q118.2344,25.4063 119.125,26.2344 Q120.0156,27.0469 121.6094,27.0469 Q122.5469,27.0469 123.2031,26.7969 Q123.5938,26.6406 124.0156,26.2031 Q124.2813,25.9375 124.4219,25.8594 Q124.5781,25.7813 124.7813,25.7813 Q125.1094,25.7813 125.3594,26.0469 Q125.625,26.2969 125.625,26.6406 Q125.625,26.9844 125.2813,27.3906 Q124.7813,27.9688 123.9844,28.2969 Q122.9063,28.75 121.6094,28.75 Q120.0938,28.75 118.8906,28.125 Q117.9063,27.625 117.2188,26.5625 Q116.5313,25.4844 116.5313,24.2031 L116.5313,23.0469 Q116.5313,21.7188 117.1406,20.5781 Q117.7656,19.4219 118.8594,18.8125 Q119.9531,18.1875 121.1875,18.1875 Q121.9219,18.1875 122.5625,18.3594 Q123.2188,18.5156 123.7656,18.875 Z " fill="#000000"/><text fill="#000000" font-family="sans-serif" font-size="14" lengthAdjust="spacing" textLength="89" x="135" y="28.7285">VisualElement</text><line style="stroke:#181818;stroke-width:0.5;" x1="107" x2="226" y1="39" y2="39"/><line style="stroke:#181818;stroke-width:0.5;" x1="107" x2="226" y1="47" y2="47"/></g><!--MD5=[90ba54f54370e77ef24813dec6818fa3]
class Button--><g id="elem_Button"><rect fill="#F1F1F1" height="48" id="Button" rx="2.5" ry="2.5" style="stroke:#181818;stroke-width:0.5;" width="73" x="130" y="258"/><ellipse cx="145" cy="274" fill="#ADD1B2" rx="11" ry="11" style="stroke:#181818;stroke-width:1.0;"/><path d="M147.7656,269.875 Q147.9219,269.6563 148.1094,269.5469 Q148.2969,269.4375 148.5156,269.4375 Q148.8906,269.4375 149.125,269.7031 Q149.3594,269.9531 149.3594,270.5625 L149.3594,272.0156 Q149.3594,272.625 149.125,272.8906 Q148.8906,273.1563 148.5156,273.1563 Q148.1719,273.1563 147.9688,272.9531 Q147.7656,272.7656 147.6563,272.25 Q147.6094,271.8906 147.4219,271.7031 Q147.0938,271.3281 146.4844,271.1094 Q145.875,270.8906 145.25,270.8906 Q144.4844,270.8906 143.8438,271.2188 Q143.2188,271.5469 142.7188,272.2969 Q142.2344,273.0469 142.2344,274.0781 L142.2344,275.1719 Q142.2344,276.4063 143.125,277.2344 Q144.0156,278.0469 145.6094,278.0469 Q146.5469,278.0469 147.2031,277.7969 Q147.5938,277.6406 148.0156,277.2031 Q148.2813,276.9375 148.4219,276.8594 Q148.5781,276.7813 148.7813,276.7813 Q149.1094,276.7813 149.3594,277.0469 Q149.625,277.2969 149.625,277.6406 Q149.625,277.9844 149.2813,278.3906 Q148.7813,278.9688 147.9844,279.2969 Q146.9063,279.75 145.6094,279.75 Q144.0938,279.75 142.8906,279.125 Q141.9063,278.625 141.2188,277.5625 Q140.5313,276.4844 140.5313,275.2031 L140.5313,274.0469 Q140.5313,272.7188 141.1406,271.5781 Q141.7656,270.4219 142.8594,269.8125 Q143.9531,269.1875 145.1875,269.1875 Q145.9219,269.1875 146.5625,269.3594 Q147.2188,269.5156 147.7656,269.875 Z " fill="#000000"/><text fill="#000000" font-family="sans-serif" font-size="14" lengthAdjust="spacing" textLength="41" x="159" y="279.7285">Button</text><line style="stroke:#181818;stroke-width:0.5;" x1="131" x2="202" y1="290" y2="290"/><line style="stroke:#181818;stroke-width:0.5;" x1="131" x2="202" y1="298" y2="298"/></g><!--MD5=[3ee7d61df8b688b0c170eb7187a3f3f7]
reverse link VisualElement to AddRigidBody--><g id="link_VisualElement_AddRigidBody"><path codeLine="5" d="M166.5,75.31 C166.5,88.16 166.5,102.19 166.5,114.87 " fill="none" id="VisualElement-backto-AddRigidBody" style="stroke:#181818;stroke-width:1.0;"/><polygon fill="none" points="159.5,75.23,166.5,55.23,173.5,75.23,159.5,75.23" style="stroke:#181818;stroke-width:1.0;"/></g><!--MD5=[769db3500722763f251f1b1d496c8c24]
link AddRigidBody to Button--><g id="link_AddRigidBody_Button"><path codeLine="6" d="M166.5,198.28 C166.5,216.08 166.5,236.52 166.5,252.63 " fill="none" id="AddRigidBody-to-Button" style="stroke:#181818;stroke-width:1.0;"/><polygon fill="#181818" points="166.5,257.91,170.5,248.91,166.5,252.91,162.5,248.91,166.5,257.91" style="stroke:#181818;stroke-width:1.0;"/><text fill="#000000" font-family="sans-serif" font-size="13" lengthAdjust="spacing" textLength="56" x="103.325" y="247.2271">myButton</text></g><!--MD5=[62836191094777d518b7f1c58f147684]
@startuml
!include ..\..\..\out_puml\Scripts\Views\AddRigidBody.puml

@enduml

@startuml
class AddRigidBody {
    +  <<event>> onRigidBodyAdded : RigidBodyAdded 
    + AddRigidBody()
}
VisualElement <|- - AddRigidBody
AddRigidBody - -> "myButton" Button

@enduml

PlantUML version 1.2022.5(Sat Apr 30 20:55:52 AEST 2022)
(GPL source distribution)
Java Runtime: Java(TM) SE Runtime Environment
JVM: Java HotSpot(TM) 64-Bit Server VM
Default Encoding: Cp1252
Language: en
Country: AU
--></g></svg>