<?xml version="1.0" encoding="UTF-8" standalone="no"?><svg xmlns="http://www.w3.org/2000/svg" xmlns:xlink="http://www.w3.org/1999/xlink" contentStyleType="text/css" height="296px" preserveAspectRatio="none" style="width:436px;height:296px;background:#FFFFFF;" version="1.1" viewBox="0 0 436 296" width="436px" zoomAndPan="magnify"><defs/><g><!--MD5=[c47fe508c3e44c42b08cebb5c8d878f2]
class CameraView--><g id="elem_CameraView"><rect codeLine="1" fill="#F1F1F1" height="65.6094" id="CameraView" rx="2.5" ry="2.5" style="stroke:#181818;stroke-width:0.5;" width="234" x="110.5" y="115"/><ellipse cx="183.75" cy="131" fill="#ADD1B2" rx="11" ry="11" style="stroke:#181818;stroke-width:1.0;"/><path d="M186.5156,126.875 Q186.6719,126.6563 186.8594,126.5469 Q187.0469,126.4375 187.2656,126.4375 Q187.6406,126.4375 187.875,126.7031 Q188.1094,126.9531 188.1094,127.5625 L188.1094,129.0156 Q188.1094,129.625 187.875,129.8906 Q187.6406,130.1563 187.2656,130.1563 Q186.9219,130.1563 186.7188,129.9531 Q186.5156,129.7656 186.4063,129.25 Q186.3594,128.8906 186.1719,128.7031 Q185.8438,128.3281 185.2344,128.1094 Q184.625,127.8906 184,127.8906 Q183.2344,127.8906 182.5938,128.2188 Q181.9688,128.5469 181.4688,129.2969 Q180.9844,130.0469 180.9844,131.0781 L180.9844,132.1719 Q180.9844,133.4063 181.875,134.2344 Q182.7656,135.0469 184.3594,135.0469 Q185.2969,135.0469 185.9531,134.7969 Q186.3438,134.6406 186.7656,134.2031 Q187.0313,133.9375 187.1719,133.8594 Q187.3281,133.7813 187.5313,133.7813 Q187.8594,133.7813 188.1094,134.0469 Q188.375,134.2969 188.375,134.6406 Q188.375,134.9844 188.0313,135.3906 Q187.5313,135.9688 186.7344,136.2969 Q185.6563,136.75 184.3594,136.75 Q182.8438,136.75 181.6406,136.125 Q180.6563,135.625 179.9688,134.5625 Q179.2813,133.4844 179.2813,132.2031 L179.2813,131.0469 Q179.2813,129.7188 179.8906,128.5781 Q180.5156,127.4219 181.6094,126.8125 Q182.7031,126.1875 183.9375,126.1875 Q184.6719,126.1875 185.3125,126.3594 Q185.9688,126.5156 186.5156,126.875 Z " fill="#000000"/><text fill="#000000" font-family="sans-serif" font-size="14" lengthAdjust="spacing" textLength="79" x="204.25" y="136.7285">CameraView</text><line style="stroke:#181818;stroke-width:0.5;" x1="111.5" x2="343.5" y1="147" y2="147"/><line style="stroke:#181818;stroke-width:0.5;" x1="111.5" x2="343.5" y1="155" y2="155"/><ellipse cx="121.5" cy="166" fill="#84BE84" rx="3" ry="3" style="stroke:#038048;stroke-width:1.0;"/><text fill="#000000" font-family="sans-serif" font-size="14" lengthAdjust="spacing" textLength="208" x="130.5" y="173.5332">CameraView(stages:List&lt;string&gt;)</text></g><!--MD5=[e77834a0fda1b3f817ae7f2b19e4424d]
class VisualElement--><g id="elem_VisualElement"><rect fill="#F1F1F1" height="48" id="VisualElement" rx="2.5" ry="2.5" style="stroke:#181818;stroke-width:0.5;" width="121" x="167" y="7"/><ellipse cx="182" cy="23" fill="#ADD1B2" rx="11" ry="11" style="stroke:#181818;stroke-width:1.0;"/><path d="M184.7656,18.875 Q184.9219,18.6563 185.1094,18.5469 Q185.2969,18.4375 185.5156,18.4375 Q185.8906,18.4375 186.125,18.7031 Q186.3594,18.9531 186.3594,19.5625 L186.3594,21.0156 Q186.3594,21.625 186.125,21.8906 Q185.8906,22.1563 185.5156,22.1563 Q185.1719,22.1563 184.9688,21.9531 Q184.7656,21.7656 184.6563,21.25 Q184.6094,20.8906 184.4219,20.7031 Q184.0938,20.3281 183.4844,20.1094 Q182.875,19.8906 182.25,19.8906 Q181.4844,19.8906 180.8438,20.2188 Q180.2188,20.5469 179.7188,21.2969 Q179.2344,22.0469 179.2344,23.0781 L179.2344,24.1719 Q179.2344,25.4063 180.125,26.2344 Q181.0156,27.0469 182.6094,27.0469 Q183.5469,27.0469 184.2031,26.7969 Q184.5938,26.6406 185.0156,26.2031 Q185.2813,25.9375 185.4219,25.8594 Q185.5781,25.7813 185.7813,25.7813 Q186.1094,25.7813 186.3594,26.0469 Q186.625,26.2969 186.625,26.6406 Q186.625,26.9844 186.2813,27.3906 Q185.7813,27.9688 184.9844,28.2969 Q183.9063,28.75 182.6094,28.75 Q181.0938,28.75 179.8906,28.125 Q178.9063,27.625 178.2188,26.5625 Q177.5313,25.4844 177.5313,24.2031 L177.5313,23.0469 Q177.5313,21.7188 178.1406,20.5781 Q178.7656,19.4219 179.8594,18.8125 Q180.9531,18.1875 182.1875,18.1875 Q182.9219,18.1875 183.5625,18.3594 Q184.2188,18.5156 184.7656,18.875 Z " fill="#000000"/><text fill="#000000" font-family="sans-serif" font-size="14" lengthAdjust="spacing" textLength="89" x="196" y="28.7285">VisualElement</text><line style="stroke:#181818;stroke-width:0.5;" x1="168" x2="287" y1="39" y2="39"/><line style="stroke:#181818;stroke-width:0.5;" x1="168" x2="287" y1="47" y2="47"/></g><!--MD5=[298883191722f47d612a790005ce591d]
class ComponentHeader--><g id="elem_ComponentHeader"><rect fill="#F1F1F1" height="48" id="ComponentHeader" rx="2.5" ry="2.5" style="stroke:#181818;stroke-width:0.5;" width="151" x="7" y="241"/><ellipse cx="22" cy="257" fill="#ADD1B2" rx="11" ry="11" style="stroke:#181818;stroke-width:1.0;"/><path d="M24.7656,252.875 Q24.9219,252.6563 25.1094,252.5469 Q25.2969,252.4375 25.5156,252.4375 Q25.8906,252.4375 26.125,252.7031 Q26.3594,252.9531 26.3594,253.5625 L26.3594,255.0156 Q26.3594,255.625 26.125,255.8906 Q25.8906,256.1563 25.5156,256.1563 Q25.1719,256.1563 24.9688,255.9531 Q24.7656,255.7656 24.6563,255.25 Q24.6094,254.8906 24.4219,254.7031 Q24.0938,254.3281 23.4844,254.1094 Q22.875,253.8906 22.25,253.8906 Q21.4844,253.8906 20.8438,254.2188 Q20.2188,254.5469 19.7188,255.2969 Q19.2344,256.0469 19.2344,257.0781 L19.2344,258.1719 Q19.2344,259.4063 20.125,260.2344 Q21.0156,261.0469 22.6094,261.0469 Q23.5469,261.0469 24.2031,260.7969 Q24.5938,260.6406 25.0156,260.2031 Q25.2813,259.9375 25.4219,259.8594 Q25.5781,259.7813 25.7813,259.7813 Q26.1094,259.7813 26.3594,260.0469 Q26.625,260.2969 26.625,260.6406 Q26.625,260.9844 26.2813,261.3906 Q25.7813,261.9688 24.9844,262.2969 Q23.9063,262.75 22.6094,262.75 Q21.0938,262.75 19.8906,262.125 Q18.9063,261.625 18.2188,260.5625 Q17.5313,259.4844 17.5313,258.2031 L17.5313,257.0469 Q17.5313,255.7188 18.1406,254.5781 Q18.7656,253.4219 19.8594,252.8125 Q20.9531,252.1875 22.1875,252.1875 Q22.9219,252.1875 23.5625,252.3594 Q24.2188,252.5156 24.7656,252.875 Z " fill="#000000"/><text fill="#000000" font-family="sans-serif" font-size="14" lengthAdjust="spacing" textLength="119" x="36" y="262.7285">ComponentHeader</text><line style="stroke:#181818;stroke-width:0.5;" x1="8" x2="157" y1="273" y2="273"/><line style="stroke:#181818;stroke-width:0.5;" x1="8" x2="157" y1="281" y2="281"/></g><!--MD5=[5b63724585581d1714c92cb3ec182af9]
class Slider--><g id="elem_Slider"><rect fill="#F1F1F1" height="48" id="Slider" rx="2.5" ry="2.5" style="stroke:#181818;stroke-width:0.5;" width="68" x="193.5" y="241"/><ellipse cx="208.5" cy="257" fill="#ADD1B2" rx="11" ry="11" style="stroke:#181818;stroke-width:1.0;"/><path d="M211.2656,252.875 Q211.4219,252.6563 211.6094,252.5469 Q211.7969,252.4375 212.0156,252.4375 Q212.3906,252.4375 212.625,252.7031 Q212.8594,252.9531 212.8594,253.5625 L212.8594,255.0156 Q212.8594,255.625 212.625,255.8906 Q212.3906,256.1563 212.0156,256.1563 Q211.6719,256.1563 211.4688,255.9531 Q211.2656,255.7656 211.1563,255.25 Q211.1094,254.8906 210.9219,254.7031 Q210.5938,254.3281 209.9844,254.1094 Q209.375,253.8906 208.75,253.8906 Q207.9844,253.8906 207.3438,254.2188 Q206.7188,254.5469 206.2188,255.2969 Q205.7344,256.0469 205.7344,257.0781 L205.7344,258.1719 Q205.7344,259.4063 206.625,260.2344 Q207.5156,261.0469 209.1094,261.0469 Q210.0469,261.0469 210.7031,260.7969 Q211.0938,260.6406 211.5156,260.2031 Q211.7813,259.9375 211.9219,259.8594 Q212.0781,259.7813 212.2813,259.7813 Q212.6094,259.7813 212.8594,260.0469 Q213.125,260.2969 213.125,260.6406 Q213.125,260.9844 212.7813,261.3906 Q212.2813,261.9688 211.4844,262.2969 Q210.4063,262.75 209.1094,262.75 Q207.5938,262.75 206.3906,262.125 Q205.4063,261.625 204.7188,260.5625 Q204.0313,259.4844 204.0313,258.2031 L204.0313,257.0469 Q204.0313,255.7188 204.6406,254.5781 Q205.2656,253.4219 206.3594,252.8125 Q207.4531,252.1875 208.6875,252.1875 Q209.4219,252.1875 210.0625,252.3594 Q210.7188,252.5156 211.2656,252.875 Z " fill="#000000"/><text fill="#000000" font-family="sans-serif" font-size="14" lengthAdjust="spacing" textLength="36" x="222.5" y="262.7285">Slider</text><line style="stroke:#181818;stroke-width:0.5;" x1="194.5" x2="260.5" y1="273" y2="273"/><line style="stroke:#181818;stroke-width:0.5;" x1="194.5" x2="260.5" y1="281" y2="281"/></g><!--MD5=[e9b5ee0446a42629a7416d22a027c116]
class DropdownField--><g id="elem_DropdownField"><rect fill="#F1F1F1" height="48" id="DropdownField" rx="2.5" ry="2.5" style="stroke:#181818;stroke-width:0.5;" width="127" x="297" y="241"/><ellipse cx="312" cy="257" fill="#ADD1B2" rx="11" ry="11" style="stroke:#181818;stroke-width:1.0;"/><path d="M314.7656,252.875 Q314.9219,252.6563 315.1094,252.5469 Q315.2969,252.4375 315.5156,252.4375 Q315.8906,252.4375 316.125,252.7031 Q316.3594,252.9531 316.3594,253.5625 L316.3594,255.0156 Q316.3594,255.625 316.125,255.8906 Q315.8906,256.1563 315.5156,256.1563 Q315.1719,256.1563 314.9688,255.9531 Q314.7656,255.7656 314.6563,255.25 Q314.6094,254.8906 314.4219,254.7031 Q314.0938,254.3281 313.4844,254.1094 Q312.875,253.8906 312.25,253.8906 Q311.4844,253.8906 310.8438,254.2188 Q310.2188,254.5469 309.7188,255.2969 Q309.2344,256.0469 309.2344,257.0781 L309.2344,258.1719 Q309.2344,259.4063 310.125,260.2344 Q311.0156,261.0469 312.6094,261.0469 Q313.5469,261.0469 314.2031,260.7969 Q314.5938,260.6406 315.0156,260.2031 Q315.2813,259.9375 315.4219,259.8594 Q315.5781,259.7813 315.7813,259.7813 Q316.1094,259.7813 316.3594,260.0469 Q316.625,260.2969 316.625,260.6406 Q316.625,260.9844 316.2813,261.3906 Q315.7813,261.9688 314.9844,262.2969 Q313.9063,262.75 312.6094,262.75 Q311.0938,262.75 309.8906,262.125 Q308.9063,261.625 308.2188,260.5625 Q307.5313,259.4844 307.5313,258.2031 L307.5313,257.0469 Q307.5313,255.7188 308.1406,254.5781 Q308.7656,253.4219 309.8594,252.8125 Q310.9531,252.1875 312.1875,252.1875 Q312.9219,252.1875 313.5625,252.3594 Q314.2188,252.5156 314.7656,252.875 Z " fill="#000000"/><text fill="#000000" font-family="sans-serif" font-size="14" lengthAdjust="spacing" textLength="95" x="326" y="262.7285">DropdownField</text><line style="stroke:#181818;stroke-width:0.5;" x1="298" x2="423" y1="273" y2="273"/><line style="stroke:#181818;stroke-width:0.5;" x1="298" x2="423" y1="281" y2="281"/></g><!--MD5=[8d415156aaad1aef80c801963a08540d]
reverse link VisualElement to CameraView--><g id="link_VisualElement_CameraView"><path codeLine="4" d="M227.5,75.62 C227.5,88.56 227.5,102.51 227.5,114.61 " fill="none" id="VisualElement-backto-CameraView" style="stroke:#181818;stroke-width:1.0;"/><polygon fill="none" points="220.5,75.27,227.5,55.27,234.5,75.27,220.5,75.27" style="stroke:#181818;stroke-width:1.0;"/></g><!--MD5=[3e8d6e00bce917c2298ec7490bfb5d56]
link CameraView to ComponentHeader--><g id="link_CameraView_ComponentHeader"><path codeLine="5" d="M187.11,181.03 C164.64,198.85 137.02,220.76 115.8,237.59 " fill="none" id="CameraView-to-ComponentHeader" style="stroke:#181818;stroke-width:1.0;"/><polygon fill="#181818" points="111.64,240.89,121.1733,238.4167,115.5527,237.777,116.1924,232.1564,111.64,240.89" style="stroke:#181818;stroke-width:1.0;"/><text fill="#000000" font-family="sans-serif" font-size="13" lengthAdjust="spacing" textLength="39" x="75.1103" y="230.202">header</text></g><!--MD5=[c199a6d0c43f1fba52fa5db52aacbf7a]
link CameraView to Slider--><g id="link_CameraView_Slider"><path codeLine="6" d="M215.93,181.03 C214.22,198.26 214.37,219.31 216.36,235.89 " fill="none" id="CameraView-to-Slider" style="stroke:#181818;stroke-width:1.0;"/><polygon fill="#181818" points="217.04,240.89,219.7922,231.4335,216.367,235.9355,211.865,232.5103,217.04,240.89" style="stroke:#181818;stroke-width:1.0;"/><text fill="#000000" font-family="sans-serif" font-size="13" lengthAdjust="spacing" textLength="54" x="157.8945" y="229.9559">xPosition</text></g><!--MD5=[c199a6d0c43f1fba52fa5db52aacbf7a]
link CameraView to Slider--><g id="link_CameraView_Slider"><path codeLine="7" d="M239.75,181.03 C241.56,198.26 241.41,219.31 239.29,235.89 " fill="none" id="CameraView-to-Slider-1" style="stroke:#181818;stroke-width:1.0;"/><polygon fill="#181818" points="238.57,240.89,243.8127,232.5525,239.2831,235.9411,235.8945,231.4115,238.57,240.89" style="stroke:#181818;stroke-width:1.0;"/><text fill="#000000" font-family="sans-serif" font-size="13" lengthAdjust="spacing" textLength="54" x="248.1924" y="230.1393">yPosition</text></g><!--MD5=[08db5f52b71597f9f294e206bad6aa05]
link CameraView to DropdownField--><g id="link_CameraView_DropdownField"><path codeLine="8" d="M264.55,181.03 C285.16,198.85 310.49,220.76 329.96,237.59 " fill="none" id="CameraView-to-DropdownField" style="stroke:#181818;stroke-width:1.0;"/><polygon fill="#181818" points="333.77,240.89,329.5757,231.9789,329.9868,237.6208,324.345,238.0319,333.77,240.89" style="stroke:#181818;stroke-width:1.0;"/><text fill="#000000" font-family="sans-serif" font-size="13" lengthAdjust="spacing" textLength="91" x="338.5798" y="230.202">stageDropDown</text></g><!--MD5=[d4812d628ea8998cbfb04b882674467d]
@startuml
!include ..\..\..\out_puml\Scripts\Views\CameraView.puml
@enduml

@startuml
class CameraView {
    + CameraView(stages:List<string>)
}
VisualElement <|- - CameraView
CameraView - -> "header" ComponentHeader
CameraView - -> "xPosition" Slider
CameraView - -> "yPosition" Slider
CameraView - -> "stageDropDown" DropdownField
@enduml

PlantUML version 1.2022.5(Sat Apr 30 20:55:52 AEST 2022)
(GPL source distribution)
Java Runtime: Java(TM) SE Runtime Environment
JVM: Java HotSpot(TM) 64-Bit Server VM
Default Encoding: Cp1252
Language: en
Country: AU
--></g></svg>