<?xml version="1.0" encoding="UTF-8" standalone="no"?><svg xmlns="http://www.w3.org/2000/svg" xmlns:xlink="http://www.w3.org/1999/xlink" contentStyleType="text/css" height="337px" preserveAspectRatio="none" style="width:1332px;height:337px;background:#FFFFFF;" version="1.1" viewBox="0 0 1332 337" width="1332px" zoomAndPan="magnify"><defs/><g><!--MD5=[d6285e83cd45f5470235695da7fd13a2]
class CameraModel--><g id="elem_CameraModel"><rect codeLine="1" fill="#F1F1F1" height="153.6563" id="CameraModel" rx="2.5" ry="2.5" style="stroke:#181818;stroke-width:0.5;" width="264" x="510" y="141"/><ellipse cx="593.75" cy="157" fill="#ADD1B2" rx="11" ry="11" style="stroke:#181818;stroke-width:1.0;"/><path d="M596.5156,152.875 Q596.6719,152.6563 596.8594,152.5469 Q597.0469,152.4375 597.2656,152.4375 Q597.6406,152.4375 597.875,152.7031 Q598.1094,152.9531 598.1094,153.5625 L598.1094,155.0156 Q598.1094,155.625 597.875,155.8906 Q597.6406,156.1563 597.2656,156.1563 Q596.9219,156.1563 596.7188,155.9531 Q596.5156,155.7656 596.4063,155.25 Q596.3594,154.8906 596.1719,154.7031 Q595.8438,154.3281 595.2344,154.1094 Q594.625,153.8906 594,153.8906 Q593.2344,153.8906 592.5938,154.2188 Q591.9688,154.5469 591.4688,155.2969 Q590.9844,156.0469 590.9844,157.0781 L590.9844,158.1719 Q590.9844,159.4063 591.875,160.2344 Q592.7656,161.0469 594.3594,161.0469 Q595.2969,161.0469 595.9531,160.7969 Q596.3438,160.6406 596.7656,160.2031 Q597.0313,159.9375 597.1719,159.8594 Q597.3281,159.7813 597.5313,159.7813 Q597.8594,159.7813 598.1094,160.0469 Q598.375,160.2969 598.375,160.6406 Q598.375,160.9844 598.0313,161.3906 Q597.5313,161.9688 596.7344,162.2969 Q595.6563,162.75 594.3594,162.75 Q592.8438,162.75 591.6406,162.125 Q590.6563,161.625 589.9688,160.5625 Q589.2813,159.4844 589.2813,158.2031 L589.2813,157.0469 Q589.2813,155.7188 589.8906,154.5781 Q590.5156,153.4219 591.6094,152.8125 Q592.7031,152.1875 593.9375,152.1875 Q594.6719,152.1875 595.3125,152.3594 Q595.9688,152.5156 596.5156,152.875 Z " fill="#000000"/><text fill="#000000" font-family="sans-serif" font-size="14" lengthAdjust="spacing" textLength="88" x="614.25" y="162.7285">CameraModel</text><line style="stroke:#181818;stroke-width:0.5;" x1="511" x2="773" y1="173" y2="173"/><ellipse cx="521" cy="184" fill="none" rx="3" ry="3" style="stroke:#038048;stroke-width:1.0;"/><text fill="#000000" font-family="sans-serif" font-size="14" lengthAdjust="spacing" textLength="119" x="530" y="191.5332">xPosition : float = 0</text><ellipse cx="521" cy="201.6094" fill="none" rx="3" ry="3" style="stroke:#038048;stroke-width:1.0;"/><text fill="#000000" font-family="sans-serif" font-size="14" lengthAdjust="spacing" textLength="120" x="530" y="209.1426">yPosition : float = 2</text><ellipse cx="521" cy="219.2188" fill="none" rx="3" ry="3" style="stroke:#038048;stroke-width:1.0;"/><text fill="#000000" font-family="sans-serif" font-size="14" lengthAdjust="spacing" textLength="160" x="530" y="226.752">stage : string = "Forward"</text><line style="stroke:#181818;stroke-width:0.5;" x1="511" x2="773" y1="233.8281" y2="233.8281"/><ellipse cx="521" cy="244.8281" fill="#84BE84" rx="3" ry="3" style="stroke:#038048;stroke-width:1.0;"/><text fill="#000000" font-family="sans-serif" font-size="14" lengthAdjust="spacing" textLength="197" x="530" y="252.3613">«override» OnChanged() : void</text><ellipse cx="521" cy="262.4375" fill="#84BE84" rx="3" ry="3" style="stroke:#038048;stroke-width:1.0;"/><text fill="#000000" font-family="sans-serif" font-size="14" lengthAdjust="spacing" textLength="150" x="530" y="269.9707">«override» Start() : void</text><ellipse cx="521" cy="280.0469" fill="#84BE84" rx="3" ry="3" style="stroke:#038048;stroke-width:1.0;"/><text fill="#000000" font-family="sans-serif" font-size="14" lengthAdjust="spacing" textLength="238" x="530" y="287.5801">«override» CreateUI() : VisualElement</text></g><!--MD5=[7e20e022571e30ec1001cf6eabd7f3e2]
class Model--><g id="elem_Model"><rect codeLine="1" fill="#F1F1F1" height="224.0938" id="Model" rx="2.5" ry="2.5" style="stroke:#181818;stroke-width:0.5;" width="250" x="199" y="106"/><ellipse cx="300.25" cy="122" fill="#A9DCDF" rx="11" ry="11" style="stroke:#181818;stroke-width:1.0;"/><path d="M302.4375,123.7656 L298.2969,123.7656 L297.875,124.7969 L298.2969,124.7969 Q298.9063,124.7969 299.1719,125.0313 Q299.4375,125.2656 299.4375,125.6563 Q299.4375,126.0313 299.1719,126.2656 Q298.9063,126.5 298.2969,126.5 L296,126.5 Q295.3906,126.5 295.1406,126.2656 Q294.875,126.0313 294.875,125.6406 Q294.875,125.2656 295.1563,125.0313 Q295.4219,124.7813 296.0469,124.7969 L298.7188,118.1406 L297.6094,118.1406 Q297,118.1406 296.7344,117.9063 Q296.4688,117.6719 296.4688,117.2813 Q296.4688,116.9063 296.7344,116.6719 Q297,116.4375 297.6094,116.4375 L301.2813,116.4375 L304.6719,124.7969 Q305.2656,124.7969 305.4531,124.9375 Q305.8438,125.2031 305.8438,125.6563 Q305.8438,126.0313 305.5781,126.2656 Q305.3281,126.5 304.7188,126.5 L302.4219,126.5 Q301.8125,126.5 301.5469,126.2656 Q301.2813,126.0313 301.2813,125.6406 Q301.2813,125.2656 301.5469,125.0313 Q301.8125,124.7969 302.4219,124.7969 L302.8438,124.7969 L302.4375,123.7656 Z M301.7188,122.0625 L300.3594,118.6875 L298.9844,122.0625 L301.7188,122.0625 Z " fill="#000000"/><text fill="#000000" font-family="sans-serif" font-size="14" font-style="italic" lengthAdjust="spacing" textLength="39" x="320.75" y="127.7285">Model</text><line style="stroke:#181818;stroke-width:0.5;" x1="200" x2="448" y1="138" y2="138"/><text fill="#000000" font-family="sans-serif" font-size="14" lengthAdjust="spacing" textLength="164" x="219" y="156.5332">shoudUpdate : bool = true</text><ellipse cx="210" cy="166.6094" fill="none" rx="3" ry="3" style="stroke:#038048;stroke-width:1.0;"/><text fill="#000000" font-family="sans-serif" font-size="14" lengthAdjust="spacing" textLength="154" x="219" y="174.1426">shouldDraw : bool = true</text><line style="stroke:#181818;stroke-width:0.5;" x1="200" x2="448" y1="181.2188" y2="181.2188"/><ellipse cx="210" cy="192.2188" fill="#84BE84" rx="3" ry="3" style="stroke:#038048;stroke-width:1.0;"/><text fill="#000000" font-family="sans-serif" font-size="14" lengthAdjust="spacing" textLength="136" x="219" y="199.752">«virtual» Start() : void</text><ellipse cx="210" cy="209.8281" fill="#84BE84" rx="3" ry="3" style="stroke:#038048;stroke-width:1.0;"/><text fill="#000000" font-family="sans-serif" font-size="14" lengthAdjust="spacing" textLength="224" x="219" y="217.3613">«virtual» CreateUI() : VisualElement</text><ellipse cx="210" cy="227.4375" fill="#84BE84" rx="3" ry="3" style="stroke:#038048;stroke-width:1.0;"/><text fill="#000000" font-family="sans-serif" font-size="14" lengthAdjust="spacing" textLength="183" x="219" y="234.9707">«virtual» OnChanged() : void</text><polygon fill="#FFFF44" points="210,240.0469,214,244.0469,210,248.0469,206,244.0469" style="stroke:#B38D22;stroke-width:1.0;"/><text fill="#000000" font-family="sans-serif" font-size="14" lengthAdjust="spacing" textLength="151" x="219" y="252.5801">«virtual» Update() : void</text><ellipse cx="210" cy="262.6563" fill="#84BE84" rx="3" ry="3" style="stroke:#038048;stroke-width:1.0;"/><text fill="#000000" font-family="sans-serif" font-size="14" lengthAdjust="spacing" textLength="180" x="219" y="270.1895">UpdateOnNextFrame() : void</text><ellipse cx="210" cy="280.2656" fill="#84BE84" rx="3" ry="3" style="stroke:#038048;stroke-width:1.0;"/><text fill="#000000" font-family="sans-serif" font-size="14" lengthAdjust="spacing" textLength="111" x="219" y="287.7988">OnEnable() : void</text><ellipse cx="210" cy="297.875" fill="#84BE84" rx="3" ry="3" style="stroke:#038048;stroke-width:1.0;"/><text fill="#000000" font-family="sans-serif" font-size="14" lengthAdjust="spacing" textLength="114" x="219" y="305.4082">OnDisable() : void</text><ellipse cx="210" cy="315.4844" fill="#84BE84" rx="3" ry="3" style="stroke:#038048;stroke-width:1.0;"/><text fill="#000000" font-family="sans-serif" font-size="14" lengthAdjust="spacing" textLength="118" x="219" y="323.0176">OnValidate() : void</text></g><!--MD5=[452be1aaf8b94e2bc4204d466ef769a4]
class Camera--><g id="elem_Camera"><rect fill="#F1F1F1" height="48" id="Camera" rx="2.5" ry="2.5" style="stroke:#181818;stroke-width:0.5;" width="82" x="955" y="194"/><ellipse cx="970" cy="210" fill="#ADD1B2" rx="11" ry="11" style="stroke:#181818;stroke-width:1.0;"/><path d="M972.7656,205.875 Q972.9219,205.6563 973.1094,205.5469 Q973.2969,205.4375 973.5156,205.4375 Q973.8906,205.4375 974.125,205.7031 Q974.3594,205.9531 974.3594,206.5625 L974.3594,208.0156 Q974.3594,208.625 974.125,208.8906 Q973.8906,209.1563 973.5156,209.1563 Q973.1719,209.1563 972.9688,208.9531 Q972.7656,208.7656 972.6563,208.25 Q972.6094,207.8906 972.4219,207.7031 Q972.0938,207.3281 971.4844,207.1094 Q970.875,206.8906 970.25,206.8906 Q969.4844,206.8906 968.8438,207.2188 Q968.2188,207.5469 967.7188,208.2969 Q967.2344,209.0469 967.2344,210.0781 L967.2344,211.1719 Q967.2344,212.4063 968.125,213.2344 Q969.0156,214.0469 970.6094,214.0469 Q971.5469,214.0469 972.2031,213.7969 Q972.5938,213.6406 973.0156,213.2031 Q973.2813,212.9375 973.4219,212.8594 Q973.5781,212.7813 973.7813,212.7813 Q974.1094,212.7813 974.3594,213.0469 Q974.625,213.2969 974.625,213.6406 Q974.625,213.9844 974.2813,214.3906 Q973.7813,214.9688 972.9844,215.2969 Q971.9063,215.75 970.6094,215.75 Q969.0938,215.75 967.8906,215.125 Q966.9063,214.625 966.2188,213.5625 Q965.5313,212.4844 965.5313,211.2031 L965.5313,210.0469 Q965.5313,208.7188 966.1406,207.5781 Q966.7656,206.4219 967.8594,205.8125 Q968.9531,205.1875 970.1875,205.1875 Q970.9219,205.1875 971.5625,205.3594 Q972.2188,205.5156 972.7656,205.875 Z " fill="#000000"/><text fill="#000000" font-family="sans-serif" font-size="14" lengthAdjust="spacing" textLength="50" x="984" y="215.7285">Camera</text><line style="stroke:#181818;stroke-width:0.5;" x1="956" x2="1036" y1="226" y2="226"/><line style="stroke:#181818;stroke-width:0.5;" x1="956" x2="1036" y1="234" y2="234"/></g><!--MD5=[83b3cf3d23d77c6f1e1b5291a241bc2a]
class MonoBehaviour--><g id="elem_MonoBehaviour"><rect fill="#F1F1F1" height="48" id="MonoBehaviour" rx="2.5" ry="2.5" style="stroke:#181818;stroke-width:0.5;" width="131" x="7" y="194"/><ellipse cx="22" cy="210" fill="#ADD1B2" rx="11" ry="11" style="stroke:#181818;stroke-width:1.0;"/><path d="M24.7656,205.875 Q24.9219,205.6563 25.1094,205.5469 Q25.2969,205.4375 25.5156,205.4375 Q25.8906,205.4375 26.125,205.7031 Q26.3594,205.9531 26.3594,206.5625 L26.3594,208.0156 Q26.3594,208.625 26.125,208.8906 Q25.8906,209.1563 25.5156,209.1563 Q25.1719,209.1563 24.9688,208.9531 Q24.7656,208.7656 24.6563,208.25 Q24.6094,207.8906 24.4219,207.7031 Q24.0938,207.3281 23.4844,207.1094 Q22.875,206.8906 22.25,206.8906 Q21.4844,206.8906 20.8438,207.2188 Q20.2188,207.5469 19.7188,208.2969 Q19.2344,209.0469 19.2344,210.0781 L19.2344,211.1719 Q19.2344,212.4063 20.125,213.2344 Q21.0156,214.0469 22.6094,214.0469 Q23.5469,214.0469 24.2031,213.7969 Q24.5938,213.6406 25.0156,213.2031 Q25.2813,212.9375 25.4219,212.8594 Q25.5781,212.7813 25.7813,212.7813 Q26.1094,212.7813 26.3594,213.0469 Q26.625,213.2969 26.625,213.6406 Q26.625,213.9844 26.2813,214.3906 Q25.7813,214.9688 24.9844,215.2969 Q23.9063,215.75 22.6094,215.75 Q21.0938,215.75 19.8906,215.125 Q18.9063,214.625 18.2188,213.5625 Q17.5313,212.4844 17.5313,211.2031 L17.5313,210.0469 Q17.5313,208.7188 18.1406,207.5781 Q18.7656,206.4219 19.8594,205.8125 Q20.9531,205.1875 22.1875,205.1875 Q22.9219,205.1875 23.5625,205.3594 Q24.2188,205.5156 24.7656,205.875 Z " fill="#000000"/><text fill="#000000" font-family="sans-serif" font-size="14" lengthAdjust="spacing" textLength="99" x="36" y="215.7285">MonoBehaviour</text><line style="stroke:#181818;stroke-width:0.5;" x1="8" x2="137" y1="226" y2="226"/><line style="stroke:#181818;stroke-width:0.5;" x1="8" x2="137" y1="234" y2="234"/></g><!--MD5=[c47fe508c3e44c42b08cebb5c8d878f2]
class CameraView--><g id="elem_CameraView"><rect codeLine="1" fill="#F1F1F1" height="65.6094" id="CameraView" rx="2.5" ry="2.5" style="stroke:#181818;stroke-width:0.5;" width="234" x="879" y="81"/><ellipse cx="952.25" cy="97" fill="#ADD1B2" rx="11" ry="11" style="stroke:#181818;stroke-width:1.0;"/><path d="M955.0156,92.875 Q955.1719,92.6563 955.3594,92.5469 Q955.5469,92.4375 955.7656,92.4375 Q956.1406,92.4375 956.375,92.7031 Q956.6094,92.9531 956.6094,93.5625 L956.6094,95.0156 Q956.6094,95.625 956.375,95.8906 Q956.1406,96.1563 955.7656,96.1563 Q955.4219,96.1563 955.2188,95.9531 Q955.0156,95.7656 954.9063,95.25 Q954.8594,94.8906 954.6719,94.7031 Q954.3438,94.3281 953.7344,94.1094 Q953.125,93.8906 952.5,93.8906 Q951.7344,93.8906 951.0938,94.2188 Q950.4688,94.5469 949.9688,95.2969 Q949.4844,96.0469 949.4844,97.0781 L949.4844,98.1719 Q949.4844,99.4063 950.375,100.2344 Q951.2656,101.0469 952.8594,101.0469 Q953.7969,101.0469 954.4531,100.7969 Q954.8438,100.6406 955.2656,100.2031 Q955.5313,99.9375 955.6719,99.8594 Q955.8281,99.7813 956.0313,99.7813 Q956.3594,99.7813 956.6094,100.0469 Q956.875,100.2969 956.875,100.6406 Q956.875,100.9844 956.5313,101.3906 Q956.0313,101.9688 955.2344,102.2969 Q954.1563,102.75 952.8594,102.75 Q951.3438,102.75 950.1406,102.125 Q949.1563,101.625 948.4688,100.5625 Q947.7813,99.4844 947.7813,98.2031 L947.7813,97.0469 Q947.7813,95.7188 948.3906,94.5781 Q949.0156,93.4219 950.1094,92.8125 Q951.2031,92.1875 952.4375,92.1875 Q953.1719,92.1875 953.8125,92.3594 Q954.4688,92.5156 955.0156,92.875 Z " fill="#000000"/><text fill="#000000" font-family="sans-serif" font-size="14" lengthAdjust="spacing" textLength="79" x="972.75" y="102.7285">CameraView</text><line style="stroke:#181818;stroke-width:0.5;" x1="880" x2="1112" y1="113" y2="113"/><line style="stroke:#181818;stroke-width:0.5;" x1="880" x2="1112" y1="121" y2="121"/><ellipse cx="890" cy="132" fill="#84BE84" rx="3" ry="3" style="stroke:#038048;stroke-width:1.0;"/><text fill="#000000" font-family="sans-serif" font-size="14" lengthAdjust="spacing" textLength="208" x="899" y="139.5332">CameraView(stages:List&lt;string&gt;)</text></g><!--MD5=[e77834a0fda1b3f817ae7f2b19e4424d]
class VisualElement--><g id="elem_VisualElement"><rect fill="#F1F1F1" height="48" id="VisualElement" rx="2.5" ry="2.5" style="stroke:#181818;stroke-width:0.5;" width="121" x="581.5" y="58"/><ellipse cx="596.5" cy="74" fill="#ADD1B2" rx="11" ry="11" style="stroke:#181818;stroke-width:1.0;"/><path d="M599.2656,69.875 Q599.4219,69.6563 599.6094,69.5469 Q599.7969,69.4375 600.0156,69.4375 Q600.3906,69.4375 600.625,69.7031 Q600.8594,69.9531 600.8594,70.5625 L600.8594,72.0156 Q600.8594,72.625 600.625,72.8906 Q600.3906,73.1563 600.0156,73.1563 Q599.6719,73.1563 599.4688,72.9531 Q599.2656,72.7656 599.1563,72.25 Q599.1094,71.8906 598.9219,71.7031 Q598.5938,71.3281 597.9844,71.1094 Q597.375,70.8906 596.75,70.8906 Q595.9844,70.8906 595.3438,71.2188 Q594.7188,71.5469 594.2188,72.2969 Q593.7344,73.0469 593.7344,74.0781 L593.7344,75.1719 Q593.7344,76.4063 594.625,77.2344 Q595.5156,78.0469 597.1094,78.0469 Q598.0469,78.0469 598.7031,77.7969 Q599.0938,77.6406 599.5156,77.2031 Q599.7813,76.9375 599.9219,76.8594 Q600.0781,76.7813 600.2813,76.7813 Q600.6094,76.7813 600.8594,77.0469 Q601.125,77.2969 601.125,77.6406 Q601.125,77.9844 600.7813,78.3906 Q600.2813,78.9688 599.4844,79.2969 Q598.4063,79.75 597.1094,79.75 Q595.5938,79.75 594.3906,79.125 Q593.4063,78.625 592.7188,77.5625 Q592.0313,76.4844 592.0313,75.2031 L592.0313,74.0469 Q592.0313,72.7188 592.6406,71.5781 Q593.2656,70.4219 594.3594,69.8125 Q595.4531,69.1875 596.6875,69.1875 Q597.4219,69.1875 598.0625,69.3594 Q598.7188,69.5156 599.2656,69.875 Z " fill="#000000"/><text fill="#000000" font-family="sans-serif" font-size="14" lengthAdjust="spacing" textLength="89" x="610.5" y="79.7285">VisualElement</text><line style="stroke:#181818;stroke-width:0.5;" x1="582.5" x2="701.5" y1="90" y2="90"/><line style="stroke:#181818;stroke-width:0.5;" x1="582.5" x2="701.5" y1="98" y2="98"/></g><!--MD5=[298883191722f47d612a790005ce591d]
class ComponentHeader--><g id="elem_ComponentHeader"><rect fill="#F1F1F1" height="48" id="ComponentHeader" rx="2.5" ry="2.5" style="stroke:#181818;stroke-width:0.5;" width="151" x="1174" y="7"/><ellipse cx="1189" cy="23" fill="#ADD1B2" rx="11" ry="11" style="stroke:#181818;stroke-width:1.0;"/><path d="M1191.7656,18.875 Q1191.9219,18.6563 1192.1094,18.5469 Q1192.2969,18.4375 1192.5156,18.4375 Q1192.8906,18.4375 1193.125,18.7031 Q1193.3594,18.9531 1193.3594,19.5625 L1193.3594,21.0156 Q1193.3594,21.625 1193.125,21.8906 Q1192.8906,22.1563 1192.5156,22.1563 Q1192.1719,22.1563 1191.9688,21.9531 Q1191.7656,21.7656 1191.6563,21.25 Q1191.6094,20.8906 1191.4219,20.7031 Q1191.0938,20.3281 1190.4844,20.1094 Q1189.875,19.8906 1189.25,19.8906 Q1188.4844,19.8906 1187.8438,20.2188 Q1187.2188,20.5469 1186.7188,21.2969 Q1186.2344,22.0469 1186.2344,23.0781 L1186.2344,24.1719 Q1186.2344,25.4063 1187.125,26.2344 Q1188.0156,27.0469 1189.6094,27.0469 Q1190.5469,27.0469 1191.2031,26.7969 Q1191.5938,26.6406 1192.0156,26.2031 Q1192.2813,25.9375 1192.4219,25.8594 Q1192.5781,25.7813 1192.7813,25.7813 Q1193.1094,25.7813 1193.3594,26.0469 Q1193.625,26.2969 1193.625,26.6406 Q1193.625,26.9844 1193.2813,27.3906 Q1192.7813,27.9688 1191.9844,28.2969 Q1190.9063,28.75 1189.6094,28.75 Q1188.0938,28.75 1186.8906,28.125 Q1185.9063,27.625 1185.2188,26.5625 Q1184.5313,25.4844 1184.5313,24.2031 L1184.5313,23.0469 Q1184.5313,21.7188 1185.1406,20.5781 Q1185.7656,19.4219 1186.8594,18.8125 Q1187.9531,18.1875 1189.1875,18.1875 Q1189.9219,18.1875 1190.5625,18.3594 Q1191.2188,18.5156 1191.7656,18.875 Z " fill="#000000"/><text fill="#000000" font-family="sans-serif" font-size="14" lengthAdjust="spacing" textLength="119" x="1203" y="28.7285">ComponentHeader</text><line style="stroke:#181818;stroke-width:0.5;" x1="1175" x2="1324" y1="39" y2="39"/><line style="stroke:#181818;stroke-width:0.5;" x1="1175" x2="1324" y1="47" y2="47"/></g><!--MD5=[5b63724585581d1714c92cb3ec182af9]
class Slider--><g id="elem_Slider"><rect fill="#F1F1F1" height="48" id="Slider" rx="2.5" ry="2.5" style="stroke:#181818;stroke-width:0.5;" width="68" x="1215.5" y="90"/><ellipse cx="1230.5" cy="106" fill="#ADD1B2" rx="11" ry="11" style="stroke:#181818;stroke-width:1.0;"/><path d="M1233.2656,101.875 Q1233.4219,101.6563 1233.6094,101.5469 Q1233.7969,101.4375 1234.0156,101.4375 Q1234.3906,101.4375 1234.625,101.7031 Q1234.8594,101.9531 1234.8594,102.5625 L1234.8594,104.0156 Q1234.8594,104.625 1234.625,104.8906 Q1234.3906,105.1563 1234.0156,105.1563 Q1233.6719,105.1563 1233.4688,104.9531 Q1233.2656,104.7656 1233.1563,104.25 Q1233.1094,103.8906 1232.9219,103.7031 Q1232.5938,103.3281 1231.9844,103.1094 Q1231.375,102.8906 1230.75,102.8906 Q1229.9844,102.8906 1229.3438,103.2188 Q1228.7188,103.5469 1228.2188,104.2969 Q1227.7344,105.0469 1227.7344,106.0781 L1227.7344,107.1719 Q1227.7344,108.4063 1228.625,109.2344 Q1229.5156,110.0469 1231.1094,110.0469 Q1232.0469,110.0469 1232.7031,109.7969 Q1233.0938,109.6406 1233.5156,109.2031 Q1233.7813,108.9375 1233.9219,108.8594 Q1234.0781,108.7813 1234.2813,108.7813 Q1234.6094,108.7813 1234.8594,109.0469 Q1235.125,109.2969 1235.125,109.6406 Q1235.125,109.9844 1234.7813,110.3906 Q1234.2813,110.9688 1233.4844,111.2969 Q1232.4063,111.75 1231.1094,111.75 Q1229.5938,111.75 1228.3906,111.125 Q1227.4063,110.625 1226.7188,109.5625 Q1226.0313,108.4844 1226.0313,107.2031 L1226.0313,106.0469 Q1226.0313,104.7188 1226.6406,103.5781 Q1227.2656,102.4219 1228.3594,101.8125 Q1229.4531,101.1875 1230.6875,101.1875 Q1231.4219,101.1875 1232.0625,101.3594 Q1232.7188,101.5156 1233.2656,101.875 Z " fill="#000000"/><text fill="#000000" font-family="sans-serif" font-size="14" lengthAdjust="spacing" textLength="36" x="1244.5" y="111.7285">Slider</text><line style="stroke:#181818;stroke-width:0.5;" x1="1216.5" x2="1282.5" y1="122" y2="122"/><line style="stroke:#181818;stroke-width:0.5;" x1="1216.5" x2="1282.5" y1="130" y2="130"/></g><!--MD5=[e9b5ee0446a42629a7416d22a027c116]
class DropdownField--><g id="elem_DropdownField"><rect fill="#F1F1F1" height="48" id="DropdownField" rx="2.5" ry="2.5" style="stroke:#181818;stroke-width:0.5;" width="127" x="1186" y="173"/><ellipse cx="1201" cy="189" fill="#ADD1B2" rx="11" ry="11" style="stroke:#181818;stroke-width:1.0;"/><path d="M1203.7656,184.875 Q1203.9219,184.6563 1204.1094,184.5469 Q1204.2969,184.4375 1204.5156,184.4375 Q1204.8906,184.4375 1205.125,184.7031 Q1205.3594,184.9531 1205.3594,185.5625 L1205.3594,187.0156 Q1205.3594,187.625 1205.125,187.8906 Q1204.8906,188.1563 1204.5156,188.1563 Q1204.1719,188.1563 1203.9688,187.9531 Q1203.7656,187.7656 1203.6563,187.25 Q1203.6094,186.8906 1203.4219,186.7031 Q1203.0938,186.3281 1202.4844,186.1094 Q1201.875,185.8906 1201.25,185.8906 Q1200.4844,185.8906 1199.8438,186.2188 Q1199.2188,186.5469 1198.7188,187.2969 Q1198.2344,188.0469 1198.2344,189.0781 L1198.2344,190.1719 Q1198.2344,191.4063 1199.125,192.2344 Q1200.0156,193.0469 1201.6094,193.0469 Q1202.5469,193.0469 1203.2031,192.7969 Q1203.5938,192.6406 1204.0156,192.2031 Q1204.2813,191.9375 1204.4219,191.8594 Q1204.5781,191.7813 1204.7813,191.7813 Q1205.1094,191.7813 1205.3594,192.0469 Q1205.625,192.2969 1205.625,192.6406 Q1205.625,192.9844 1205.2813,193.3906 Q1204.7813,193.9688 1203.9844,194.2969 Q1202.9063,194.75 1201.6094,194.75 Q1200.0938,194.75 1198.8906,194.125 Q1197.9063,193.625 1197.2188,192.5625 Q1196.5313,191.4844 1196.5313,190.2031 L1196.5313,189.0469 Q1196.5313,187.7188 1197.1406,186.5781 Q1197.7656,185.4219 1198.8594,184.8125 Q1199.9531,184.1875 1201.1875,184.1875 Q1201.9219,184.1875 1202.5625,184.3594 Q1203.2188,184.5156 1203.7656,184.875 Z " fill="#000000"/><text fill="#000000" font-family="sans-serif" font-size="14" lengthAdjust="spacing" textLength="95" x="1215" y="194.7285">DropdownField</text><line style="stroke:#181818;stroke-width:0.5;" x1="1187" x2="1312" y1="205" y2="205"/><line style="stroke:#181818;stroke-width:0.5;" x1="1187" x2="1312" y1="213" y2="213"/></g><!--MD5=[bfc47fe11dbe66ccb0aaeeff3b8e7ed2]
reverse link Model to CameraModel--><g id="link_Model_CameraModel"><path codeLine="9" d="M469.66,218 C483.08,218 496.63,218 509.91,218 " fill="none" id="Model-backto-CameraModel" style="stroke:#181818;stroke-width:1.0;"/><polygon fill="none" points="469.44,225,449.44,218,469.44,211,469.44,225" style="stroke:#181818;stroke-width:1.0;"/></g><!--MD5=[a327c2d5631236e355ef90171243e14c]
link CameraModel to Camera--><g id="link_CameraModel_Camera"><path codeLine="10" d="M774.07,218 C835.81,218 905.44,218 949.74,218 " fill="none" id="CameraModel-to-Camera" style="stroke:#181818;stroke-width:1.0;"/><polygon fill="#181818" points="954.75,218,945.75,214,949.75,218,945.75,222,954.75,218" style="stroke:#181818;stroke-width:1.0;"/><text fill="#000000" font-family="sans-serif" font-size="13" lengthAdjust="spacing" textLength="73" x="874.0965" y="232.2999">mainCamera</text></g><!--MD5=[f54166a4bfd7691965a2a28e4010c83f]
reverse link MonoBehaviour to Model--><g id="link_MonoBehaviour_Model"><path codeLine="13" d="M158.49,218 C171.45,218 185.05,218 198.65,218 " fill="none" id="MonoBehaviour-backto-Model" style="stroke:#181818;stroke-width:1.0;"/><polygon fill="none" points="158.08,225,138.08,218,158.08,211,158.08,225" style="stroke:#181818;stroke-width:1.0;"/></g><!--MD5=[8d415156aaad1aef80c801963a08540d]
reverse link VisualElement to CameraView--><g id="link_VisualElement_CameraView"><path codeLine="4" d="M722.89,89.26 C768.92,93.45 827.58,98.78 878.65,103.42 " fill="none" id="VisualElement-backto-CameraView" style="stroke:#181818;stroke-width:1.0;"/><polygon fill="none" points="722,96.21,702.71,87.43,723.26,82.27,722,96.21" style="stroke:#181818;stroke-width:1.0;"/></g><!--MD5=[3e8d6e00bce917c2298ec7490bfb5d56]
link CameraView to ComponentHeader--><g id="link_CameraView_ComponentHeader"><path codeLine="5" d="M1097.12,80.96 C1121.55,72.9 1147.32,64.39 1170.54,56.73 " fill="none" id="CameraView-to-ComponentHeader" style="stroke:#181818;stroke-width:1.0;"/><polygon fill="#181818" points="1175.46,55.11,1165.6587,54.1436,1170.7137,56.6826,1168.1748,61.7376,1175.46,55.11" style="stroke:#181818;stroke-width:1.0;"/><text fill="#000000" font-family="sans-serif" font-size="13" lengthAdjust="spacing" textLength="39" x="1126.8137" y="71.9346">header</text></g><!--MD5=[c199a6d0c43f1fba52fa5db52aacbf7a]
link CameraView to Slider--><g id="link_CameraView_Slider"><path codeLine="6" d="M1113.18,126.72 C1148.17,126.96 1184.16,125.88 1210.22,123.47 " fill="none" id="CameraView-to-Slider" style="stroke:#181818;stroke-width:1.0;"/><polygon fill="#181818" points="1215.29,122.97,1205.9349,119.8907,1210.3151,123.4703,1206.7355,127.8506,1215.29,122.97" style="stroke:#181818;stroke-width:1.0;"/><text fill="#000000" font-family="sans-serif" font-size="13" lengthAdjust="spacing" textLength="54" x="1153.4475" y="138.6619">xPosition</text></g><!--MD5=[c199a6d0c43f1fba52fa5db52aacbf7a]
link CameraView to Slider--><g id="link_CameraView_Slider"><path codeLine="7" d="M1113.18,100.53 C1148.17,100.28 1184.16,101.43 1210.22,103.97 " fill="none" id="CameraView-to-Slider-1" style="stroke:#181818;stroke-width:1.0;"/><polygon fill="#181818" points="1215.29,104.5,1206.7494,99.5951,1210.3165,103.9855,1205.9262,107.5527,1215.29,104.5" style="stroke:#181818;stroke-width:1.0;"/><text fill="#000000" font-family="sans-serif" font-size="13" lengthAdjust="spacing" textLength="54" x="1153.4475" y="117.8255">yPosition</text></g><!--MD5=[08db5f52b71597f9f294e206bad6aa05]
link CameraView to DropdownField--><g id="link_CameraView_DropdownField"><path codeLine="8" d="M1097.12,147.04 C1125.36,156.36 1155.41,166.28 1181.22,174.8 " fill="none" id="CameraView-to-DropdownField" style="stroke:#181818;stroke-width:1.0;"/><polygon fill="#181818" points="1185.99,176.37,1178.6988,169.7489,1181.2423,174.8017,1176.1895,177.3452,1185.99,176.37" style="stroke:#181818;stroke-width:1.0;"/><text fill="#000000" font-family="sans-serif" font-size="13" lengthAdjust="spacing" textLength="91" x="1086.9846" y="188.9505">stageDropDown</text></g><!--MD5=[a07e8379e2bf8bbacd6cc36fb0862407]
link CameraModel to CameraView--><g id="link_CameraModel_CameraView"><path codeLine="6" d="M774.07,179.27 C808.26,169.17 844.87,158.36 878.26,148.49 " fill="none" id="CameraModel-to-CameraView" style="stroke:#181818;stroke-width:1.0;stroke-dasharray:1.0,3.0;"/><polygon fill="#181818" points="883.16,147.04,873.3964,145.7468,878.3639,148.4531,875.6575,153.4206,883.16,147.04" style="stroke:#181818;stroke-width:1.0;"/><text fill="#000000" font-family="sans-serif" font-size="13" lengthAdjust="spacing" textLength="43" x="805" y="156.4951">creates</text></g><!--MD5=[98d74ae3257c6f5ad871b1f272a095c6]
@startuml
left to right direction
!include ..\..\..\out_puml\Scripts\Models\CameraModel.puml
!include ..\..\..\out_puml\Scripts\Models\Model.puml
!include ..\..\..\out_puml\Scripts\Views\CameraView.puml

CameraModel -[dotted]-> CameraView : creates


@enduml

@startuml
left to right direction
class CameraModel {
    + xPosition : float = 0
    + yPosition : float = 2
    + stage : string = "Forward"
    + <<override>> OnChanged() : void
    + <<override>> Start() : void
    + <<override>> CreateUI() : VisualElement
}
Model <|- - CameraModel
CameraModel - -> "mainCamera" Camera
abstract class Model {
    shoudUpdate : bool = true
    + shouldDraw : bool = true
    + <<virtual>> Start() : void
    + <<virtual>> CreateUI() : VisualElement
    + <<virtual>> OnChanged() : void
    # <<virtual>> Update() : void
    + UpdateOnNextFrame() : void
    + OnEnable() : void
    + OnDisable() : void
    + OnValidate() : void
}
MonoBehaviour <|- - Model
class CameraView {
    + CameraView(stages:List<string>)
}
VisualElement <|- - CameraView
CameraView - -> "header" ComponentHeader
CameraView - -> "xPosition" Slider
CameraView - -> "yPosition" Slider
CameraView - -> "stageDropDown" DropdownField

CameraModel -[dotted]-> CameraView : creates


@enduml

PlantUML version 1.2022.5(Sat Apr 30 20:55:52 AEST 2022)
(GPL source distribution)
Java Runtime: Java(TM) SE Runtime Environment
JVM: Java HotSpot(TM) 64-Bit Server VM
Default Encoding: Cp1252
Language: en
Country: AU
--></g></svg>