<?xml version="1.0" encoding="UTF-8" standalone="no"?><svg xmlns="http://www.w3.org/2000/svg" xmlns:xlink="http://www.w3.org/1999/xlink" contentStyleType="text/css" height="313px" preserveAspectRatio="none" style="width:309px;height:313px;background:#FFFFFF;" version="1.1" viewBox="0 0 309 313" width="309px" zoomAndPan="magnify"><defs/><g><!--MD5=[d125ddfb174f2044b1d3dce2269bab46]
class RemoveActor--><g id="elem_RemoveActor"><rect codeLine="1" fill="#F1F1F1" height="83.2188" id="RemoveActor" rx="2.5" ry="2.5" style="stroke:#181818;stroke-width:0.5;" width="295" x="7" y="115"/><ellipse cx="107.75" cy="131" fill="#ADD1B2" rx="11" ry="11" style="stroke:#181818;stroke-width:1.0;"/><path d="M110.5156,126.875 Q110.6719,126.6563 110.8594,126.5469 Q111.0469,126.4375 111.2656,126.4375 Q111.6406,126.4375 111.875,126.7031 Q112.1094,126.9531 112.1094,127.5625 L112.1094,129.0156 Q112.1094,129.625 111.875,129.8906 Q111.6406,130.1563 111.2656,130.1563 Q110.9219,130.1563 110.7188,129.9531 Q110.5156,129.7656 110.4063,129.25 Q110.3594,128.8906 110.1719,128.7031 Q109.8438,128.3281 109.2344,128.1094 Q108.625,127.8906 108,127.8906 Q107.2344,127.8906 106.5938,128.2188 Q105.9688,128.5469 105.4688,129.2969 Q104.9844,130.0469 104.9844,131.0781 L104.9844,132.1719 Q104.9844,133.4063 105.875,134.2344 Q106.7656,135.0469 108.3594,135.0469 Q109.2969,135.0469 109.9531,134.7969 Q110.3438,134.6406 110.7656,134.2031 Q111.0313,133.9375 111.1719,133.8594 Q111.3281,133.7813 111.5313,133.7813 Q111.8594,133.7813 112.1094,134.0469 Q112.375,134.2969 112.375,134.6406 Q112.375,134.9844 112.0313,135.3906 Q111.5313,135.9688 110.7344,136.2969 Q109.6563,136.75 108.3594,136.75 Q106.8438,136.75 105.6406,136.125 Q104.6563,135.625 103.9688,134.5625 Q103.2813,133.4844 103.2813,132.2031 L103.2813,131.0469 Q103.2813,129.7188 103.8906,128.5781 Q104.5156,127.4219 105.6094,126.8125 Q106.7031,126.1875 107.9375,126.1875 Q108.6719,126.1875 109.3125,126.3594 Q109.9688,126.5156 110.5156,126.875 Z " fill="#000000"/><text fill="#000000" font-family="sans-serif" font-size="14" lengthAdjust="spacing" textLength="85" x="128.25" y="136.7285">RemoveActor</text><line style="stroke:#181818;stroke-width:0.5;" x1="8" x2="301" y1="147" y2="147"/><ellipse cx="18" cy="158" fill="none" rx="3" ry="3" style="stroke:#038048;stroke-width:1.0;"/><text fill="#000000" font-family="sans-serif" font-size="14" lengthAdjust="spacing" textLength="269" x="27" y="165.5332">«event» onActorRemoved : ActorRemoved</text><line style="stroke:#181818;stroke-width:0.5;" x1="8" x2="301" y1="172.6094" y2="172.6094"/><ellipse cx="18" cy="183.6094" fill="#84BE84" rx="3" ry="3" style="stroke:#038048;stroke-width:1.0;"/><text fill="#000000" font-family="sans-serif" font-size="14" lengthAdjust="spacing" textLength="194" x="27" y="191.1426">RemoveActor(go:GameObject)</text></g><!--MD5=[e77834a0fda1b3f817ae7f2b19e4424d]
class VisualElement--><g id="elem_VisualElement"><rect fill="#F1F1F1" height="48" id="VisualElement" rx="2.5" ry="2.5" style="stroke:#181818;stroke-width:0.5;" width="121" x="94" y="7"/><ellipse cx="109" cy="23" fill="#ADD1B2" rx="11" ry="11" style="stroke:#181818;stroke-width:1.0;"/><path d="M111.7656,18.875 Q111.9219,18.6563 112.1094,18.5469 Q112.2969,18.4375 112.5156,18.4375 Q112.8906,18.4375 113.125,18.7031 Q113.3594,18.9531 113.3594,19.5625 L113.3594,21.0156 Q113.3594,21.625 113.125,21.8906 Q112.8906,22.1563 112.5156,22.1563 Q112.1719,22.1563 111.9688,21.9531 Q111.7656,21.7656 111.6563,21.25 Q111.6094,20.8906 111.4219,20.7031 Q111.0938,20.3281 110.4844,20.1094 Q109.875,19.8906 109.25,19.8906 Q108.4844,19.8906 107.8438,20.2188 Q107.2188,20.5469 106.7188,21.2969 Q106.2344,22.0469 106.2344,23.0781 L106.2344,24.1719 Q106.2344,25.4063 107.125,26.2344 Q108.0156,27.0469 109.6094,27.0469 Q110.5469,27.0469 111.2031,26.7969 Q111.5938,26.6406 112.0156,26.2031 Q112.2813,25.9375 112.4219,25.8594 Q112.5781,25.7813 112.7813,25.7813 Q113.1094,25.7813 113.3594,26.0469 Q113.625,26.2969 113.625,26.6406 Q113.625,26.9844 113.2813,27.3906 Q112.7813,27.9688 111.9844,28.2969 Q110.9063,28.75 109.6094,28.75 Q108.0938,28.75 106.8906,28.125 Q105.9063,27.625 105.2188,26.5625 Q104.5313,25.4844 104.5313,24.2031 L104.5313,23.0469 Q104.5313,21.7188 105.1406,20.5781 Q105.7656,19.4219 106.8594,18.8125 Q107.9531,18.1875 109.1875,18.1875 Q109.9219,18.1875 110.5625,18.3594 Q111.2188,18.5156 111.7656,18.875 Z " fill="#000000"/><text fill="#000000" font-family="sans-serif" font-size="14" lengthAdjust="spacing" textLength="89" x="123" y="28.7285">VisualElement</text><line style="stroke:#181818;stroke-width:0.5;" x1="95" x2="214" y1="39" y2="39"/><line style="stroke:#181818;stroke-width:0.5;" x1="95" x2="214" y1="47" y2="47"/></g><!--MD5=[90ba54f54370e77ef24813dec6818fa3]
class Button--><g id="elem_Button"><rect fill="#F1F1F1" height="48" id="Button" rx="2.5" ry="2.5" style="stroke:#181818;stroke-width:0.5;" width="73" x="118" y="258"/><ellipse cx="133" cy="274" fill="#ADD1B2" rx="11" ry="11" style="stroke:#181818;stroke-width:1.0;"/><path d="M135.7656,269.875 Q135.9219,269.6563 136.1094,269.5469 Q136.2969,269.4375 136.5156,269.4375 Q136.8906,269.4375 137.125,269.7031 Q137.3594,269.9531 137.3594,270.5625 L137.3594,272.0156 Q137.3594,272.625 137.125,272.8906 Q136.8906,273.1563 136.5156,273.1563 Q136.1719,273.1563 135.9688,272.9531 Q135.7656,272.7656 135.6563,272.25 Q135.6094,271.8906 135.4219,271.7031 Q135.0938,271.3281 134.4844,271.1094 Q133.875,270.8906 133.25,270.8906 Q132.4844,270.8906 131.8438,271.2188 Q131.2188,271.5469 130.7188,272.2969 Q130.2344,273.0469 130.2344,274.0781 L130.2344,275.1719 Q130.2344,276.4063 131.125,277.2344 Q132.0156,278.0469 133.6094,278.0469 Q134.5469,278.0469 135.2031,277.7969 Q135.5938,277.6406 136.0156,277.2031 Q136.2813,276.9375 136.4219,276.8594 Q136.5781,276.7813 136.7813,276.7813 Q137.1094,276.7813 137.3594,277.0469 Q137.625,277.2969 137.625,277.6406 Q137.625,277.9844 137.2813,278.3906 Q136.7813,278.9688 135.9844,279.2969 Q134.9063,279.75 133.6094,279.75 Q132.0938,279.75 130.8906,279.125 Q129.9063,278.625 129.2188,277.5625 Q128.5313,276.4844 128.5313,275.2031 L128.5313,274.0469 Q128.5313,272.7188 129.1406,271.5781 Q129.7656,270.4219 130.8594,269.8125 Q131.9531,269.1875 133.1875,269.1875 Q133.9219,269.1875 134.5625,269.3594 Q135.2188,269.5156 135.7656,269.875 Z " fill="#000000"/><text fill="#000000" font-family="sans-serif" font-size="14" lengthAdjust="spacing" textLength="41" x="147" y="279.7285">Button</text><line style="stroke:#181818;stroke-width:0.5;" x1="119" x2="190" y1="290" y2="290"/><line style="stroke:#181818;stroke-width:0.5;" x1="119" x2="190" y1="298" y2="298"/></g><!--MD5=[c90bc635be10f11f06555e793b851d8f]
reverse link VisualElement to RemoveActor--><g id="link_VisualElement_RemoveActor"><path codeLine="5" d="M154.5,75.31 C154.5,88.16 154.5,102.19 154.5,114.87 " fill="none" id="VisualElement-backto-RemoveActor" style="stroke:#181818;stroke-width:1.0;"/><polygon fill="none" points="147.5,75.23,154.5,55.23,161.5,75.23,147.5,75.23" style="stroke:#181818;stroke-width:1.0;"/></g><!--MD5=[736d5091d4fb2fdc962aa490f7e5da86]
link RemoveActor to Button--><g id="link_RemoveActor_Button"><path codeLine="6" d="M154.5,198.28 C154.5,216.08 154.5,236.52 154.5,252.63 " fill="none" id="RemoveActor-to-Button" style="stroke:#181818;stroke-width:1.0;"/><polygon fill="#181818" points="154.5,257.91,158.5,248.91,154.5,252.91,150.5,248.91,154.5,257.91" style="stroke:#181818;stroke-width:1.0;"/><text fill="#000000" font-family="sans-serif" font-size="13" lengthAdjust="spacing" textLength="56" x="91.325" y="247.2271">myButton</text></g><!--MD5=[f54ccdb96361c2a8f9376de5428628b2]
@startuml
!include ..\..\..\out_puml\Scripts\Views\RemoveActor.puml
@enduml

@startuml
class RemoveActor {
    +  <<event>> onActorRemoved : ActorRemoved 
    + RemoveActor(go:GameObject)
}
VisualElement <|- - RemoveActor
RemoveActor - -> "myButton" Button
@enduml

PlantUML version 1.2022.5(Sat Apr 30 20:55:52 AEST 2022)
(GPL source distribution)
Java Runtime: Java(TM) SE Runtime Environment
JVM: Java HotSpot(TM) 64-Bit Server VM
Default Encoding: Cp1252
Language: en
Country: AU
--></g></svg>