<?xml version="1.0" encoding="UTF-8" standalone="no"?><svg xmlns="http://www.w3.org/2000/svg" xmlns:xlink="http://www.w3.org/1999/xlink" contentStyleType="text/css" height="329px" preserveAspectRatio="none" style="width:760px;height:329px;background:#FFFFFF;" version="1.1" viewBox="0 0 760 329" width="760px" zoomAndPan="magnify"><defs/><g><!--MD5=[f01bc9769c39eb32511ec98885c444e4]
class SearchBoxView--><g id="elem_SearchBoxView"><rect codeLine="1" fill="#F1F1F1" height="188.875" id="SearchBoxView" rx="2.5" ry="2.5" style="stroke:#181818;stroke-width:0.5;" width="304" x="163.5" y="7"/><ellipse cx="262.75" cy="23" fill="#ADD1B2" rx="11" ry="11" style="stroke:#181818;stroke-width:1.0;"/><path d="M265.5156,18.875 Q265.6719,18.6563 265.8594,18.5469 Q266.0469,18.4375 266.2656,18.4375 Q266.6406,18.4375 266.875,18.7031 Q267.1094,18.9531 267.1094,19.5625 L267.1094,21.0156 Q267.1094,21.625 266.875,21.8906 Q266.6406,22.1563 266.2656,22.1563 Q265.9219,22.1563 265.7188,21.9531 Q265.5156,21.7656 265.4063,21.25 Q265.3594,20.8906 265.1719,20.7031 Q264.8438,20.3281 264.2344,20.1094 Q263.625,19.8906 263,19.8906 Q262.2344,19.8906 261.5938,20.2188 Q260.9688,20.5469 260.4688,21.2969 Q259.9844,22.0469 259.9844,23.0781 L259.9844,24.1719 Q259.9844,25.4063 260.875,26.2344 Q261.7656,27.0469 263.3594,27.0469 Q264.2969,27.0469 264.9531,26.7969 Q265.3438,26.6406 265.7656,26.2031 Q266.0313,25.9375 266.1719,25.8594 Q266.3281,25.7813 266.5313,25.7813 Q266.8594,25.7813 267.1094,26.0469 Q267.375,26.2969 267.375,26.6406 Q267.375,26.9844 267.0313,27.3906 Q266.5313,27.9688 265.7344,28.2969 Q264.6563,28.75 263.3594,28.75 Q261.8438,28.75 260.6406,28.125 Q259.6563,27.625 258.9688,26.5625 Q258.2813,25.4844 258.2813,24.2031 L258.2813,23.0469 Q258.2813,21.7188 258.8906,20.5781 Q259.5156,19.4219 260.6094,18.8125 Q261.7031,18.1875 262.9375,18.1875 Q263.6719,18.1875 264.3125,18.3594 Q264.9688,18.5156 265.5156,18.875 Z " fill="#000000"/><text fill="#000000" font-family="sans-serif" font-size="14" lengthAdjust="spacing" textLength="97" x="283.25" y="28.7285">SearchBoxView</text><line style="stroke:#181818;stroke-width:0.5;" x1="164.5" x2="466.5" y1="39" y2="39"/><text fill="#000000" font-family="sans-serif" font-size="14" lengthAdjust="spacing" textLength="80" x="183.5" y="57.5332">selected : int</text><ellipse cx="174.5" cy="67.6094" fill="none" rx="3" ry="3" style="stroke:#038048;stroke-width:1.0;"/><text fill="#000000" font-family="sans-serif" font-size="14" lengthAdjust="spacing" textLength="256" x="183.5" y="75.1426">«event» objectSelected : ObjectSelected</text><line style="stroke:#181818;stroke-width:0.5;" x1="164.5" x2="466.5" y1="82.2188" y2="82.2188"/><ellipse cx="174.5" cy="93.2188" fill="#84BE84" rx="3" ry="3" style="stroke:#038048;stroke-width:1.0;"/><text fill="#000000" font-family="sans-serif" font-size="14" lengthAdjust="spacing" textLength="184" x="183.5" y="100.752">GetContent() : VisualElement</text><ellipse cx="174.5" cy="110.8281" fill="#84BE84" rx="3" ry="3" style="stroke:#038048;stroke-width:1.0;"/><text fill="#000000" font-family="sans-serif" font-size="14" lengthAdjust="spacing" textLength="107" x="183.5" y="118.3613">SearchBoxView()</text><ellipse cx="174.5" cy="128.4375" fill="#84BE84" rx="3" ry="3" style="stroke:#038048;stroke-width:1.0;"/><text fill="#000000" font-family="sans-serif" font-size="14" lengthAdjust="spacing" textLength="166" x="183.5" y="135.9707">InvokeSelected(i:int) : void</text><ellipse cx="174.5" cy="146.0469" fill="#84BE84" rx="3" ry="3" style="stroke:#038048;stroke-width:1.0;"/><text fill="#000000" font-family="sans-serif" font-size="14" lengthAdjust="spacing" textLength="251" x="183.5" y="153.5801">AddGameObject(go:GameObject) : void</text><ellipse cx="174.5" cy="163.6563" fill="#84BE84" rx="3" ry="3" style="stroke:#038048;stroke-width:1.0;"/><text fill="#000000" font-family="sans-serif" font-size="14" lengthAdjust="spacing" textLength="205" x="183.5" y="171.1895">AddActor(go:GameObject) : void</text><ellipse cx="174.5" cy="181.2656" fill="#84BE84" rx="3" ry="3" style="stroke:#038048;stroke-width:1.0;"/><text fill="#000000" font-family="sans-serif" font-size="14" lengthAdjust="spacing" textLength="278" x="183.5" y="188.7988">RemoveGameObject(go:GameObject) : void</text></g><!--MD5=[e644022de7dea015dd09463c37421447]
class List`1--><g id="elem_List`1"><rect codeLine="11" fill="#F1F1F1" height="48" id="List`1" rx="2.5" ry="2.5" style="stroke:#181818;stroke-width:0.5;" width="78" x="502.5" y="77.5"/><ellipse cx="517.5" cy="93.5" fill="#ADD1B2" rx="11" ry="11" style="stroke:#181818;stroke-width:1.0;"/><path d="M520.2656,89.375 Q520.4219,89.1563 520.6094,89.0469 Q520.7969,88.9375 521.0156,88.9375 Q521.3906,88.9375 521.625,89.2031 Q521.8594,89.4531 521.8594,90.0625 L521.8594,91.5156 Q521.8594,92.125 521.625,92.3906 Q521.3906,92.6563 521.0156,92.6563 Q520.6719,92.6563 520.4688,92.4531 Q520.2656,92.2656 520.1563,91.75 Q520.1094,91.3906 519.9219,91.2031 Q519.5938,90.8281 518.9844,90.6094 Q518.375,90.3906 517.75,90.3906 Q516.9844,90.3906 516.3438,90.7188 Q515.7188,91.0469 515.2188,91.7969 Q514.7344,92.5469 514.7344,93.5781 L514.7344,94.6719 Q514.7344,95.9063 515.625,96.7344 Q516.5156,97.5469 518.1094,97.5469 Q519.0469,97.5469 519.7031,97.2969 Q520.0938,97.1406 520.5156,96.7031 Q520.7813,96.4375 520.9219,96.3594 Q521.0781,96.2813 521.2813,96.2813 Q521.6094,96.2813 521.8594,96.5469 Q522.125,96.7969 522.125,97.1406 Q522.125,97.4844 521.7813,97.8906 Q521.2813,98.4688 520.4844,98.7969 Q519.4063,99.25 518.1094,99.25 Q516.5938,99.25 515.3906,98.625 Q514.4063,98.125 513.7188,97.0625 Q513.0313,95.9844 513.0313,94.7031 L513.0313,93.5469 Q513.0313,92.2188 513.6406,91.0781 Q514.2656,89.9219 515.3594,89.3125 Q516.4531,88.6875 517.6875,88.6875 Q518.4219,88.6875 519.0625,88.8594 Q519.7188,89.0156 520.2656,89.375 Z " fill="#000000"/><text fill="#000000" font-family="sans-serif" font-size="14" lengthAdjust="spacing" textLength="35" x="531.5" y="99.2285">List`1</text><rect fill="#FFFFFF" height="17.0938" style="stroke:#000000;stroke-width:1.0;stroke-dasharray:2.0,2.0;" width="9" x="574.5" y="74.5"/><text fill="#000000" font-family="sans-serif" font-size="12" font-style="italic" lengthAdjust="spacing" textLength="7" x="575.5" y="87.957">T</text><line style="stroke:#181818;stroke-width:0.5;" x1="503.5" x2="579.5" y1="109.5" y2="109.5"/><line style="stroke:#181818;stroke-width:0.5;" x1="503.5" x2="579.5" y1="117.5" y2="117.5"/></g><!--MD5=[e77834a0fda1b3f817ae7f2b19e4424d]
class VisualElement--><g id="elem_VisualElement"><rect fill="#F1F1F1" height="48" id="VisualElement" rx="2.5" ry="2.5" style="stroke:#181818;stroke-width:0.5;" width="121" x="7" y="77.5"/><ellipse cx="22" cy="93.5" fill="#ADD1B2" rx="11" ry="11" style="stroke:#181818;stroke-width:1.0;"/><path d="M24.7656,89.375 Q24.9219,89.1563 25.1094,89.0469 Q25.2969,88.9375 25.5156,88.9375 Q25.8906,88.9375 26.125,89.2031 Q26.3594,89.4531 26.3594,90.0625 L26.3594,91.5156 Q26.3594,92.125 26.125,92.3906 Q25.8906,92.6563 25.5156,92.6563 Q25.1719,92.6563 24.9688,92.4531 Q24.7656,92.2656 24.6563,91.75 Q24.6094,91.3906 24.4219,91.2031 Q24.0938,90.8281 23.4844,90.6094 Q22.875,90.3906 22.25,90.3906 Q21.4844,90.3906 20.8438,90.7188 Q20.2188,91.0469 19.7188,91.7969 Q19.2344,92.5469 19.2344,93.5781 L19.2344,94.6719 Q19.2344,95.9063 20.125,96.7344 Q21.0156,97.5469 22.6094,97.5469 Q23.5469,97.5469 24.2031,97.2969 Q24.5938,97.1406 25.0156,96.7031 Q25.2813,96.4375 25.4219,96.3594 Q25.5781,96.2813 25.7813,96.2813 Q26.1094,96.2813 26.3594,96.5469 Q26.625,96.7969 26.625,97.1406 Q26.625,97.4844 26.2813,97.8906 Q25.7813,98.4688 24.9844,98.7969 Q23.9063,99.25 22.6094,99.25 Q21.0938,99.25 19.8906,98.625 Q18.9063,98.125 18.2188,97.0625 Q17.5313,95.9844 17.5313,94.7031 L17.5313,93.5469 Q17.5313,92.2188 18.1406,91.0781 Q18.7656,89.9219 19.8594,89.3125 Q20.9531,88.6875 22.1875,88.6875 Q22.9219,88.6875 23.5625,88.8594 Q24.2188,89.0156 24.7656,89.375 Z " fill="#000000"/><text fill="#000000" font-family="sans-serif" font-size="14" lengthAdjust="spacing" textLength="89" x="36" y="99.2285">VisualElement</text><line style="stroke:#181818;stroke-width:0.5;" x1="8" x2="127" y1="109.5" y2="109.5"/><line style="stroke:#181818;stroke-width:0.5;" x1="8" x2="127" y1="117.5" y2="117.5"/></g><!--MD5=[34a388f61502ebbcedd1e27ce1bd2c60]
class OnChanged--><g id="elem_OnChanged"><rect fill="#F1F1F1" height="48" id="OnChanged" rx="2.5" ry="2.5" style="stroke:#181818;stroke-width:0.5;" width="109" x="261" y="274"/><ellipse cx="276" cy="290" fill="#ADD1B2" rx="11" ry="11" style="stroke:#181818;stroke-width:1.0;"/><path d="M278.7656,285.875 Q278.9219,285.6563 279.1094,285.5469 Q279.2969,285.4375 279.5156,285.4375 Q279.8906,285.4375 280.125,285.7031 Q280.3594,285.9531 280.3594,286.5625 L280.3594,288.0156 Q280.3594,288.625 280.125,288.8906 Q279.8906,289.1563 279.5156,289.1563 Q279.1719,289.1563 278.9688,288.9531 Q278.7656,288.7656 278.6563,288.25 Q278.6094,287.8906 278.4219,287.7031 Q278.0938,287.3281 277.4844,287.1094 Q276.875,286.8906 276.25,286.8906 Q275.4844,286.8906 274.8438,287.2188 Q274.2188,287.5469 273.7188,288.2969 Q273.2344,289.0469 273.2344,290.0781 L273.2344,291.1719 Q273.2344,292.4063 274.125,293.2344 Q275.0156,294.0469 276.6094,294.0469 Q277.5469,294.0469 278.2031,293.7969 Q278.5938,293.6406 279.0156,293.2031 Q279.2813,292.9375 279.4219,292.8594 Q279.5781,292.7813 279.7813,292.7813 Q280.1094,292.7813 280.3594,293.0469 Q280.625,293.2969 280.625,293.6406 Q280.625,293.9844 280.2813,294.3906 Q279.7813,294.9688 278.9844,295.2969 Q277.9063,295.75 276.6094,295.75 Q275.0938,295.75 273.8906,295.125 Q272.9063,294.625 272.2188,293.5625 Q271.5313,292.4844 271.5313,291.2031 L271.5313,290.0469 Q271.5313,288.7188 272.1406,287.5781 Q272.7656,286.4219 273.8594,285.8125 Q274.9531,285.1875 276.1875,285.1875 Q276.9219,285.1875 277.5625,285.3594 Q278.2188,285.5156 278.7656,285.875 Z " fill="#000000"/><text fill="#000000" font-family="sans-serif" font-size="14" lengthAdjust="spacing" textLength="77" x="290" y="295.7285">OnChanged</text><line style="stroke:#181818;stroke-width:0.5;" x1="262" x2="369" y1="306" y2="306"/><line style="stroke:#181818;stroke-width:0.5;" x1="262" x2="369" y1="314" y2="314"/></g><!--MD5=[7c8508caf090d3e33d6c0937913cfc3a]
reverse link VisualElement to SearchBoxView--><g id="link_VisualElement_SearchBoxView"><path codeLine="13" d="M148.09,117.29 C153.13,117.81 158.16,118.23 163.19,118.56 " fill="none" id="VisualElement-backto-SearchBoxView" style="stroke:#181818;stroke-width:1.0;"/><polygon fill="none" points="147.02,124.22,128.05,114.79,148.76,110.32,147.02,124.22" style="stroke:#181818;stroke-width:1.0;"/></g><!--MD5=[65d20bee6383c45e36e211407d74abc7]
link SearchBoxView to VisualElement--><g id="link_SearchBoxView_VisualElement"><path codeLine="15" d="M151.2297,85.4158 C151.2297,85.4158 143.96,86.13 140.95,86.49 " fill="none" id="SearchBoxView-VisualElement" style="stroke:#181818;stroke-width:1.0;"/><polygon fill="#181818" points="128.05,88.21,137.4989,90.9882,133.0063,87.5506,136.4439,83.0581,128.05,88.21" style="stroke:#181818;stroke-width:1.0;"/><line style="stroke:#181818;stroke-width:1.0;" x1="133.0063" x2="140.93" y1="87.5506" y2="86.49"/><polygon fill="none" points="163.19,84.44,156.8846,80.9412,151.2297,85.4158,157.5351,88.9147,163.19,84.44" style="stroke:#181818;stroke-width:1.0;"/><text fill="#000000" font-family="sans-serif" font-size="13" lengthAdjust="spacing" textLength="43" x="135.6973" y="75.8393">content</text></g><!--MD5=[4e5600c526c2b03ea6a3ddbb5ed85dbc]
link SearchBoxView to List`1--><g id="link_SearchBoxView_List`1"><path codeLine="14" d="M479.79,101.5 C479.79,101.5 486.34,101.5 489.01,101.5 " fill="none" id="SearchBoxView-List`1" style="stroke:#181818;stroke-width:1.0;"/><polygon fill="#181818" points="502.34,101.5,493.34,97.5,497.34,101.5,493.34,105.5,502.34,101.5" style="stroke:#181818;stroke-width:1.0;"/><line style="stroke:#181818;stroke-width:1.0;" x1="497.34" x2="489.34" y1="101.5" y2="101.5"/><polygon fill="none" points="467.79,101.5,473.79,105.5,479.79,101.5,473.79,97.5,467.79,101.5" style="stroke:#181818;stroke-width:1.0;"/><text fill="#000000" font-family="sans-serif" font-size="13" lengthAdjust="spacing" textLength="166" x="587.828" y="83.7379">gameObjects&lt;GameObject&gt;</text></g><!--MD5=[3be504a9dd7bcbcb76881e78b85351f6]
link SearchBoxView to OnChanged--><g id="link_SearchBoxView_OnChanged"><path codeLine="4" d="M315.5,196.05 C315.5,222.38 315.5,249.07 315.5,268.39 " fill="none" id="SearchBoxView-to-OnChanged" style="stroke:#181818;stroke-width:1.0;stroke-dasharray:1.0,3.0;"/><polygon fill="#181818" points="315.5,273.64,319.5,264.64,315.5,268.64,311.5,264.64,315.5,273.64" style="stroke:#181818;stroke-width:1.0;"/><text fill="#000000" font-family="sans-serif" font-size="13" lengthAdjust="spacing" textLength="56" x="316.5" y="240.4951">subcribes</text></g><!--MD5=[c247593b4a4c8e61c96fc6e8654a494c]
@startuml

!include ..\..\..\out_puml\Scripts\Views\SearchBoxView.puml

SearchBoxView -[dotted]-> OnChanged : subcribes

@enduml

@startuml

class SearchBoxView {
    selected : int
    +  <<event>> objectSelected : ObjectSelected 
    + GetContent() : VisualElement
    + SearchBoxView()
    + InvokeSelected(i:int) : void
    + AddGameObject(go:GameObject) : void
    + AddActor(go:GameObject) : void
    + RemoveGameObject(go:GameObject) : void
}
class "List`1"<T> {
}
VisualElement <|- - SearchBoxView
SearchBoxView o-> "gameObjects<GameObject>" "List`1"
SearchBoxView o-> "content" VisualElement

SearchBoxView -[dotted]-> OnChanged : subcribes

@enduml

PlantUML version 1.2022.5(Sat Apr 30 20:55:52 AEST 2022)
(GPL source distribution)
Java Runtime: Java(TM) SE Runtime Environment
JVM: Java HotSpot(TM) 64-Bit Server VM
Default Encoding: Cp1252
Language: en
Country: AU
--></g></svg>