<?xml version="1.0" encoding="UTF-8" standalone="no"?><svg xmlns="http://www.w3.org/2000/svg" xmlns:xlink="http://www.w3.org/1999/xlink" contentStyleType="text/css" height="313px" preserveAspectRatio="none" style="width:271px;height:313px;background:#FFFFFF;" version="1.1" viewBox="0 0 271 313" width="271px" zoomAndPan="magnify"><defs/><g><!--MD5=[c5e849f98f5de13a05adf44f0e4cdb2e]
class AddActor--><g id="elem_AddActor"><rect codeLine="1" fill="#F1F1F1" height="83.2188" id="AddActor" rx="2.5" ry="2.5" style="stroke:#181818;stroke-width:0.5;" width="257" x="7" y="115"/><ellipse cx="102.25" cy="131" fill="#ADD1B2" rx="11" ry="11" style="stroke:#181818;stroke-width:1.0;"/><path d="M105.0156,126.875 Q105.1719,126.6563 105.3594,126.5469 Q105.5469,126.4375 105.7656,126.4375 Q106.1406,126.4375 106.375,126.7031 Q106.6094,126.9531 106.6094,127.5625 L106.6094,129.0156 Q106.6094,129.625 106.375,129.8906 Q106.1406,130.1563 105.7656,130.1563 Q105.4219,130.1563 105.2188,129.9531 Q105.0156,129.7656 104.9063,129.25 Q104.8594,128.8906 104.6719,128.7031 Q104.3438,128.3281 103.7344,128.1094 Q103.125,127.8906 102.5,127.8906 Q101.7344,127.8906 101.0938,128.2188 Q100.4688,128.5469 99.9688,129.2969 Q99.4844,130.0469 99.4844,131.0781 L99.4844,132.1719 Q99.4844,133.4063 100.375,134.2344 Q101.2656,135.0469 102.8594,135.0469 Q103.7969,135.0469 104.4531,134.7969 Q104.8438,134.6406 105.2656,134.2031 Q105.5313,133.9375 105.6719,133.8594 Q105.8281,133.7813 106.0313,133.7813 Q106.3594,133.7813 106.6094,134.0469 Q106.875,134.2969 106.875,134.6406 Q106.875,134.9844 106.5313,135.3906 Q106.0313,135.9688 105.2344,136.2969 Q104.1563,136.75 102.8594,136.75 Q101.3438,136.75 100.1406,136.125 Q99.1563,135.625 98.4688,134.5625 Q97.7813,133.4844 97.7813,132.2031 L97.7813,131.0469 Q97.7813,129.7188 98.3906,128.5781 Q99.0156,127.4219 100.1094,126.8125 Q101.2031,126.1875 102.4375,126.1875 Q103.1719,126.1875 103.8125,126.3594 Q104.4688,126.5156 105.0156,126.875 Z " fill="#000000"/><text fill="#000000" font-family="sans-serif" font-size="14" lengthAdjust="spacing" textLength="58" x="122.75" y="136.7285">AddActor</text><line style="stroke:#181818;stroke-width:0.5;" x1="8" x2="263" y1="147" y2="147"/><ellipse cx="18" cy="158" fill="none" rx="3" ry="3" style="stroke:#038048;stroke-width:1.0;"/><text fill="#000000" font-family="sans-serif" font-size="14" lengthAdjust="spacing" textLength="231" x="27" y="165.5332">«event» onActorAdded : ActorAdded</text><line style="stroke:#181818;stroke-width:0.5;" x1="8" x2="263" y1="172.6094" y2="172.6094"/><ellipse cx="18" cy="183.6094" fill="#84BE84" rx="3" ry="3" style="stroke:#038048;stroke-width:1.0;"/><text fill="#000000" font-family="sans-serif" font-size="14" lengthAdjust="spacing" textLength="68" x="27" y="191.1426">AddActor()</text></g><!--MD5=[e77834a0fda1b3f817ae7f2b19e4424d]
class VisualElement--><g id="elem_VisualElement"><rect fill="#F1F1F1" height="48" id="VisualElement" rx="2.5" ry="2.5" style="stroke:#181818;stroke-width:0.5;" width="121" x="75" y="7"/><ellipse cx="90" cy="23" fill="#ADD1B2" rx="11" ry="11" style="stroke:#181818;stroke-width:1.0;"/><path d="M92.7656,18.875 Q92.9219,18.6563 93.1094,18.5469 Q93.2969,18.4375 93.5156,18.4375 Q93.8906,18.4375 94.125,18.7031 Q94.3594,18.9531 94.3594,19.5625 L94.3594,21.0156 Q94.3594,21.625 94.125,21.8906 Q93.8906,22.1563 93.5156,22.1563 Q93.1719,22.1563 92.9688,21.9531 Q92.7656,21.7656 92.6563,21.25 Q92.6094,20.8906 92.4219,20.7031 Q92.0938,20.3281 91.4844,20.1094 Q90.875,19.8906 90.25,19.8906 Q89.4844,19.8906 88.8438,20.2188 Q88.2188,20.5469 87.7188,21.2969 Q87.2344,22.0469 87.2344,23.0781 L87.2344,24.1719 Q87.2344,25.4063 88.125,26.2344 Q89.0156,27.0469 90.6094,27.0469 Q91.5469,27.0469 92.2031,26.7969 Q92.5938,26.6406 93.0156,26.2031 Q93.2813,25.9375 93.4219,25.8594 Q93.5781,25.7813 93.7813,25.7813 Q94.1094,25.7813 94.3594,26.0469 Q94.625,26.2969 94.625,26.6406 Q94.625,26.9844 94.2813,27.3906 Q93.7813,27.9688 92.9844,28.2969 Q91.9063,28.75 90.6094,28.75 Q89.0938,28.75 87.8906,28.125 Q86.9063,27.625 86.2188,26.5625 Q85.5313,25.4844 85.5313,24.2031 L85.5313,23.0469 Q85.5313,21.7188 86.1406,20.5781 Q86.7656,19.4219 87.8594,18.8125 Q88.9531,18.1875 90.1875,18.1875 Q90.9219,18.1875 91.5625,18.3594 Q92.2188,18.5156 92.7656,18.875 Z " fill="#000000"/><text fill="#000000" font-family="sans-serif" font-size="14" lengthAdjust="spacing" textLength="89" x="104" y="28.7285">VisualElement</text><line style="stroke:#181818;stroke-width:0.5;" x1="76" x2="195" y1="39" y2="39"/><line style="stroke:#181818;stroke-width:0.5;" x1="76" x2="195" y1="47" y2="47"/></g><!--MD5=[90ba54f54370e77ef24813dec6818fa3]
class Button--><g id="elem_Button"><rect fill="#F1F1F1" height="48" id="Button" rx="2.5" ry="2.5" style="stroke:#181818;stroke-width:0.5;" width="73" x="99" y="258"/><ellipse cx="114" cy="274" fill="#ADD1B2" rx="11" ry="11" style="stroke:#181818;stroke-width:1.0;"/><path d="M116.7656,269.875 Q116.9219,269.6563 117.1094,269.5469 Q117.2969,269.4375 117.5156,269.4375 Q117.8906,269.4375 118.125,269.7031 Q118.3594,269.9531 118.3594,270.5625 L118.3594,272.0156 Q118.3594,272.625 118.125,272.8906 Q117.8906,273.1563 117.5156,273.1563 Q117.1719,273.1563 116.9688,272.9531 Q116.7656,272.7656 116.6563,272.25 Q116.6094,271.8906 116.4219,271.7031 Q116.0938,271.3281 115.4844,271.1094 Q114.875,270.8906 114.25,270.8906 Q113.4844,270.8906 112.8438,271.2188 Q112.2188,271.5469 111.7188,272.2969 Q111.2344,273.0469 111.2344,274.0781 L111.2344,275.1719 Q111.2344,276.4063 112.125,277.2344 Q113.0156,278.0469 114.6094,278.0469 Q115.5469,278.0469 116.2031,277.7969 Q116.5938,277.6406 117.0156,277.2031 Q117.2813,276.9375 117.4219,276.8594 Q117.5781,276.7813 117.7813,276.7813 Q118.1094,276.7813 118.3594,277.0469 Q118.625,277.2969 118.625,277.6406 Q118.625,277.9844 118.2813,278.3906 Q117.7813,278.9688 116.9844,279.2969 Q115.9063,279.75 114.6094,279.75 Q113.0938,279.75 111.8906,279.125 Q110.9063,278.625 110.2188,277.5625 Q109.5313,276.4844 109.5313,275.2031 L109.5313,274.0469 Q109.5313,272.7188 110.1406,271.5781 Q110.7656,270.4219 111.8594,269.8125 Q112.9531,269.1875 114.1875,269.1875 Q114.9219,269.1875 115.5625,269.3594 Q116.2188,269.5156 116.7656,269.875 Z " fill="#000000"/><text fill="#000000" font-family="sans-serif" font-size="14" lengthAdjust="spacing" textLength="41" x="128" y="279.7285">Button</text><line style="stroke:#181818;stroke-width:0.5;" x1="100" x2="171" y1="290" y2="290"/><line style="stroke:#181818;stroke-width:0.5;" x1="100" x2="171" y1="298" y2="298"/></g><!--MD5=[2c4ed8213c05955d942f1761cb97100a]
reverse link VisualElement to AddActor--><g id="link_VisualElement_AddActor"><path codeLine="5" d="M135.5,75.31 C135.5,88.16 135.5,102.19 135.5,114.87 " fill="none" id="VisualElement-backto-AddActor" style="stroke:#181818;stroke-width:1.0;"/><polygon fill="none" points="128.5,75.23,135.5,55.23,142.5,75.23,128.5,75.23" style="stroke:#181818;stroke-width:1.0;"/></g><!--MD5=[01756e5383cabed18bff64d9ba5d957e]
link AddActor to Button--><g id="link_AddActor_Button"><path codeLine="6" d="M135.5,198.28 C135.5,216.08 135.5,236.52 135.5,252.63 " fill="none" id="AddActor-to-Button" style="stroke:#181818;stroke-width:1.0;"/><polygon fill="#181818" points="135.5,257.91,139.5,248.91,135.5,252.91,131.5,248.91,135.5,257.91" style="stroke:#181818;stroke-width:1.0;"/><text fill="#000000" font-family="sans-serif" font-size="13" lengthAdjust="spacing" textLength="56" x="72.325" y="247.2271">myButton</text></g><!--MD5=[8df1560213d8b80723daf5bc921a3574]
@startuml
!include ..\..\..\out_puml\Scripts\Views\AddActor.puml
@enduml

@startuml
class AddActor {
    +  <<event>> onActorAdded : ActorAdded 
    + AddActor()
}
VisualElement <|- - AddActor
AddActor - -> "myButton" Button
@enduml

PlantUML version 1.2022.5(Sat Apr 30 20:55:52 AEST 2022)
(GPL source distribution)
Java Runtime: Java(TM) SE Runtime Environment
JVM: Java HotSpot(TM) 64-Bit Server VM
Default Encoding: Cp1252
Language: en
Country: AU
--></g></svg>