<?xml version="1.0" encoding="UTF-8" standalone="no"?><svg xmlns="http://www.w3.org/2000/svg" xmlns:xlink="http://www.w3.org/1999/xlink" contentStyleType="text/css" height="313px" preserveAspectRatio="none" style="width:327px;height:313px;background:#FFFFFF;" version="1.1" viewBox="0 0 327 313" width="327px" zoomAndPan="magnify"><defs/><g><!--MD5=[13b341ef5366a3f2e8ca0f85dcc75606]
class SceneView--><g id="elem_SceneView"><rect codeLine="1" fill="#F1F1F1" height="83.2188" id="SceneView" rx="2.5" ry="2.5" style="stroke:#181818;stroke-width:0.5;" width="288" x="25.5" y="115"/><ellipse cx="130.75" cy="131" fill="#ADD1B2" rx="11" ry="11" style="stroke:#181818;stroke-width:1.0;"/><path d="M133.5156,126.875 Q133.6719,126.6563 133.8594,126.5469 Q134.0469,126.4375 134.2656,126.4375 Q134.6406,126.4375 134.875,126.7031 Q135.1094,126.9531 135.1094,127.5625 L135.1094,129.0156 Q135.1094,129.625 134.875,129.8906 Q134.6406,130.1563 134.2656,130.1563 Q133.9219,130.1563 133.7188,129.9531 Q133.5156,129.7656 133.4063,129.25 Q133.3594,128.8906 133.1719,128.7031 Q132.8438,128.3281 132.2344,128.1094 Q131.625,127.8906 131,127.8906 Q130.2344,127.8906 129.5938,128.2188 Q128.9688,128.5469 128.4688,129.2969 Q127.9844,130.0469 127.9844,131.0781 L127.9844,132.1719 Q127.9844,133.4063 128.875,134.2344 Q129.7656,135.0469 131.3594,135.0469 Q132.2969,135.0469 132.9531,134.7969 Q133.3438,134.6406 133.7656,134.2031 Q134.0313,133.9375 134.1719,133.8594 Q134.3281,133.7813 134.5313,133.7813 Q134.8594,133.7813 135.1094,134.0469 Q135.375,134.2969 135.375,134.6406 Q135.375,134.9844 135.0313,135.3906 Q134.5313,135.9688 133.7344,136.2969 Q132.6563,136.75 131.3594,136.75 Q129.8438,136.75 128.6406,136.125 Q127.6563,135.625 126.9688,134.5625 Q126.2813,133.4844 126.2813,132.2031 L126.2813,131.0469 Q126.2813,129.7188 126.8906,128.5781 Q127.5156,127.4219 128.6094,126.8125 Q129.7031,126.1875 130.9375,126.1875 Q131.6719,126.1875 132.3125,126.3594 Q132.9688,126.5156 133.5156,126.875 Z " fill="#000000"/><text fill="#000000" font-family="sans-serif" font-size="14" lengthAdjust="spacing" textLength="69" x="151.25" y="136.7285">SceneView</text><line style="stroke:#181818;stroke-width:0.5;" x1="26.5" x2="312.5" y1="147" y2="147"/><line style="stroke:#181818;stroke-width:0.5;" x1="26.5" x2="312.5" y1="155" y2="155"/><ellipse cx="36.5" cy="166" fill="#84BE84" rx="3" ry="3" style="stroke:#038048;stroke-width:1.0;"/><text fill="#000000" font-family="sans-serif" font-size="14" lengthAdjust="spacing" textLength="79" x="45.5" y="173.5332">SceneView()</text><ellipse cx="36.5" cy="183.6094" fill="#84BE84" rx="3" ry="3" style="stroke:#038048;stroke-width:1.0;"/><text fill="#000000" font-family="sans-serif" font-size="14" lengthAdjust="spacing" text-decoration="underline" textLength="262" x="45.5" y="191.1426">getSceneRootFolderName() : List&lt;string&gt;</text></g><!--MD5=[e77834a0fda1b3f817ae7f2b19e4424d]
class VisualElement--><g id="elem_VisualElement"><rect fill="#F1F1F1" height="48" id="VisualElement" rx="2.5" ry="2.5" style="stroke:#181818;stroke-width:0.5;" width="121" x="109" y="7"/><ellipse cx="124" cy="23" fill="#ADD1B2" rx="11" ry="11" style="stroke:#181818;stroke-width:1.0;"/><path d="M126.7656,18.875 Q126.9219,18.6563 127.1094,18.5469 Q127.2969,18.4375 127.5156,18.4375 Q127.8906,18.4375 128.125,18.7031 Q128.3594,18.9531 128.3594,19.5625 L128.3594,21.0156 Q128.3594,21.625 128.125,21.8906 Q127.8906,22.1563 127.5156,22.1563 Q127.1719,22.1563 126.9688,21.9531 Q126.7656,21.7656 126.6563,21.25 Q126.6094,20.8906 126.4219,20.7031 Q126.0938,20.3281 125.4844,20.1094 Q124.875,19.8906 124.25,19.8906 Q123.4844,19.8906 122.8438,20.2188 Q122.2188,20.5469 121.7188,21.2969 Q121.2344,22.0469 121.2344,23.0781 L121.2344,24.1719 Q121.2344,25.4063 122.125,26.2344 Q123.0156,27.0469 124.6094,27.0469 Q125.5469,27.0469 126.2031,26.7969 Q126.5938,26.6406 127.0156,26.2031 Q127.2813,25.9375 127.4219,25.8594 Q127.5781,25.7813 127.7813,25.7813 Q128.1094,25.7813 128.3594,26.0469 Q128.625,26.2969 128.625,26.6406 Q128.625,26.9844 128.2813,27.3906 Q127.7813,27.9688 126.9844,28.2969 Q125.9063,28.75 124.6094,28.75 Q123.0938,28.75 121.8906,28.125 Q120.9063,27.625 120.2188,26.5625 Q119.5313,25.4844 119.5313,24.2031 L119.5313,23.0469 Q119.5313,21.7188 120.1406,20.5781 Q120.7656,19.4219 121.8594,18.8125 Q122.9531,18.1875 124.1875,18.1875 Q124.9219,18.1875 125.5625,18.3594 Q126.2188,18.5156 126.7656,18.875 Z " fill="#000000"/><text fill="#000000" font-family="sans-serif" font-size="14" lengthAdjust="spacing" textLength="89" x="138" y="28.7285">VisualElement</text><line style="stroke:#181818;stroke-width:0.5;" x1="110" x2="229" y1="39" y2="39"/><line style="stroke:#181818;stroke-width:0.5;" x1="110" x2="229" y1="47" y2="47"/></g><!--MD5=[298883191722f47d612a790005ce591d]
class ComponentHeader--><g id="elem_ComponentHeader"><rect fill="#F1F1F1" height="48" id="ComponentHeader" rx="2.5" ry="2.5" style="stroke:#181818;stroke-width:0.5;" width="151" x="7" y="258"/><ellipse cx="22" cy="274" fill="#ADD1B2" rx="11" ry="11" style="stroke:#181818;stroke-width:1.0;"/><path d="M24.7656,269.875 Q24.9219,269.6563 25.1094,269.5469 Q25.2969,269.4375 25.5156,269.4375 Q25.8906,269.4375 26.125,269.7031 Q26.3594,269.9531 26.3594,270.5625 L26.3594,272.0156 Q26.3594,272.625 26.125,272.8906 Q25.8906,273.1563 25.5156,273.1563 Q25.1719,273.1563 24.9688,272.9531 Q24.7656,272.7656 24.6563,272.25 Q24.6094,271.8906 24.4219,271.7031 Q24.0938,271.3281 23.4844,271.1094 Q22.875,270.8906 22.25,270.8906 Q21.4844,270.8906 20.8438,271.2188 Q20.2188,271.5469 19.7188,272.2969 Q19.2344,273.0469 19.2344,274.0781 L19.2344,275.1719 Q19.2344,276.4063 20.125,277.2344 Q21.0156,278.0469 22.6094,278.0469 Q23.5469,278.0469 24.2031,277.7969 Q24.5938,277.6406 25.0156,277.2031 Q25.2813,276.9375 25.4219,276.8594 Q25.5781,276.7813 25.7813,276.7813 Q26.1094,276.7813 26.3594,277.0469 Q26.625,277.2969 26.625,277.6406 Q26.625,277.9844 26.2813,278.3906 Q25.7813,278.9688 24.9844,279.2969 Q23.9063,279.75 22.6094,279.75 Q21.0938,279.75 19.8906,279.125 Q18.9063,278.625 18.2188,277.5625 Q17.5313,276.4844 17.5313,275.2031 L17.5313,274.0469 Q17.5313,272.7188 18.1406,271.5781 Q18.7656,270.4219 19.8594,269.8125 Q20.9531,269.1875 22.1875,269.1875 Q22.9219,269.1875 23.5625,269.3594 Q24.2188,269.5156 24.7656,269.875 Z " fill="#000000"/><text fill="#000000" font-family="sans-serif" font-size="14" lengthAdjust="spacing" textLength="119" x="36" y="279.7285">ComponentHeader</text><line style="stroke:#181818;stroke-width:0.5;" x1="8" x2="157" y1="290" y2="290"/><line style="stroke:#181818;stroke-width:0.5;" x1="8" x2="157" y1="298" y2="298"/></g><!--MD5=[e9b5ee0446a42629a7416d22a027c116]
class DropdownField--><g id="elem_DropdownField"><rect fill="#F1F1F1" height="48" id="DropdownField" rx="2.5" ry="2.5" style="stroke:#181818;stroke-width:0.5;" width="127" x="193" y="258"/><ellipse cx="208" cy="274" fill="#ADD1B2" rx="11" ry="11" style="stroke:#181818;stroke-width:1.0;"/><path d="M210.7656,269.875 Q210.9219,269.6563 211.1094,269.5469 Q211.2969,269.4375 211.5156,269.4375 Q211.8906,269.4375 212.125,269.7031 Q212.3594,269.9531 212.3594,270.5625 L212.3594,272.0156 Q212.3594,272.625 212.125,272.8906 Q211.8906,273.1563 211.5156,273.1563 Q211.1719,273.1563 210.9688,272.9531 Q210.7656,272.7656 210.6563,272.25 Q210.6094,271.8906 210.4219,271.7031 Q210.0938,271.3281 209.4844,271.1094 Q208.875,270.8906 208.25,270.8906 Q207.4844,270.8906 206.8438,271.2188 Q206.2188,271.5469 205.7188,272.2969 Q205.2344,273.0469 205.2344,274.0781 L205.2344,275.1719 Q205.2344,276.4063 206.125,277.2344 Q207.0156,278.0469 208.6094,278.0469 Q209.5469,278.0469 210.2031,277.7969 Q210.5938,277.6406 211.0156,277.2031 Q211.2813,276.9375 211.4219,276.8594 Q211.5781,276.7813 211.7813,276.7813 Q212.1094,276.7813 212.3594,277.0469 Q212.625,277.2969 212.625,277.6406 Q212.625,277.9844 212.2813,278.3906 Q211.7813,278.9688 210.9844,279.2969 Q209.9063,279.75 208.6094,279.75 Q207.0938,279.75 205.8906,279.125 Q204.9063,278.625 204.2188,277.5625 Q203.5313,276.4844 203.5313,275.2031 L203.5313,274.0469 Q203.5313,272.7188 204.1406,271.5781 Q204.7656,270.4219 205.8594,269.8125 Q206.9531,269.1875 208.1875,269.1875 Q208.9219,269.1875 209.5625,269.3594 Q210.2188,269.5156 210.7656,269.875 Z " fill="#000000"/><text fill="#000000" font-family="sans-serif" font-size="14" lengthAdjust="spacing" textLength="95" x="222" y="279.7285">DropdownField</text><line style="stroke:#181818;stroke-width:0.5;" x1="194" x2="319" y1="290" y2="290"/><line style="stroke:#181818;stroke-width:0.5;" x1="194" x2="319" y1="298" y2="298"/></g><!--MD5=[f811ca8b1f2ca46ae664816cf7b49c6f]
reverse link VisualElement to SceneView--><g id="link_VisualElement_SceneView"><path codeLine="5" d="M169.5,75.31 C169.5,88.16 169.5,102.19 169.5,114.87 " fill="none" id="VisualElement-backto-SceneView" style="stroke:#181818;stroke-width:1.0;"/><polygon fill="none" points="162.5,75.23,169.5,55.23,176.5,75.23,162.5,75.23" style="stroke:#181818;stroke-width:1.0;"/></g><!--MD5=[7bc5e55f2587b0bc084ee94ff959b2df]
link SceneView to ComponentHeader--><g id="link_SceneView_ComponentHeader"><path codeLine="6" d="M140.77,198.28 C128.01,216.39 113.33,237.23 101.9,253.46 " fill="none" id="SceneView-to-ComponentHeader" style="stroke:#181818;stroke-width:1.0;"/><polygon fill="#181818" points="98.76,257.91,107.2076,252.8466,101.635,253.8192,100.6624,248.2466,98.76,257.91" style="stroke:#181818;stroke-width:1.0;"/><text fill="#000000" font-family="sans-serif" font-size="13" lengthAdjust="spacing" textLength="39" x="58.9298" y="247.2271">header</text></g><!--MD5=[74b9d026e1bd69f853a20f6e76aa4fa2]
link SceneView to DropdownField--><g id="link_SceneView_DropdownField"><path codeLine="7" d="M198.23,198.28 C210.99,216.39 225.67,237.23 237.1,253.46 " fill="none" id="SceneView-to-DropdownField" style="stroke:#181818;stroke-width:1.0;"/><polygon fill="#181818" points="240.24,257.91,238.3376,248.2466,237.365,253.8192,231.7924,252.8466,240.24,257.91" style="stroke:#181818;stroke-width:1.0;"/><text fill="#000000" font-family="sans-serif" font-size="13" lengthAdjust="spacing" textLength="94" x="163.0406" y="247.1942">sceneDropDown</text></g><!--MD5=[ede234b880edc25f38821c5c65109947]
@startuml
!include ..\..\..\out_puml\Scripts\Views\SceneView.puml
@enduml

@startuml
class SceneView {
    + SceneView()
    + {static} getSceneRootFolderName() : List<string>
}
VisualElement <|- - SceneView
SceneView - -> "header" ComponentHeader
SceneView - -> "sceneDropDown" DropdownField
@enduml

PlantUML version 1.2022.5(Sat Apr 30 20:55:52 AEST 2022)
(GPL source distribution)
Java Runtime: Java(TM) SE Runtime Environment
JVM: Java HotSpot(TM) 64-Bit Server VM
Default Encoding: Cp1252
Language: en
Country: AU
--></g></svg>