<?xml version="1.0" encoding="UTF-8" standalone="no"?><svg xmlns="http://www.w3.org/2000/svg" xmlns:xlink="http://www.w3.org/1999/xlink" contentStyleType="text/css" height="296px" preserveAspectRatio="none" style="width:498px;height:296px;background:#FFFFFF;" version="1.1" viewBox="0 0 498 296" width="498px" zoomAndPan="magnify"><defs/><g><!--MD5=[a3825b2634602f58778902eb564a4fea]
class RigidBodyView--><g id="elem_RigidBodyView"><rect codeLine="1" fill="#F1F1F1" height="65.6094" id="RigidBodyView" rx="2.5" ry="2.5" style="stroke:#181818;stroke-width:0.5;" width="129" x="215" y="115"/><ellipse cx="231.8" cy="131" fill="#ADD1B2" rx="11" ry="11" style="stroke:#181818;stroke-width:1.0;"/><path d="M234.5656,126.875 Q234.7219,126.6563 234.9094,126.5469 Q235.0969,126.4375 235.3156,126.4375 Q235.6906,126.4375 235.925,126.7031 Q236.1594,126.9531 236.1594,127.5625 L236.1594,129.0156 Q236.1594,129.625 235.925,129.8906 Q235.6906,130.1563 235.3156,130.1563 Q234.9719,130.1563 234.7688,129.9531 Q234.5656,129.7656 234.4563,129.25 Q234.4094,128.8906 234.2219,128.7031 Q233.8938,128.3281 233.2844,128.1094 Q232.675,127.8906 232.05,127.8906 Q231.2844,127.8906 230.6438,128.2188 Q230.0188,128.5469 229.5188,129.2969 Q229.0344,130.0469 229.0344,131.0781 L229.0344,132.1719 Q229.0344,133.4063 229.925,134.2344 Q230.8156,135.0469 232.4094,135.0469 Q233.3469,135.0469 234.0031,134.7969 Q234.3938,134.6406 234.8156,134.2031 Q235.0813,133.9375 235.2219,133.8594 Q235.3781,133.7813 235.5813,133.7813 Q235.9094,133.7813 236.1594,134.0469 Q236.425,134.2969 236.425,134.6406 Q236.425,134.9844 236.0813,135.3906 Q235.5813,135.9688 234.7844,136.2969 Q233.7063,136.75 232.4094,136.75 Q230.8938,136.75 229.6906,136.125 Q228.7063,135.625 228.0188,134.5625 Q227.3313,133.4844 227.3313,132.2031 L227.3313,131.0469 Q227.3313,129.7188 227.9406,128.5781 Q228.5656,127.4219 229.6594,126.8125 Q230.7531,126.1875 231.9875,126.1875 Q232.7219,126.1875 233.3625,126.3594 Q234.0188,126.5156 234.5656,126.875 Z " fill="#000000"/><text fill="#000000" font-family="sans-serif" font-size="14" lengthAdjust="spacing" textLength="93" x="246.2" y="136.7285">RigidBodyView</text><line style="stroke:#181818;stroke-width:0.5;" x1="216" x2="343" y1="147" y2="147"/><line style="stroke:#181818;stroke-width:0.5;" x1="216" x2="343" y1="155" y2="155"/><ellipse cx="226" cy="166" fill="#84BE84" rx="3" ry="3" style="stroke:#038048;stroke-width:1.0;"/><text fill="#000000" font-family="sans-serif" font-size="14" lengthAdjust="spacing" textLength="103" x="235" y="173.5332">RigidBodyView()</text></g><!--MD5=[e77834a0fda1b3f817ae7f2b19e4424d]
class VisualElement--><g id="elem_VisualElement"><rect fill="#F1F1F1" height="48" id="VisualElement" rx="2.5" ry="2.5" style="stroke:#181818;stroke-width:0.5;" width="121" x="219" y="7"/><ellipse cx="234" cy="23" fill="#ADD1B2" rx="11" ry="11" style="stroke:#181818;stroke-width:1.0;"/><path d="M236.7656,18.875 Q236.9219,18.6563 237.1094,18.5469 Q237.2969,18.4375 237.5156,18.4375 Q237.8906,18.4375 238.125,18.7031 Q238.3594,18.9531 238.3594,19.5625 L238.3594,21.0156 Q238.3594,21.625 238.125,21.8906 Q237.8906,22.1563 237.5156,22.1563 Q237.1719,22.1563 236.9688,21.9531 Q236.7656,21.7656 236.6563,21.25 Q236.6094,20.8906 236.4219,20.7031 Q236.0938,20.3281 235.4844,20.1094 Q234.875,19.8906 234.25,19.8906 Q233.4844,19.8906 232.8438,20.2188 Q232.2188,20.5469 231.7188,21.2969 Q231.2344,22.0469 231.2344,23.0781 L231.2344,24.1719 Q231.2344,25.4063 232.125,26.2344 Q233.0156,27.0469 234.6094,27.0469 Q235.5469,27.0469 236.2031,26.7969 Q236.5938,26.6406 237.0156,26.2031 Q237.2813,25.9375 237.4219,25.8594 Q237.5781,25.7813 237.7813,25.7813 Q238.1094,25.7813 238.3594,26.0469 Q238.625,26.2969 238.625,26.6406 Q238.625,26.9844 238.2813,27.3906 Q237.7813,27.9688 236.9844,28.2969 Q235.9063,28.75 234.6094,28.75 Q233.0938,28.75 231.8906,28.125 Q230.9063,27.625 230.2188,26.5625 Q229.5313,25.4844 229.5313,24.2031 L229.5313,23.0469 Q229.5313,21.7188 230.1406,20.5781 Q230.7656,19.4219 231.8594,18.8125 Q232.9531,18.1875 234.1875,18.1875 Q234.9219,18.1875 235.5625,18.3594 Q236.2188,18.5156 236.7656,18.875 Z " fill="#000000"/><text fill="#000000" font-family="sans-serif" font-size="14" lengthAdjust="spacing" textLength="89" x="248" y="28.7285">VisualElement</text><line style="stroke:#181818;stroke-width:0.5;" x1="220" x2="339" y1="39" y2="39"/><line style="stroke:#181818;stroke-width:0.5;" x1="220" x2="339" y1="47" y2="47"/></g><!--MD5=[298883191722f47d612a790005ce591d]
class ComponentHeader--><g id="elem_ComponentHeader"><rect fill="#F1F1F1" height="48" id="ComponentHeader" rx="2.5" ry="2.5" style="stroke:#181818;stroke-width:0.5;" width="151" x="7" y="241"/><ellipse cx="22" cy="257" fill="#ADD1B2" rx="11" ry="11" style="stroke:#181818;stroke-width:1.0;"/><path d="M24.7656,252.875 Q24.9219,252.6563 25.1094,252.5469 Q25.2969,252.4375 25.5156,252.4375 Q25.8906,252.4375 26.125,252.7031 Q26.3594,252.9531 26.3594,253.5625 L26.3594,255.0156 Q26.3594,255.625 26.125,255.8906 Q25.8906,256.1563 25.5156,256.1563 Q25.1719,256.1563 24.9688,255.9531 Q24.7656,255.7656 24.6563,255.25 Q24.6094,254.8906 24.4219,254.7031 Q24.0938,254.3281 23.4844,254.1094 Q22.875,253.8906 22.25,253.8906 Q21.4844,253.8906 20.8438,254.2188 Q20.2188,254.5469 19.7188,255.2969 Q19.2344,256.0469 19.2344,257.0781 L19.2344,258.1719 Q19.2344,259.4063 20.125,260.2344 Q21.0156,261.0469 22.6094,261.0469 Q23.5469,261.0469 24.2031,260.7969 Q24.5938,260.6406 25.0156,260.2031 Q25.2813,259.9375 25.4219,259.8594 Q25.5781,259.7813 25.7813,259.7813 Q26.1094,259.7813 26.3594,260.0469 Q26.625,260.2969 26.625,260.6406 Q26.625,260.9844 26.2813,261.3906 Q25.7813,261.9688 24.9844,262.2969 Q23.9063,262.75 22.6094,262.75 Q21.0938,262.75 19.8906,262.125 Q18.9063,261.625 18.2188,260.5625 Q17.5313,259.4844 17.5313,258.2031 L17.5313,257.0469 Q17.5313,255.7188 18.1406,254.5781 Q18.7656,253.4219 19.8594,252.8125 Q20.9531,252.1875 22.1875,252.1875 Q22.9219,252.1875 23.5625,252.3594 Q24.2188,252.5156 24.7656,252.875 Z " fill="#000000"/><text fill="#000000" font-family="sans-serif" font-size="14" lengthAdjust="spacing" textLength="119" x="36" y="262.7285">ComponentHeader</text><line style="stroke:#181818;stroke-width:0.5;" x1="8" x2="157" y1="273" y2="273"/><line style="stroke:#181818;stroke-width:0.5;" x1="8" x2="157" y1="281" y2="281"/></g><!--MD5=[904b9abd7e00f2aae8221029467d07fa]
class ObjectSelectionOption--><g id="elem_ObjectSelectionOption"><rect fill="#F1F1F1" height="48" id="ObjectSelectionOption" rx="2.5" ry="2.5" style="stroke:#181818;stroke-width:0.5;" width="173" x="193" y="241"/><ellipse cx="208" cy="257" fill="#ADD1B2" rx="11" ry="11" style="stroke:#181818;stroke-width:1.0;"/><path d="M210.7656,252.875 Q210.9219,252.6563 211.1094,252.5469 Q211.2969,252.4375 211.5156,252.4375 Q211.8906,252.4375 212.125,252.7031 Q212.3594,252.9531 212.3594,253.5625 L212.3594,255.0156 Q212.3594,255.625 212.125,255.8906 Q211.8906,256.1563 211.5156,256.1563 Q211.1719,256.1563 210.9688,255.9531 Q210.7656,255.7656 210.6563,255.25 Q210.6094,254.8906 210.4219,254.7031 Q210.0938,254.3281 209.4844,254.1094 Q208.875,253.8906 208.25,253.8906 Q207.4844,253.8906 206.8438,254.2188 Q206.2188,254.5469 205.7188,255.2969 Q205.2344,256.0469 205.2344,257.0781 L205.2344,258.1719 Q205.2344,259.4063 206.125,260.2344 Q207.0156,261.0469 208.6094,261.0469 Q209.5469,261.0469 210.2031,260.7969 Q210.5938,260.6406 211.0156,260.2031 Q211.2813,259.9375 211.4219,259.8594 Q211.5781,259.7813 211.7813,259.7813 Q212.1094,259.7813 212.3594,260.0469 Q212.625,260.2969 212.625,260.6406 Q212.625,260.9844 212.2813,261.3906 Q211.7813,261.9688 210.9844,262.2969 Q209.9063,262.75 208.6094,262.75 Q207.0938,262.75 205.8906,262.125 Q204.9063,261.625 204.2188,260.5625 Q203.5313,259.4844 203.5313,258.2031 L203.5313,257.0469 Q203.5313,255.7188 204.1406,254.5781 Q204.7656,253.4219 205.8594,252.8125 Q206.9531,252.1875 208.1875,252.1875 Q208.9219,252.1875 209.5625,252.3594 Q210.2188,252.5156 210.7656,252.875 Z " fill="#000000"/><text fill="#000000" font-family="sans-serif" font-size="14" lengthAdjust="spacing" textLength="141" x="222" y="262.7285">ObjectSelectionOption</text><line style="stroke:#181818;stroke-width:0.5;" x1="194" x2="365" y1="273" y2="273"/><line style="stroke:#181818;stroke-width:0.5;" x1="194" x2="365" y1="281" y2="281"/></g><!--MD5=[08f17f19c0d70a0e7c16ecefbdd21d1c]
class TextField--><g id="elem_TextField"><rect fill="#F1F1F1" height="48" id="TextField" rx="2.5" ry="2.5" style="stroke:#181818;stroke-width:0.5;" width="90" x="401.5" y="241"/><ellipse cx="416.5" cy="257" fill="#ADD1B2" rx="11" ry="11" style="stroke:#181818;stroke-width:1.0;"/><path d="M419.2656,252.875 Q419.4219,252.6563 419.6094,252.5469 Q419.7969,252.4375 420.0156,252.4375 Q420.3906,252.4375 420.625,252.7031 Q420.8594,252.9531 420.8594,253.5625 L420.8594,255.0156 Q420.8594,255.625 420.625,255.8906 Q420.3906,256.1563 420.0156,256.1563 Q419.6719,256.1563 419.4688,255.9531 Q419.2656,255.7656 419.1563,255.25 Q419.1094,254.8906 418.9219,254.7031 Q418.5938,254.3281 417.9844,254.1094 Q417.375,253.8906 416.75,253.8906 Q415.9844,253.8906 415.3438,254.2188 Q414.7188,254.5469 414.2188,255.2969 Q413.7344,256.0469 413.7344,257.0781 L413.7344,258.1719 Q413.7344,259.4063 414.625,260.2344 Q415.5156,261.0469 417.1094,261.0469 Q418.0469,261.0469 418.7031,260.7969 Q419.0938,260.6406 419.5156,260.2031 Q419.7813,259.9375 419.9219,259.8594 Q420.0781,259.7813 420.2813,259.7813 Q420.6094,259.7813 420.8594,260.0469 Q421.125,260.2969 421.125,260.6406 Q421.125,260.9844 420.7813,261.3906 Q420.2813,261.9688 419.4844,262.2969 Q418.4063,262.75 417.1094,262.75 Q415.5938,262.75 414.3906,262.125 Q413.4063,261.625 412.7188,260.5625 Q412.0313,259.4844 412.0313,258.2031 L412.0313,257.0469 Q412.0313,255.7188 412.6406,254.5781 Q413.2656,253.4219 414.3594,252.8125 Q415.4531,252.1875 416.6875,252.1875 Q417.4219,252.1875 418.0625,252.3594 Q418.7188,252.5156 419.2656,252.875 Z " fill="#000000"/><text fill="#000000" font-family="sans-serif" font-size="14" lengthAdjust="spacing" textLength="58" x="430.5" y="262.7285">TextField</text><line style="stroke:#181818;stroke-width:0.5;" x1="402.5" x2="490.5" y1="273" y2="273"/><line style="stroke:#181818;stroke-width:0.5;" x1="402.5" x2="490.5" y1="281" y2="281"/></g><!--MD5=[d551620da87027ffdb415e2642f49d2d]
reverse link VisualElement to RigidBodyView--><g id="link_VisualElement_RigidBodyView"><path codeLine="4" d="M279.5,75.62 C279.5,88.56 279.5,102.51 279.5,114.61 " fill="none" id="VisualElement-backto-RigidBodyView" style="stroke:#181818;stroke-width:1.0;"/><polygon fill="none" points="272.5,75.27,279.5,55.27,286.5,75.27,272.5,75.27" style="stroke:#181818;stroke-width:1.0;"/></g><!--MD5=[469bca92a954599cd879122f2a634e54]
link RigidBodyView to ComponentHeader--><g id="link_RigidBodyView_ComponentHeader"><path codeLine="5" d="M224.62,181.03 C193.72,199.08 155.63,221.31 126.66,238.22 " fill="none" id="RigidBodyView-to-ComponentHeader" style="stroke:#181818;stroke-width:1.0;"/><polygon fill="#181818" points="122.1,240.89,131.8888,239.8043,126.4173,238.368,127.8536,232.8965,122.1,240.89" style="stroke:#181818;stroke-width:1.0;"/><text fill="#000000" font-family="sans-serif" font-size="13" lengthAdjust="spacing" textLength="39" x="88.2506" y="230.202">header</text></g><!--MD5=[f127f3a58b45a8e2ad353f0a46b43f7c]
link RigidBodyView to ObjectSelectionOption--><g id="link_RigidBodyView_ObjectSelectionOption"><path codeLine="6" d="M279.5,181.03 C279.5,198.11 279.5,218.94 279.5,235.46 " fill="none" id="RigidBodyView-to-ObjectSelectionOption" style="stroke:#181818;stroke-width:1.0;"/><polygon fill="#181818" points="279.5,240.89,283.5,231.89,279.5,235.89,275.5,231.89,279.5,240.89" style="stroke:#181818;stroke-width:1.0;"/><text fill="#000000" font-family="sans-serif" font-size="13" lengthAdjust="spacing" textLength="63" x="208.4281" y="230.202">objectField</text></g><!--MD5=[ff89cf0fbef611a5c1f0b208dbb4abdf]
link RigidBodyView to TextField--><g id="link_RigidBodyView_TextField"><path codeLine="7" d="M326.02,181.03 C352.11,199 384.24,221.13 408.76,238.01 " fill="none" id="RigidBodyView-to-TextField" style="stroke:#181818;stroke-width:1.0;"/><polygon fill="#181818" points="412.93,240.89,407.7995,232.483,408.8165,238.0477,403.2518,239.0646,412.93,240.89" style="stroke:#181818;stroke-width:1.0;"/><text fill="#000000" font-family="sans-serif" font-size="13" lengthAdjust="spacing" textLength="83" x="353.4066" y="230.1393">skeletonName</text></g><!--MD5=[a738437389ce9aca5bd7e4a6c928036c]
@startuml
!include ..\..\..\out_puml\Scripts\Views\RigidBodyView.puml
@enduml

@startuml
class RigidBodyView {
    + RigidBodyView()
}
VisualElement <|- - RigidBodyView
RigidBodyView - -> "header" ComponentHeader
RigidBodyView - -> "objectField" ObjectSelectionOption
RigidBodyView - -> "skeletonName" TextField
@enduml

PlantUML version 1.2022.5(Sat Apr 30 20:55:52 AEST 2022)
(GPL source distribution)
Java Runtime: Java(TM) SE Runtime Environment
JVM: Java HotSpot(TM) 64-Bit Server VM
Default Encoding: Cp1252
Language: en
Country: AU
--></g></svg>