<?xml version="1.0" encoding="UTF-8" standalone="no"?><svg xmlns="http://www.w3.org/2000/svg" xmlns:xlink="http://www.w3.org/1999/xlink" contentStyleType="text/css" height="1220px" preserveAspectRatio="none" style="width:1203px;height:1220px;background:#FFFFFF;" version="1.1" viewBox="0 0 1203 1220" width="1203px" zoomAndPan="magnify"><defs/><g><!--MD5=[3af84d048c735dc5a37e2d49409cfd2b]
cluster EditorWindows--><g id="cluster_EditorWindows"><rect height="223" rx="2.5" ry="2.5" style="stroke:#181818;stroke-width:1.0;fill:none;" width="548" x="423" y="102"/><path d="M538,102 L538,112.6094 L528,122.6094 L423,122.6094 " fill="none" style="stroke:#181818;stroke-width:1.0;"/><text fill="#000000" font-family="sans-serif" font-size="14" font-weight="bold" lengthAdjust="spacing" textLength="105" x="426" y="117.5332">EditorWindows</text></g><!--MD5=[4fc7062ed4edd664ef2653f8bfc5883f]
cluster Unity--><g id="cluster_Unity"><rect height="254.5" rx="2.5" ry="2.5" style="stroke:#181818;stroke-width:1.0;fill:none;" width="365" x="11" y="384.5"/><path d="M56,384.5 L56,395.1094 L46,405.1094 L11,405.1094 " fill="none" style="stroke:#181818;stroke-width:1.0;"/><text fill="#000000" font-family="sans-serif" font-size="14" font-weight="bold" lengthAdjust="spacing" textLength="35" x="14" y="400.0332">Unity</text></g><!--MD5=[027ebfd53c01aea08f474edbf35d0797]
cluster Models--><g id="cluster_Models"><rect height="525" rx="2.5" ry="2.5" style="stroke:#181818;stroke-width:1.0;fill:none;" width="448" x="7" y="689"/><path d="M69,689 L69,699.6094 L59,709.6094 L7,709.6094 " fill="none" style="stroke:#181818;stroke-width:1.0;"/><text fill="#000000" font-family="sans-serif" font-size="14" font-weight="bold" lengthAdjust="spacing" textLength="52" x="10" y="704.5332">Models</text></g><!--MD5=[999f80192410ad58725ac6d158b21eb2]
cluster Views--><g id="cluster_Views"><rect height="153" rx="2.5" ry="2.5" style="stroke:#181818;stroke-width:1.0;fill:none;" width="754" x="443" y="358"/><path d="M494,358 L494,368.6094 L484,378.6094 L443,378.6094 " fill="none" style="stroke:#181818;stroke-width:1.0;"/><text fill="#000000" font-family="sans-serif" font-size="14" font-weight="bold" lengthAdjust="spacing" textLength="41" x="446" y="373.5332">Views</text></g><!--MD5=[eb7ba22be95d2a9aaf5248fbb518b40d]
class SceneEditor--><g id="elem_SceneEditor"><rect codeLine="1" fill="#F1F1F1" height="171.2656" id="SceneEditor" rx="2.5" ry="2.5" style="stroke:#181818;stroke-width:0.5;" width="516" x="439" y="138"/><ellipse cx="654.25" cy="154" fill="#ADD1B2" rx="11" ry="11" style="stroke:#181818;stroke-width:1.0;"/><path d="M657.0156,149.875 Q657.1719,149.6563 657.3594,149.5469 Q657.5469,149.4375 657.7656,149.4375 Q658.1406,149.4375 658.375,149.7031 Q658.6094,149.9531 658.6094,150.5625 L658.6094,152.0156 Q658.6094,152.625 658.375,152.8906 Q658.1406,153.1563 657.7656,153.1563 Q657.4219,153.1563 657.2188,152.9531 Q657.0156,152.7656 656.9063,152.25 Q656.8594,151.8906 656.6719,151.7031 Q656.3438,151.3281 655.7344,151.1094 Q655.125,150.8906 654.5,150.8906 Q653.7344,150.8906 653.0938,151.2188 Q652.4688,151.5469 651.9688,152.2969 Q651.4844,153.0469 651.4844,154.0781 L651.4844,155.1719 Q651.4844,156.4063 652.375,157.2344 Q653.2656,158.0469 654.8594,158.0469 Q655.7969,158.0469 656.4531,157.7969 Q656.8438,157.6406 657.2656,157.2031 Q657.5313,156.9375 657.6719,156.8594 Q657.8281,156.7813 658.0313,156.7813 Q658.3594,156.7813 658.6094,157.0469 Q658.875,157.2969 658.875,157.6406 Q658.875,157.9844 658.5313,158.3906 Q658.0313,158.9688 657.2344,159.2969 Q656.1563,159.75 654.8594,159.75 Q653.3438,159.75 652.1406,159.125 Q651.1563,158.625 650.4688,157.5625 Q649.7813,156.4844 649.7813,155.2031 L649.7813,154.0469 Q649.7813,152.7188 650.3906,151.5781 Q651.0156,150.4219 652.1094,149.8125 Q653.2031,149.1875 654.4375,149.1875 Q655.1719,149.1875 655.8125,149.3594 Q656.4688,149.5156 657.0156,149.875 Z " fill="#000000"/><text fill="#000000" font-family="sans-serif" font-size="14" lengthAdjust="spacing" textLength="77" x="674.75" y="159.7285">SceneEditor</text><line style="stroke:#181818;stroke-width:0.5;" x1="440" x2="954" y1="170" y2="170"/><line style="stroke:#181818;stroke-width:0.5;" x1="440" x2="954" y1="178" y2="178"/><ellipse cx="450" cy="189" fill="#84BE84" rx="3" ry="3" style="stroke:#038048;stroke-width:1.0;"/><text fill="#000000" font-family="sans-serif" font-size="14" lengthAdjust="spacing" text-decoration="underline" textLength="135" x="459" y="196.5332">ShowExample() : void</text><rect fill="#F24D5C" height="6" style="stroke:#C82930;stroke-width:1.0;" width="6" x="447" y="203.6094"/><text fill="#000000" font-family="sans-serif" font-size="14" lengthAdjust="spacing" textLength="185" x="459" y="214.1426">InitSceneGameObject() : void</text><ellipse cx="450" cy="224.2188" fill="#84BE84" rx="3" ry="3" style="stroke:#038048;stroke-width:1.0;"/><text fill="#000000" font-family="sans-serif" font-size="14" lengthAdjust="spacing" textLength="66" x="459" y="231.752">Init() : void</text><ellipse cx="450" cy="241.8281" fill="#84BE84" rx="3" ry="3" style="stroke:#038048;stroke-width:1.0;"/><text fill="#000000" font-family="sans-serif" font-size="14" lengthAdjust="spacing" textLength="341" x="459" y="249.3613">Callback(scene:Scene, mode:OpenSceneMode) : void</text><rect fill="#F24D5C" height="6" style="stroke:#C82930;stroke-width:1.0;" width="6" x="447" y="256.4375"/><text fill="#000000" font-family="sans-serif" font-size="14" lengthAdjust="spacing" textLength="490" x="459" y="266.9707">Callback2(scene:Scene, setup:NewSceneSetup, mode:NewSceneMode) : void</text><ellipse cx="450" cy="277.0469" fill="#84BE84" rx="3" ry="3" style="stroke:#038048;stroke-width:1.0;"/><text fill="#000000" font-family="sans-serif" font-size="14" lengthAdjust="spacing" textLength="111" x="459" y="284.5801">OnEnable() : void</text><ellipse cx="450" cy="294.6563" fill="#84BE84" rx="3" ry="3" style="stroke:#038048;stroke-width:1.0;"/><text fill="#000000" font-family="sans-serif" font-size="14" lengthAdjust="spacing" textLength="114" x="459" y="302.1895">OnDisable() : void</text></g><!--MD5=[064f7a74fee85463ec1a30143664ee17]
class GameObject--><g id="elem_GameObject"><rect codeLine="8" fill="#F1F1F1" height="48" id="GameObject" rx="2.5" ry="2.5" style="stroke:#181818;stroke-width:0.5;" width="111" x="248.5" y="420.5"/><ellipse cx="263.5" cy="436.5" fill="#ADD1B2" rx="11" ry="11" style="stroke:#181818;stroke-width:1.0;"/><path d="M266.2656,432.375 Q266.4219,432.1563 266.6094,432.0469 Q266.7969,431.9375 267.0156,431.9375 Q267.3906,431.9375 267.625,432.2031 Q267.8594,432.4531 267.8594,433.0625 L267.8594,434.5156 Q267.8594,435.125 267.625,435.3906 Q267.3906,435.6563 267.0156,435.6563 Q266.6719,435.6563 266.4688,435.4531 Q266.2656,435.2656 266.1563,434.75 Q266.1094,434.3906 265.9219,434.2031 Q265.5938,433.8281 264.9844,433.6094 Q264.375,433.3906 263.75,433.3906 Q262.9844,433.3906 262.3438,433.7188 Q261.7188,434.0469 261.2188,434.7969 Q260.7344,435.5469 260.7344,436.5781 L260.7344,437.6719 Q260.7344,438.9063 261.625,439.7344 Q262.5156,440.5469 264.1094,440.5469 Q265.0469,440.5469 265.7031,440.2969 Q266.0938,440.1406 266.5156,439.7031 Q266.7813,439.4375 266.9219,439.3594 Q267.0781,439.2813 267.2813,439.2813 Q267.6094,439.2813 267.8594,439.5469 Q268.125,439.7969 268.125,440.1406 Q268.125,440.4844 267.7813,440.8906 Q267.2813,441.4688 266.4844,441.7969 Q265.4063,442.25 264.1094,442.25 Q262.5938,442.25 261.3906,441.625 Q260.4063,441.125 259.7188,440.0625 Q259.0313,438.9844 259.0313,437.7031 L259.0313,436.5469 Q259.0313,435.2188 259.6406,434.0781 Q260.2656,432.9219 261.3594,432.3125 Q262.4531,431.6875 263.6875,431.6875 Q264.4219,431.6875 265.0625,431.8594 Q265.7188,432.0156 266.2656,432.375 Z " fill="#000000"/><text fill="#000000" font-family="sans-serif" font-size="14" lengthAdjust="spacing" textLength="79" x="277.5" y="442.2285">GameObject</text><line style="stroke:#181818;stroke-width:0.5;" x1="249.5" x2="358.5" y1="452.5" y2="452.5"/><line style="stroke:#181818;stroke-width:0.5;" x1="249.5" x2="358.5" y1="460.5" y2="460.5"/></g><!--MD5=[83b3cf3d23d77c6f1e1b5291a241bc2a]
class MonoBehaviour--><g id="elem_MonoBehaviour"><rect codeLine="9" fill="#F1F1F1" height="48" id="MonoBehaviour" rx="2.5" ry="2.5" style="stroke:#181818;stroke-width:0.5;" width="131" x="228.5" y="575"/><ellipse cx="243.5" cy="591" fill="#ADD1B2" rx="11" ry="11" style="stroke:#181818;stroke-width:1.0;"/><path d="M246.2656,586.875 Q246.4219,586.6563 246.6094,586.5469 Q246.7969,586.4375 247.0156,586.4375 Q247.3906,586.4375 247.625,586.7031 Q247.8594,586.9531 247.8594,587.5625 L247.8594,589.0156 Q247.8594,589.625 247.625,589.8906 Q247.3906,590.1563 247.0156,590.1563 Q246.6719,590.1563 246.4688,589.9531 Q246.2656,589.7656 246.1563,589.25 Q246.1094,588.8906 245.9219,588.7031 Q245.5938,588.3281 244.9844,588.1094 Q244.375,587.8906 243.75,587.8906 Q242.9844,587.8906 242.3438,588.2188 Q241.7188,588.5469 241.2188,589.2969 Q240.7344,590.0469 240.7344,591.0781 L240.7344,592.1719 Q240.7344,593.4063 241.625,594.2344 Q242.5156,595.0469 244.1094,595.0469 Q245.0469,595.0469 245.7031,594.7969 Q246.0938,594.6406 246.5156,594.2031 Q246.7813,593.9375 246.9219,593.8594 Q247.0781,593.7813 247.2813,593.7813 Q247.6094,593.7813 247.8594,594.0469 Q248.125,594.2969 248.125,594.6406 Q248.125,594.9844 247.7813,595.3906 Q247.2813,595.9688 246.4844,596.2969 Q245.4063,596.75 244.1094,596.75 Q242.5938,596.75 241.3906,596.125 Q240.4063,595.625 239.7188,594.5625 Q239.0313,593.4844 239.0313,592.2031 L239.0313,591.0469 Q239.0313,589.7188 239.6406,588.5781 Q240.2656,587.4219 241.3594,586.8125 Q242.4531,586.1875 243.6875,586.1875 Q244.4219,586.1875 245.0625,586.3594 Q245.7188,586.5156 246.2656,586.875 Z " fill="#000000"/><text fill="#000000" font-family="sans-serif" font-size="14" lengthAdjust="spacing" textLength="99" x="257.5" y="596.7285">MonoBehaviour</text><line style="stroke:#181818;stroke-width:0.5;" x1="229.5" x2="358.5" y1="607" y2="607"/><line style="stroke:#181818;stroke-width:0.5;" x1="229.5" x2="358.5" y1="615" y2="615"/></g><!--MD5=[e77834a0fda1b3f817ae7f2b19e4424d]
class VisualElement--><g id="elem_VisualElement"><rect codeLine="10" fill="#F1F1F1" height="48" id="VisualElement" rx="2.5" ry="2.5" style="stroke:#181818;stroke-width:0.5;" width="121" x="27.5" y="420.5"/><ellipse cx="42.5" cy="436.5" fill="#ADD1B2" rx="11" ry="11" style="stroke:#181818;stroke-width:1.0;"/><path d="M45.2656,432.375 Q45.4219,432.1563 45.6094,432.0469 Q45.7969,431.9375 46.0156,431.9375 Q46.3906,431.9375 46.625,432.2031 Q46.8594,432.4531 46.8594,433.0625 L46.8594,434.5156 Q46.8594,435.125 46.625,435.3906 Q46.3906,435.6563 46.0156,435.6563 Q45.6719,435.6563 45.4688,435.4531 Q45.2656,435.2656 45.1563,434.75 Q45.1094,434.3906 44.9219,434.2031 Q44.5938,433.8281 43.9844,433.6094 Q43.375,433.3906 42.75,433.3906 Q41.9844,433.3906 41.3438,433.7188 Q40.7188,434.0469 40.2188,434.7969 Q39.7344,435.5469 39.7344,436.5781 L39.7344,437.6719 Q39.7344,438.9063 40.625,439.7344 Q41.5156,440.5469 43.1094,440.5469 Q44.0469,440.5469 44.7031,440.2969 Q45.0938,440.1406 45.5156,439.7031 Q45.7813,439.4375 45.9219,439.3594 Q46.0781,439.2813 46.2813,439.2813 Q46.6094,439.2813 46.8594,439.5469 Q47.125,439.7969 47.125,440.1406 Q47.125,440.4844 46.7813,440.8906 Q46.2813,441.4688 45.4844,441.7969 Q44.4063,442.25 43.1094,442.25 Q41.5938,442.25 40.3906,441.625 Q39.4063,441.125 38.7188,440.0625 Q38.0313,438.9844 38.0313,437.7031 L38.0313,436.5469 Q38.0313,435.2188 38.6406,434.0781 Q39.2656,432.9219 40.3594,432.3125 Q41.4531,431.6875 42.6875,431.6875 Q43.4219,431.6875 44.0625,431.8594 Q44.7188,432.0156 45.2656,432.375 Z " fill="#000000"/><text fill="#000000" font-family="sans-serif" font-size="14" lengthAdjust="spacing" textLength="89" x="56.5" y="442.2285">VisualElement</text><line style="stroke:#181818;stroke-width:0.5;" x1="28.5" x2="147.5" y1="452.5" y2="452.5"/><line style="stroke:#181818;stroke-width:0.5;" x1="28.5" x2="147.5" y1="460.5" y2="460.5"/></g><!--MD5=[7e20e022571e30ec1001cf6eabd7f3e2]
class Model--><g id="elem_Model"><rect codeLine="1" fill="#F1F1F1" height="224.0938" id="Model" rx="2.5" ry="2.5" style="stroke:#181818;stroke-width:0.5;" width="250" x="94" y="725"/><ellipse cx="195.25" cy="741" fill="#A9DCDF" rx="11" ry="11" style="stroke:#181818;stroke-width:1.0;"/><path d="M197.4375,742.7656 L193.2969,742.7656 L192.875,743.7969 L193.2969,743.7969 Q193.9063,743.7969 194.1719,744.0313 Q194.4375,744.2656 194.4375,744.6563 Q194.4375,745.0313 194.1719,745.2656 Q193.9063,745.5 193.2969,745.5 L191,745.5 Q190.3906,745.5 190.1406,745.2656 Q189.875,745.0313 189.875,744.6406 Q189.875,744.2656 190.1563,744.0313 Q190.4219,743.7813 191.0469,743.7969 L193.7188,737.1406 L192.6094,737.1406 Q192,737.1406 191.7344,736.9063 Q191.4688,736.6719 191.4688,736.2813 Q191.4688,735.9063 191.7344,735.6719 Q192,735.4375 192.6094,735.4375 L196.2813,735.4375 L199.6719,743.7969 Q200.2656,743.7969 200.4531,743.9375 Q200.8438,744.2031 200.8438,744.6563 Q200.8438,745.0313 200.5781,745.2656 Q200.3281,745.5 199.7188,745.5 L197.4219,745.5 Q196.8125,745.5 196.5469,745.2656 Q196.2813,745.0313 196.2813,744.6406 Q196.2813,744.2656 196.5469,744.0313 Q196.8125,743.7969 197.4219,743.7969 L197.8438,743.7969 L197.4375,742.7656 Z M196.7188,741.0625 L195.3594,737.6875 L193.9844,741.0625 L196.7188,741.0625 Z " fill="#000000"/><text fill="#000000" font-family="sans-serif" font-size="14" font-style="italic" lengthAdjust="spacing" textLength="39" x="215.75" y="746.7285">Model</text><line style="stroke:#181818;stroke-width:0.5;" x1="95" x2="343" y1="757" y2="757"/><text fill="#000000" font-family="sans-serif" font-size="14" lengthAdjust="spacing" textLength="164" x="114" y="775.5332">shoudUpdate : bool = true</text><ellipse cx="105" cy="785.6094" fill="none" rx="3" ry="3" style="stroke:#038048;stroke-width:1.0;"/><text fill="#000000" font-family="sans-serif" font-size="14" lengthAdjust="spacing" textLength="154" x="114" y="793.1426">shouldDraw : bool = true</text><line style="stroke:#181818;stroke-width:0.5;" x1="95" x2="343" y1="800.2188" y2="800.2188"/><ellipse cx="105" cy="811.2188" fill="#84BE84" rx="3" ry="3" style="stroke:#038048;stroke-width:1.0;"/><text fill="#000000" font-family="sans-serif" font-size="14" lengthAdjust="spacing" textLength="136" x="114" y="818.752">«virtual» Start() : void</text><ellipse cx="105" cy="828.8281" fill="#84BE84" rx="3" ry="3" style="stroke:#038048;stroke-width:1.0;"/><text fill="#000000" font-family="sans-serif" font-size="14" lengthAdjust="spacing" textLength="224" x="114" y="836.3613">«virtual» CreateUI() : VisualElement</text><ellipse cx="105" cy="846.4375" fill="#84BE84" rx="3" ry="3" style="stroke:#038048;stroke-width:1.0;"/><text fill="#000000" font-family="sans-serif" font-size="14" lengthAdjust="spacing" textLength="183" x="114" y="853.9707">«virtual» OnChanged() : void</text><polygon fill="#FFFF44" points="105,859.0469,109,863.0469,105,867.0469,101,863.0469" style="stroke:#B38D22;stroke-width:1.0;"/><text fill="#000000" font-family="sans-serif" font-size="14" lengthAdjust="spacing" textLength="151" x="114" y="871.5801">«virtual» Update() : void</text><ellipse cx="105" cy="881.6563" fill="#84BE84" rx="3" ry="3" style="stroke:#038048;stroke-width:1.0;"/><text fill="#000000" font-family="sans-serif" font-size="14" lengthAdjust="spacing" textLength="180" x="114" y="889.1895">UpdateOnNextFrame() : void</text><ellipse cx="105" cy="899.2656" fill="#84BE84" rx="3" ry="3" style="stroke:#038048;stroke-width:1.0;"/><text fill="#000000" font-family="sans-serif" font-size="14" lengthAdjust="spacing" textLength="111" x="114" y="906.7988">OnEnable() : void</text><ellipse cx="105" cy="916.875" fill="#84BE84" rx="3" ry="3" style="stroke:#038048;stroke-width:1.0;"/><text fill="#000000" font-family="sans-serif" font-size="14" lengthAdjust="spacing" textLength="114" x="114" y="924.4082">OnDisable() : void</text><ellipse cx="105" cy="934.4844" fill="#84BE84" rx="3" ry="3" style="stroke:#038048;stroke-width:1.0;"/><text fill="#000000" font-family="sans-serif" font-size="14" lengthAdjust="spacing" textLength="118" x="114" y="942.0176">OnValidate() : void</text></g><!--MD5=[34a388f61502ebbcedd1e27ce1bd2c60]
class OnChanged--><g id="elem_OnChanged"><rect codeLine="1" fill="#F1F1F1" height="171.2656" id="OnChanged" rx="2.5" ry="2.5" style="stroke:#181818;stroke-width:0.5;" width="280" x="152" y="1027"/><ellipse cx="249.25" cy="1043" fill="#ADD1B2" rx="11" ry="11" style="stroke:#181818;stroke-width:1.0;"/><path d="M252.0156,1038.875 Q252.1719,1038.6563 252.3594,1038.5469 Q252.5469,1038.4375 252.7656,1038.4375 Q253.1406,1038.4375 253.375,1038.7031 Q253.6094,1038.9531 253.6094,1039.5625 L253.6094,1041.0156 Q253.6094,1041.625 253.375,1041.8906 Q253.1406,1042.1563 252.7656,1042.1563 Q252.4219,1042.1563 252.2188,1041.9531 Q252.0156,1041.7656 251.9063,1041.25 Q251.8594,1040.8906 251.6719,1040.7031 Q251.3438,1040.3281 250.7344,1040.1094 Q250.125,1039.8906 249.5,1039.8906 Q248.7344,1039.8906 248.0938,1040.2188 Q247.4688,1040.5469 246.9688,1041.2969 Q246.4844,1042.0469 246.4844,1043.0781 L246.4844,1044.1719 Q246.4844,1045.4063 247.375,1046.2344 Q248.2656,1047.0469 249.8594,1047.0469 Q250.7969,1047.0469 251.4531,1046.7969 Q251.8438,1046.6406 252.2656,1046.2031 Q252.5313,1045.9375 252.6719,1045.8594 Q252.8281,1045.7813 253.0313,1045.7813 Q253.3594,1045.7813 253.6094,1046.0469 Q253.875,1046.2969 253.875,1046.6406 Q253.875,1046.9844 253.5313,1047.3906 Q253.0313,1047.9688 252.2344,1048.2969 Q251.1563,1048.75 249.8594,1048.75 Q248.3438,1048.75 247.1406,1048.125 Q246.1563,1047.625 245.4688,1046.5625 Q244.7813,1045.4844 244.7813,1044.2031 L244.7813,1043.0469 Q244.7813,1041.7188 245.3906,1040.5781 Q246.0156,1039.4219 247.1094,1038.8125 Q248.2031,1038.1875 249.4375,1038.1875 Q250.1719,1038.1875 250.8125,1038.3594 Q251.4688,1038.5156 252.0156,1038.875 Z " fill="#000000"/><text fill="#000000" font-family="sans-serif" font-size="14" lengthAdjust="spacing" textLength="77" x="269.75" y="1048.7285">OnChanged</text><line style="stroke:#181818;stroke-width:0.5;" x1="153" x2="431" y1="1059" y2="1059"/><ellipse cx="163" cy="1070" fill="none" rx="3" ry="3" style="stroke:#038048;stroke-width:1.0;"/><text fill="#000000" font-family="sans-serif" font-size="14" lengthAdjust="spacing" textLength="237" x="172" y="1077.5332">«event» onActivated : ModelChanged</text><ellipse cx="163" cy="1087.6094" fill="none" rx="3" ry="3" style="stroke:#038048;stroke-width:1.0;"/><text fill="#000000" font-family="sans-serif" font-size="14" lengthAdjust="spacing" textLength="254" x="172" y="1095.1426">«event» onDeactivated : ModelChanged</text><ellipse cx="163" cy="1105.2188" fill="none" rx="3" ry="3" style="stroke:#038048;stroke-width:1.0;"/><text fill="#000000" font-family="sans-serif" font-size="14" lengthAdjust="spacing" textLength="237" x="172" y="1112.752">«event» onChanged : ModelChanged</text><line style="stroke:#181818;stroke-width:0.5;" x1="153" x2="431" y1="1119.8281" y2="1119.8281"/><text fill="#000000" font-family="sans-serif" font-size="14" lengthAdjust="spacing" textLength="121" x="172" y="1138.3613">LateUpdate() : void</text><ellipse cx="163" cy="1148.4375" fill="#84BE84" rx="3" ry="3" style="stroke:#038048;stroke-width:1.0;"/><text fill="#000000" font-family="sans-serif" font-size="14" lengthAdjust="spacing" textLength="186" x="172" y="1155.9707">Changed(model:Model) : void</text><ellipse cx="163" cy="1166.0469" fill="#84BE84" rx="3" ry="3" style="stroke:#038048;stroke-width:1.0;"/><text fill="#000000" font-family="sans-serif" font-size="14" lengthAdjust="spacing" textLength="166" x="172" y="1173.5801">Active(model:Model) : void</text><ellipse cx="163" cy="1183.6563" fill="#84BE84" rx="3" ry="3" style="stroke:#038048;stroke-width:1.0;"/><text fill="#000000" font-family="sans-serif" font-size="14" lengthAdjust="spacing" textLength="190" x="172" y="1191.1895">Deactives(model:Model) : void</text></g><!--MD5=[b201e2425d845096b639851a89684e44]
class ModeChangeView--><g id="elem_ModeChangeView"><rect codeLine="20" fill="#F1F1F1" height="48" id="ModeChangeView" rx="2.5" ry="2.5" style="stroke:#181818;stroke-width:0.5;" width="146" x="1035" y="420.5"/><ellipse cx="1050" cy="436.5" fill="#ADD1B2" rx="11" ry="11" style="stroke:#181818;stroke-width:1.0;"/><path d="M1052.7656,432.375 Q1052.9219,432.1563 1053.1094,432.0469 Q1053.2969,431.9375 1053.5156,431.9375 Q1053.8906,431.9375 1054.125,432.2031 Q1054.3594,432.4531 1054.3594,433.0625 L1054.3594,434.5156 Q1054.3594,435.125 1054.125,435.3906 Q1053.8906,435.6563 1053.5156,435.6563 Q1053.1719,435.6563 1052.9688,435.4531 Q1052.7656,435.2656 1052.6563,434.75 Q1052.6094,434.3906 1052.4219,434.2031 Q1052.0938,433.8281 1051.4844,433.6094 Q1050.875,433.3906 1050.25,433.3906 Q1049.4844,433.3906 1048.8438,433.7188 Q1048.2188,434.0469 1047.7188,434.7969 Q1047.2344,435.5469 1047.2344,436.5781 L1047.2344,437.6719 Q1047.2344,438.9063 1048.125,439.7344 Q1049.0156,440.5469 1050.6094,440.5469 Q1051.5469,440.5469 1052.2031,440.2969 Q1052.5938,440.1406 1053.0156,439.7031 Q1053.2813,439.4375 1053.4219,439.3594 Q1053.5781,439.2813 1053.7813,439.2813 Q1054.1094,439.2813 1054.3594,439.5469 Q1054.625,439.7969 1054.625,440.1406 Q1054.625,440.4844 1054.2813,440.8906 Q1053.7813,441.4688 1052.9844,441.7969 Q1051.9063,442.25 1050.6094,442.25 Q1049.0938,442.25 1047.8906,441.625 Q1046.9063,441.125 1046.2188,440.0625 Q1045.5313,438.9844 1045.5313,437.7031 L1045.5313,436.5469 Q1045.5313,435.2188 1046.1406,434.0781 Q1046.7656,432.9219 1047.8594,432.3125 Q1048.9531,431.6875 1050.1875,431.6875 Q1050.9219,431.6875 1051.5625,431.8594 Q1052.2188,432.0156 1052.7656,432.375 Z " fill="#000000"/><text fill="#000000" font-family="sans-serif" font-size="14" lengthAdjust="spacing" textLength="114" x="1064" y="442.2285">ModeChangeView</text><line style="stroke:#181818;stroke-width:0.5;" x1="1036" x2="1180" y1="452.5" y2="452.5"/><line style="stroke:#181818;stroke-width:0.5;" x1="1036" x2="1180" y1="460.5" y2="460.5"/></g><!--MD5=[34aa44afce17f5bd91ed70547120b567]
class ObjectView--><g id="elem_ObjectView"><rect codeLine="1" fill="#F1F1F1" height="100.8281" id="ObjectView" rx="2.5" ry="2.5" style="stroke:#181818;stroke-width:0.5;" width="475" x="459.5" y="394"/><ellipse cx="657.75" cy="410" fill="#ADD1B2" rx="11" ry="11" style="stroke:#181818;stroke-width:1.0;"/><path d="M660.5156,405.875 Q660.6719,405.6563 660.8594,405.5469 Q661.0469,405.4375 661.2656,405.4375 Q661.6406,405.4375 661.875,405.7031 Q662.1094,405.9531 662.1094,406.5625 L662.1094,408.0156 Q662.1094,408.625 661.875,408.8906 Q661.6406,409.1563 661.2656,409.1563 Q660.9219,409.1563 660.7188,408.9531 Q660.5156,408.7656 660.4063,408.25 Q660.3594,407.8906 660.1719,407.7031 Q659.8438,407.3281 659.2344,407.1094 Q658.625,406.8906 658,406.8906 Q657.2344,406.8906 656.5938,407.2188 Q655.9688,407.5469 655.4688,408.2969 Q654.9844,409.0469 654.9844,410.0781 L654.9844,411.1719 Q654.9844,412.4063 655.875,413.2344 Q656.7656,414.0469 658.3594,414.0469 Q659.2969,414.0469 659.9531,413.7969 Q660.3438,413.6406 660.7656,413.2031 Q661.0313,412.9375 661.1719,412.8594 Q661.3281,412.7813 661.5313,412.7813 Q661.8594,412.7813 662.1094,413.0469 Q662.375,413.2969 662.375,413.6406 Q662.375,413.9844 662.0313,414.3906 Q661.5313,414.9688 660.7344,415.2969 Q659.6563,415.75 658.3594,415.75 Q656.8438,415.75 655.6406,415.125 Q654.6563,414.625 653.9688,413.5625 Q653.2813,412.4844 653.2813,411.2031 L653.2813,410.0469 Q653.2813,408.7188 653.8906,407.5781 Q654.5156,406.4219 655.6094,405.8125 Q656.7031,405.1875 657.9375,405.1875 Q658.6719,405.1875 659.3125,405.3594 Q659.9688,405.5156 660.5156,405.875 Z " fill="#000000"/><text fill="#000000" font-family="sans-serif" font-size="14" lengthAdjust="spacing" textLength="70" x="678.25" y="415.7285">ObjectView</text><line style="stroke:#181818;stroke-width:0.5;" x1="460.5" x2="933.5" y1="426" y2="426"/><line style="stroke:#181818;stroke-width:0.5;" x1="460.5" x2="933.5" y1="434" y2="434"/><rect fill="#F24D5C" height="6" style="stroke:#C82930;stroke-width:1.0;" width="6" x="467.5" y="442"/><text fill="#000000" font-family="sans-serif" font-size="14" lengthAdjust="spacing" textLength="217" x="479.5" y="452.5332">Handle(models:List&lt;Model&gt;) : void</text><ellipse cx="470.5" cy="462.6094" fill="#84BE84" rx="3" ry="3" style="stroke:#038048;stroke-width:1.0;"/><text fill="#000000" font-family="sans-serif" font-size="14" lengthAdjust="spacing" textLength="258" x="479.5" y="470.1426">ChangeSelection(obj:GameObject) : void</text><rect fill="#F24D5C" height="6" style="stroke:#C82930;stroke-width:1.0;" width="6" x="467.5" y="477.2188"/><text fill="#000000" font-family="sans-serif" font-size="14" lengthAdjust="spacing" textLength="449" x="479.5" y="487.752">ChangeSelection(obj:GameObject, modelsChanged:List&lt;Model&gt;) : void</text></g><!--MD5=[802e82b404e578583cfeee29107899de]
class EditorWindow--><g id="elem_EditorWindow"><rect fill="#F1F1F1" height="48" id="EditorWindow" rx="2.5" ry="2.5" style="stroke:#181818;stroke-width:0.5;" width="118" x="638" y="7"/><ellipse cx="653" cy="23" fill="#ADD1B2" rx="11" ry="11" style="stroke:#181818;stroke-width:1.0;"/><path d="M655.7656,18.875 Q655.9219,18.6563 656.1094,18.5469 Q656.2969,18.4375 656.5156,18.4375 Q656.8906,18.4375 657.125,18.7031 Q657.3594,18.9531 657.3594,19.5625 L657.3594,21.0156 Q657.3594,21.625 657.125,21.8906 Q656.8906,22.1563 656.5156,22.1563 Q656.1719,22.1563 655.9688,21.9531 Q655.7656,21.7656 655.6563,21.25 Q655.6094,20.8906 655.4219,20.7031 Q655.0938,20.3281 654.4844,20.1094 Q653.875,19.8906 653.25,19.8906 Q652.4844,19.8906 651.8438,20.2188 Q651.2188,20.5469 650.7188,21.2969 Q650.2344,22.0469 650.2344,23.0781 L650.2344,24.1719 Q650.2344,25.4063 651.125,26.2344 Q652.0156,27.0469 653.6094,27.0469 Q654.5469,27.0469 655.2031,26.7969 Q655.5938,26.6406 656.0156,26.2031 Q656.2813,25.9375 656.4219,25.8594 Q656.5781,25.7813 656.7813,25.7813 Q657.1094,25.7813 657.3594,26.0469 Q657.625,26.2969 657.625,26.6406 Q657.625,26.9844 657.2813,27.3906 Q656.7813,27.9688 655.9844,28.2969 Q654.9063,28.75 653.6094,28.75 Q652.0938,28.75 650.8906,28.125 Q649.9063,27.625 649.2188,26.5625 Q648.5313,25.4844 648.5313,24.2031 L648.5313,23.0469 Q648.5313,21.7188 649.1406,20.5781 Q649.7656,19.4219 650.8594,18.8125 Q651.9531,18.1875 653.1875,18.1875 Q653.9219,18.1875 654.5625,18.3594 Q655.2188,18.5156 655.7656,18.875 Z " fill="#000000"/><text fill="#000000" font-family="sans-serif" font-size="14" lengthAdjust="spacing" textLength="86" x="667" y="28.7285">EditorWindow</text><line style="stroke:#181818;stroke-width:0.5;" x1="639" x2="755" y1="39" y2="39"/><line style="stroke:#181818;stroke-width:0.5;" x1="639" x2="755" y1="47" y2="47"/></g><!--MD5=[f54166a4bfd7691965a2a28e4010c83f]
reverse link MonoBehaviour to Model--><g id="link_MonoBehaviour_Model"><path codeLine="13" d="M280.57,642.27 C273.19,665.48 263.66,695.47 254.31,724.89 " fill="none" id="MonoBehaviour-backto-Model" style="stroke:#181818;stroke-width:1.0;"/><polygon fill="none" points="273.94,640,286.67,623.06,287.29,644.24,273.94,640" style="stroke:#181818;stroke-width:1.0;"/></g><!--MD5=[e9af08b07c3c1cbabce4a69a92c36aef]
reverse link MonoBehaviour to OnChanged--><g id="link_MonoBehaviour_OnChanged"><path codeLine="12" d="M351.5,634.81 C367.7,647.38 383.69,662.99 394,681 C464.48,804.11 501.28,869.54 439,997 C433.82,1007.61 427.12,1017.52 419.45,1026.72 " fill="none" id="MonoBehaviour-backto-OnChanged" style="stroke:#181818;stroke-width:1.0;"/><polygon fill="none" points="347.28,640.4,335.11,623.05,355.44,629.02,347.28,640.4" style="stroke:#181818;stroke-width:1.0;"/></g><!--MD5=[33fce9dbf08da3255eac6eb9829d1468]
reverse link VisualElement to ObjectView--><g id="link_VisualElement_ObjectView"><path codeLine="6" d="M122.89,405.77 C142.92,385.97 169.67,363.3 198,350 C218.4,340.42 225.54,343.4 248,341.5 C290.07,337.95 300.93,337.95 343,341.5 C419.86,347.99 502.79,371.19 569.06,393.93 " fill="none" id="VisualElement-backto-ObjectView" style="stroke:#181818;stroke-width:1.0;"/><polygon fill="none" points="127.91,410.65,108.97,420.15,117.85,400.91,127.91,410.65" style="stroke:#181818;stroke-width:1.0;"/></g><!--MD5=[d434b1af28dc8426efc76f96c28d50c5]
link ObjectView to GameObject--><g id="link_ObjectView_GameObject"><path codeLine="7" d="M447.47,444.5 C447.47,444.5 397.37,444.5 372.91,444.5 " fill="none" id="ObjectView-GameObject" style="stroke:#181818;stroke-width:1.0;"/><polygon fill="#181818" points="359.65,444.5,368.65,448.5,364.65,444.5,368.65,440.5,359.65,444.5" style="stroke:#181818;stroke-width:1.0;"/><line style="stroke:#181818;stroke-width:1.0;" x1="364.65" x2="372.65" y1="444.5" y2="444.5"/><polygon fill="none" points="459.47,444.5,453.47,440.5,447.47,444.5,453.47,448.5,459.47,444.5" style="stroke:#181818;stroke-width:1.0;"/><text fill="#000000" font-family="sans-serif" font-size="13" lengthAdjust="spacing" textLength="52" x="367.4323" y="441.2494">selection</text></g><!--MD5=[73d1288a2cb20594188f6ccaa3898209]
reverse link EditorWindow to SceneEditor--><g id="link_EditorWindow_SceneEditor"><path codeLine="10" d="M697,75.49 C697,94.06 697,116.4 697,137.99 " fill="none" id="EditorWindow-backto-SceneEditor" style="stroke:#181818;stroke-width:1.0;"/><polygon fill="none" points="690,75.36,697,55.36,704,75.36,690,75.36" style="stroke:#181818;stroke-width:1.0;"/></g><!--MD5=[a7046ba1ed861305465191c0b7541ad4]
link SceneEditor to GameObject--><g id="link_SceneEditor_GameObject"><path codeLine="11" d="M500.76,309.09 C475.15,321.94 449.63,335.72 426,350 C393.19,369.84 358.77,396.86 334.9,416.76 " fill="none" id="SceneEditor-to-GameObject" style="stroke:#181818;stroke-width:1.0;"/><polygon fill="#181818" points="330.86,420.14,340.3298,417.4339,334.6953,416.9321,335.1971,411.2975,330.86,420.14" style="stroke:#181818;stroke-width:1.0;"/><text fill="#000000" font-family="sans-serif" font-size="13" lengthAdjust="spacing" textLength="35" x="298.1415" y="409.7902">scene</text></g><!--MD5=[5e3e07f1951e1e9d47942c6bf3ba1d43]
link SceneEditor to ObjectView--><g id="link_SceneEditor_ObjectView"><path codeLine="12" d="M697,321.17 C697,321.17 697,362.53 697,380.73 " fill="none" id="SceneEditor-ObjectView" style="stroke:#181818;stroke-width:1.0;"/><polygon fill="#181818" points="697,393.88,701,384.88,697,388.88,693,384.88,697,393.88" style="stroke:#181818;stroke-width:1.0;"/><line style="stroke:#181818;stroke-width:1.0;" x1="697" x2="697" y1="388.88" y2="380.88"/><polygon fill="none" points="697,309.17,693,315.17,697,321.17,701,315.17,697,309.17" style="stroke:#181818;stroke-width:1.0;"/><text fill="#000000" font-family="sans-serif" font-size="13" lengthAdjust="spacing" textLength="63" x="629.5703" y="383.1685">objectView</text></g><!--MD5=[6d1f7b625ea4bbde410d6088b1648f65]
link SceneEditor to ModeChangeView--><g id="link_SceneEditor_ModeChangeView"><path codeLine="13" d="M907.19,309.05 C933.87,321.82 960.42,335.58 985,350 C1018.46,369.63 1053.38,396.92 1077.42,416.95 " fill="none" id="SceneEditor-to-ModeChangeView" style="stroke:#181818;stroke-width:1.0;"/><polygon fill="#181818" points="1081.48,420.36,1077.1429,411.5175,1077.6447,417.1521,1072.0102,417.6539,1081.48,420.36" style="stroke:#181818;stroke-width:1.0;"/><text fill="#000000" font-family="sans-serif" font-size="13" lengthAdjust="spacing" textLength="104" x="957.3593" y="409.6643">modeChangeView</text></g><!--MD5=[db4aaa8bec941f927273171aa9d9c3de]
link GameObject to MonoBehaviour--><g id="link_GameObject_MonoBehaviour"><path codeLine="29" d="M302.48,468.66 C300.71,495.65 297.79,540.24 295.88,569.37 " fill="none" id="GameObject-to-MonoBehaviour" style="stroke:#181818;stroke-width:1.0;"/><polygon fill="#181818" points="295.53,574.62,300.1115,565.9017,295.8579,569.6308,292.1288,565.3771,295.53,574.62" style="stroke:#181818;stroke-width:1.0;"/><text fill="#000000" font-family="sans-serif" font-size="13" lengthAdjust="spacing" textLength="49" x="299" y="541.4951">contains</text><text fill="#000000" font-family="sans-serif" font-size="13" lengthAdjust="spacing" textLength="5" x="290.2936" y="564.2653">*</text></g><!--MD5=[22fd483b875cb2ff344c4158c2284aac]
link ObjectView to OnChanged--><g id="link_ObjectView_OnChanged"><path codeLine="30" d="M693.48,495.07 C683.62,599.72 647.27,845.95 518,997 C495.99,1022.72 466.79,1043.32 436.7,1059.56 " fill="none" id="ObjectView-to-OnChanged" style="stroke:#181818;stroke-width:1.0;stroke-dasharray:1.0,3.0;"/><polygon fill="#181818" points="432.26,1061.93,442.0832,1061.2192,436.6706,1059.5748,438.3149,1054.1622,432.26,1061.93" style="stroke:#181818;stroke-width:1.0;"/><text fill="#000000" font-family="sans-serif" font-size="13" lengthAdjust="spacing" textLength="56" x="669" y="669.4951">subcribes</text></g><!--MD5=[9ac54b484beb76019c30aefa9b0f2477]
link Model to OnChanged--><g id="link_Model_OnChanged"><path codeLine="31" d="M99.24,949.17 C93.87,964.86 94.03,981.07 103,997 C114.03,1016.58 129.9,1033.19 147.83,1047.17 " fill="none" id="Model-to-OnChanged" style="stroke:#181818;stroke-width:1.0;stroke-dasharray:1.0,3.0;"/><polygon fill="#181818" points="151.93,1050.3,147.1841,1041.67,147.9489,1047.2749,142.344,1048.0398,151.93,1050.3" style="stroke:#181818;stroke-width:1.0;"/><text fill="#000000" font-family="sans-serif" font-size="13" lengthAdjust="spacing" textLength="55" x="104" y="993.4951">publishes</text></g><!--MD5=[2444900bafb32253b1b19047d14dbc7a]
link OnChanged to Model--><g id="link_OnChanged_Model"><path codeLine="36" d="M269.39,1026.79 C263.25,1003.8 256.5,978.51 249.99,954.11 " fill="none" id="OnChanged-to-Model" style="stroke:#181818;stroke-width:1.0;"/><polygon fill="#181818" points="248.69,949.24,247.1673,958.9704,249.9899,954.0681,254.8922,956.8906,248.69,949.24" style="stroke:#181818;stroke-width:1.0;"/><text fill="#000000" font-family="sans-serif" font-size="13" lengthAdjust="spacing" textLength="152" x="261" y="993.4951">models, actives, deactives</text><text fill="#000000" font-family="sans-serif" font-size="13" lengthAdjust="spacing" textLength="5" x="245.4319" y="970.4463">*</text></g><!--MD5=[efd5b27d85193de8790be5593af35850]
@startuml

frame EditorWindows{
    class SceneEditor
}


frame Unity {
    class GameObject
    class MonoBehaviour
    class VisualElement
}


frame Models{
    class Model
    class OnChanged
}

frame Views  {
    class ModeChangeView
    class ObjectView
}

!include ..\..\out_puml\Scripts\Models\Model.puml
!include ..\..\out_puml\Scripts\Models\OnChanged.puml
!include ..\..\out_puml\Scripts\Views\ObjectView.puml
!include ..\..\out_puml\Editor\SceneEditor.puml

GameObject - -> "*" MonoBehaviour : contains 
ObjectView -[dotted]-> OnChanged : subcribes
Model -[dotted]-> OnChanged : publishes

skinparam nodesep 100

remove List`1
OnChanged - -> "*" Model : "models, actives, deactives"

@enduml

@startuml

frame EditorWindows{
    class SceneEditor
}


frame Unity {
    class GameObject
    class MonoBehaviour
    class VisualElement
}


frame Models{
    class Model
    class OnChanged
}

frame Views  {
    class ModeChangeView
    class ObjectView
}

abstract class Model {
    shoudUpdate : bool = true
    + shouldDraw : bool = true
    + <<virtual>> Start() : void
    + <<virtual>> CreateUI() : VisualElement
    + <<virtual>> OnChanged() : void
    # <<virtual>> Update() : void
    + UpdateOnNextFrame() : void
    + OnEnable() : void
    + OnDisable() : void
    + OnValidate() : void
}
MonoBehaviour <|- - Model
class OnChanged {
    +  <<event>> onActivated : ModelChanged 
    +  <<event>> onDeactivated : ModelChanged 
    +  <<event>> onChanged : ModelChanged 
    LateUpdate() : void
    + Changed(model:Model) : void
    + Active(model:Model) : void
    + Deactives(model:Model) : void
}
class "List`1"<T> {
}
MonoBehaviour <|- - OnChanged
OnChanged o-> "actives<Model>" "List`1"
OnChanged o-> "deactives<Model>" "List`1"
OnChanged o-> "models<Model>" "List`1"
class ObjectView {
    - Handle(models:List<Model>) : void
    + ChangeSelection(obj:GameObject) : void
    - ChangeSelection(obj:GameObject, modelsChanged:List<Model>) : void
}
VisualElement <|- - ObjectView
ObjectView o-> "selection" GameObject
class SceneEditor {
    + {static} ShowExample() : void
    - InitSceneGameObject() : void
    + Init() : void
    + Callback(scene:Scene, mode:OpenSceneMode) : void
    - Callback2(scene:Scene, setup:NewSceneSetup, mode:NewSceneMode) : void
    + OnEnable() : void
    + OnDisable() : void
}
EditorWindow <|- - SceneEditor
SceneEditor - -> "scene" GameObject
SceneEditor o-> "objectView" ObjectView
SceneEditor - -> "modeChangeView" ModeChangeView

GameObject - -> "*" MonoBehaviour : contains 
ObjectView -[dotted]-> OnChanged : subcribes
Model -[dotted]-> OnChanged : publishes

skinparam nodesep 100

remove List`1
OnChanged - -> "*" Model : "models, actives, deactives"

@enduml

PlantUML version 1.2022.5(Sat Apr 30 20:55:52 AEST 2022)
(GPL source distribution)
Java Runtime: Java(TM) SE Runtime Environment
JVM: Java HotSpot(TM) 64-Bit Server VM
Default Encoding: Cp1252
Language: en
Country: AU
--></g></svg>