<?xml version="1.0" encoding="UTF-8" standalone="no"?><svg xmlns="http://www.w3.org/2000/svg" xmlns:xlink="http://www.w3.org/1999/xlink" contentStyleType="text/css" height="331px" preserveAspectRatio="none" style="width:390px;height:331px;background:#FFFFFF;" version="1.1" viewBox="0 0 390 331" width="390px" zoomAndPan="magnify"><defs/><g><!--MD5=[62c1b87fdc8e2e6a5e1a7233e84b59eb]
class LightSelection--><g id="elem_LightSelection"><rect codeLine="1" fill="#F1F1F1" height="65.6094" id="LightSelection" rx="2.5" ry="2.5" style="stroke:#181818;stroke-width:0.5;" width="250" x="63" y="115"/><ellipse cx="139.25" cy="131" fill="#ADD1B2" rx="11" ry="11" style="stroke:#181818;stroke-width:1.0;"/><path d="M142.0156,126.875 Q142.1719,126.6563 142.3594,126.5469 Q142.5469,126.4375 142.7656,126.4375 Q143.1406,126.4375 143.375,126.7031 Q143.6094,126.9531 143.6094,127.5625 L143.6094,129.0156 Q143.6094,129.625 143.375,129.8906 Q143.1406,130.1563 142.7656,130.1563 Q142.4219,130.1563 142.2188,129.9531 Q142.0156,129.7656 141.9063,129.25 Q141.8594,128.8906 141.6719,128.7031 Q141.3438,128.3281 140.7344,128.1094 Q140.125,127.8906 139.5,127.8906 Q138.7344,127.8906 138.0938,128.2188 Q137.4688,128.5469 136.9688,129.2969 Q136.4844,130.0469 136.4844,131.0781 L136.4844,132.1719 Q136.4844,133.4063 137.375,134.2344 Q138.2656,135.0469 139.8594,135.0469 Q140.7969,135.0469 141.4531,134.7969 Q141.8438,134.6406 142.2656,134.2031 Q142.5313,133.9375 142.6719,133.8594 Q142.8281,133.7813 143.0313,133.7813 Q143.3594,133.7813 143.6094,134.0469 Q143.875,134.2969 143.875,134.6406 Q143.875,134.9844 143.5313,135.3906 Q143.0313,135.9688 142.2344,136.2969 Q141.1563,136.75 139.8594,136.75 Q138.3438,136.75 137.1406,136.125 Q136.1563,135.625 135.4688,134.5625 Q134.7813,133.4844 134.7813,132.2031 L134.7813,131.0469 Q134.7813,129.7188 135.3906,128.5781 Q136.0156,127.4219 137.1094,126.8125 Q138.2031,126.1875 139.4375,126.1875 Q140.1719,126.1875 140.8125,126.3594 Q141.4688,126.5156 142.0156,126.875 Z " fill="#000000"/><text fill="#000000" font-family="sans-serif" font-size="14" lengthAdjust="spacing" textLength="89" x="159.75" y="136.7285">LightSelection</text><line style="stroke:#181818;stroke-width:0.5;" x1="64" x2="312" y1="147" y2="147"/><line style="stroke:#181818;stroke-width:0.5;" x1="64" x2="312" y1="155" y2="155"/><ellipse cx="74" cy="166" fill="#84BE84" rx="3" ry="3" style="stroke:#038048;stroke-width:1.0;"/><text fill="#000000" font-family="sans-serif" font-size="14" lengthAdjust="spacing" textLength="224" x="83" y="173.5332">LightSelection(choices:List&lt;string&gt;)</text></g><!--MD5=[273aff7ceb4d565747d23c7d4b9307c6]
class lightingMode--><g id="elem_lightingMode"><rect codeLine="4" fill="#F1F1F1" height="83.2188" id="lightingMode" rx="2.5" ry="2.5" style="stroke:#181818;stroke-width:0.5;" width="112" x="7" y="241"/><ellipse cx="22" cy="257" fill="#EB937F" rx="11" ry="11" style="stroke:#181818;stroke-width:1.0;"/><path d="M20.8594,257.7969 L20.8594,260.2969 L25.1875,260.2969 L25.1875,259.375 Q25.1875,258.7656 25.4219,258.5 Q25.6719,258.2344 26.0469,258.2344 Q26.4219,258.2344 26.6563,258.5 Q26.8906,258.7656 26.8906,259.375 L26.8906,262 L18.8906,262 Q18.2656,262 18,261.7656 Q17.75,261.5313 17.75,261.1406 Q17.75,260.7656 18.0156,260.5313 Q18.2813,260.2969 18.8906,260.2969 L19.1563,260.2969 L19.1563,253.6406 L18.8906,253.6406 Q18.2656,253.6406 18,253.4063 Q17.75,253.1719 17.75,252.7813 Q17.75,252.4063 18,252.1719 Q18.2656,251.9375 18.8906,251.9375 L26.5156,251.9375 L26.5156,254.5313 Q26.5156,255.1406 26.2813,255.4063 Q26.0625,255.6563 25.6719,255.6563 Q25.2969,255.6563 25.0625,255.4063 Q24.8281,255.1406 24.8281,254.5313 L24.8281,253.6406 L20.8594,253.6406 L20.8594,256.0938 L22.3438,256.0938 Q22.3438,255.4375 22.4688,255.25 Q22.7344,254.8438 23.2031,254.8438 Q23.5781,254.8438 23.8125,255.1094 Q24.0469,255.3594 24.0469,255.9688 L24.0469,257.9375 Q24.0469,258.4844 23.9219,258.6719 Q23.6563,259.0625 23.2031,259.0625 Q22.7344,259.0625 22.4688,258.6563 Q22.3438,258.4688 22.3438,257.7969 L20.8594,257.7969 Z " fill="#000000"/><text fill="#000000" font-family="sans-serif" font-size="14" lengthAdjust="spacing" textLength="80" x="36" y="262.7285">lightingMode</text><line style="stroke:#181818;stroke-width:0.5;" x1="8" x2="118" y1="273" y2="273"/><text fill="#000000" font-family="sans-serif" font-size="14" lengthAdjust="spacing" textLength="64" x="13" y="291.5332">solidLight,</text><text fill="#000000" font-family="sans-serif" font-size="14" lengthAdjust="spacing" textLength="53" x="13" y="309.1426">sunlight,</text><line style="stroke:#181818;stroke-width:0.5;" x1="8" x2="118" y1="316.2188" y2="316.2188"/></g><!--MD5=[e77834a0fda1b3f817ae7f2b19e4424d]
class VisualElement--><g id="elem_VisualElement"><rect fill="#F1F1F1" height="48" id="VisualElement" rx="2.5" ry="2.5" style="stroke:#181818;stroke-width:0.5;" width="121" x="127.5" y="7"/><ellipse cx="142.5" cy="23" fill="#ADD1B2" rx="11" ry="11" style="stroke:#181818;stroke-width:1.0;"/><path d="M145.2656,18.875 Q145.4219,18.6563 145.6094,18.5469 Q145.7969,18.4375 146.0156,18.4375 Q146.3906,18.4375 146.625,18.7031 Q146.8594,18.9531 146.8594,19.5625 L146.8594,21.0156 Q146.8594,21.625 146.625,21.8906 Q146.3906,22.1563 146.0156,22.1563 Q145.6719,22.1563 145.4688,21.9531 Q145.2656,21.7656 145.1563,21.25 Q145.1094,20.8906 144.9219,20.7031 Q144.5938,20.3281 143.9844,20.1094 Q143.375,19.8906 142.75,19.8906 Q141.9844,19.8906 141.3438,20.2188 Q140.7188,20.5469 140.2188,21.2969 Q139.7344,22.0469 139.7344,23.0781 L139.7344,24.1719 Q139.7344,25.4063 140.625,26.2344 Q141.5156,27.0469 143.1094,27.0469 Q144.0469,27.0469 144.7031,26.7969 Q145.0938,26.6406 145.5156,26.2031 Q145.7813,25.9375 145.9219,25.8594 Q146.0781,25.7813 146.2813,25.7813 Q146.6094,25.7813 146.8594,26.0469 Q147.125,26.2969 147.125,26.6406 Q147.125,26.9844 146.7813,27.3906 Q146.2813,27.9688 145.4844,28.2969 Q144.4063,28.75 143.1094,28.75 Q141.5938,28.75 140.3906,28.125 Q139.4063,27.625 138.7188,26.5625 Q138.0313,25.4844 138.0313,24.2031 L138.0313,23.0469 Q138.0313,21.7188 138.6406,20.5781 Q139.2656,19.4219 140.3594,18.8125 Q141.4531,18.1875 142.6875,18.1875 Q143.4219,18.1875 144.0625,18.3594 Q144.7188,18.5156 145.2656,18.875 Z " fill="#000000"/><text fill="#000000" font-family="sans-serif" font-size="14" lengthAdjust="spacing" textLength="89" x="156.5" y="28.7285">VisualElement</text><line style="stroke:#181818;stroke-width:0.5;" x1="128.5" x2="247.5" y1="39" y2="39"/><line style="stroke:#181818;stroke-width:0.5;" x1="128.5" x2="247.5" y1="47" y2="47"/></g><!--MD5=[e84c991d4d3bbf916ee1653c86a9249d]
class Label--><g id="elem_Label"><rect fill="#F1F1F1" height="48" id="Label" rx="2.5" ry="2.5" style="stroke:#181818;stroke-width:0.5;" width="67" x="154.5" y="258.5"/><ellipse cx="169.5" cy="274.5" fill="#ADD1B2" rx="11" ry="11" style="stroke:#181818;stroke-width:1.0;"/><path d="M172.2656,270.375 Q172.4219,270.1563 172.6094,270.0469 Q172.7969,269.9375 173.0156,269.9375 Q173.3906,269.9375 173.625,270.2031 Q173.8594,270.4531 173.8594,271.0625 L173.8594,272.5156 Q173.8594,273.125 173.625,273.3906 Q173.3906,273.6563 173.0156,273.6563 Q172.6719,273.6563 172.4688,273.4531 Q172.2656,273.2656 172.1563,272.75 Q172.1094,272.3906 171.9219,272.2031 Q171.5938,271.8281 170.9844,271.6094 Q170.375,271.3906 169.75,271.3906 Q168.9844,271.3906 168.3438,271.7188 Q167.7188,272.0469 167.2188,272.7969 Q166.7344,273.5469 166.7344,274.5781 L166.7344,275.6719 Q166.7344,276.9063 167.625,277.7344 Q168.5156,278.5469 170.1094,278.5469 Q171.0469,278.5469 171.7031,278.2969 Q172.0938,278.1406 172.5156,277.7031 Q172.7813,277.4375 172.9219,277.3594 Q173.0781,277.2813 173.2813,277.2813 Q173.6094,277.2813 173.8594,277.5469 Q174.125,277.7969 174.125,278.1406 Q174.125,278.4844 173.7813,278.8906 Q173.2813,279.4688 172.4844,279.7969 Q171.4063,280.25 170.1094,280.25 Q168.5938,280.25 167.3906,279.625 Q166.4063,279.125 165.7188,278.0625 Q165.0313,276.9844 165.0313,275.7031 L165.0313,274.5469 Q165.0313,273.2188 165.6406,272.0781 Q166.2656,270.9219 167.3594,270.3125 Q168.4531,269.6875 169.6875,269.6875 Q170.4219,269.6875 171.0625,269.8594 Q171.7188,270.0156 172.2656,270.375 Z " fill="#000000"/><text fill="#000000" font-family="sans-serif" font-size="14" lengthAdjust="spacing" textLength="35" x="183.5" y="280.2285">Label</text><line style="stroke:#181818;stroke-width:0.5;" x1="155.5" x2="220.5" y1="290.5" y2="290.5"/><line style="stroke:#181818;stroke-width:0.5;" x1="155.5" x2="220.5" y1="298.5" y2="298.5"/></g><!--MD5=[e9b5ee0446a42629a7416d22a027c116]
class DropdownField--><g id="elem_DropdownField"><rect fill="#F1F1F1" height="48" id="DropdownField" rx="2.5" ry="2.5" style="stroke:#181818;stroke-width:0.5;" width="127" x="256.5" y="258.5"/><ellipse cx="271.5" cy="274.5" fill="#ADD1B2" rx="11" ry="11" style="stroke:#181818;stroke-width:1.0;"/><path d="M274.2656,270.375 Q274.4219,270.1563 274.6094,270.0469 Q274.7969,269.9375 275.0156,269.9375 Q275.3906,269.9375 275.625,270.2031 Q275.8594,270.4531 275.8594,271.0625 L275.8594,272.5156 Q275.8594,273.125 275.625,273.3906 Q275.3906,273.6563 275.0156,273.6563 Q274.6719,273.6563 274.4688,273.4531 Q274.2656,273.2656 274.1563,272.75 Q274.1094,272.3906 273.9219,272.2031 Q273.5938,271.8281 272.9844,271.6094 Q272.375,271.3906 271.75,271.3906 Q270.9844,271.3906 270.3438,271.7188 Q269.7188,272.0469 269.2188,272.7969 Q268.7344,273.5469 268.7344,274.5781 L268.7344,275.6719 Q268.7344,276.9063 269.625,277.7344 Q270.5156,278.5469 272.1094,278.5469 Q273.0469,278.5469 273.7031,278.2969 Q274.0938,278.1406 274.5156,277.7031 Q274.7813,277.4375 274.9219,277.3594 Q275.0781,277.2813 275.2813,277.2813 Q275.6094,277.2813 275.8594,277.5469 Q276.125,277.7969 276.125,278.1406 Q276.125,278.4844 275.7813,278.8906 Q275.2813,279.4688 274.4844,279.7969 Q273.4063,280.25 272.1094,280.25 Q270.5938,280.25 269.3906,279.625 Q268.4063,279.125 267.7188,278.0625 Q267.0313,276.9844 267.0313,275.7031 L267.0313,274.5469 Q267.0313,273.2188 267.6406,272.0781 Q268.2656,270.9219 269.3594,270.3125 Q270.4531,269.6875 271.6875,269.6875 Q272.4219,269.6875 273.0625,269.8594 Q273.7188,270.0156 274.2656,270.375 Z " fill="#000000"/><text fill="#000000" font-family="sans-serif" font-size="14" lengthAdjust="spacing" textLength="95" x="285.5" y="280.2285">DropdownField</text><line style="stroke:#181818;stroke-width:0.5;" x1="257.5" x2="382.5" y1="290.5" y2="290.5"/><line style="stroke:#181818;stroke-width:0.5;" x1="257.5" x2="382.5" y1="298.5" y2="298.5"/></g><!--MD5=[e2226a05f1a8ae61d6ab6a7e379f2bc8]
reverse link VisualElement to LightSelection--><g id="link_VisualElement_LightSelection"><path codeLine="8" d="M188,75.62 C188,88.56 188,102.51 188,114.61 " fill="none" id="VisualElement-backto-LightSelection" style="stroke:#181818;stroke-width:1.0;"/><polygon fill="none" points="181,75.27,188,55.27,195,75.27,181,75.27" style="stroke:#181818;stroke-width:1.0;"/></g><!--MD5=[7eb5b16d0b0407d44f8378e71b46695d]
link LightSelection to Label--><g id="link_LightSelection_Label"><path codeLine="9" d="M188,181.07 C188,203.1 188,232.07 188,253.24 " fill="none" id="LightSelection-to-Label" style="stroke:#181818;stroke-width:1.0;"/><polygon fill="#181818" points="188,258.44,192,249.44,188,253.44,184,249.44,188,258.44" style="stroke:#181818;stroke-width:1.0;"/><text fill="#000000" font-family="sans-serif" font-size="13" lengthAdjust="spacing" textLength="27" x="157.5406" y="247.7648">label</text></g><!--MD5=[b134c6076b45ad4de0bfebadbc83183e]
link LightSelection to DropdownField--><g id="link_LightSelection_DropdownField"><path codeLine="10" d="M219.95,181.07 C242.46,203.66 272.23,233.55 293.44,254.83 " fill="none" id="LightSelection-to-DropdownField" style="stroke:#181818;stroke-width:1.0;"/><polygon fill="#181818" points="297.03,258.44,293.513,249.2405,293.5016,254.8973,287.8448,254.8859,297.03,258.44" style="stroke:#181818;stroke-width:1.0;"/><text fill="#000000" font-family="sans-serif" font-size="13" lengthAdjust="spacing" textLength="49" x="235.8658" y="247.7648">selected</text></g><!--MD5=[9bee50b01e4e0e4d74a8ed87f07faf88]
reverse link LightSelection to lightingMode--><g id="link_LightSelection_lightingMode"><path codeLine="11" d="M147.39,192.04 C132.66,207.66 116.06,225.26 101.51,240.68 " fill="none" id="LightSelection-backto-lightingMode" style="stroke:#181818;stroke-width:1.0;"/><ellipse cx="152.2492" cy="186.8882" fill="#FFFFFF" rx="8" ry="8" style="stroke:#181818;stroke-width:1.0;"/><line style="stroke:#181818;stroke-width:1.0;" x1="146.7585" x2="157.74" y1="192.7064" y2="181.07"/><line style="stroke:#181818;stroke-width:1.0;" x1="146.431" x2="158.0675" y1="181.3975" y2="192.379"/></g><!--MD5=[6a953f00538e8be2c82286ab321a80c6]
@startuml
!include ..\..\..\out_puml\Scripts\Views\LightSelection.puml
@enduml

@startuml
class LightSelection {
    + LightSelection(choices:List<string>)
}
enum lightingMode {
    solidLight,
    sunlight,
}
VisualElement <|- - LightSelection
LightSelection - -> "label" Label
LightSelection - -> "selected" DropdownField
LightSelection +- - lightingMode
@enduml

PlantUML version 1.2022.5(Sat Apr 30 20:55:52 AEST 2022)
(GPL source distribution)
Java Runtime: Java(TM) SE Runtime Environment
JVM: Java HotSpot(TM) 64-Bit Server VM
Default Encoding: Cp1252
Language: en
Country: AU
--></g></svg>