<?xml version="1.0" encoding="UTF-8" standalone="no"?><svg xmlns="http://www.w3.org/2000/svg" xmlns:xlink="http://www.w3.org/1999/xlink" contentStyleType="text/css" height="376px" preserveAspectRatio="none" style="width:853px;height:376px;background:#FFFFFF;" version="1.1" viewBox="0 0 853 376" width="853px" zoomAndPan="magnify"><defs/><g><!--MD5=[7e20e022571e30ec1001cf6eabd7f3e2]
class Model--><g id="elem_Model"><rect codeLine="1" fill="#F1F1F1" height="224.0938" id="Model" rx="2.5" ry="2.5" style="stroke:#181818;stroke-width:0.5;" width="250" x="199" y="145.5"/><ellipse cx="300.25" cy="161.5" fill="#A9DCDF" rx="11" ry="11" style="stroke:#181818;stroke-width:1.0;"/><path d="M302.4375,163.2656 L298.2969,163.2656 L297.875,164.2969 L298.2969,164.2969 Q298.9063,164.2969 299.1719,164.5313 Q299.4375,164.7656 299.4375,165.1563 Q299.4375,165.5313 299.1719,165.7656 Q298.9063,166 298.2969,166 L296,166 Q295.3906,166 295.1406,165.7656 Q294.875,165.5313 294.875,165.1406 Q294.875,164.7656 295.1563,164.5313 Q295.4219,164.2813 296.0469,164.2969 L298.7188,157.6406 L297.6094,157.6406 Q297,157.6406 296.7344,157.4063 Q296.4688,157.1719 296.4688,156.7813 Q296.4688,156.4063 296.7344,156.1719 Q297,155.9375 297.6094,155.9375 L301.2813,155.9375 L304.6719,164.2969 Q305.2656,164.2969 305.4531,164.4375 Q305.8438,164.7031 305.8438,165.1563 Q305.8438,165.5313 305.5781,165.7656 Q305.3281,166 304.7188,166 L302.4219,166 Q301.8125,166 301.5469,165.7656 Q301.2813,165.5313 301.2813,165.1406 Q301.2813,164.7656 301.5469,164.5313 Q301.8125,164.2969 302.4219,164.2969 L302.8438,164.2969 L302.4375,163.2656 Z M301.7188,161.5625 L300.3594,158.1875 L298.9844,161.5625 L301.7188,161.5625 Z " fill="#000000"/><text fill="#000000" font-family="sans-serif" font-size="14" font-style="italic" lengthAdjust="spacing" textLength="39" x="320.75" y="167.2285">Model</text><line style="stroke:#181818;stroke-width:0.5;" x1="200" x2="448" y1="177.5" y2="177.5"/><text fill="#000000" font-family="sans-serif" font-size="14" lengthAdjust="spacing" textLength="164" x="219" y="196.0332">shoudUpdate : bool = true</text><ellipse cx="210" cy="206.1094" fill="none" rx="3" ry="3" style="stroke:#038048;stroke-width:1.0;"/><text fill="#000000" font-family="sans-serif" font-size="14" lengthAdjust="spacing" textLength="154" x="219" y="213.6426">shouldDraw : bool = true</text><line style="stroke:#181818;stroke-width:0.5;" x1="200" x2="448" y1="220.7188" y2="220.7188"/><ellipse cx="210" cy="231.7188" fill="#84BE84" rx="3" ry="3" style="stroke:#038048;stroke-width:1.0;"/><text fill="#000000" font-family="sans-serif" font-size="14" lengthAdjust="spacing" textLength="136" x="219" y="239.252">«virtual» Start() : void</text><ellipse cx="210" cy="249.3281" fill="#84BE84" rx="3" ry="3" style="stroke:#038048;stroke-width:1.0;"/><text fill="#000000" font-family="sans-serif" font-size="14" lengthAdjust="spacing" textLength="224" x="219" y="256.8613">«virtual» CreateUI() : VisualElement</text><ellipse cx="210" cy="266.9375" fill="#84BE84" rx="3" ry="3" style="stroke:#038048;stroke-width:1.0;"/><text fill="#000000" font-family="sans-serif" font-size="14" lengthAdjust="spacing" textLength="183" x="219" y="274.4707">«virtual» OnChanged() : void</text><polygon fill="#FFFF44" points="210,279.5469,214,283.5469,210,287.5469,206,283.5469" style="stroke:#B38D22;stroke-width:1.0;"/><text fill="#000000" font-family="sans-serif" font-size="14" lengthAdjust="spacing" textLength="151" x="219" y="292.0801">«virtual» Update() : void</text><ellipse cx="210" cy="302.1563" fill="#84BE84" rx="3" ry="3" style="stroke:#038048;stroke-width:1.0;"/><text fill="#000000" font-family="sans-serif" font-size="14" lengthAdjust="spacing" textLength="180" x="219" y="309.6895">UpdateOnNextFrame() : void</text><ellipse cx="210" cy="319.7656" fill="#84BE84" rx="3" ry="3" style="stroke:#038048;stroke-width:1.0;"/><text fill="#000000" font-family="sans-serif" font-size="14" lengthAdjust="spacing" textLength="111" x="219" y="327.2988">OnEnable() : void</text><ellipse cx="210" cy="337.375" fill="#84BE84" rx="3" ry="3" style="stroke:#038048;stroke-width:1.0;"/><text fill="#000000" font-family="sans-serif" font-size="14" lengthAdjust="spacing" textLength="114" x="219" y="344.9082">OnDisable() : void</text><ellipse cx="210" cy="354.9844" fill="#84BE84" rx="3" ry="3" style="stroke:#038048;stroke-width:1.0;"/><text fill="#000000" font-family="sans-serif" font-size="14" lengthAdjust="spacing" textLength="118" x="219" y="362.5176">OnValidate() : void</text></g><!--MD5=[83b3cf3d23d77c6f1e1b5291a241bc2a]
class MonoBehaviour--><g id="elem_MonoBehaviour"><rect fill="#F1F1F1" height="48" id="MonoBehaviour" rx="2.5" ry="2.5" style="stroke:#181818;stroke-width:0.5;" width="131" x="7" y="151.5"/><ellipse cx="22" cy="167.5" fill="#ADD1B2" rx="11" ry="11" style="stroke:#181818;stroke-width:1.0;"/><path d="M24.7656,163.375 Q24.9219,163.1563 25.1094,163.0469 Q25.2969,162.9375 25.5156,162.9375 Q25.8906,162.9375 26.125,163.2031 Q26.3594,163.4531 26.3594,164.0625 L26.3594,165.5156 Q26.3594,166.125 26.125,166.3906 Q25.8906,166.6563 25.5156,166.6563 Q25.1719,166.6563 24.9688,166.4531 Q24.7656,166.2656 24.6563,165.75 Q24.6094,165.3906 24.4219,165.2031 Q24.0938,164.8281 23.4844,164.6094 Q22.875,164.3906 22.25,164.3906 Q21.4844,164.3906 20.8438,164.7188 Q20.2188,165.0469 19.7188,165.7969 Q19.2344,166.5469 19.2344,167.5781 L19.2344,168.6719 Q19.2344,169.9063 20.125,170.7344 Q21.0156,171.5469 22.6094,171.5469 Q23.5469,171.5469 24.2031,171.2969 Q24.5938,171.1406 25.0156,170.7031 Q25.2813,170.4375 25.4219,170.3594 Q25.5781,170.2813 25.7813,170.2813 Q26.1094,170.2813 26.3594,170.5469 Q26.625,170.7969 26.625,171.1406 Q26.625,171.4844 26.2813,171.8906 Q25.7813,172.4688 24.9844,172.7969 Q23.9063,173.25 22.6094,173.25 Q21.0938,173.25 19.8906,172.625 Q18.9063,172.125 18.2188,171.0625 Q17.5313,169.9844 17.5313,168.7031 L17.5313,167.5469 Q17.5313,166.2188 18.1406,165.0781 Q18.7656,163.9219 19.8594,163.3125 Q20.9531,162.6875 22.1875,162.6875 Q22.9219,162.6875 23.5625,162.8594 Q24.2188,163.0156 24.7656,163.375 Z " fill="#000000"/><text fill="#000000" font-family="sans-serif" font-size="14" lengthAdjust="spacing" textLength="99" x="36" y="173.2285">MonoBehaviour</text><line style="stroke:#181818;stroke-width:0.5;" x1="8" x2="137" y1="183.5" y2="183.5"/><line style="stroke:#181818;stroke-width:0.5;" x1="8" x2="137" y1="191.5" y2="191.5"/></g><!--MD5=[34a388f61502ebbcedd1e27ce1bd2c60]
class OnChanged--><g id="elem_OnChanged"><rect codeLine="1" fill="#F1F1F1" height="171.2656" id="OnChanged" rx="2.5" ry="2.5" style="stroke:#181818;stroke-width:0.5;" width="280" x="566" y="7"/><ellipse cx="663.25" cy="23" fill="#ADD1B2" rx="11" ry="11" style="stroke:#181818;stroke-width:1.0;"/><path d="M666.0156,18.875 Q666.1719,18.6563 666.3594,18.5469 Q666.5469,18.4375 666.7656,18.4375 Q667.1406,18.4375 667.375,18.7031 Q667.6094,18.9531 667.6094,19.5625 L667.6094,21.0156 Q667.6094,21.625 667.375,21.8906 Q667.1406,22.1563 666.7656,22.1563 Q666.4219,22.1563 666.2188,21.9531 Q666.0156,21.7656 665.9063,21.25 Q665.8594,20.8906 665.6719,20.7031 Q665.3438,20.3281 664.7344,20.1094 Q664.125,19.8906 663.5,19.8906 Q662.7344,19.8906 662.0938,20.2188 Q661.4688,20.5469 660.9688,21.2969 Q660.4844,22.0469 660.4844,23.0781 L660.4844,24.1719 Q660.4844,25.4063 661.375,26.2344 Q662.2656,27.0469 663.8594,27.0469 Q664.7969,27.0469 665.4531,26.7969 Q665.8438,26.6406 666.2656,26.2031 Q666.5313,25.9375 666.6719,25.8594 Q666.8281,25.7813 667.0313,25.7813 Q667.3594,25.7813 667.6094,26.0469 Q667.875,26.2969 667.875,26.6406 Q667.875,26.9844 667.5313,27.3906 Q667.0313,27.9688 666.2344,28.2969 Q665.1563,28.75 663.8594,28.75 Q662.3438,28.75 661.1406,28.125 Q660.1563,27.625 659.4688,26.5625 Q658.7813,25.4844 658.7813,24.2031 L658.7813,23.0469 Q658.7813,21.7188 659.3906,20.5781 Q660.0156,19.4219 661.1094,18.8125 Q662.2031,18.1875 663.4375,18.1875 Q664.1719,18.1875 664.8125,18.3594 Q665.4688,18.5156 666.0156,18.875 Z " fill="#000000"/><text fill="#000000" font-family="sans-serif" font-size="14" lengthAdjust="spacing" textLength="77" x="683.75" y="28.7285">OnChanged</text><line style="stroke:#181818;stroke-width:0.5;" x1="567" x2="845" y1="39" y2="39"/><ellipse cx="577" cy="50" fill="none" rx="3" ry="3" style="stroke:#038048;stroke-width:1.0;"/><text fill="#000000" font-family="sans-serif" font-size="14" lengthAdjust="spacing" textLength="237" x="586" y="57.5332">«event» onActivated : ModelChanged</text><ellipse cx="577" cy="67.6094" fill="none" rx="3" ry="3" style="stroke:#038048;stroke-width:1.0;"/><text fill="#000000" font-family="sans-serif" font-size="14" lengthAdjust="spacing" textLength="254" x="586" y="75.1426">«event» onDeactivated : ModelChanged</text><ellipse cx="577" cy="85.2188" fill="none" rx="3" ry="3" style="stroke:#038048;stroke-width:1.0;"/><text fill="#000000" font-family="sans-serif" font-size="14" lengthAdjust="spacing" textLength="237" x="586" y="92.752">«event» onChanged : ModelChanged</text><line style="stroke:#181818;stroke-width:0.5;" x1="567" x2="845" y1="99.8281" y2="99.8281"/><text fill="#000000" font-family="sans-serif" font-size="14" lengthAdjust="spacing" textLength="121" x="586" y="118.3613">LateUpdate() : void</text><ellipse cx="577" cy="128.4375" fill="#84BE84" rx="3" ry="3" style="stroke:#038048;stroke-width:1.0;"/><text fill="#000000" font-family="sans-serif" font-size="14" lengthAdjust="spacing" textLength="186" x="586" y="135.9707">Changed(model:Model) : void</text><ellipse cx="577" cy="146.0469" fill="#84BE84" rx="3" ry="3" style="stroke:#038048;stroke-width:1.0;"/><text fill="#000000" font-family="sans-serif" font-size="14" lengthAdjust="spacing" textLength="166" x="586" y="153.5801">Active(model:Model) : void</text><ellipse cx="577" cy="163.6563" fill="#84BE84" rx="3" ry="3" style="stroke:#038048;stroke-width:1.0;"/><text fill="#000000" font-family="sans-serif" font-size="14" lengthAdjust="spacing" textLength="190" x="586" y="171.1895">Deactives(model:Model) : void</text></g><!--MD5=[e644022de7dea015dd09463c37421447]
class List`1--><g id="elem_List`1"><rect codeLine="10" fill="#F1F1F1" height="48" id="List`1" rx="2.5" ry="2.5" style="stroke:#181818;stroke-width:0.5;" width="78" x="667" y="213.5"/><ellipse cx="682" cy="229.5" fill="#ADD1B2" rx="11" ry="11" style="stroke:#181818;stroke-width:1.0;"/><path d="M684.7656,225.375 Q684.9219,225.1563 685.1094,225.0469 Q685.2969,224.9375 685.5156,224.9375 Q685.8906,224.9375 686.125,225.2031 Q686.3594,225.4531 686.3594,226.0625 L686.3594,227.5156 Q686.3594,228.125 686.125,228.3906 Q685.8906,228.6563 685.5156,228.6563 Q685.1719,228.6563 684.9688,228.4531 Q684.7656,228.2656 684.6563,227.75 Q684.6094,227.3906 684.4219,227.2031 Q684.0938,226.8281 683.4844,226.6094 Q682.875,226.3906 682.25,226.3906 Q681.4844,226.3906 680.8438,226.7188 Q680.2188,227.0469 679.7188,227.7969 Q679.2344,228.5469 679.2344,229.5781 L679.2344,230.6719 Q679.2344,231.9063 680.125,232.7344 Q681.0156,233.5469 682.6094,233.5469 Q683.5469,233.5469 684.2031,233.2969 Q684.5938,233.1406 685.0156,232.7031 Q685.2813,232.4375 685.4219,232.3594 Q685.5781,232.2813 685.7813,232.2813 Q686.1094,232.2813 686.3594,232.5469 Q686.625,232.7969 686.625,233.1406 Q686.625,233.4844 686.2813,233.8906 Q685.7813,234.4688 684.9844,234.7969 Q683.9063,235.25 682.6094,235.25 Q681.0938,235.25 679.8906,234.625 Q678.9063,234.125 678.2188,233.0625 Q677.5313,231.9844 677.5313,230.7031 L677.5313,229.5469 Q677.5313,228.2188 678.1406,227.0781 Q678.7656,225.9219 679.8594,225.3125 Q680.9531,224.6875 682.1875,224.6875 Q682.9219,224.6875 683.5625,224.8594 Q684.2188,225.0156 684.7656,225.375 Z " fill="#000000"/><text fill="#000000" font-family="sans-serif" font-size="14" lengthAdjust="spacing" textLength="35" x="696" y="235.2285">List`1</text><rect fill="#FFFFFF" height="17.0938" style="stroke:#000000;stroke-width:1.0;stroke-dasharray:2.0,2.0;" width="9" x="739" y="210.5"/><text fill="#000000" font-family="sans-serif" font-size="12" font-style="italic" lengthAdjust="spacing" textLength="7" x="740" y="223.957">T</text><line style="stroke:#181818;stroke-width:0.5;" x1="668" x2="744" y1="245.5" y2="245.5"/><line style="stroke:#181818;stroke-width:0.5;" x1="668" x2="744" y1="253.5" y2="253.5"/></g><!--MD5=[e77834a0fda1b3f817ae7f2b19e4424d]
class VisualElement--><g id="elem_VisualElement"><rect fill="#F1F1F1" height="48" id="VisualElement" rx="2.5" ry="2.5" style="stroke:#181818;stroke-width:0.5;" width="121" x="645.5" y="296.5"/><ellipse cx="660.5" cy="312.5" fill="#ADD1B2" rx="11" ry="11" style="stroke:#181818;stroke-width:1.0;"/><path d="M663.2656,308.375 Q663.4219,308.1563 663.6094,308.0469 Q663.7969,307.9375 664.0156,307.9375 Q664.3906,307.9375 664.625,308.2031 Q664.8594,308.4531 664.8594,309.0625 L664.8594,310.5156 Q664.8594,311.125 664.625,311.3906 Q664.3906,311.6563 664.0156,311.6563 Q663.6719,311.6563 663.4688,311.4531 Q663.2656,311.2656 663.1563,310.75 Q663.1094,310.3906 662.9219,310.2031 Q662.5938,309.8281 661.9844,309.6094 Q661.375,309.3906 660.75,309.3906 Q659.9844,309.3906 659.3438,309.7188 Q658.7188,310.0469 658.2188,310.7969 Q657.7344,311.5469 657.7344,312.5781 L657.7344,313.6719 Q657.7344,314.9063 658.625,315.7344 Q659.5156,316.5469 661.1094,316.5469 Q662.0469,316.5469 662.7031,316.2969 Q663.0938,316.1406 663.5156,315.7031 Q663.7813,315.4375 663.9219,315.3594 Q664.0781,315.2813 664.2813,315.2813 Q664.6094,315.2813 664.8594,315.5469 Q665.125,315.7969 665.125,316.1406 Q665.125,316.4844 664.7813,316.8906 Q664.2813,317.4688 663.4844,317.7969 Q662.4063,318.25 661.1094,318.25 Q659.5938,318.25 658.3906,317.625 Q657.4063,317.125 656.7188,316.0625 Q656.0313,314.9844 656.0313,313.7031 L656.0313,312.5469 Q656.0313,311.2188 656.6406,310.0781 Q657.2656,308.9219 658.3594,308.3125 Q659.4531,307.6875 660.6875,307.6875 Q661.4219,307.6875 662.0625,307.8594 Q662.7188,308.0156 663.2656,308.375 Z " fill="#000000"/><text fill="#000000" font-family="sans-serif" font-size="14" lengthAdjust="spacing" textLength="89" x="674.5" y="318.2285">VisualElement</text><line style="stroke:#181818;stroke-width:0.5;" x1="646.5" x2="765.5" y1="328.5" y2="328.5"/><line style="stroke:#181818;stroke-width:0.5;" x1="646.5" x2="765.5" y1="336.5" y2="336.5"/></g><!--MD5=[f54166a4bfd7691965a2a28e4010c83f]
reverse link MonoBehaviour to Model--><g id="link_MonoBehaviour_Model"><path codeLine="13" d="M157.09,202.97 C170.47,207.37 184.56,212 198.65,216.63 " fill="none" id="MonoBehaviour-backto-Model" style="stroke:#181818;stroke-width:1.0;"/><polygon fill="none" points="154.89,209.62,138.08,196.72,159.26,196.32,154.89,209.62" style="stroke:#181818;stroke-width:1.0;"/></g><!--MD5=[e9af08b07c3c1cbabce4a69a92c36aef]
reverse link MonoBehaviour to OnChanged--><g id="link_MonoBehaviour_OnChanged"><path codeLine="12" d="M146.36,144.2 C163.36,138.03 181.59,132.3 199,128.5 C321.08,101.88 463.26,93.71 565.76,91.71 " fill="none" id="MonoBehaviour-backto-OnChanged" style="stroke:#181818;stroke-width:1.0;"/><polygon fill="none" points="148.63,150.83,127.45,151.41,143.64,137.74,148.63,150.83" style="stroke:#181818;stroke-width:1.0;"/></g><!--MD5=[3475509bd9347786f89c02765ad1239e]
link OnChanged to List`1--><g id="link_OnChanged_List`1"><path codeLine="13" d="M731.6438,190.1858 C731.6438,190.1858 729.23,198.07 727.87,201.41 " fill="none" id="OnChanged-List`1" style="stroke:#181818;stroke-width:1.0;"/><polygon fill="#181818" points="722.2,213.43,729.656,206.9951,724.3322,208.9074,722.4198,203.5836,722.2,213.43" style="stroke:#181818;stroke-width:1.0;"/><line style="stroke:#181818;stroke-width:1.0;" x1="724.3322" x2="727.745" y1="208.9074" y2="201.67"/><polygon fill="none" points="734.24,178.47,729.0366,183.4625,731.6438,190.1858,736.8472,185.1933,734.24,178.47" style="stroke:#181818;stroke-width:1.0;"/><text fill="#000000" font-family="sans-serif" font-size="13" lengthAdjust="spacing" textLength="91" x="623.6919" y="202.7522">actives&lt;Model&gt;</text></g><!--MD5=[3475509bd9347786f89c02765ad1239e]
link OnChanged to List`1--><g id="link_OnChanged_List`1"><path codeLine="14" d="M706,190.47 C706,190.47 706,197.47 706,200.32 " fill="none" id="OnChanged-List`1-1" style="stroke:#181818;stroke-width:1.0;"/><polygon fill="#181818" points="706,213.43,710,204.43,706,208.43,702,204.43,706,213.43" style="stroke:#181818;stroke-width:1.0;"/><line style="stroke:#181818;stroke-width:1.0;" x1="706" x2="706" y1="208.43" y2="200.43"/><polygon fill="none" points="706,178.47,702,184.47,706,190.47,710,184.47,706,178.47" style="stroke:#181818;stroke-width:1.0;"/><text fill="#000000" font-family="sans-serif" font-size="13" lengthAdjust="spacing" textLength="105" x="719.4531" y="202.7522">deactives&lt;Model&gt;</text></g><!--MD5=[3475509bd9347786f89c02765ad1239e]
link OnChanged to List`1--><g id="link_OnChanged_List`1"><path codeLine="15" d="M680.3562,190.1858 C680.3562,190.1858 682.77,198.07 684.13,201.41 " fill="none" id="OnChanged-List`1-2" style="stroke:#181818;stroke-width:1.0;"/><polygon fill="#181818" points="689.8,213.43,689.5802,203.5836,687.6678,208.9074,682.344,206.9951,689.8,213.43" style="stroke:#181818;stroke-width:1.0;"/><line style="stroke:#181818;stroke-width:1.0;" x1="687.6678" x2="684.255" y1="208.9074" y2="201.67"/><polygon fill="none" points="677.76,178.47,675.1528,185.1933,680.3562,190.1858,682.9634,183.4625,677.76,178.47" style="stroke:#181818;stroke-width:1.0;"/><text fill="#000000" font-family="sans-serif" font-size="13" lengthAdjust="spacing" textLength="93" x="566.2338" y="219.1767">models&lt;Model&gt;</text></g><!--MD5=[a087c79307057fd64bd7572dc93ce46f]
link Model to VisualElement--><g id="link_Model_VisualElement"><path codeLine="7" d="M449.16,278.08 C513.03,288.67 588.23,301.14 640.5,309.81 " fill="none" id="Model-to-VisualElement" style="stroke:#181818;stroke-width:1.0;stroke-dasharray:1.0,3.0;"/><polygon fill="#181818" points="645.48,310.63,637.2524,305.2164,640.5469,309.815,635.9483,313.1094,645.48,310.63" style="stroke:#181818;stroke-width:1.0;"/><text fill="#000000" font-family="sans-serif" font-size="13" lengthAdjust="spacing" textLength="43" x="486" y="278.9951">creates</text></g><!--MD5=[9ac54b484beb76019c30aefa9b0f2477]
link Model to OnChanged--><g id="link_Model_OnChanged"><path codeLine="8" d="M449.16,203.59 C484.91,188.07 524.2,171.01 561.04,155.01 " fill="none" id="Model-to-OnChanged" style="stroke:#181818;stroke-width:1.0;stroke-dasharray:1.0,3.0;"/><polygon fill="#181818" points="565.98,152.86,556.1316,152.7657,561.3917,154.8468,559.3105,160.1069,565.98,152.86" style="stroke:#181818;stroke-width:1.0;"/><text fill="#000000" font-family="sans-serif" font-size="13" lengthAdjust="spacing" textLength="55" x="480" y="165.9951">publishes</text></g><!--MD5=[5f4b463c20142994dd80cf47fe8174f1]
@startuml
left to right direction

!include ..\..\..\out_puml\Scripts\Models\Model.puml
!include ..\..\..\out_puml\Scripts\Models\OnChanged.puml


Model -[dotted]-> VisualElement : creates
Model -[dotted]-> OnChanged : publishes

@enduml

@startuml
left to right direction

abstract class Model {
    shoudUpdate : bool = true
    + shouldDraw : bool = true
    + <<virtual>> Start() : void
    + <<virtual>> CreateUI() : VisualElement
    + <<virtual>> OnChanged() : void
    # <<virtual>> Update() : void
    + UpdateOnNextFrame() : void
    + OnEnable() : void
    + OnDisable() : void
    + OnValidate() : void
}
MonoBehaviour <|- - Model
class OnChanged {
    +  <<event>> onActivated : ModelChanged 
    +  <<event>> onDeactivated : ModelChanged 
    +  <<event>> onChanged : ModelChanged 
    LateUpdate() : void
    + Changed(model:Model) : void
    + Active(model:Model) : void
    + Deactives(model:Model) : void
}
class "List`1"<T> {
}
MonoBehaviour <|- - OnChanged
OnChanged o-> "actives<Model>" "List`1"
OnChanged o-> "deactives<Model>" "List`1"
OnChanged o-> "models<Model>" "List`1"


Model -[dotted]-> VisualElement : creates
Model -[dotted]-> OnChanged : publishes

@enduml

PlantUML version 1.2022.5(Sat Apr 30 20:55:52 AEST 2022)
(GPL source distribution)
Java Runtime: Java(TM) SE Runtime Environment
JVM: Java HotSpot(TM) 64-Bit Server VM
Default Encoding: Cp1252
Language: en
Country: AU
--></g></svg>