<?xml version="1.0" encoding="UTF-8" standalone="no"?><svg xmlns="http://www.w3.org/2000/svg" xmlns:xlink="http://www.w3.org/1999/xlink" contentStyleType="text/css" height="296px" preserveAspectRatio="none" style="width:667px;height:296px;background:#FFFFFF;" version="1.1" viewBox="0 0 667 296" width="667px" zoomAndPan="magnify"><defs/><g><!--MD5=[b91fc74d6151e22264cf386dfa35e288]
class ParticleView--><g id="elem_ParticleView"><rect codeLine="1" fill="#F1F1F1" height="65.6094" id="ParticleView" rx="2.5" ry="2.5" style="stroke:#181818;stroke-width:0.5;" width="211" x="209" y="115"/><ellipse cx="272.25" cy="131" fill="#ADD1B2" rx="11" ry="11" style="stroke:#181818;stroke-width:1.0;"/><path d="M275.0156,126.875 Q275.1719,126.6563 275.3594,126.5469 Q275.5469,126.4375 275.7656,126.4375 Q276.1406,126.4375 276.375,126.7031 Q276.6094,126.9531 276.6094,127.5625 L276.6094,129.0156 Q276.6094,129.625 276.375,129.8906 Q276.1406,130.1563 275.7656,130.1563 Q275.4219,130.1563 275.2188,129.9531 Q275.0156,129.7656 274.9063,129.25 Q274.8594,128.8906 274.6719,128.7031 Q274.3438,128.3281 273.7344,128.1094 Q273.125,127.8906 272.5,127.8906 Q271.7344,127.8906 271.0938,128.2188 Q270.4688,128.5469 269.9688,129.2969 Q269.4844,130.0469 269.4844,131.0781 L269.4844,132.1719 Q269.4844,133.4063 270.375,134.2344 Q271.2656,135.0469 272.8594,135.0469 Q273.7969,135.0469 274.4531,134.7969 Q274.8438,134.6406 275.2656,134.2031 Q275.5313,133.9375 275.6719,133.8594 Q275.8281,133.7813 276.0313,133.7813 Q276.3594,133.7813 276.6094,134.0469 Q276.875,134.2969 276.875,134.6406 Q276.875,134.9844 276.5313,135.3906 Q276.0313,135.9688 275.2344,136.2969 Q274.1563,136.75 272.8594,136.75 Q271.3438,136.75 270.1406,136.125 Q269.1563,135.625 268.4688,134.5625 Q267.7813,133.4844 267.7813,132.2031 L267.7813,131.0469 Q267.7813,129.7188 268.3906,128.5781 Q269.0156,127.4219 270.1094,126.8125 Q271.2031,126.1875 272.4375,126.1875 Q273.1719,126.1875 273.8125,126.3594 Q274.4688,126.5156 275.0156,126.875 Z " fill="#000000"/><text fill="#000000" font-family="sans-serif" font-size="14" lengthAdjust="spacing" textLength="76" x="292.75" y="136.7285">ParticleView</text><line style="stroke:#181818;stroke-width:0.5;" x1="210" x2="419" y1="147" y2="147"/><line style="stroke:#181818;stroke-width:0.5;" x1="210" x2="419" y1="155" y2="155"/><ellipse cx="220" cy="166" fill="#84BE84" rx="3" ry="3" style="stroke:#038048;stroke-width:1.0;"/><text fill="#000000" font-family="sans-serif" font-size="14" lengthAdjust="spacing" textLength="185" x="229" y="173.5332">ParticleView(go:GameObject)</text></g><!--MD5=[e77834a0fda1b3f817ae7f2b19e4424d]
class VisualElement--><g id="elem_VisualElement"><rect fill="#F1F1F1" height="48" id="VisualElement" rx="2.5" ry="2.5" style="stroke:#181818;stroke-width:0.5;" width="121" x="254" y="7"/><ellipse cx="269" cy="23" fill="#ADD1B2" rx="11" ry="11" style="stroke:#181818;stroke-width:1.0;"/><path d="M271.7656,18.875 Q271.9219,18.6563 272.1094,18.5469 Q272.2969,18.4375 272.5156,18.4375 Q272.8906,18.4375 273.125,18.7031 Q273.3594,18.9531 273.3594,19.5625 L273.3594,21.0156 Q273.3594,21.625 273.125,21.8906 Q272.8906,22.1563 272.5156,22.1563 Q272.1719,22.1563 271.9688,21.9531 Q271.7656,21.7656 271.6563,21.25 Q271.6094,20.8906 271.4219,20.7031 Q271.0938,20.3281 270.4844,20.1094 Q269.875,19.8906 269.25,19.8906 Q268.4844,19.8906 267.8438,20.2188 Q267.2188,20.5469 266.7188,21.2969 Q266.2344,22.0469 266.2344,23.0781 L266.2344,24.1719 Q266.2344,25.4063 267.125,26.2344 Q268.0156,27.0469 269.6094,27.0469 Q270.5469,27.0469 271.2031,26.7969 Q271.5938,26.6406 272.0156,26.2031 Q272.2813,25.9375 272.4219,25.8594 Q272.5781,25.7813 272.7813,25.7813 Q273.1094,25.7813 273.3594,26.0469 Q273.625,26.2969 273.625,26.6406 Q273.625,26.9844 273.2813,27.3906 Q272.7813,27.9688 271.9844,28.2969 Q270.9063,28.75 269.6094,28.75 Q268.0938,28.75 266.8906,28.125 Q265.9063,27.625 265.2188,26.5625 Q264.5313,25.4844 264.5313,24.2031 L264.5313,23.0469 Q264.5313,21.7188 265.1406,20.5781 Q265.7656,19.4219 266.8594,18.8125 Q267.9531,18.1875 269.1875,18.1875 Q269.9219,18.1875 270.5625,18.3594 Q271.2188,18.5156 271.7656,18.875 Z " fill="#000000"/><text fill="#000000" font-family="sans-serif" font-size="14" lengthAdjust="spacing" textLength="89" x="283" y="28.7285">VisualElement</text><line style="stroke:#181818;stroke-width:0.5;" x1="255" x2="374" y1="39" y2="39"/><line style="stroke:#181818;stroke-width:0.5;" x1="255" x2="374" y1="47" y2="47"/></g><!--MD5=[298883191722f47d612a790005ce591d]
class ComponentHeader--><g id="elem_ComponentHeader"><rect fill="#F1F1F1" height="48" id="ComponentHeader" rx="2.5" ry="2.5" style="stroke:#181818;stroke-width:0.5;" width="151" x="7" y="241"/><ellipse cx="22" cy="257" fill="#ADD1B2" rx="11" ry="11" style="stroke:#181818;stroke-width:1.0;"/><path d="M24.7656,252.875 Q24.9219,252.6563 25.1094,252.5469 Q25.2969,252.4375 25.5156,252.4375 Q25.8906,252.4375 26.125,252.7031 Q26.3594,252.9531 26.3594,253.5625 L26.3594,255.0156 Q26.3594,255.625 26.125,255.8906 Q25.8906,256.1563 25.5156,256.1563 Q25.1719,256.1563 24.9688,255.9531 Q24.7656,255.7656 24.6563,255.25 Q24.6094,254.8906 24.4219,254.7031 Q24.0938,254.3281 23.4844,254.1094 Q22.875,253.8906 22.25,253.8906 Q21.4844,253.8906 20.8438,254.2188 Q20.2188,254.5469 19.7188,255.2969 Q19.2344,256.0469 19.2344,257.0781 L19.2344,258.1719 Q19.2344,259.4063 20.125,260.2344 Q21.0156,261.0469 22.6094,261.0469 Q23.5469,261.0469 24.2031,260.7969 Q24.5938,260.6406 25.0156,260.2031 Q25.2813,259.9375 25.4219,259.8594 Q25.5781,259.7813 25.7813,259.7813 Q26.1094,259.7813 26.3594,260.0469 Q26.625,260.2969 26.625,260.6406 Q26.625,260.9844 26.2813,261.3906 Q25.7813,261.9688 24.9844,262.2969 Q23.9063,262.75 22.6094,262.75 Q21.0938,262.75 19.8906,262.125 Q18.9063,261.625 18.2188,260.5625 Q17.5313,259.4844 17.5313,258.2031 L17.5313,257.0469 Q17.5313,255.7188 18.1406,254.5781 Q18.7656,253.4219 19.8594,252.8125 Q20.9531,252.1875 22.1875,252.1875 Q22.9219,252.1875 23.5625,252.3594 Q24.2188,252.5156 24.7656,252.875 Z " fill="#000000"/><text fill="#000000" font-family="sans-serif" font-size="14" lengthAdjust="spacing" textLength="119" x="36" y="262.7285">ComponentHeader</text><line style="stroke:#181818;stroke-width:0.5;" x1="8" x2="157" y1="273" y2="273"/><line style="stroke:#181818;stroke-width:0.5;" x1="8" x2="157" y1="281" y2="281"/></g><!--MD5=[41f8c580327acedeef39b1c4413de103]
class ColorField--><g id="elem_ColorField"><rect fill="#F1F1F1" height="48" id="ColorField" rx="2.5" ry="2.5" style="stroke:#181818;stroke-width:0.5;" width="97" x="193" y="241"/><ellipse cx="208" cy="257" fill="#ADD1B2" rx="11" ry="11" style="stroke:#181818;stroke-width:1.0;"/><path d="M210.7656,252.875 Q210.9219,252.6563 211.1094,252.5469 Q211.2969,252.4375 211.5156,252.4375 Q211.8906,252.4375 212.125,252.7031 Q212.3594,252.9531 212.3594,253.5625 L212.3594,255.0156 Q212.3594,255.625 212.125,255.8906 Q211.8906,256.1563 211.5156,256.1563 Q211.1719,256.1563 210.9688,255.9531 Q210.7656,255.7656 210.6563,255.25 Q210.6094,254.8906 210.4219,254.7031 Q210.0938,254.3281 209.4844,254.1094 Q208.875,253.8906 208.25,253.8906 Q207.4844,253.8906 206.8438,254.2188 Q206.2188,254.5469 205.7188,255.2969 Q205.2344,256.0469 205.2344,257.0781 L205.2344,258.1719 Q205.2344,259.4063 206.125,260.2344 Q207.0156,261.0469 208.6094,261.0469 Q209.5469,261.0469 210.2031,260.7969 Q210.5938,260.6406 211.0156,260.2031 Q211.2813,259.9375 211.4219,259.8594 Q211.5781,259.7813 211.7813,259.7813 Q212.1094,259.7813 212.3594,260.0469 Q212.625,260.2969 212.625,260.6406 Q212.625,260.9844 212.2813,261.3906 Q211.7813,261.9688 210.9844,262.2969 Q209.9063,262.75 208.6094,262.75 Q207.0938,262.75 205.8906,262.125 Q204.9063,261.625 204.2188,260.5625 Q203.5313,259.4844 203.5313,258.2031 L203.5313,257.0469 Q203.5313,255.7188 204.1406,254.5781 Q204.7656,253.4219 205.8594,252.8125 Q206.9531,252.1875 208.1875,252.1875 Q208.9219,252.1875 209.5625,252.3594 Q210.2188,252.5156 210.7656,252.875 Z " fill="#000000"/><text fill="#000000" font-family="sans-serif" font-size="14" lengthAdjust="spacing" textLength="65" x="222" y="262.7285">ColorField</text><line style="stroke:#181818;stroke-width:0.5;" x1="194" x2="289" y1="273" y2="273"/><line style="stroke:#181818;stroke-width:0.5;" x1="194" x2="289" y1="281" y2="281"/></g><!--MD5=[e9b5ee0446a42629a7416d22a027c116]
class DropdownField--><g id="elem_DropdownField"><rect fill="#F1F1F1" height="48" id="DropdownField" rx="2.5" ry="2.5" style="stroke:#181818;stroke-width:0.5;" width="127" x="325" y="241"/><ellipse cx="340" cy="257" fill="#ADD1B2" rx="11" ry="11" style="stroke:#181818;stroke-width:1.0;"/><path d="M342.7656,252.875 Q342.9219,252.6563 343.1094,252.5469 Q343.2969,252.4375 343.5156,252.4375 Q343.8906,252.4375 344.125,252.7031 Q344.3594,252.9531 344.3594,253.5625 L344.3594,255.0156 Q344.3594,255.625 344.125,255.8906 Q343.8906,256.1563 343.5156,256.1563 Q343.1719,256.1563 342.9688,255.9531 Q342.7656,255.7656 342.6563,255.25 Q342.6094,254.8906 342.4219,254.7031 Q342.0938,254.3281 341.4844,254.1094 Q340.875,253.8906 340.25,253.8906 Q339.4844,253.8906 338.8438,254.2188 Q338.2188,254.5469 337.7188,255.2969 Q337.2344,256.0469 337.2344,257.0781 L337.2344,258.1719 Q337.2344,259.4063 338.125,260.2344 Q339.0156,261.0469 340.6094,261.0469 Q341.5469,261.0469 342.2031,260.7969 Q342.5938,260.6406 343.0156,260.2031 Q343.2813,259.9375 343.4219,259.8594 Q343.5781,259.7813 343.7813,259.7813 Q344.1094,259.7813 344.3594,260.0469 Q344.625,260.2969 344.625,260.6406 Q344.625,260.9844 344.2813,261.3906 Q343.7813,261.9688 342.9844,262.2969 Q341.9063,262.75 340.6094,262.75 Q339.0938,262.75 337.8906,262.125 Q336.9063,261.625 336.2188,260.5625 Q335.5313,259.4844 335.5313,258.2031 L335.5313,257.0469 Q335.5313,255.7188 336.1406,254.5781 Q336.7656,253.4219 337.8594,252.8125 Q338.9531,252.1875 340.1875,252.1875 Q340.9219,252.1875 341.5625,252.3594 Q342.2188,252.5156 342.7656,252.875 Z " fill="#000000"/><text fill="#000000" font-family="sans-serif" font-size="14" lengthAdjust="spacing" textLength="95" x="354" y="262.7285">DropdownField</text><line style="stroke:#181818;stroke-width:0.5;" x1="326" x2="451" y1="273" y2="273"/><line style="stroke:#181818;stroke-width:0.5;" x1="326" x2="451" y1="281" y2="281"/></g><!--MD5=[904b9abd7e00f2aae8221029467d07fa]
class ObjectSelectionOption--><g id="elem_ObjectSelectionOption"><rect fill="#F1F1F1" height="48" id="ObjectSelectionOption" rx="2.5" ry="2.5" style="stroke:#181818;stroke-width:0.5;" width="173" x="487" y="241"/><ellipse cx="502" cy="257" fill="#ADD1B2" rx="11" ry="11" style="stroke:#181818;stroke-width:1.0;"/><path d="M504.7656,252.875 Q504.9219,252.6563 505.1094,252.5469 Q505.2969,252.4375 505.5156,252.4375 Q505.8906,252.4375 506.125,252.7031 Q506.3594,252.9531 506.3594,253.5625 L506.3594,255.0156 Q506.3594,255.625 506.125,255.8906 Q505.8906,256.1563 505.5156,256.1563 Q505.1719,256.1563 504.9688,255.9531 Q504.7656,255.7656 504.6563,255.25 Q504.6094,254.8906 504.4219,254.7031 Q504.0938,254.3281 503.4844,254.1094 Q502.875,253.8906 502.25,253.8906 Q501.4844,253.8906 500.8438,254.2188 Q500.2188,254.5469 499.7188,255.2969 Q499.2344,256.0469 499.2344,257.0781 L499.2344,258.1719 Q499.2344,259.4063 500.125,260.2344 Q501.0156,261.0469 502.6094,261.0469 Q503.5469,261.0469 504.2031,260.7969 Q504.5938,260.6406 505.0156,260.2031 Q505.2813,259.9375 505.4219,259.8594 Q505.5781,259.7813 505.7813,259.7813 Q506.1094,259.7813 506.3594,260.0469 Q506.625,260.2969 506.625,260.6406 Q506.625,260.9844 506.2813,261.3906 Q505.7813,261.9688 504.9844,262.2969 Q503.9063,262.75 502.6094,262.75 Q501.0938,262.75 499.8906,262.125 Q498.9063,261.625 498.2188,260.5625 Q497.5313,259.4844 497.5313,258.2031 L497.5313,257.0469 Q497.5313,255.7188 498.1406,254.5781 Q498.7656,253.4219 499.8594,252.8125 Q500.9531,252.1875 502.1875,252.1875 Q502.9219,252.1875 503.5625,252.3594 Q504.2188,252.5156 504.7656,252.875 Z " fill="#000000"/><text fill="#000000" font-family="sans-serif" font-size="14" lengthAdjust="spacing" textLength="141" x="516" y="262.7285">ObjectSelectionOption</text><line style="stroke:#181818;stroke-width:0.5;" x1="488" x2="659" y1="273" y2="273"/><line style="stroke:#181818;stroke-width:0.5;" x1="488" x2="659" y1="281" y2="281"/></g><!--MD5=[8f01707d5ea75d5047006a178635b309]
reverse link VisualElement to ParticleView--><g id="link_VisualElement_ParticleView"><path codeLine="4" d="M314.5,75.62 C314.5,88.56 314.5,102.51 314.5,114.61 " fill="none" id="VisualElement-backto-ParticleView" style="stroke:#181818;stroke-width:1.0;"/><polygon fill="none" points="307.5,75.27,314.5,55.27,321.5,75.27,307.5,75.27" style="stroke:#181818;stroke-width:1.0;"/></g><!--MD5=[b6938bee30d9a0c7ec27bd07c432395b]
link ParticleView to ComponentHeader--><g id="link_ParticleView_ComponentHeader"><path codeLine="5" d="M249.88,181.03 C213.18,199.22 167.88,221.68 133.67,238.64 " fill="none" id="ParticleView-to-ComponentHeader" style="stroke:#181818;stroke-width:1.0;"/><polygon fill="#181818" points="129.13,240.89,138.9693,240.4554,133.605,238.6597,135.4007,233.2954,129.13,240.89" style="stroke:#181818;stroke-width:1.0;"/><text fill="#000000" font-family="sans-serif" font-size="13" lengthAdjust="spacing" textLength="39" x="97.0821" y="230.202">header</text></g><!--MD5=[0c9b2bf0dd0b0467d0623121ea5def65]
link ParticleView to ColorField--><g id="link_ParticleView_ColorField"><path codeLine="6" d="M294.17,181.03 C283.14,198.41 269.64,219.67 259.07,236.32 " fill="none" id="ParticleView-to-ColorField" style="stroke:#181818;stroke-width:1.0;"/><polygon fill="#181818" points="256.17,240.89,264.3586,235.4176,258.8405,236.6629,257.5952,231.1448,256.17,240.89" style="stroke:#181818;stroke-width:1.0;"/><text fill="#000000" font-family="sans-serif" font-size="13" lengthAdjust="spacing" textLength="35" x="220.4448" y="230.202">colour</text></g><!--MD5=[e5220302c51a18b61bb8559261e26ed7]
link ParticleView to DropdownField--><g id="link_ParticleView_DropdownField"><path codeLine="7" d="M335.11,181.03 C346.29,198.41 359.97,219.67 370.69,236.32 " fill="none" id="ParticleView-to-DropdownField" style="stroke:#181818;stroke-width:1.0;"/><polygon fill="#181818" points="373.63,240.89,372.1045,231.16,370.9161,236.6906,365.3855,235.5022,373.63,240.89" style="stroke:#181818;stroke-width:1.0;"/><text fill="#000000" font-family="sans-serif" font-size="13" lengthAdjust="spacing" textLength="55" x="307.7727" y="230.202">emitFrom</text></g><!--MD5=[3e7977350373ed744406414d7e3634cf]
link ParticleView to ObjectSelectionOption--><g id="link_ParticleView_ObjectSelectionOption"><path codeLine="8" d="M386.65,181.03 C427.78,199.3 478.59,221.86 516.84,238.84 " fill="none" id="ParticleView-to-ObjectSelectionOption" style="stroke:#181818;stroke-width:1.0;"/><polygon fill="#181818" points="521.44,240.89,514.836,233.5833,516.8698,238.862,511.5911,240.8957,521.44,240.89" style="stroke:#181818;stroke-width:1.0;"/><text fill="#000000" font-family="sans-serif" font-size="13" lengthAdjust="spacing" textLength="63" x="439.8465" y="230.0426">objectField</text></g><!--MD5=[cd0951bef5f53e90b2edb78c98bce8b4]
@startuml
!include ..\..\..\out_puml\Scripts\Views\ParticleView.puml
@enduml

@startuml
class ParticleView {
    + ParticleView(go:GameObject)
}
VisualElement <|- - ParticleView
ParticleView - -> "header" ComponentHeader
ParticleView - -> "colour" ColorField
ParticleView - -> "emitFrom" DropdownField
ParticleView - -> "objectField" ObjectSelectionOption
@enduml

PlantUML version 1.2022.5(Sat Apr 30 20:55:52 AEST 2022)
(GPL source distribution)
Java Runtime: Java(TM) SE Runtime Environment
JVM: Java HotSpot(TM) 64-Bit Server VM
Default Encoding: Cp1252
Language: en
Country: AU
--></g></svg>