<?xml version="1.0" encoding="UTF-8" standalone="no"?><svg xmlns="http://www.w3.org/2000/svg" xmlns:xlink="http://www.w3.org/1999/xlink" contentStyleType="text/css" height="474px" preserveAspectRatio="none" style="width:665px;height:474px;background:#FFFFFF;" version="1.1" viewBox="0 0 665 474" width="665px" zoomAndPan="magnify"><defs/><g><!--MD5=[904b9abd7e00f2aae8221029467d07fa]
class ObjectSelectionOption--><g id="elem_ObjectSelectionOption"><rect codeLine="1" fill="#F1F1F1" height="65.6094" id="ObjectSelectionOption" rx="2.5" ry="2.5" style="stroke:#181818;stroke-width:0.5;" width="407" x="251" y="115"/><ellipse cx="379.75" cy="131" fill="#ADD1B2" rx="11" ry="11" style="stroke:#181818;stroke-width:1.0;"/><path d="M382.5156,126.875 Q382.6719,126.6563 382.8594,126.5469 Q383.0469,126.4375 383.2656,126.4375 Q383.6406,126.4375 383.875,126.7031 Q384.1094,126.9531 384.1094,127.5625 L384.1094,129.0156 Q384.1094,129.625 383.875,129.8906 Q383.6406,130.1563 383.2656,130.1563 Q382.9219,130.1563 382.7188,129.9531 Q382.5156,129.7656 382.4063,129.25 Q382.3594,128.8906 382.1719,128.7031 Q381.8438,128.3281 381.2344,128.1094 Q380.625,127.8906 380,127.8906 Q379.2344,127.8906 378.5938,128.2188 Q377.9688,128.5469 377.4688,129.2969 Q376.9844,130.0469 376.9844,131.0781 L376.9844,132.1719 Q376.9844,133.4063 377.875,134.2344 Q378.7656,135.0469 380.3594,135.0469 Q381.2969,135.0469 381.9531,134.7969 Q382.3438,134.6406 382.7656,134.2031 Q383.0313,133.9375 383.1719,133.8594 Q383.3281,133.7813 383.5313,133.7813 Q383.8594,133.7813 384.1094,134.0469 Q384.375,134.2969 384.375,134.6406 Q384.375,134.9844 384.0313,135.3906 Q383.5313,135.9688 382.7344,136.2969 Q381.6563,136.75 380.3594,136.75 Q378.8438,136.75 377.6406,136.125 Q376.6563,135.625 375.9688,134.5625 Q375.2813,133.4844 375.2813,132.2031 L375.2813,131.0469 Q375.2813,129.7188 375.8906,128.5781 Q376.5156,127.4219 377.6094,126.8125 Q378.7031,126.1875 379.9375,126.1875 Q380.6719,126.1875 381.3125,126.3594 Q381.9688,126.5156 382.5156,126.875 Z " fill="#000000"/><text fill="#000000" font-family="sans-serif" font-size="14" lengthAdjust="spacing" textLength="141" x="400.25" y="136.7285">ObjectSelectionOption</text><line style="stroke:#181818;stroke-width:0.5;" x1="252" x2="657" y1="147" y2="147"/><line style="stroke:#181818;stroke-width:0.5;" x1="252" x2="657" y1="155" y2="155"/><ellipse cx="262" cy="166" fill="#84BE84" rx="3" ry="3" style="stroke:#038048;stroke-width:1.0;"/><text fill="#000000" font-family="sans-serif" font-size="14" lengthAdjust="spacing" textLength="381" x="271" y="173.5332">ObjectSelectionOption(filters:string, searchInFolders:string[])</text></g><!--MD5=[528925e99774133c6327b5925d78184b]
class PopUp--><g id="elem_PopUp"><rect codeLine="4" fill="#F1F1F1" height="100.8281" id="PopUp" rx="2.5" ry="2.5" style="stroke:#181818;stroke-width:0.5;" width="342" x="171.5" y="241"/><ellipse cx="317.25" cy="257" fill="#ADD1B2" rx="11" ry="11" style="stroke:#181818;stroke-width:1.0;"/><path d="M320.0156,252.875 Q320.1719,252.6563 320.3594,252.5469 Q320.5469,252.4375 320.7656,252.4375 Q321.1406,252.4375 321.375,252.7031 Q321.6094,252.9531 321.6094,253.5625 L321.6094,255.0156 Q321.6094,255.625 321.375,255.8906 Q321.1406,256.1563 320.7656,256.1563 Q320.4219,256.1563 320.2188,255.9531 Q320.0156,255.7656 319.9063,255.25 Q319.8594,254.8906 319.6719,254.7031 Q319.3438,254.3281 318.7344,254.1094 Q318.125,253.8906 317.5,253.8906 Q316.7344,253.8906 316.0938,254.2188 Q315.4688,254.5469 314.9688,255.2969 Q314.4844,256.0469 314.4844,257.0781 L314.4844,258.1719 Q314.4844,259.4063 315.375,260.2344 Q316.2656,261.0469 317.8594,261.0469 Q318.7969,261.0469 319.4531,260.7969 Q319.8438,260.6406 320.2656,260.2031 Q320.5313,259.9375 320.6719,259.8594 Q320.8281,259.7813 321.0313,259.7813 Q321.3594,259.7813 321.6094,260.0469 Q321.875,260.2969 321.875,260.6406 Q321.875,260.9844 321.5313,261.3906 Q321.0313,261.9688 320.2344,262.2969 Q319.1563,262.75 317.8594,262.75 Q316.3438,262.75 315.1406,262.125 Q314.1563,261.625 313.4688,260.5625 Q312.7813,259.4844 312.7813,258.2031 L312.7813,257.0469 Q312.7813,255.7188 313.3906,254.5781 Q314.0156,253.4219 315.1094,252.8125 Q316.2031,252.1875 317.4375,252.1875 Q318.1719,252.1875 318.8125,252.3594 Q319.4688,252.5156 320.0156,252.875 Z " fill="#000000"/><text fill="#000000" font-family="sans-serif" font-size="14" lengthAdjust="spacing" textLength="42" x="337.75" y="262.7285">PopUp</text><line style="stroke:#181818;stroke-width:0.5;" x1="172.5" x2="512.5" y1="273" y2="273"/><line style="stroke:#181818;stroke-width:0.5;" x1="172.5" x2="512.5" y1="281" y2="281"/><ellipse cx="182.5" cy="292" fill="#84BE84" rx="3" ry="3" style="stroke:#038048;stroke-width:1.0;"/><text fill="#000000" font-family="sans-serif" font-size="14" lengthAdjust="spacing" textLength="316" x="191.5" y="299.5332">SetSelector(selector:ObjectSelectionPopUp) : void</text><ellipse cx="182.5" cy="309.6094" fill="#84BE84" rx="3" ry="3" style="stroke:#038048;stroke-width:1.0;"/><text fill="#000000" font-family="sans-serif" font-size="14" lengthAdjust="spacing" text-decoration="underline" textLength="197" x="191.5" y="317.1426">ShowPop(name:string) : PopUp</text><text fill="#000000" font-family="sans-serif" font-size="14" lengthAdjust="spacing" textLength="133" x="191.5" y="334.752">OnLostFocus() : void</text></g><!--MD5=[0409c87576715f5a4e681fa673bf5572]
class ObjectSelectionPopUp--><g id="elem_ObjectSelectionPopUp"><rect codeLine="9" fill="#F1F1F1" height="65.6094" id="ObjectSelectionPopUp" rx="2.5" ry="2.5" style="stroke:#181818;stroke-width:0.5;" width="407" x="139" y="402"/><ellipse cx="267.75" cy="418" fill="#ADD1B2" rx="11" ry="11" style="stroke:#181818;stroke-width:1.0;"/><path d="M270.5156,413.875 Q270.6719,413.6563 270.8594,413.5469 Q271.0469,413.4375 271.2656,413.4375 Q271.6406,413.4375 271.875,413.7031 Q272.1094,413.9531 272.1094,414.5625 L272.1094,416.0156 Q272.1094,416.625 271.875,416.8906 Q271.6406,417.1563 271.2656,417.1563 Q270.9219,417.1563 270.7188,416.9531 Q270.5156,416.7656 270.4063,416.25 Q270.3594,415.8906 270.1719,415.7031 Q269.8438,415.3281 269.2344,415.1094 Q268.625,414.8906 268,414.8906 Q267.2344,414.8906 266.5938,415.2188 Q265.9688,415.5469 265.4688,416.2969 Q264.9844,417.0469 264.9844,418.0781 L264.9844,419.1719 Q264.9844,420.4063 265.875,421.2344 Q266.7656,422.0469 268.3594,422.0469 Q269.2969,422.0469 269.9531,421.7969 Q270.3438,421.6406 270.7656,421.2031 Q271.0313,420.9375 271.1719,420.8594 Q271.3281,420.7813 271.5313,420.7813 Q271.8594,420.7813 272.1094,421.0469 Q272.375,421.2969 272.375,421.6406 Q272.375,421.9844 272.0313,422.3906 Q271.5313,422.9688 270.7344,423.2969 Q269.6563,423.75 268.3594,423.75 Q266.8438,423.75 265.6406,423.125 Q264.6563,422.625 263.9688,421.5625 Q263.2813,420.4844 263.2813,419.2031 L263.2813,418.0469 Q263.2813,416.7188 263.8906,415.5781 Q264.5156,414.4219 265.6094,413.8125 Q266.7031,413.1875 267.9375,413.1875 Q268.6719,413.1875 269.3125,413.3594 Q269.9688,413.5156 270.5156,413.875 Z " fill="#000000"/><text fill="#000000" font-family="sans-serif" font-size="14" lengthAdjust="spacing" textLength="141" x="288.25" y="423.7285">ObjectSelectionPopUp</text><line style="stroke:#181818;stroke-width:0.5;" x1="140" x2="545" y1="434" y2="434"/><line style="stroke:#181818;stroke-width:0.5;" x1="140" x2="545" y1="442" y2="442"/><ellipse cx="150" cy="453" fill="#84BE84" rx="3" ry="3" style="stroke:#038048;stroke-width:1.0;"/><text fill="#000000" font-family="sans-serif" font-size="14" lengthAdjust="spacing" textLength="381" x="159" y="460.5332">ObjectSelectionPopUp(filters:string, searchInFolders:string[])</text></g><!--MD5=[352b6507b961399adb3b587b8d574879]
class ObjectField--><g id="elem_ObjectField"><rect fill="#F1F1F1" height="48" id="ObjectField" rx="2.5" ry="2.5" style="stroke:#181818;stroke-width:0.5;" width="104" x="402.5" y="7"/><ellipse cx="417.5" cy="23" fill="#ADD1B2" rx="11" ry="11" style="stroke:#181818;stroke-width:1.0;"/><path d="M420.2656,18.875 Q420.4219,18.6563 420.6094,18.5469 Q420.7969,18.4375 421.0156,18.4375 Q421.3906,18.4375 421.625,18.7031 Q421.8594,18.9531 421.8594,19.5625 L421.8594,21.0156 Q421.8594,21.625 421.625,21.8906 Q421.3906,22.1563 421.0156,22.1563 Q420.6719,22.1563 420.4688,21.9531 Q420.2656,21.7656 420.1563,21.25 Q420.1094,20.8906 419.9219,20.7031 Q419.5938,20.3281 418.9844,20.1094 Q418.375,19.8906 417.75,19.8906 Q416.9844,19.8906 416.3438,20.2188 Q415.7188,20.5469 415.2188,21.2969 Q414.7344,22.0469 414.7344,23.0781 L414.7344,24.1719 Q414.7344,25.4063 415.625,26.2344 Q416.5156,27.0469 418.1094,27.0469 Q419.0469,27.0469 419.7031,26.7969 Q420.0938,26.6406 420.5156,26.2031 Q420.7813,25.9375 420.9219,25.8594 Q421.0781,25.7813 421.2813,25.7813 Q421.6094,25.7813 421.8594,26.0469 Q422.125,26.2969 422.125,26.6406 Q422.125,26.9844 421.7813,27.3906 Q421.2813,27.9688 420.4844,28.2969 Q419.4063,28.75 418.1094,28.75 Q416.5938,28.75 415.3906,28.125 Q414.4063,27.625 413.7188,26.5625 Q413.0313,25.4844 413.0313,24.2031 L413.0313,23.0469 Q413.0313,21.7188 413.6406,20.5781 Q414.2656,19.4219 415.3594,18.8125 Q416.4531,18.1875 417.6875,18.1875 Q418.4219,18.1875 419.0625,18.3594 Q419.7188,18.5156 420.2656,18.875 Z " fill="#000000"/><text fill="#000000" font-family="sans-serif" font-size="14" lengthAdjust="spacing" textLength="72" x="431.5" y="28.7285">ObjectField</text><line style="stroke:#181818;stroke-width:0.5;" x1="403.5" x2="505.5" y1="39" y2="39"/><line style="stroke:#181818;stroke-width:0.5;" x1="403.5" x2="505.5" y1="47" y2="47"/></g><!--MD5=[802e82b404e578583cfeee29107899de]
class EditorWindow--><g id="elem_EditorWindow"><rect fill="#F1F1F1" height="48" id="EditorWindow" rx="2.5" ry="2.5" style="stroke:#181818;stroke-width:0.5;" width="118" x="97.5" y="124"/><ellipse cx="112.5" cy="140" fill="#ADD1B2" rx="11" ry="11" style="stroke:#181818;stroke-width:1.0;"/><path d="M115.2656,135.875 Q115.4219,135.6563 115.6094,135.5469 Q115.7969,135.4375 116.0156,135.4375 Q116.3906,135.4375 116.625,135.7031 Q116.8594,135.9531 116.8594,136.5625 L116.8594,138.0156 Q116.8594,138.625 116.625,138.8906 Q116.3906,139.1563 116.0156,139.1563 Q115.6719,139.1563 115.4688,138.9531 Q115.2656,138.7656 115.1563,138.25 Q115.1094,137.8906 114.9219,137.7031 Q114.5938,137.3281 113.9844,137.1094 Q113.375,136.8906 112.75,136.8906 Q111.9844,136.8906 111.3438,137.2188 Q110.7188,137.5469 110.2188,138.2969 Q109.7344,139.0469 109.7344,140.0781 L109.7344,141.1719 Q109.7344,142.4063 110.625,143.2344 Q111.5156,144.0469 113.1094,144.0469 Q114.0469,144.0469 114.7031,143.7969 Q115.0938,143.6406 115.5156,143.2031 Q115.7813,142.9375 115.9219,142.8594 Q116.0781,142.7813 116.2813,142.7813 Q116.6094,142.7813 116.8594,143.0469 Q117.125,143.2969 117.125,143.6406 Q117.125,143.9844 116.7813,144.3906 Q116.2813,144.9688 115.4844,145.2969 Q114.4063,145.75 113.1094,145.75 Q111.5938,145.75 110.3906,145.125 Q109.4063,144.625 108.7188,143.5625 Q108.0313,142.4844 108.0313,141.2031 L108.0313,140.0469 Q108.0313,138.7188 108.6406,137.5781 Q109.2656,136.4219 110.3594,135.8125 Q111.4531,135.1875 112.6875,135.1875 Q113.4219,135.1875 114.0625,135.3594 Q114.7188,135.5156 115.2656,135.875 Z " fill="#000000"/><text fill="#000000" font-family="sans-serif" font-size="14" lengthAdjust="spacing" textLength="86" x="126.5" y="145.7285">EditorWindow</text><line style="stroke:#181818;stroke-width:0.5;" x1="98.5" x2="214.5" y1="156" y2="156"/><line style="stroke:#181818;stroke-width:0.5;" x1="98.5" x2="214.5" y1="164" y2="164"/></g><!--MD5=[f01bc9769c39eb32511ec98885c444e4]
class SearchBoxView--><g id="elem_SearchBoxView"><rect fill="#F1F1F1" height="48" id="SearchBoxView" rx="2.5" ry="2.5" style="stroke:#181818;stroke-width:0.5;" width="129" x="7" y="267.5"/><ellipse cx="22" cy="283.5" fill="#ADD1B2" rx="11" ry="11" style="stroke:#181818;stroke-width:1.0;"/><path d="M24.7656,279.375 Q24.9219,279.1563 25.1094,279.0469 Q25.2969,278.9375 25.5156,278.9375 Q25.8906,278.9375 26.125,279.2031 Q26.3594,279.4531 26.3594,280.0625 L26.3594,281.5156 Q26.3594,282.125 26.125,282.3906 Q25.8906,282.6563 25.5156,282.6563 Q25.1719,282.6563 24.9688,282.4531 Q24.7656,282.2656 24.6563,281.75 Q24.6094,281.3906 24.4219,281.2031 Q24.0938,280.8281 23.4844,280.6094 Q22.875,280.3906 22.25,280.3906 Q21.4844,280.3906 20.8438,280.7188 Q20.2188,281.0469 19.7188,281.7969 Q19.2344,282.5469 19.2344,283.5781 L19.2344,284.6719 Q19.2344,285.9063 20.125,286.7344 Q21.0156,287.5469 22.6094,287.5469 Q23.5469,287.5469 24.2031,287.2969 Q24.5938,287.1406 25.0156,286.7031 Q25.2813,286.4375 25.4219,286.3594 Q25.5781,286.2813 25.7813,286.2813 Q26.1094,286.2813 26.3594,286.5469 Q26.625,286.7969 26.625,287.1406 Q26.625,287.4844 26.2813,287.8906 Q25.7813,288.4688 24.9844,288.7969 Q23.9063,289.25 22.6094,289.25 Q21.0938,289.25 19.8906,288.625 Q18.9063,288.125 18.2188,287.0625 Q17.5313,285.9844 17.5313,284.7031 L17.5313,283.5469 Q17.5313,282.2188 18.1406,281.0781 Q18.7656,279.9219 19.8594,279.3125 Q20.9531,278.6875 22.1875,278.6875 Q22.9219,278.6875 23.5625,278.8594 Q24.2188,279.0156 24.7656,279.375 Z " fill="#000000"/><text fill="#000000" font-family="sans-serif" font-size="14" lengthAdjust="spacing" textLength="97" x="36" y="289.2285">SearchBoxView</text><line style="stroke:#181818;stroke-width:0.5;" x1="8" x2="135" y1="299.5" y2="299.5"/><line style="stroke:#181818;stroke-width:0.5;" x1="8" x2="135" y1="307.5" y2="307.5"/></g><!--MD5=[72fd2de8f24ab4d0e09ac93e71108f53]
reverse link ObjectField to ObjectSelectionOption--><g id="link_ObjectField_ObjectSelectionOption"><path codeLine="12" d="M454.5,75.62 C454.5,88.56 454.5,102.51 454.5,114.61 " fill="none" id="ObjectField-backto-ObjectSelectionOption" style="stroke:#181818;stroke-width:1.0;"/><polygon fill="none" points="447.5,75.27,454.5,55.27,461.5,75.27,447.5,75.27" style="stroke:#181818;stroke-width:1.0;"/></g><!--MD5=[19083754ddc201a09a26a145cc6d0b8d]
link ObjectSelectionOption to PopUp--><g id="link_ObjectSelectionOption_PopUp"><path codeLine="13" d="M418.2,181.11 C403.48,197.48 386.85,217.84 372.79,236.54 " fill="none" id="ObjectSelectionOption-to-PopUp" style="stroke:#181818;stroke-width:1.0;"/><polygon fill="#181818" points="369.64,240.75,378.2207,235.9157,372.624,236.738,371.8016,231.1413,369.64,240.75" style="stroke:#181818;stroke-width:1.0;"/><text fill="#000000" font-family="sans-serif" font-size="13" lengthAdjust="spacing" textLength="37" x="333.855" y="230.0202">popUp</text></g><!--MD5=[a861e24672aaaa7c68707aabff7afd04]
reverse link ObjectSelectionOption to PopUp--><g id="link_ObjectSelectionOption_PopUp"><path codeLine="14" d="M431.76,193.71 C420.94,208.67 407.78,225.43 394.84,240.75 " fill="none" id="ObjectSelectionOption-backto-PopUp" style="stroke:#181818;stroke-width:1.0;"/><ellipse cx="436.0172" cy="187.6603" fill="#FFFFFF" rx="8" ry="8" style="stroke:#181818;stroke-width:1.0;"/><line style="stroke:#181818;stroke-width:1.0;" x1="431.4244" x2="440.61" y1="194.2106" y2="181.11"/><line style="stroke:#181818;stroke-width:1.0;" x1="429.4669" x2="442.5675" y1="183.0675" y2="192.2531"/></g><!--MD5=[22d8242a35ecb3fa8fffcf8bd8dc9ca0]
reverse link EditorWindow to PopUp--><g id="link_EditorWindow_PopUp"><path codeLine="15" d="M202.87,184.28 C225.3,201.34 252.61,222.12 277.11,240.76 " fill="none" id="EditorWindow-backto-PopUp" style="stroke:#181818;stroke-width:1.0;"/><polygon fill="none" points="198.48,189.73,186.8,172.05,206.95,178.59,198.48,189.73" style="stroke:#181818;stroke-width:1.0;"/></g><!--MD5=[bd793e125c0407ea32f95f726beb562f]
link PopUp to ObjectSelectionPopUp--><g id="link_PopUp_ObjectSelectionPopUp"><path codeLine="16" d="M342.5,342.39 C342.5,360.27 342.5,380.11 342.5,396.73 " fill="none" id="PopUp-to-ObjectSelectionPopUp" style="stroke:#181818;stroke-width:1.0;"/><polygon fill="#181818" points="342.5,401.79,346.5,392.79,342.5,396.79,338.5,392.79,342.5,401.79" style="stroke:#181818;stroke-width:1.0;"/><text fill="#000000" font-family="sans-serif" font-size="13" lengthAdjust="spacing" textLength="46" x="291.9719" y="391.245">selector</text></g><!--MD5=[f0b73aa15bb77184f9a8cbfb194484c9]
reverse link ObjectSelectionOption to ObjectSelectionPopUp--><g id="link_ObjectSelectionOption_ObjectSelectionPopUp"><path codeLine="17" d="M501.32,192.36 C513.52,206.55 525.06,223.26 531.5,241 C546.83,283.19 555.3,303.94 531.5,342 C514.66,368.92 487.44,388.17 458.84,401.85 " fill="none" id="ObjectSelectionOption-backto-ObjectSelectionPopUp" style="stroke:#181818;stroke-width:1.0;"/><ellipse cx="496.3958" cy="186.9764" fill="#FFFFFF" rx="8" ry="8" style="stroke:#181818;stroke-width:1.0;"/><line style="stroke:#181818;stroke-width:1.0;" x1="501.7916" x2="491" y1="192.8828" y2="181.07"/><line style="stroke:#181818;stroke-width:1.0;" x1="490.4894" x2="502.3022" y1="192.3722" y2="181.5806"/></g><!--MD5=[846ef4d00cc707340e251c6bea0e6843]
reverse link SearchBoxView to ObjectSelectionPopUp--><g id="link_SearchBoxView_ObjectSelectionPopUp"><path codeLine="18" d="M125.46,326.01 C134.73,331.5 144.33,337.01 153.5,342 C192.29,363.09 236.64,384.8 272.62,401.83 " fill="none" id="SearchBoxView-backto-ObjectSelectionPopUp" style="stroke:#181818;stroke-width:1.0;"/><polygon fill="none" points="121.76,331.95,108.24,315.64,128.98,319.96,121.76,331.95" style="stroke:#181818;stroke-width:1.0;"/></g><!--MD5=[bd5f2b4d1d6bcb16e23706db55f53a2f]
@startuml
!include ..\..\..\out_puml\Scripts\Views\ObjectSelectionOption.puml
@enduml

@startuml
class ObjectSelectionOption {
    + ObjectSelectionOption(filters:string, searchInFolders:string[])
}
class PopUp {
    + SetSelector(selector:ObjectSelectionPopUp) : void
    + {static} ShowPop(name:string) : PopUp
    OnLostFocus() : void
}
class ObjectSelectionPopUp {
    + ObjectSelectionPopUp(filters:string, searchInFolders:string[])
}
ObjectField <|- - ObjectSelectionOption
ObjectSelectionOption - -> "popUp" PopUp
ObjectSelectionOption +- - PopUp
EditorWindow <|- - PopUp
PopUp - -> "selector" ObjectSelectionPopUp
ObjectSelectionOption +- - ObjectSelectionPopUp
SearchBoxView <|- - ObjectSelectionPopUp
@enduml

PlantUML version 1.2022.5(Sat Apr 30 20:55:52 AEST 2022)
(GPL source distribution)
Java Runtime: Java(TM) SE Runtime Environment
JVM: Java HotSpot(TM) 64-Bit Server VM
Default Encoding: Cp1252
Language: en
Country: AU
--></g></svg>