<?xml version="1.0" encoding="UTF-8" standalone="no"?><svg xmlns="http://www.w3.org/2000/svg" xmlns:xlink="http://www.w3.org/1999/xlink" contentStyleType="text/css" height="296px" preserveAspectRatio="none" style="width:464px;height:296px;background:#FFFFFF;" version="1.1" viewBox="0 0 464 296" width="464px" zoomAndPan="magnify"><defs/><g><!--MD5=[6978854a4f5a024f75fedb9865e7fa1e]
class EffectSelector--><g id="elem_EffectSelector"><rect codeLine="1" fill="#F1F1F1" height="65.6094" id="EffectSelector" rx="2.5" ry="2.5" style="stroke:#181818;stroke-width:0.5;" width="450" x="7" y="115"/><ellipse cx="183.75" cy="131" fill="#ADD1B2" rx="11" ry="11" style="stroke:#181818;stroke-width:1.0;"/><path d="M186.5156,126.875 Q186.6719,126.6563 186.8594,126.5469 Q187.0469,126.4375 187.2656,126.4375 Q187.6406,126.4375 187.875,126.7031 Q188.1094,126.9531 188.1094,127.5625 L188.1094,129.0156 Q188.1094,129.625 187.875,129.8906 Q187.6406,130.1563 187.2656,130.1563 Q186.9219,130.1563 186.7188,129.9531 Q186.5156,129.7656 186.4063,129.25 Q186.3594,128.8906 186.1719,128.7031 Q185.8438,128.3281 185.2344,128.1094 Q184.625,127.8906 184,127.8906 Q183.2344,127.8906 182.5938,128.2188 Q181.9688,128.5469 181.4688,129.2969 Q180.9844,130.0469 180.9844,131.0781 L180.9844,132.1719 Q180.9844,133.4063 181.875,134.2344 Q182.7656,135.0469 184.3594,135.0469 Q185.2969,135.0469 185.9531,134.7969 Q186.3438,134.6406 186.7656,134.2031 Q187.0313,133.9375 187.1719,133.8594 Q187.3281,133.7813 187.5313,133.7813 Q187.8594,133.7813 188.1094,134.0469 Q188.375,134.2969 188.375,134.6406 Q188.375,134.9844 188.0313,135.3906 Q187.5313,135.9688 186.7344,136.2969 Q185.6563,136.75 184.3594,136.75 Q182.8438,136.75 181.6406,136.125 Q180.6563,135.625 179.9688,134.5625 Q179.2813,133.4844 179.2813,132.2031 L179.2813,131.0469 Q179.2813,129.7188 179.8906,128.5781 Q180.5156,127.4219 181.6094,126.8125 Q182.7031,126.1875 183.9375,126.1875 Q184.6719,126.1875 185.3125,126.3594 Q185.9688,126.5156 186.5156,126.875 Z " fill="#000000"/><text fill="#000000" font-family="sans-serif" font-size="14" lengthAdjust="spacing" textLength="88" x="204.25" y="136.7285">EffectSelector</text><line style="stroke:#181818;stroke-width:0.5;" x1="8" x2="456" y1="147" y2="147"/><line style="stroke:#181818;stroke-width:0.5;" x1="8" x2="456" y1="155" y2="155"/><ellipse cx="18" cy="166" fill="#84BE84" rx="3" ry="3" style="stroke:#038048;stroke-width:1.0;"/><text fill="#000000" font-family="sans-serif" font-size="14" lengthAdjust="spacing" textLength="424" x="27" y="173.5332">EffectSelector(labelName:string, choices:List&lt;string&gt;, choice:string)</text></g><!--MD5=[e77834a0fda1b3f817ae7f2b19e4424d]
class VisualElement--><g id="elem_VisualElement"><rect fill="#F1F1F1" height="48" id="VisualElement" rx="2.5" ry="2.5" style="stroke:#181818;stroke-width:0.5;" width="121" x="171.5" y="7"/><ellipse cx="186.5" cy="23" fill="#ADD1B2" rx="11" ry="11" style="stroke:#181818;stroke-width:1.0;"/><path d="M189.2656,18.875 Q189.4219,18.6563 189.6094,18.5469 Q189.7969,18.4375 190.0156,18.4375 Q190.3906,18.4375 190.625,18.7031 Q190.8594,18.9531 190.8594,19.5625 L190.8594,21.0156 Q190.8594,21.625 190.625,21.8906 Q190.3906,22.1563 190.0156,22.1563 Q189.6719,22.1563 189.4688,21.9531 Q189.2656,21.7656 189.1563,21.25 Q189.1094,20.8906 188.9219,20.7031 Q188.5938,20.3281 187.9844,20.1094 Q187.375,19.8906 186.75,19.8906 Q185.9844,19.8906 185.3438,20.2188 Q184.7188,20.5469 184.2188,21.2969 Q183.7344,22.0469 183.7344,23.0781 L183.7344,24.1719 Q183.7344,25.4063 184.625,26.2344 Q185.5156,27.0469 187.1094,27.0469 Q188.0469,27.0469 188.7031,26.7969 Q189.0938,26.6406 189.5156,26.2031 Q189.7813,25.9375 189.9219,25.8594 Q190.0781,25.7813 190.2813,25.7813 Q190.6094,25.7813 190.8594,26.0469 Q191.125,26.2969 191.125,26.6406 Q191.125,26.9844 190.7813,27.3906 Q190.2813,27.9688 189.4844,28.2969 Q188.4063,28.75 187.1094,28.75 Q185.5938,28.75 184.3906,28.125 Q183.4063,27.625 182.7188,26.5625 Q182.0313,25.4844 182.0313,24.2031 L182.0313,23.0469 Q182.0313,21.7188 182.6406,20.5781 Q183.2656,19.4219 184.3594,18.8125 Q185.4531,18.1875 186.6875,18.1875 Q187.4219,18.1875 188.0625,18.3594 Q188.7188,18.5156 189.2656,18.875 Z " fill="#000000"/><text fill="#000000" font-family="sans-serif" font-size="14" lengthAdjust="spacing" textLength="89" x="200.5" y="28.7285">VisualElement</text><line style="stroke:#181818;stroke-width:0.5;" x1="172.5" x2="291.5" y1="39" y2="39"/><line style="stroke:#181818;stroke-width:0.5;" x1="172.5" x2="291.5" y1="47" y2="47"/></g><!--MD5=[298883191722f47d612a790005ce591d]
class ComponentHeader--><g id="elem_ComponentHeader"><rect fill="#F1F1F1" height="48" id="ComponentHeader" rx="2.5" ry="2.5" style="stroke:#181818;stroke-width:0.5;" width="151" x="69.5" y="241"/><ellipse cx="84.5" cy="257" fill="#ADD1B2" rx="11" ry="11" style="stroke:#181818;stroke-width:1.0;"/><path d="M87.2656,252.875 Q87.4219,252.6563 87.6094,252.5469 Q87.7969,252.4375 88.0156,252.4375 Q88.3906,252.4375 88.625,252.7031 Q88.8594,252.9531 88.8594,253.5625 L88.8594,255.0156 Q88.8594,255.625 88.625,255.8906 Q88.3906,256.1563 88.0156,256.1563 Q87.6719,256.1563 87.4688,255.9531 Q87.2656,255.7656 87.1563,255.25 Q87.1094,254.8906 86.9219,254.7031 Q86.5938,254.3281 85.9844,254.1094 Q85.375,253.8906 84.75,253.8906 Q83.9844,253.8906 83.3438,254.2188 Q82.7188,254.5469 82.2188,255.2969 Q81.7344,256.0469 81.7344,257.0781 L81.7344,258.1719 Q81.7344,259.4063 82.625,260.2344 Q83.5156,261.0469 85.1094,261.0469 Q86.0469,261.0469 86.7031,260.7969 Q87.0938,260.6406 87.5156,260.2031 Q87.7813,259.9375 87.9219,259.8594 Q88.0781,259.7813 88.2813,259.7813 Q88.6094,259.7813 88.8594,260.0469 Q89.125,260.2969 89.125,260.6406 Q89.125,260.9844 88.7813,261.3906 Q88.2813,261.9688 87.4844,262.2969 Q86.4063,262.75 85.1094,262.75 Q83.5938,262.75 82.3906,262.125 Q81.4063,261.625 80.7188,260.5625 Q80.0313,259.4844 80.0313,258.2031 L80.0313,257.0469 Q80.0313,255.7188 80.6406,254.5781 Q81.2656,253.4219 82.3594,252.8125 Q83.4531,252.1875 84.6875,252.1875 Q85.4219,252.1875 86.0625,252.3594 Q86.7188,252.5156 87.2656,252.875 Z " fill="#000000"/><text fill="#000000" font-family="sans-serif" font-size="14" lengthAdjust="spacing" textLength="119" x="98.5" y="262.7285">ComponentHeader</text><line style="stroke:#181818;stroke-width:0.5;" x1="70.5" x2="219.5" y1="273" y2="273"/><line style="stroke:#181818;stroke-width:0.5;" x1="70.5" x2="219.5" y1="281" y2="281"/></g><!--MD5=[e9b5ee0446a42629a7416d22a027c116]
class DropdownField--><g id="elem_DropdownField"><rect fill="#F1F1F1" height="48" id="DropdownField" rx="2.5" ry="2.5" style="stroke:#181818;stroke-width:0.5;" width="127" x="255.5" y="241"/><ellipse cx="270.5" cy="257" fill="#ADD1B2" rx="11" ry="11" style="stroke:#181818;stroke-width:1.0;"/><path d="M273.2656,252.875 Q273.4219,252.6563 273.6094,252.5469 Q273.7969,252.4375 274.0156,252.4375 Q274.3906,252.4375 274.625,252.7031 Q274.8594,252.9531 274.8594,253.5625 L274.8594,255.0156 Q274.8594,255.625 274.625,255.8906 Q274.3906,256.1563 274.0156,256.1563 Q273.6719,256.1563 273.4688,255.9531 Q273.2656,255.7656 273.1563,255.25 Q273.1094,254.8906 272.9219,254.7031 Q272.5938,254.3281 271.9844,254.1094 Q271.375,253.8906 270.75,253.8906 Q269.9844,253.8906 269.3438,254.2188 Q268.7188,254.5469 268.2188,255.2969 Q267.7344,256.0469 267.7344,257.0781 L267.7344,258.1719 Q267.7344,259.4063 268.625,260.2344 Q269.5156,261.0469 271.1094,261.0469 Q272.0469,261.0469 272.7031,260.7969 Q273.0938,260.6406 273.5156,260.2031 Q273.7813,259.9375 273.9219,259.8594 Q274.0781,259.7813 274.2813,259.7813 Q274.6094,259.7813 274.8594,260.0469 Q275.125,260.2969 275.125,260.6406 Q275.125,260.9844 274.7813,261.3906 Q274.2813,261.9688 273.4844,262.2969 Q272.4063,262.75 271.1094,262.75 Q269.5938,262.75 268.3906,262.125 Q267.4063,261.625 266.7188,260.5625 Q266.0313,259.4844 266.0313,258.2031 L266.0313,257.0469 Q266.0313,255.7188 266.6406,254.5781 Q267.2656,253.4219 268.3594,252.8125 Q269.4531,252.1875 270.6875,252.1875 Q271.4219,252.1875 272.0625,252.3594 Q272.7188,252.5156 273.2656,252.875 Z " fill="#000000"/><text fill="#000000" font-family="sans-serif" font-size="14" lengthAdjust="spacing" textLength="95" x="284.5" y="262.7285">DropdownField</text><line style="stroke:#181818;stroke-width:0.5;" x1="256.5" x2="381.5" y1="273" y2="273"/><line style="stroke:#181818;stroke-width:0.5;" x1="256.5" x2="381.5" y1="281" y2="281"/></g><!--MD5=[ed5d7b61c5f6f9cc1fabe35355298c0a]
reverse link VisualElement to EffectSelector--><g id="link_VisualElement_EffectSelector"><path codeLine="4" d="M232,75.62 C232,88.56 232,102.51 232,114.61 " fill="none" id="VisualElement-backto-EffectSelector" style="stroke:#181818;stroke-width:1.0;"/><polygon fill="none" points="225,75.27,232,55.27,239,75.27,225,75.27" style="stroke:#181818;stroke-width:1.0;"/></g><!--MD5=[8345d71ce5052483cc91114f8ff43b69]
link EffectSelector to ComponentHeader--><g id="link_EffectSelector_ComponentHeader"><path codeLine="5" d="M207.77,181.03 C194.51,198.56 178.26,220.03 165.62,236.75 " fill="none" id="EffectSelector-to-ComponentHeader" style="stroke:#181818;stroke-width:1.0;"/><polygon fill="#181818" points="162.49,240.89,171.1091,236.1245,165.506,236.902,164.7284,231.2989,162.49,240.89" style="stroke:#181818;stroke-width:1.0;"/><text fill="#000000" font-family="sans-serif" font-size="13" lengthAdjust="spacing" textLength="39" x="122.9749" y="230.202">header</text></g><!--MD5=[a107cc734b8fe41e9c2b5b9cdd862faf]
link EffectSelector to DropdownField--><g id="link_EffectSelector_DropdownField"><path codeLine="6" d="M256.23,181.03 C269.49,198.56 285.74,220.03 298.38,236.75 " fill="none" id="EffectSelector-to-DropdownField" style="stroke:#181818;stroke-width:1.0;"/><polygon fill="#181818" points="301.51,240.89,299.2716,231.2989,298.494,236.902,292.8909,236.1245,301.51,240.89" style="stroke:#181818;stroke-width:1.0;"/><text fill="#000000" font-family="sans-serif" font-size="13" lengthAdjust="spacing" textLength="49" x="241.7501" y="230.202">selected</text></g><!--MD5=[4c6a8b53c8ce37cf57fcc67fdcd528a6]
@startuml
!include ..\..\..\out_puml\Scripts\Views\EffectSelector.puml
@enduml

@startuml
class EffectSelector {
    + EffectSelector(labelName:string, choices:List<string>, choice:string)
}
VisualElement <|- - EffectSelector
EffectSelector - -> "header" ComponentHeader
EffectSelector - -> "selected" DropdownField
@enduml

PlantUML version 1.2022.5(Sat Apr 30 20:55:52 AEST 2022)
(GPL source distribution)
Java Runtime: Java(TM) SE Runtime Environment
JVM: Java HotSpot(TM) 64-Bit Server VM
Default Encoding: Cp1252
Language: en
Country: AU
--></g></svg>