<?xml version="1.0" encoding="UTF-8" standalone="no"?><svg xmlns="http://www.w3.org/2000/svg" xmlns:xlink="http://www.w3.org/1999/xlink" contentStyleType="text/css" height="1110px" preserveAspectRatio="none" style="width:1696px;height:1110px;background:#FFFFFF;" version="1.1" viewBox="0 0 1696 1110" width="1696px" zoomAndPan="magnify"><defs/><g><!--MD5=[999f80192410ad58725ac6d158b21eb2]
cluster Views--><g id="cluster_Views"><rect height="153" rx="2.5" ry="2.5" style="stroke:#181818;stroke-width:1.0;fill:none;" width="1354" x="336" y="393"/><path d="M387,393 L387,403.6094 L377,413.6094 L336,413.6094 " fill="none" style="stroke:#181818;stroke-width:1.0;"/><text fill="#000000" font-family="sans-serif" font-size="14" font-weight="bold" lengthAdjust="spacing" textLength="41" x="339" y="408.5332">Views</text></g><!--MD5=[4fc7062ed4edd664ef2653f8bfc5883f]
cluster Unity--><g id="cluster_Unity"><rect height="347" rx="2.5" ry="2.5" style="stroke:#181818;stroke-width:1.0;fill:none;" width="275" x="37" y="172.5"/><path d="M82,172.5 L82,183.1094 L72,193.1094 L37,193.1094 " fill="none" style="stroke:#181818;stroke-width:1.0;"/><text fill="#000000" font-family="sans-serif" font-size="14" font-weight="bold" lengthAdjust="spacing" textLength="35" x="40" y="188.0332">Unity</text></g><!--MD5=[3af84d048c735dc5a37e2d49409cfd2b]
cluster EditorWindows--><g id="cluster_EditorWindows"><rect height="241" rx="2.5" ry="2.5" style="stroke:#181818;stroke-width:1.0;fill:none;" width="548" x="824" y="102"/><path d="M939,102 L939,112.6094 L929,122.6094 L824,122.6094 " fill="none" style="stroke:#181818;stroke-width:1.0;"/><text fill="#000000" font-family="sans-serif" font-size="14" font-weight="bold" lengthAdjust="spacing" textLength="105" x="827" y="117.5332">EditorWindows</text></g><!--MD5=[027ebfd53c01aea08f474edbf35d0797]
cluster Models--><g id="cluster_Models"><rect height="525" rx="2.5" ry="2.5" style="stroke:#181818;stroke-width:1.0;fill:none;" width="312" x="7" y="579"/><path d="M69,579 L69,589.6094 L59,599.6094 L7,599.6094 " fill="none" style="stroke:#181818;stroke-width:1.0;"/><text fill="#000000" font-family="sans-serif" font-size="14" font-weight="bold" lengthAdjust="spacing" textLength="52" x="10" y="594.5332">Models</text></g><!--MD5=[f01bc9769c39eb32511ec98885c444e4]
class SearchBoxView--><g id="elem_SearchBoxView"><rect codeLine="3" fill="#F1F1F1" height="48" id="SearchBoxView" rx="2.5" ry="2.5" style="stroke:#181818;stroke-width:0.5;" width="129" x="1383.5" y="455.5"/><ellipse cx="1398.5" cy="471.5" fill="#ADD1B2" rx="11" ry="11" style="stroke:#181818;stroke-width:1.0;"/><path d="M1401.2656,467.375 Q1401.4219,467.1563 1401.6094,467.0469 Q1401.7969,466.9375 1402.0156,466.9375 Q1402.3906,466.9375 1402.625,467.2031 Q1402.8594,467.4531 1402.8594,468.0625 L1402.8594,469.5156 Q1402.8594,470.125 1402.625,470.3906 Q1402.3906,470.6563 1402.0156,470.6563 Q1401.6719,470.6563 1401.4688,470.4531 Q1401.2656,470.2656 1401.1563,469.75 Q1401.1094,469.3906 1400.9219,469.2031 Q1400.5938,468.8281 1399.9844,468.6094 Q1399.375,468.3906 1398.75,468.3906 Q1397.9844,468.3906 1397.3438,468.7188 Q1396.7188,469.0469 1396.2188,469.7969 Q1395.7344,470.5469 1395.7344,471.5781 L1395.7344,472.6719 Q1395.7344,473.9063 1396.625,474.7344 Q1397.5156,475.5469 1399.1094,475.5469 Q1400.0469,475.5469 1400.7031,475.2969 Q1401.0938,475.1406 1401.5156,474.7031 Q1401.7813,474.4375 1401.9219,474.3594 Q1402.0781,474.2813 1402.2813,474.2813 Q1402.6094,474.2813 1402.8594,474.5469 Q1403.125,474.7969 1403.125,475.1406 Q1403.125,475.4844 1402.7813,475.8906 Q1402.2813,476.4688 1401.4844,476.7969 Q1400.4063,477.25 1399.1094,477.25 Q1397.5938,477.25 1396.3906,476.625 Q1395.4063,476.125 1394.7188,475.0625 Q1394.0313,473.9844 1394.0313,472.7031 L1394.0313,471.5469 Q1394.0313,470.2188 1394.6406,469.0781 Q1395.2656,467.9219 1396.3594,467.3125 Q1397.4531,466.6875 1398.6875,466.6875 Q1399.4219,466.6875 1400.0625,466.8594 Q1400.7188,467.0156 1401.2656,467.375 Z " fill="#000000"/><text fill="#000000" font-family="sans-serif" font-size="14" lengthAdjust="spacing" textLength="97" x="1412.5" y="477.2285">SearchBoxView</text><line style="stroke:#181818;stroke-width:0.5;" x1="1384.5" x2="1511.5" y1="487.5" y2="487.5"/><line style="stroke:#181818;stroke-width:0.5;" x1="1384.5" x2="1511.5" y1="495.5" y2="495.5"/></g><!--MD5=[d61f97fdeb52b7770a005c48cc26ef5b]
class ObjectSearchView--><g id="elem_ObjectSearchView"><rect codeLine="4" fill="#F1F1F1" height="48" id="ObjectSearchView" rx="2.5" ry="2.5" style="stroke:#181818;stroke-width:0.5;" width="147" x="837.5" y="455.5"/><ellipse cx="852.5" cy="471.5" fill="#ADD1B2" rx="11" ry="11" style="stroke:#181818;stroke-width:1.0;"/><path d="M855.2656,467.375 Q855.4219,467.1563 855.6094,467.0469 Q855.7969,466.9375 856.0156,466.9375 Q856.3906,466.9375 856.625,467.2031 Q856.8594,467.4531 856.8594,468.0625 L856.8594,469.5156 Q856.8594,470.125 856.625,470.3906 Q856.3906,470.6563 856.0156,470.6563 Q855.6719,470.6563 855.4688,470.4531 Q855.2656,470.2656 855.1563,469.75 Q855.1094,469.3906 854.9219,469.2031 Q854.5938,468.8281 853.9844,468.6094 Q853.375,468.3906 852.75,468.3906 Q851.9844,468.3906 851.3438,468.7188 Q850.7188,469.0469 850.2188,469.7969 Q849.7344,470.5469 849.7344,471.5781 L849.7344,472.6719 Q849.7344,473.9063 850.625,474.7344 Q851.5156,475.5469 853.1094,475.5469 Q854.0469,475.5469 854.7031,475.2969 Q855.0938,475.1406 855.5156,474.7031 Q855.7813,474.4375 855.9219,474.3594 Q856.0781,474.2813 856.2813,474.2813 Q856.6094,474.2813 856.8594,474.5469 Q857.125,474.7969 857.125,475.1406 Q857.125,475.4844 856.7813,475.8906 Q856.2813,476.4688 855.4844,476.7969 Q854.4063,477.25 853.1094,477.25 Q851.5938,477.25 850.3906,476.625 Q849.4063,476.125 848.7188,475.0625 Q848.0313,473.9844 848.0313,472.7031 L848.0313,471.5469 Q848.0313,470.2188 848.6406,469.0781 Q849.2656,467.9219 850.3594,467.3125 Q851.4531,466.6875 852.6875,466.6875 Q853.4219,466.6875 854.0625,466.8594 Q854.7188,467.0156 855.2656,467.375 Z " fill="#000000"/><text fill="#000000" font-family="sans-serif" font-size="14" lengthAdjust="spacing" textLength="115" x="866.5" y="477.2285">ObjectSearchView</text><line style="stroke:#181818;stroke-width:0.5;" x1="838.5" x2="983.5" y1="487.5" y2="487.5"/><line style="stroke:#181818;stroke-width:0.5;" x1="838.5" x2="983.5" y1="495.5" y2="495.5"/></g><!--MD5=[c5e849f98f5de13a05adf44f0e4cdb2e]
class AddActor--><g id="elem_AddActor"><rect codeLine="5" fill="#F1F1F1" height="48" id="AddActor" rx="2.5" ry="2.5" style="stroke:#181818;stroke-width:0.5;" width="90" x="995" y="455.5"/><ellipse cx="1010" cy="471.5" fill="#ADD1B2" rx="11" ry="11" style="stroke:#181818;stroke-width:1.0;"/><path d="M1012.7656,467.375 Q1012.9219,467.1563 1013.1094,467.0469 Q1013.2969,466.9375 1013.5156,466.9375 Q1013.8906,466.9375 1014.125,467.2031 Q1014.3594,467.4531 1014.3594,468.0625 L1014.3594,469.5156 Q1014.3594,470.125 1014.125,470.3906 Q1013.8906,470.6563 1013.5156,470.6563 Q1013.1719,470.6563 1012.9688,470.4531 Q1012.7656,470.2656 1012.6563,469.75 Q1012.6094,469.3906 1012.4219,469.2031 Q1012.0938,468.8281 1011.4844,468.6094 Q1010.875,468.3906 1010.25,468.3906 Q1009.4844,468.3906 1008.8438,468.7188 Q1008.2188,469.0469 1007.7188,469.7969 Q1007.2344,470.5469 1007.2344,471.5781 L1007.2344,472.6719 Q1007.2344,473.9063 1008.125,474.7344 Q1009.0156,475.5469 1010.6094,475.5469 Q1011.5469,475.5469 1012.2031,475.2969 Q1012.5938,475.1406 1013.0156,474.7031 Q1013.2813,474.4375 1013.4219,474.3594 Q1013.5781,474.2813 1013.7813,474.2813 Q1014.1094,474.2813 1014.3594,474.5469 Q1014.625,474.7969 1014.625,475.1406 Q1014.625,475.4844 1014.2813,475.8906 Q1013.7813,476.4688 1012.9844,476.7969 Q1011.9063,477.25 1010.6094,477.25 Q1009.0938,477.25 1007.8906,476.625 Q1006.9063,476.125 1006.2188,475.0625 Q1005.5313,473.9844 1005.5313,472.7031 L1005.5313,471.5469 Q1005.5313,470.2188 1006.1406,469.0781 Q1006.7656,467.9219 1007.8594,467.3125 Q1008.9531,466.6875 1010.1875,466.6875 Q1010.9219,466.6875 1011.5625,466.8594 Q1012.2188,467.0156 1012.7656,467.375 Z " fill="#000000"/><text fill="#000000" font-family="sans-serif" font-size="14" lengthAdjust="spacing" textLength="58" x="1024" y="477.2285">AddActor</text><line style="stroke:#181818;stroke-width:0.5;" x1="996" x2="1084" y1="487.5" y2="487.5"/><line style="stroke:#181818;stroke-width:0.5;" x1="996" x2="1084" y1="495.5" y2="495.5"/></g><!--MD5=[5e6b289f1b4ac0b2379b4092542ac984]
class AddRigidBody--><g id="elem_AddRigidBody"><rect codeLine="6" fill="#F1F1F1" height="48" id="AddRigidBody" rx="2.5" ry="2.5" style="stroke:#181818;stroke-width:0.5;" width="121" x="1095.5" y="455.5"/><ellipse cx="1110.5" cy="471.5" fill="#ADD1B2" rx="11" ry="11" style="stroke:#181818;stroke-width:1.0;"/><path d="M1113.2656,467.375 Q1113.4219,467.1563 1113.6094,467.0469 Q1113.7969,466.9375 1114.0156,466.9375 Q1114.3906,466.9375 1114.625,467.2031 Q1114.8594,467.4531 1114.8594,468.0625 L1114.8594,469.5156 Q1114.8594,470.125 1114.625,470.3906 Q1114.3906,470.6563 1114.0156,470.6563 Q1113.6719,470.6563 1113.4688,470.4531 Q1113.2656,470.2656 1113.1563,469.75 Q1113.1094,469.3906 1112.9219,469.2031 Q1112.5938,468.8281 1111.9844,468.6094 Q1111.375,468.3906 1110.75,468.3906 Q1109.9844,468.3906 1109.3438,468.7188 Q1108.7188,469.0469 1108.2188,469.7969 Q1107.7344,470.5469 1107.7344,471.5781 L1107.7344,472.6719 Q1107.7344,473.9063 1108.625,474.7344 Q1109.5156,475.5469 1111.1094,475.5469 Q1112.0469,475.5469 1112.7031,475.2969 Q1113.0938,475.1406 1113.5156,474.7031 Q1113.7813,474.4375 1113.9219,474.3594 Q1114.0781,474.2813 1114.2813,474.2813 Q1114.6094,474.2813 1114.8594,474.5469 Q1115.125,474.7969 1115.125,475.1406 Q1115.125,475.4844 1114.7813,475.8906 Q1114.2813,476.4688 1113.4844,476.7969 Q1112.4063,477.25 1111.1094,477.25 Q1109.5938,477.25 1108.3906,476.625 Q1107.4063,476.125 1106.7188,475.0625 Q1106.0313,473.9844 1106.0313,472.7031 L1106.0313,471.5469 Q1106.0313,470.2188 1106.6406,469.0781 Q1107.2656,467.9219 1108.3594,467.3125 Q1109.4531,466.6875 1110.6875,466.6875 Q1111.4219,466.6875 1112.0625,466.8594 Q1112.7188,467.0156 1113.2656,467.375 Z " fill="#000000"/><text fill="#000000" font-family="sans-serif" font-size="14" lengthAdjust="spacing" textLength="89" x="1124.5" y="477.2285">AddRigidBody</text><line style="stroke:#181818;stroke-width:0.5;" x1="1096.5" x2="1215.5" y1="487.5" y2="487.5"/><line style="stroke:#181818;stroke-width:0.5;" x1="1096.5" x2="1215.5" y1="495.5" y2="495.5"/></g><!--MD5=[b201e2425d845096b639851a89684e44]
class ModeChangeView--><g id="elem_ModeChangeView"><rect codeLine="7" fill="#F1F1F1" height="48" id="ModeChangeView" rx="2.5" ry="2.5" style="stroke:#181818;stroke-width:0.5;" width="146" x="1227" y="455.5"/><ellipse cx="1242" cy="471.5" fill="#ADD1B2" rx="11" ry="11" style="stroke:#181818;stroke-width:1.0;"/><path d="M1244.7656,467.375 Q1244.9219,467.1563 1245.1094,467.0469 Q1245.2969,466.9375 1245.5156,466.9375 Q1245.8906,466.9375 1246.125,467.2031 Q1246.3594,467.4531 1246.3594,468.0625 L1246.3594,469.5156 Q1246.3594,470.125 1246.125,470.3906 Q1245.8906,470.6563 1245.5156,470.6563 Q1245.1719,470.6563 1244.9688,470.4531 Q1244.7656,470.2656 1244.6563,469.75 Q1244.6094,469.3906 1244.4219,469.2031 Q1244.0938,468.8281 1243.4844,468.6094 Q1242.875,468.3906 1242.25,468.3906 Q1241.4844,468.3906 1240.8438,468.7188 Q1240.2188,469.0469 1239.7188,469.7969 Q1239.2344,470.5469 1239.2344,471.5781 L1239.2344,472.6719 Q1239.2344,473.9063 1240.125,474.7344 Q1241.0156,475.5469 1242.6094,475.5469 Q1243.5469,475.5469 1244.2031,475.2969 Q1244.5938,475.1406 1245.0156,474.7031 Q1245.2813,474.4375 1245.4219,474.3594 Q1245.5781,474.2813 1245.7813,474.2813 Q1246.1094,474.2813 1246.3594,474.5469 Q1246.625,474.7969 1246.625,475.1406 Q1246.625,475.4844 1246.2813,475.8906 Q1245.7813,476.4688 1244.9844,476.7969 Q1243.9063,477.25 1242.6094,477.25 Q1241.0938,477.25 1239.8906,476.625 Q1238.9063,476.125 1238.2188,475.0625 Q1237.5313,473.9844 1237.5313,472.7031 L1237.5313,471.5469 Q1237.5313,470.2188 1238.1406,469.0781 Q1238.7656,467.9219 1239.8594,467.3125 Q1240.9531,466.6875 1242.1875,466.6875 Q1242.9219,466.6875 1243.5625,466.8594 Q1244.2188,467.0156 1244.7656,467.375 Z " fill="#000000"/><text fill="#000000" font-family="sans-serif" font-size="14" lengthAdjust="spacing" textLength="114" x="1256" y="477.2285">ModeChangeView</text><line style="stroke:#181818;stroke-width:0.5;" x1="1228" x2="1372" y1="487.5" y2="487.5"/><line style="stroke:#181818;stroke-width:0.5;" x1="1228" x2="1372" y1="495.5" y2="495.5"/></g><!--MD5=[298883191722f47d612a790005ce591d]
class ComponentHeader--><g id="elem_ComponentHeader"><rect codeLine="8" fill="#F1F1F1" height="48" id="ComponentHeader" rx="2.5" ry="2.5" style="stroke:#181818;stroke-width:0.5;" width="151" x="1522.5" y="455.5"/><ellipse cx="1537.5" cy="471.5" fill="#ADD1B2" rx="11" ry="11" style="stroke:#181818;stroke-width:1.0;"/><path d="M1540.2656,467.375 Q1540.4219,467.1563 1540.6094,467.0469 Q1540.7969,466.9375 1541.0156,466.9375 Q1541.3906,466.9375 1541.625,467.2031 Q1541.8594,467.4531 1541.8594,468.0625 L1541.8594,469.5156 Q1541.8594,470.125 1541.625,470.3906 Q1541.3906,470.6563 1541.0156,470.6563 Q1540.6719,470.6563 1540.4688,470.4531 Q1540.2656,470.2656 1540.1563,469.75 Q1540.1094,469.3906 1539.9219,469.2031 Q1539.5938,468.8281 1538.9844,468.6094 Q1538.375,468.3906 1537.75,468.3906 Q1536.9844,468.3906 1536.3438,468.7188 Q1535.7188,469.0469 1535.2188,469.7969 Q1534.7344,470.5469 1534.7344,471.5781 L1534.7344,472.6719 Q1534.7344,473.9063 1535.625,474.7344 Q1536.5156,475.5469 1538.1094,475.5469 Q1539.0469,475.5469 1539.7031,475.2969 Q1540.0938,475.1406 1540.5156,474.7031 Q1540.7813,474.4375 1540.9219,474.3594 Q1541.0781,474.2813 1541.2813,474.2813 Q1541.6094,474.2813 1541.8594,474.5469 Q1542.125,474.7969 1542.125,475.1406 Q1542.125,475.4844 1541.7813,475.8906 Q1541.2813,476.4688 1540.4844,476.7969 Q1539.4063,477.25 1538.1094,477.25 Q1536.5938,477.25 1535.3906,476.625 Q1534.4063,476.125 1533.7188,475.0625 Q1533.0313,473.9844 1533.0313,472.7031 L1533.0313,471.5469 Q1533.0313,470.2188 1533.6406,469.0781 Q1534.2656,467.9219 1535.3594,467.3125 Q1536.4531,466.6875 1537.6875,466.6875 Q1538.4219,466.6875 1539.0625,466.8594 Q1539.7188,467.0156 1540.2656,467.375 Z " fill="#000000"/><text fill="#000000" font-family="sans-serif" font-size="14" lengthAdjust="spacing" textLength="119" x="1551.5" y="477.2285">ComponentHeader</text><line style="stroke:#181818;stroke-width:0.5;" x1="1523.5" x2="1672.5" y1="487.5" y2="487.5"/><line style="stroke:#181818;stroke-width:0.5;" x1="1523.5" x2="1672.5" y1="495.5" y2="495.5"/></g><!--MD5=[34aa44afce17f5bd91ed70547120b567]
class ObjectView--><g id="elem_ObjectView"><rect codeLine="1" fill="#F1F1F1" height="100.8281" id="ObjectView" rx="2.5" ry="2.5" style="stroke:#181818;stroke-width:0.5;" width="475" x="352.5" y="429"/><ellipse cx="550.75" cy="445" fill="#ADD1B2" rx="11" ry="11" style="stroke:#181818;stroke-width:1.0;"/><path d="M553.5156,440.875 Q553.6719,440.6563 553.8594,440.5469 Q554.0469,440.4375 554.2656,440.4375 Q554.6406,440.4375 554.875,440.7031 Q555.1094,440.9531 555.1094,441.5625 L555.1094,443.0156 Q555.1094,443.625 554.875,443.8906 Q554.6406,444.1563 554.2656,444.1563 Q553.9219,444.1563 553.7188,443.9531 Q553.5156,443.7656 553.4063,443.25 Q553.3594,442.8906 553.1719,442.7031 Q552.8438,442.3281 552.2344,442.1094 Q551.625,441.8906 551,441.8906 Q550.2344,441.8906 549.5938,442.2188 Q548.9688,442.5469 548.4688,443.2969 Q547.9844,444.0469 547.9844,445.0781 L547.9844,446.1719 Q547.9844,447.4063 548.875,448.2344 Q549.7656,449.0469 551.3594,449.0469 Q552.2969,449.0469 552.9531,448.7969 Q553.3438,448.6406 553.7656,448.2031 Q554.0313,447.9375 554.1719,447.8594 Q554.3281,447.7813 554.5313,447.7813 Q554.8594,447.7813 555.1094,448.0469 Q555.375,448.2969 555.375,448.6406 Q555.375,448.9844 555.0313,449.3906 Q554.5313,449.9688 553.7344,450.2969 Q552.6563,450.75 551.3594,450.75 Q549.8438,450.75 548.6406,450.125 Q547.6563,449.625 546.9688,448.5625 Q546.2813,447.4844 546.2813,446.2031 L546.2813,445.0469 Q546.2813,443.7188 546.8906,442.5781 Q547.5156,441.4219 548.6094,440.8125 Q549.7031,440.1875 550.9375,440.1875 Q551.6719,440.1875 552.3125,440.3594 Q552.9688,440.5156 553.5156,440.875 Z " fill="#000000"/><text fill="#000000" font-family="sans-serif" font-size="14" lengthAdjust="spacing" textLength="70" x="571.25" y="450.7285">ObjectView</text><line style="stroke:#181818;stroke-width:0.5;" x1="353.5" x2="826.5" y1="461" y2="461"/><line style="stroke:#181818;stroke-width:0.5;" x1="353.5" x2="826.5" y1="469" y2="469"/><rect fill="#F24D5C" height="6" style="stroke:#C82930;stroke-width:1.0;" width="6" x="360.5" y="477"/><text fill="#000000" font-family="sans-serif" font-size="14" lengthAdjust="spacing" textLength="217" x="372.5" y="487.5332">Handle(models:List&lt;Model&gt;) : void</text><ellipse cx="363.5" cy="497.6094" fill="#84BE84" rx="3" ry="3" style="stroke:#038048;stroke-width:1.0;"/><text fill="#000000" font-family="sans-serif" font-size="14" lengthAdjust="spacing" textLength="258" x="372.5" y="505.1426">ChangeSelection(obj:GameObject) : void</text><rect fill="#F24D5C" height="6" style="stroke:#C82930;stroke-width:1.0;" width="6" x="360.5" y="512.2188"/><text fill="#000000" font-family="sans-serif" font-size="14" lengthAdjust="spacing" textLength="449" x="372.5" y="522.752">ChangeSelection(obj:GameObject, modelsChanged:List&lt;Model&gt;) : void</text></g><!--MD5=[064f7a74fee85463ec1a30143664ee17]
class GameObject--><g id="elem_GameObject"><rect codeLine="13" fill="#F1F1F1" height="48" id="GameObject" rx="2.5" ry="2.5" style="stroke:#181818;stroke-width:0.5;" width="111" x="53.5" y="208.5"/><ellipse cx="68.5" cy="224.5" fill="#ADD1B2" rx="11" ry="11" style="stroke:#181818;stroke-width:1.0;"/><path d="M71.2656,220.375 Q71.4219,220.1563 71.6094,220.0469 Q71.7969,219.9375 72.0156,219.9375 Q72.3906,219.9375 72.625,220.2031 Q72.8594,220.4531 72.8594,221.0625 L72.8594,222.5156 Q72.8594,223.125 72.625,223.3906 Q72.3906,223.6563 72.0156,223.6563 Q71.6719,223.6563 71.4688,223.4531 Q71.2656,223.2656 71.1563,222.75 Q71.1094,222.3906 70.9219,222.2031 Q70.5938,221.8281 69.9844,221.6094 Q69.375,221.3906 68.75,221.3906 Q67.9844,221.3906 67.3438,221.7188 Q66.7188,222.0469 66.2188,222.7969 Q65.7344,223.5469 65.7344,224.5781 L65.7344,225.6719 Q65.7344,226.9063 66.625,227.7344 Q67.5156,228.5469 69.1094,228.5469 Q70.0469,228.5469 70.7031,228.2969 Q71.0938,228.1406 71.5156,227.7031 Q71.7813,227.4375 71.9219,227.3594 Q72.0781,227.2813 72.2813,227.2813 Q72.6094,227.2813 72.8594,227.5469 Q73.125,227.7969 73.125,228.1406 Q73.125,228.4844 72.7813,228.8906 Q72.2813,229.4688 71.4844,229.7969 Q70.4063,230.25 69.1094,230.25 Q67.5938,230.25 66.3906,229.625 Q65.4063,229.125 64.7188,228.0625 Q64.0313,226.9844 64.0313,225.7031 L64.0313,224.5469 Q64.0313,223.2188 64.6406,222.0781 Q65.2656,220.9219 66.3594,220.3125 Q67.4531,219.6875 68.6875,219.6875 Q69.4219,219.6875 70.0625,219.8594 Q70.7188,220.0156 71.2656,220.375 Z " fill="#000000"/><text fill="#000000" font-family="sans-serif" font-size="14" lengthAdjust="spacing" textLength="79" x="82.5" y="230.2285">GameObject</text><line style="stroke:#181818;stroke-width:0.5;" x1="54.5" x2="163.5" y1="240.5" y2="240.5"/><line style="stroke:#181818;stroke-width:0.5;" x1="54.5" x2="163.5" y1="248.5" y2="248.5"/></g><!--MD5=[83b3cf3d23d77c6f1e1b5291a241bc2a]
class MonoBehaviour--><g id="elem_MonoBehaviour"><rect codeLine="14" fill="#F1F1F1" height="48" id="MonoBehaviour" rx="2.5" ry="2.5" style="stroke:#181818;stroke-width:0.5;" width="131" x="82.5" y="455.5"/><ellipse cx="97.5" cy="471.5" fill="#ADD1B2" rx="11" ry="11" style="stroke:#181818;stroke-width:1.0;"/><path d="M100.2656,467.375 Q100.4219,467.1563 100.6094,467.0469 Q100.7969,466.9375 101.0156,466.9375 Q101.3906,466.9375 101.625,467.2031 Q101.8594,467.4531 101.8594,468.0625 L101.8594,469.5156 Q101.8594,470.125 101.625,470.3906 Q101.3906,470.6563 101.0156,470.6563 Q100.6719,470.6563 100.4688,470.4531 Q100.2656,470.2656 100.1563,469.75 Q100.1094,469.3906 99.9219,469.2031 Q99.5938,468.8281 98.9844,468.6094 Q98.375,468.3906 97.75,468.3906 Q96.9844,468.3906 96.3438,468.7188 Q95.7188,469.0469 95.2188,469.7969 Q94.7344,470.5469 94.7344,471.5781 L94.7344,472.6719 Q94.7344,473.9063 95.625,474.7344 Q96.5156,475.5469 98.1094,475.5469 Q99.0469,475.5469 99.7031,475.2969 Q100.0938,475.1406 100.5156,474.7031 Q100.7813,474.4375 100.9219,474.3594 Q101.0781,474.2813 101.2813,474.2813 Q101.6094,474.2813 101.8594,474.5469 Q102.125,474.7969 102.125,475.1406 Q102.125,475.4844 101.7813,475.8906 Q101.2813,476.4688 100.4844,476.7969 Q99.4063,477.25 98.1094,477.25 Q96.5938,477.25 95.3906,476.625 Q94.4063,476.125 93.7188,475.0625 Q93.0313,473.9844 93.0313,472.7031 L93.0313,471.5469 Q93.0313,470.2188 93.6406,469.0781 Q94.2656,467.9219 95.3594,467.3125 Q96.4531,466.6875 97.6875,466.6875 Q98.4219,466.6875 99.0625,466.8594 Q99.7188,467.0156 100.2656,467.375 Z " fill="#000000"/><text fill="#000000" font-family="sans-serif" font-size="14" lengthAdjust="spacing" textLength="99" x="111.5" y="477.2285">MonoBehaviour</text><line style="stroke:#181818;stroke-width:0.5;" x1="83.5" x2="212.5" y1="487.5" y2="487.5"/><line style="stroke:#181818;stroke-width:0.5;" x1="83.5" x2="212.5" y1="495.5" y2="495.5"/></g><!--MD5=[e77834a0fda1b3f817ae7f2b19e4424d]
class VisualElement--><g id="elem_VisualElement"><rect codeLine="15" fill="#F1F1F1" height="48" id="VisualElement" rx="2.5" ry="2.5" style="stroke:#181818;stroke-width:0.5;" width="121" x="174.5" y="208.5"/><ellipse cx="189.5" cy="224.5" fill="#ADD1B2" rx="11" ry="11" style="stroke:#181818;stroke-width:1.0;"/><path d="M192.2656,220.375 Q192.4219,220.1563 192.6094,220.0469 Q192.7969,219.9375 193.0156,219.9375 Q193.3906,219.9375 193.625,220.2031 Q193.8594,220.4531 193.8594,221.0625 L193.8594,222.5156 Q193.8594,223.125 193.625,223.3906 Q193.3906,223.6563 193.0156,223.6563 Q192.6719,223.6563 192.4688,223.4531 Q192.2656,223.2656 192.1563,222.75 Q192.1094,222.3906 191.9219,222.2031 Q191.5938,221.8281 190.9844,221.6094 Q190.375,221.3906 189.75,221.3906 Q188.9844,221.3906 188.3438,221.7188 Q187.7188,222.0469 187.2188,222.7969 Q186.7344,223.5469 186.7344,224.5781 L186.7344,225.6719 Q186.7344,226.9063 187.625,227.7344 Q188.5156,228.5469 190.1094,228.5469 Q191.0469,228.5469 191.7031,228.2969 Q192.0938,228.1406 192.5156,227.7031 Q192.7813,227.4375 192.9219,227.3594 Q193.0781,227.2813 193.2813,227.2813 Q193.6094,227.2813 193.8594,227.5469 Q194.125,227.7969 194.125,228.1406 Q194.125,228.4844 193.7813,228.8906 Q193.2813,229.4688 192.4844,229.7969 Q191.4063,230.25 190.1094,230.25 Q188.5938,230.25 187.3906,229.625 Q186.4063,229.125 185.7188,228.0625 Q185.0313,226.9844 185.0313,225.7031 L185.0313,224.5469 Q185.0313,223.2188 185.6406,222.0781 Q186.2656,220.9219 187.3594,220.3125 Q188.4531,219.6875 189.6875,219.6875 Q190.4219,219.6875 191.0625,219.8594 Q191.7188,220.0156 192.2656,220.375 Z " fill="#000000"/><text fill="#000000" font-family="sans-serif" font-size="14" lengthAdjust="spacing" textLength="89" x="203.5" y="230.2285">VisualElement</text><line style="stroke:#181818;stroke-width:0.5;" x1="175.5" x2="294.5" y1="240.5" y2="240.5"/><line style="stroke:#181818;stroke-width:0.5;" x1="175.5" x2="294.5" y1="248.5" y2="248.5"/></g><!--MD5=[8264bf2c50c5992408f21a29ac6786f2]
class ObjectEditor--><g id="elem_ObjectEditor"><rect codeLine="1" fill="#F1F1F1" height="188.875" id="ObjectEditor" rx="2.5" ry="2.5" style="stroke:#181818;stroke-width:0.5;" width="516" x="840" y="138"/><ellipse cx="1054.75" cy="154" fill="#ADD1B2" rx="11" ry="11" style="stroke:#181818;stroke-width:1.0;"/><path d="M1057.5156,149.875 Q1057.6719,149.6563 1057.8594,149.5469 Q1058.0469,149.4375 1058.2656,149.4375 Q1058.6406,149.4375 1058.875,149.7031 Q1059.1094,149.9531 1059.1094,150.5625 L1059.1094,152.0156 Q1059.1094,152.625 1058.875,152.8906 Q1058.6406,153.1563 1058.2656,153.1563 Q1057.9219,153.1563 1057.7188,152.9531 Q1057.5156,152.7656 1057.4063,152.25 Q1057.3594,151.8906 1057.1719,151.7031 Q1056.8438,151.3281 1056.2344,151.1094 Q1055.625,150.8906 1055,150.8906 Q1054.2344,150.8906 1053.5938,151.2188 Q1052.9688,151.5469 1052.4688,152.2969 Q1051.9844,153.0469 1051.9844,154.0781 L1051.9844,155.1719 Q1051.9844,156.4063 1052.875,157.2344 Q1053.7656,158.0469 1055.3594,158.0469 Q1056.2969,158.0469 1056.9531,157.7969 Q1057.3438,157.6406 1057.7656,157.2031 Q1058.0313,156.9375 1058.1719,156.8594 Q1058.3281,156.7813 1058.5313,156.7813 Q1058.8594,156.7813 1059.1094,157.0469 Q1059.375,157.2969 1059.375,157.6406 Q1059.375,157.9844 1059.0313,158.3906 Q1058.5313,158.9688 1057.7344,159.2969 Q1056.6563,159.75 1055.3594,159.75 Q1053.8438,159.75 1052.6406,159.125 Q1051.6563,158.625 1050.9688,157.5625 Q1050.2813,156.4844 1050.2813,155.2031 L1050.2813,154.0469 Q1050.2813,152.7188 1050.8906,151.5781 Q1051.5156,150.4219 1052.6094,149.8125 Q1053.7031,149.1875 1054.9375,149.1875 Q1055.6719,149.1875 1056.3125,149.3594 Q1056.9688,149.5156 1057.5156,149.875 Z " fill="#000000"/><text fill="#000000" font-family="sans-serif" font-size="14" lengthAdjust="spacing" textLength="78" x="1075.25" y="159.7285">ObjectEditor</text><line style="stroke:#181818;stroke-width:0.5;" x1="841" x2="1355" y1="170" y2="170"/><line style="stroke:#181818;stroke-width:0.5;" x1="841" x2="1355" y1="178" y2="178"/><ellipse cx="851" cy="189" fill="#84BE84" rx="3" ry="3" style="stroke:#038048;stroke-width:1.0;"/><text fill="#000000" font-family="sans-serif" font-size="14" lengthAdjust="spacing" text-decoration="underline" textLength="135" x="860" y="196.5332">ShowExample() : void</text><ellipse cx="851" cy="206.6094" fill="#84BE84" rx="3" ry="3" style="stroke:#038048;stroke-width:1.0;"/><text fill="#000000" font-family="sans-serif" font-size="14" lengthAdjust="spacing" textLength="95" x="860" y="214.1426">InitView() : void</text><ellipse cx="851" cy="224.2188" fill="#84BE84" rx="3" ry="3" style="stroke:#038048;stroke-width:1.0;"/><text fill="#000000" font-family="sans-serif" font-size="14" lengthAdjust="spacing" textLength="66" x="860" y="231.752">Init() : void</text><ellipse cx="851" cy="241.8281" fill="#84BE84" rx="3" ry="3" style="stroke:#038048;stroke-width:1.0;"/><text fill="#000000" font-family="sans-serif" font-size="14" lengthAdjust="spacing" textLength="341" x="860" y="249.3613">Callback(scene:Scene, mode:OpenSceneMode) : void</text><rect fill="#F24D5C" height="6" style="stroke:#C82930;stroke-width:1.0;" width="6" x="848" y="256.4375"/><text fill="#000000" font-family="sans-serif" font-size="14" lengthAdjust="spacing" textLength="490" x="860" y="266.9707">Callback2(scene:Scene, setup:NewSceneSetup, mode:NewSceneMode) : void</text><rect fill="#F24D5C" height="6" style="stroke:#C82930;stroke-width:1.0;" width="6" x="848" y="274.0469"/><text fill="#000000" font-family="sans-serif" font-size="14" lengthAdjust="spacing" textLength="290" x="860" y="284.5801">Callback3(scene:Scene, scene1:Scene) : void</text><ellipse cx="851" cy="294.6563" fill="#84BE84" rx="3" ry="3" style="stroke:#038048;stroke-width:1.0;"/><text fill="#000000" font-family="sans-serif" font-size="14" lengthAdjust="spacing" textLength="111" x="860" y="302.1895">OnEnable() : void</text><ellipse cx="851" cy="312.2656" fill="#84BE84" rx="3" ry="3" style="stroke:#038048;stroke-width:1.0;"/><text fill="#000000" font-family="sans-serif" font-size="14" lengthAdjust="spacing" textLength="114" x="860" y="319.7988">OnDisable() : void</text></g><!--MD5=[7e20e022571e30ec1001cf6eabd7f3e2]
class Model--><g id="elem_Model"><rect codeLine="1" fill="#F1F1F1" height="224.0938" id="Model" rx="2.5" ry="2.5" style="stroke:#181818;stroke-width:0.5;" width="250" x="23" y="615"/><ellipse cx="124.25" cy="631" fill="#A9DCDF" rx="11" ry="11" style="stroke:#181818;stroke-width:1.0;"/><path d="M126.4375,632.7656 L122.2969,632.7656 L121.875,633.7969 L122.2969,633.7969 Q122.9063,633.7969 123.1719,634.0313 Q123.4375,634.2656 123.4375,634.6563 Q123.4375,635.0313 123.1719,635.2656 Q122.9063,635.5 122.2969,635.5 L120,635.5 Q119.3906,635.5 119.1406,635.2656 Q118.875,635.0313 118.875,634.6406 Q118.875,634.2656 119.1563,634.0313 Q119.4219,633.7813 120.0469,633.7969 L122.7188,627.1406 L121.6094,627.1406 Q121,627.1406 120.7344,626.9063 Q120.4688,626.6719 120.4688,626.2813 Q120.4688,625.9063 120.7344,625.6719 Q121,625.4375 121.6094,625.4375 L125.2813,625.4375 L128.6719,633.7969 Q129.2656,633.7969 129.4531,633.9375 Q129.8438,634.2031 129.8438,634.6563 Q129.8438,635.0313 129.5781,635.2656 Q129.3281,635.5 128.7188,635.5 L126.4219,635.5 Q125.8125,635.5 125.5469,635.2656 Q125.2813,635.0313 125.2813,634.6406 Q125.2813,634.2656 125.5469,634.0313 Q125.8125,633.7969 126.4219,633.7969 L126.8438,633.7969 L126.4375,632.7656 Z M125.7188,631.0625 L124.3594,627.6875 L122.9844,631.0625 L125.7188,631.0625 Z " fill="#000000"/><text fill="#000000" font-family="sans-serif" font-size="14" font-style="italic" lengthAdjust="spacing" textLength="39" x="144.75" y="636.7285">Model</text><line style="stroke:#181818;stroke-width:0.5;" x1="24" x2="272" y1="647" y2="647"/><text fill="#000000" font-family="sans-serif" font-size="14" lengthAdjust="spacing" textLength="164" x="43" y="665.5332">shoudUpdate : bool = true</text><ellipse cx="34" cy="675.6094" fill="none" rx="3" ry="3" style="stroke:#038048;stroke-width:1.0;"/><text fill="#000000" font-family="sans-serif" font-size="14" lengthAdjust="spacing" textLength="154" x="43" y="683.1426">shouldDraw : bool = true</text><line style="stroke:#181818;stroke-width:0.5;" x1="24" x2="272" y1="690.2188" y2="690.2188"/><ellipse cx="34" cy="701.2188" fill="#84BE84" rx="3" ry="3" style="stroke:#038048;stroke-width:1.0;"/><text fill="#000000" font-family="sans-serif" font-size="14" lengthAdjust="spacing" textLength="136" x="43" y="708.752">«virtual» Start() : void</text><ellipse cx="34" cy="718.8281" fill="#84BE84" rx="3" ry="3" style="stroke:#038048;stroke-width:1.0;"/><text fill="#000000" font-family="sans-serif" font-size="14" lengthAdjust="spacing" textLength="224" x="43" y="726.3613">«virtual» CreateUI() : VisualElement</text><ellipse cx="34" cy="736.4375" fill="#84BE84" rx="3" ry="3" style="stroke:#038048;stroke-width:1.0;"/><text fill="#000000" font-family="sans-serif" font-size="14" lengthAdjust="spacing" textLength="183" x="43" y="743.9707">«virtual» OnChanged() : void</text><polygon fill="#FFFF44" points="34,749.0469,38,753.0469,34,757.0469,30,753.0469" style="stroke:#B38D22;stroke-width:1.0;"/><text fill="#000000" font-family="sans-serif" font-size="14" lengthAdjust="spacing" textLength="151" x="43" y="761.5801">«virtual» Update() : void</text><ellipse cx="34" cy="771.6563" fill="#84BE84" rx="3" ry="3" style="stroke:#038048;stroke-width:1.0;"/><text fill="#000000" font-family="sans-serif" font-size="14" lengthAdjust="spacing" textLength="180" x="43" y="779.1895">UpdateOnNextFrame() : void</text><ellipse cx="34" cy="789.2656" fill="#84BE84" rx="3" ry="3" style="stroke:#038048;stroke-width:1.0;"/><text fill="#000000" font-family="sans-serif" font-size="14" lengthAdjust="spacing" textLength="111" x="43" y="796.7988">OnEnable() : void</text><ellipse cx="34" cy="806.875" fill="#84BE84" rx="3" ry="3" style="stroke:#038048;stroke-width:1.0;"/><text fill="#000000" font-family="sans-serif" font-size="14" lengthAdjust="spacing" textLength="114" x="43" y="814.4082">OnDisable() : void</text><ellipse cx="34" cy="824.4844" fill="#84BE84" rx="3" ry="3" style="stroke:#038048;stroke-width:1.0;"/><text fill="#000000" font-family="sans-serif" font-size="14" lengthAdjust="spacing" textLength="118" x="43" y="832.0176">OnValidate() : void</text></g><!--MD5=[34a388f61502ebbcedd1e27ce1bd2c60]
class OnChanged--><g id="elem_OnChanged"><rect codeLine="1" fill="#F1F1F1" height="171.2656" id="OnChanged" rx="2.5" ry="2.5" style="stroke:#181818;stroke-width:0.5;" width="280" x="23" y="917"/><ellipse cx="120.25" cy="933" fill="#ADD1B2" rx="11" ry="11" style="stroke:#181818;stroke-width:1.0;"/><path d="M123.0156,928.875 Q123.1719,928.6563 123.3594,928.5469 Q123.5469,928.4375 123.7656,928.4375 Q124.1406,928.4375 124.375,928.7031 Q124.6094,928.9531 124.6094,929.5625 L124.6094,931.0156 Q124.6094,931.625 124.375,931.8906 Q124.1406,932.1563 123.7656,932.1563 Q123.4219,932.1563 123.2188,931.9531 Q123.0156,931.7656 122.9063,931.25 Q122.8594,930.8906 122.6719,930.7031 Q122.3438,930.3281 121.7344,930.1094 Q121.125,929.8906 120.5,929.8906 Q119.7344,929.8906 119.0938,930.2188 Q118.4688,930.5469 117.9688,931.2969 Q117.4844,932.0469 117.4844,933.0781 L117.4844,934.1719 Q117.4844,935.4063 118.375,936.2344 Q119.2656,937.0469 120.8594,937.0469 Q121.7969,937.0469 122.4531,936.7969 Q122.8438,936.6406 123.2656,936.2031 Q123.5313,935.9375 123.6719,935.8594 Q123.8281,935.7813 124.0313,935.7813 Q124.3594,935.7813 124.6094,936.0469 Q124.875,936.2969 124.875,936.6406 Q124.875,936.9844 124.5313,937.3906 Q124.0313,937.9688 123.2344,938.2969 Q122.1563,938.75 120.8594,938.75 Q119.3438,938.75 118.1406,938.125 Q117.1563,937.625 116.4688,936.5625 Q115.7813,935.4844 115.7813,934.2031 L115.7813,933.0469 Q115.7813,931.7188 116.3906,930.5781 Q117.0156,929.4219 118.1094,928.8125 Q119.2031,928.1875 120.4375,928.1875 Q121.1719,928.1875 121.8125,928.3594 Q122.4688,928.5156 123.0156,928.875 Z " fill="#000000"/><text fill="#000000" font-family="sans-serif" font-size="14" lengthAdjust="spacing" textLength="77" x="140.75" y="938.7285">OnChanged</text><line style="stroke:#181818;stroke-width:0.5;" x1="24" x2="302" y1="949" y2="949"/><ellipse cx="34" cy="960" fill="none" rx="3" ry="3" style="stroke:#038048;stroke-width:1.0;"/><text fill="#000000" font-family="sans-serif" font-size="14" lengthAdjust="spacing" textLength="237" x="43" y="967.5332">«event» onActivated : ModelChanged</text><ellipse cx="34" cy="977.6094" fill="none" rx="3" ry="3" style="stroke:#038048;stroke-width:1.0;"/><text fill="#000000" font-family="sans-serif" font-size="14" lengthAdjust="spacing" textLength="254" x="43" y="985.1426">«event» onDeactivated : ModelChanged</text><ellipse cx="34" cy="995.2188" fill="none" rx="3" ry="3" style="stroke:#038048;stroke-width:1.0;"/><text fill="#000000" font-family="sans-serif" font-size="14" lengthAdjust="spacing" textLength="237" x="43" y="1002.752">«event» onChanged : ModelChanged</text><line style="stroke:#181818;stroke-width:0.5;" x1="24" x2="302" y1="1009.8281" y2="1009.8281"/><text fill="#000000" font-family="sans-serif" font-size="14" lengthAdjust="spacing" textLength="121" x="43" y="1028.3613">LateUpdate() : void</text><ellipse cx="34" cy="1038.4375" fill="#84BE84" rx="3" ry="3" style="stroke:#038048;stroke-width:1.0;"/><text fill="#000000" font-family="sans-serif" font-size="14" lengthAdjust="spacing" textLength="186" x="43" y="1045.9707">Changed(model:Model) : void</text><ellipse cx="34" cy="1056.0469" fill="#84BE84" rx="3" ry="3" style="stroke:#038048;stroke-width:1.0;"/><text fill="#000000" font-family="sans-serif" font-size="14" lengthAdjust="spacing" textLength="166" x="43" y="1063.5801">Active(model:Model) : void</text><ellipse cx="34" cy="1073.6563" fill="#84BE84" rx="3" ry="3" style="stroke:#038048;stroke-width:1.0;"/><text fill="#000000" font-family="sans-serif" font-size="14" lengthAdjust="spacing" textLength="190" x="43" y="1081.1895">Deactives(model:Model) : void</text></g><!--MD5=[802e82b404e578583cfeee29107899de]
class EditorWindow--><g id="elem_EditorWindow"><rect fill="#F1F1F1" height="48" id="EditorWindow" rx="2.5" ry="2.5" style="stroke:#181818;stroke-width:0.5;" width="118" x="1039" y="7"/><ellipse cx="1054" cy="23" fill="#ADD1B2" rx="11" ry="11" style="stroke:#181818;stroke-width:1.0;"/><path d="M1056.7656,18.875 Q1056.9219,18.6563 1057.1094,18.5469 Q1057.2969,18.4375 1057.5156,18.4375 Q1057.8906,18.4375 1058.125,18.7031 Q1058.3594,18.9531 1058.3594,19.5625 L1058.3594,21.0156 Q1058.3594,21.625 1058.125,21.8906 Q1057.8906,22.1563 1057.5156,22.1563 Q1057.1719,22.1563 1056.9688,21.9531 Q1056.7656,21.7656 1056.6563,21.25 Q1056.6094,20.8906 1056.4219,20.7031 Q1056.0938,20.3281 1055.4844,20.1094 Q1054.875,19.8906 1054.25,19.8906 Q1053.4844,19.8906 1052.8438,20.2188 Q1052.2188,20.5469 1051.7188,21.2969 Q1051.2344,22.0469 1051.2344,23.0781 L1051.2344,24.1719 Q1051.2344,25.4063 1052.125,26.2344 Q1053.0156,27.0469 1054.6094,27.0469 Q1055.5469,27.0469 1056.2031,26.7969 Q1056.5938,26.6406 1057.0156,26.2031 Q1057.2813,25.9375 1057.4219,25.8594 Q1057.5781,25.7813 1057.7813,25.7813 Q1058.1094,25.7813 1058.3594,26.0469 Q1058.625,26.2969 1058.625,26.6406 Q1058.625,26.9844 1058.2813,27.3906 Q1057.7813,27.9688 1056.9844,28.2969 Q1055.9063,28.75 1054.6094,28.75 Q1053.0938,28.75 1051.8906,28.125 Q1050.9063,27.625 1050.2188,26.5625 Q1049.5313,25.4844 1049.5313,24.2031 L1049.5313,23.0469 Q1049.5313,21.7188 1050.1406,20.5781 Q1050.7656,19.4219 1051.8594,18.8125 Q1052.9531,18.1875 1054.1875,18.1875 Q1054.9219,18.1875 1055.5625,18.3594 Q1056.2188,18.5156 1056.7656,18.875 Z " fill="#000000"/><text fill="#000000" font-family="sans-serif" font-size="14" lengthAdjust="spacing" textLength="86" x="1068" y="28.7285">EditorWindow</text><line style="stroke:#181818;stroke-width:0.5;" x1="1040" x2="1156" y1="39" y2="39"/><line style="stroke:#181818;stroke-width:0.5;" x1="1040" x2="1156" y1="47" y2="47"/></g><!--MD5=[2e18e71dee856b79601525f127c58bbe]
reverse link EditorWindow to ObjectEditor--><g id="link_EditorWindow_ObjectEditor"><path codeLine="11" d="M1098,75.54 C1098,93.91 1098,116.07 1098,137.84 " fill="none" id="EditorWindow-backto-ObjectEditor" style="stroke:#181818;stroke-width:1.0;"/><polygon fill="none" points="1091,75.28,1098,55.28,1105,75.28,1091,75.28" style="stroke:#181818;stroke-width:1.0;"/></g><!--MD5=[1d40c217f0bb1038afacac9ef554970f]
link ObjectEditor to ObjectView--><g id="link_ObjectEditor_ObjectView"><path codeLine="12" d="M903.77,327.17 C833.75,360.94 757.31,397.81 697.4,426.7 " fill="none" id="ObjectEditor-to-ObjectView" style="stroke:#181818;stroke-width:1.0;"/><polygon fill="#181818" points="692.75,428.94,702.594,428.6312,697.2531,426.7671,699.1173,421.4262,692.75,428.94" style="stroke:#181818;stroke-width:1.0;"/><text fill="#000000" font-family="sans-serif" font-size="13" lengthAdjust="spacing" textLength="63" x="639.7695" y="418.2369">objectView</text></g><!--MD5=[94135c663a63bd3851647fcc35c86309]
link ObjectEditor to ObjectSearchView--><g id="link_ObjectEditor_ObjectSearchView"><path codeLine="13" d="M1026.5,327.17 C992.7,371.46 954.82,421.09 931.95,451.05 " fill="none" id="ObjectEditor-to-ObjectSearchView" style="stroke:#181818;stroke-width:1.0;"/><polygon fill="#181818" points="928.69,455.32,937.3282,450.589,931.7219,451.3442,930.9668,445.7379,928.69,455.32" style="stroke:#181818;stroke-width:1.0;"/><text fill="#000000" font-family="sans-serif" font-size="13" lengthAdjust="spacing" textLength="62" x="863.2793" y="444.614">searchBox</text></g><!--MD5=[3983a1a5666c519062f67aa13ba721f3]
link ObjectEditor to AddActor--><g id="link_ObjectEditor_AddActor"><path codeLine="14" d="M1075.82,327.17 C1065.43,371.1 1053.78,420.27 1046.67,450.31 " fill="none" id="ObjectEditor-to-AddActor" style="stroke:#181818;stroke-width:1.0;"/><polygon fill="#181818" points="1045.49,455.32,1051.4668,447.492,1046.6487,450.4561,1043.6846,445.638,1045.49,455.32" style="stroke:#181818;stroke-width:1.0;"/><text fill="#000000" font-family="sans-serif" font-size="13" lengthAdjust="spacing" textLength="52" x="988.2343" y="444.614">addActor</text></g><!--MD5=[571712f2ddf5287587e3b45f71d8c95f]
link ObjectEditor to AddRigidBody--><g id="link_ObjectEditor_AddRigidBody"><path codeLine="15" d="M1120.18,327.17 C1130.57,371.1 1142.22,420.27 1149.33,450.31 " fill="none" id="ObjectEditor-to-AddRigidBody" style="stroke:#181818;stroke-width:1.0;"/><polygon fill="#181818" points="1150.51,455.32,1152.3154,445.638,1149.3513,450.4561,1144.5332,447.492,1150.51,455.32" style="stroke:#181818;stroke-width:1.0;"/><text fill="#000000" font-family="sans-serif" font-size="13" lengthAdjust="spacing" textLength="80" x="1088.5782" y="444.614">addRigidBody</text></g><!--MD5=[6b7d9f25bc0c4175bd6612ffd8d943e4]
link ObjectEditor to ModeChangeView--><g id="link_ObjectEditor_ModeChangeView"><path codeLine="16" d="M1175.23,327.17 C1211.9,371.65 1253,421.49 1277.67,451.42 " fill="none" id="ObjectEditor-to-ModeChangeView" style="stroke:#181818;stroke-width:1.0;"/><polygon fill="#181818" points="1280.89,455.32,1278.2428,445.8336,1277.706,451.4649,1272.0746,450.928,1280.89,455.32" style="stroke:#181818;stroke-width:1.0;"/><text fill="#000000" font-family="sans-serif" font-size="13" lengthAdjust="spacing" textLength="104" x="1195.5681" y="444.614">modeChangeView</text></g><!--MD5=[9c0a8f89a01dfa7b9472fda5285a3035]
link ObjectEditor to ComponentHeader--><g id="link_ObjectEditor_ComponentHeader"><path codeLine="17" d="M1356.22,302.89 C1412.27,324.29 1469.29,351.35 1518,385 C1543.43,402.57 1565.68,430.15 1580.21,450.81 " fill="none" id="ObjectEditor-to-ComponentHeader" style="stroke:#181818;stroke-width:1.0;"/><polygon fill="#181818" points="1583.19,455.11,1581.3646,445.4318,1580.3477,450.9965,1574.783,449.9795,1583.19,455.11" style="stroke:#181818;stroke-width:1.0;"/><text fill="#000000" font-family="sans-serif" font-size="13" lengthAdjust="spacing" textLength="77" x="1517.0304" y="444.6986">actorsHeader</text></g><!--MD5=[f54166a4bfd7691965a2a28e4010c83f]
reverse link MonoBehaviour to Model--><g id="link_MonoBehaviour_Model"><path codeLine="13" d="M148,523.64 C148,549.05 148,582.46 148,614.8 " fill="none" id="MonoBehaviour-backto-Model" style="stroke:#181818;stroke-width:1.0;"/><polygon fill="none" points="141,523.6,148,503.6,155,523.6,141,523.6" style="stroke:#181818;stroke-width:1.0;"/></g><!--MD5=[e9af08b07c3c1cbabce4a69a92c36aef]
reverse link MonoBehaviour to OnChanged--><g id="link_MonoBehaviour_OnChanged"><path codeLine="12" d="M218.74,513.86 C241.46,528.19 264.27,547.2 278,571 C344.41,686.13 297.44,736.21 303,869 C303.33,876.99 306.43,879.77 303,887 C297.96,897.64 291.39,907.62 283.85,916.9 " fill="none" id="MonoBehaviour-backto-OnChanged" style="stroke:#181818;stroke-width:1.0;"/><polygon fill="none" points="214.88,519.71,201.13,503.59,221.93,507.62,214.88,519.71" style="stroke:#181818;stroke-width:1.0;"/></g><!--MD5=[33fce9dbf08da3255eac6eb9829d1468]
reverse link VisualElement to ObjectView--><g id="link_VisualElement_ObjectView"><path codeLine="6" d="M285.11,268.08 C345.94,310.06 448.97,381.17 518.22,428.96 " fill="none" id="VisualElement-backto-ObjectView" style="stroke:#181818;stroke-width:1.0;"/><polygon fill="none" points="280.88,273.67,268.4,256.55,288.83,262.15,280.88,273.67" style="stroke:#181818;stroke-width:1.0;"/></g><!--MD5=[d434b1af28dc8426efc76f96c28d50c5]
link ObjectView to GameObject--><g id="link_ObjectView_GameObject"><path codeLine="7" d="M435.1379,425.179 C435.1379,425.179 347.79,397.05 306,385 C290.93,380.66 181.28,360.75 169,351 C143.06,330.41 127.29,295.6 118.47,269.2 " fill="none" id="ObjectView-GameObject" style="stroke:#181818;stroke-width:1.0;"/><polygon fill="#181818" points="114.57,256.65,113.4103,266.4303,116.0485,261.4264,121.0525,264.0647,114.57,256.65" style="stroke:#181818;stroke-width:1.0;"/><line style="stroke:#181818;stroke-width:1.0;" x1="116.0485" x2="118.425" y1="261.4264" y2="269.065"/><polygon fill="none" points="446.53,428.95,442.091,423.2671,435.1379,425.179,439.577,430.8619,446.53,428.95" style="stroke:#181818;stroke-width:1.0;"/><text fill="#000000" font-family="sans-serif" font-size="13" lengthAdjust="spacing" textLength="52" x="57.5902" y="278.0245">selection</text></g><!--MD5=[db4aaa8bec941f927273171aa9d9c3de]
link GameObject to MonoBehaviour--><g id="link_GameObject_MonoBehaviour"><path codeLine="37" d="M112.67,256.55 C119.84,301.6 135.7,401.21 143.49,450.19 " fill="none" id="GameObject-to-MonoBehaviour" style="stroke:#181818;stroke-width:1.0;"/><polygon fill="#181818" points="144.31,455.33,146.8432,445.8125,143.5228,450.3924,138.943,447.072,144.31,455.33" style="stroke:#181818;stroke-width:1.0;"/><text fill="#000000" font-family="sans-serif" font-size="13" lengthAdjust="spacing" textLength="49" x="132" y="373.4951">contains</text><text fill="#000000" font-family="sans-serif" font-size="13" lengthAdjust="spacing" textLength="5" x="137.7238" y="444.6266">*</text></g><!--MD5=[22fd483b875cb2ff344c4158c2284aac]
link ObjectView to OnChanged--><g id="link_ObjectView_OnChanged"><path codeLine="38" d="M562.98,530.12 C517.74,610.54 420.85,771.95 312,887 C303.49,896 294.23,904.84 284.62,913.38 " fill="none" id="ObjectView-to-OnChanged" style="stroke:#181818;stroke-width:1.0;stroke-dasharray:1.0,3.0;"/><polygon fill="#181818" points="280.78,916.77,290.1754,913.8159,284.5296,913.4624,284.8832,907.8166,280.78,916.77" style="stroke:#181818;stroke-width:1.0;"/><text fill="#000000" font-family="sans-serif" font-size="13" lengthAdjust="spacing" textLength="56" x="540" y="732.4951">subcribes</text></g><!--MD5=[9ac54b484beb76019c30aefa9b0f2477]
link Model to OnChanged--><g id="link_Model_OnChanged"><path codeLine="39" d="M77.66,839.05 C74.1,854.96 73.85,871.27 79,887 C81.82,895.6 85.55,904.09 89.88,912.32 " fill="none" id="Model-to-OnChanged" style="stroke:#181818;stroke-width:1.0;stroke-dasharray:1.0,3.0;"/><polygon fill="#181818" points="92.35,916.86,91.5631,907.0426,89.9608,912.4678,84.5356,910.8654,92.35,916.86" style="stroke:#181818;stroke-width:1.0;"/><text fill="#000000" font-family="sans-serif" font-size="13" lengthAdjust="spacing" textLength="55" x="80" y="883.4951">publishes</text></g><!--MD5=[2444900bafb32253b1b19047d14dbc7a]
link OnChanged to Model--><g id="link_OnChanged_Model"><path codeLine="43" d="M153.31,916.84 C152.4,906.79 151.6,896.68 151,887 C150.15,873.26 149.52,858.83 149.05,844.52 " fill="none" id="OnChanged-to-Model" style="stroke:#181818;stroke-width:1.0;"/><polygon fill="#181818" points="148.89,839.25,145.1755,848.3715,149.0475,844.2475,153.1715,848.1195,148.89,839.25" style="stroke:#181818;stroke-width:1.0;"/><text fill="#000000" font-family="sans-serif" font-size="13" lengthAdjust="spacing" textLength="152" x="152" y="883.4951">models, actives, deactives</text><text fill="#000000" font-family="sans-serif" font-size="13" lengthAdjust="spacing" textLength="5" x="143.7869" y="860.4569">*</text></g><!--MD5=[91fc605304c6237e08f40599395affb4]
@startuml

frame Views  {
    class SearchBoxView
    class ObjectSearchView
    class AddActor
    class AddRigidBody
    class ModeChangeView
    class ComponentHeader
    class ObjectView
}

frame Unity {
    class GameObject
    class MonoBehaviour
    class VisualElement
}


frame EditorWindows{
    class ObjectEditor
}

frame Models{
    class Model
    class OnChanged
}


!include ..\..\out_puml\Editor\ObjectEditor.puml

!include ..\..\out_puml\Scripts\Models\Model.puml
!include ..\..\out_puml\Scripts\Models\OnChanged.puml

!include ..\..\out_puml\Scripts\Views\ObjectView.puml


GameObject - -> "*" MonoBehaviour : contains 
ObjectView -[dotted]-> OnChanged : subcribes
Model -[dotted]-> OnChanged : publishes


remove List`1
OnChanged - -> "*" Model : "models, actives, deactives"

skinparam nodesep 10

@enduml

@startuml

frame Views  {
    class SearchBoxView
    class ObjectSearchView
    class AddActor
    class AddRigidBody
    class ModeChangeView
    class ComponentHeader
    class ObjectView
}

frame Unity {
    class GameObject
    class MonoBehaviour
    class VisualElement
}


frame EditorWindows{
    class ObjectEditor
}

frame Models{
    class Model
    class OnChanged
}


class ObjectEditor {
    + {static} ShowExample() : void
    + InitView() : void
    + Init() : void
    + Callback(scene:Scene, mode:OpenSceneMode) : void
    - Callback2(scene:Scene, setup:NewSceneSetup, mode:NewSceneMode) : void
    - Callback3(scene:Scene, scene1:Scene) : void
    + OnEnable() : void
    + OnDisable() : void
}
EditorWindow <|- - ObjectEditor
ObjectEditor - -> "objectView" ObjectView
ObjectEditor - -> "searchBox" ObjectSearchView
ObjectEditor - -> "addActor" AddActor
ObjectEditor - -> "addRigidBody" AddRigidBody
ObjectEditor - -> "modeChangeView" ModeChangeView
ObjectEditor - -> "actorsHeader" ComponentHeader

abstract class Model {
    shoudUpdate : bool = true
    + shouldDraw : bool = true
    + <<virtual>> Start() : void
    + <<virtual>> CreateUI() : VisualElement
    + <<virtual>> OnChanged() : void
    # <<virtual>> Update() : void
    + UpdateOnNextFrame() : void
    + OnEnable() : void
    + OnDisable() : void
    + OnValidate() : void
}
MonoBehaviour <|- - Model
class OnChanged {
    +  <<event>> onActivated : ModelChanged 
    +  <<event>> onDeactivated : ModelChanged 
    +  <<event>> onChanged : ModelChanged 
    LateUpdate() : void
    + Changed(model:Model) : void
    + Active(model:Model) : void
    + Deactives(model:Model) : void
}
class "List`1"<T> {
}
MonoBehaviour <|- - OnChanged
OnChanged o-> "actives<Model>" "List`1"
OnChanged o-> "deactives<Model>" "List`1"
OnChanged o-> "models<Model>" "List`1"

class ObjectView {
    - Handle(models:List<Model>) : void
    + ChangeSelection(obj:GameObject) : void
    - ChangeSelection(obj:GameObject, modelsChanged:List<Model>) : void
}
VisualElement <|- - ObjectView
ObjectView o-> "selection" GameObject


GameObject - -> "*" MonoBehaviour : contains 
ObjectView -[dotted]-> OnChanged : subcribes
Model -[dotted]-> OnChanged : publishes


remove List`1
OnChanged - -> "*" Model : "models, actives, deactives"

skinparam nodesep 10

@enduml

PlantUML version 1.2022.5(Sat Apr 30 20:55:52 AEST 2022)
(GPL source distribution)
Java Runtime: Java(TM) SE Runtime Environment
JVM: Java HotSpot(TM) 64-Bit Server VM
Default Encoding: Cp1252
Language: en
Country: AU
--></g></svg>