<?xml version="1.0" encoding="UTF-8" standalone="no"?><svg xmlns="http://www.w3.org/2000/svg" xmlns:xlink="http://www.w3.org/1999/xlink" contentStyleType="text/css" height="672px" preserveAspectRatio="none" style="width:2084px;height:672px;background:#FFFFFF;" version="1.1" viewBox="0 0 2084 672" width="2084px" zoomAndPan="magnify"><defs/><g><!--MD5=[64d2ac4226a33183313b99ef56efbbd7]
class LineRendererModel--><g id="elem_LineRendererModel"><rect codeLine="1" fill="#F1F1F1" height="153.6563" id="LineRendererModel" rx="2.5" ry="2.5" style="stroke:#181818;stroke-width:0.5;" width="388" x="966" y="147"/><ellipse cx="1093.25" cy="163" fill="#ADD1B2" rx="11" ry="11" style="stroke:#181818;stroke-width:1.0;"/><path d="M1096.0156,158.875 Q1096.1719,158.6563 1096.3594,158.5469 Q1096.5469,158.4375 1096.7656,158.4375 Q1097.1406,158.4375 1097.375,158.7031 Q1097.6094,158.9531 1097.6094,159.5625 L1097.6094,161.0156 Q1097.6094,161.625 1097.375,161.8906 Q1097.1406,162.1563 1096.7656,162.1563 Q1096.4219,162.1563 1096.2188,161.9531 Q1096.0156,161.7656 1095.9063,161.25 Q1095.8594,160.8906 1095.6719,160.7031 Q1095.3438,160.3281 1094.7344,160.1094 Q1094.125,159.8906 1093.5,159.8906 Q1092.7344,159.8906 1092.0938,160.2188 Q1091.4688,160.5469 1090.9688,161.2969 Q1090.4844,162.0469 1090.4844,163.0781 L1090.4844,164.1719 Q1090.4844,165.4063 1091.375,166.2344 Q1092.2656,167.0469 1093.8594,167.0469 Q1094.7969,167.0469 1095.4531,166.7969 Q1095.8438,166.6406 1096.2656,166.2031 Q1096.5313,165.9375 1096.6719,165.8594 Q1096.8281,165.7813 1097.0313,165.7813 Q1097.3594,165.7813 1097.6094,166.0469 Q1097.875,166.2969 1097.875,166.6406 Q1097.875,166.9844 1097.5313,167.3906 Q1097.0313,167.9688 1096.2344,168.2969 Q1095.1563,168.75 1093.8594,168.75 Q1092.3438,168.75 1091.1406,168.125 Q1090.1563,167.625 1089.4688,166.5625 Q1088.7813,165.4844 1088.7813,164.2031 L1088.7813,163.0469 Q1088.7813,161.7188 1089.3906,160.5781 Q1090.0156,159.4219 1091.1094,158.8125 Q1092.2031,158.1875 1093.4375,158.1875 Q1094.1719,158.1875 1094.8125,158.3594 Q1095.4688,158.5156 1096.0156,158.875 Z " fill="#000000"/><text fill="#000000" font-family="sans-serif" font-size="14" lengthAdjust="spacing" textLength="125" x="1113.75" y="168.7285">LineRendererModel</text><line style="stroke:#181818;stroke-width:0.5;" x1="967" x2="1353" y1="179" y2="179"/><ellipse cx="977" cy="190" fill="none" rx="3" ry="3" style="stroke:#038048;stroke-width:1.0;"/><text fill="#000000" font-family="sans-serif" font-size="14" lengthAdjust="spacing" textLength="138" x="986" y="197.5332">thickness : float = 0.1f</text><ellipse cx="977" cy="207.6094" fill="none" rx="3" ry="3" style="stroke:#038048;stroke-width:1.0;"/><text fill="#000000" font-family="sans-serif" font-size="14" lengthAdjust="spacing" textLength="112" x="986" y="215.1426">lifespan : float = 1</text><line style="stroke:#181818;stroke-width:0.5;" x1="967" x2="1353" y1="222.2188" y2="222.2188"/><ellipse cx="977" cy="233.2188" fill="#84BE84" rx="3" ry="3" style="stroke:#038048;stroke-width:1.0;"/><text fill="#000000" font-family="sans-serif" font-size="14" lengthAdjust="spacing" textLength="362" x="986" y="240.752">«override» ChildSpawned(go:GameObject) : GameObject</text><ellipse cx="977" cy="250.8281" fill="#84BE84" rx="3" ry="3" style="stroke:#038048;stroke-width:1.0;"/><text fill="#000000" font-family="sans-serif" font-size="14" lengthAdjust="spacing" textLength="237" x="986" y="258.3613">«override» GetAvatar() : GameObject</text><ellipse cx="977" cy="268.4375" fill="#84BE84" rx="3" ry="3" style="stroke:#038048;stroke-width:1.0;"/><text fill="#000000" font-family="sans-serif" font-size="14" lengthAdjust="spacing" textLength="301" x="986" y="275.9707">«override» ChangeBase(go:GameObject) : void</text><ellipse cx="977" cy="286.0469" fill="#84BE84" rx="3" ry="3" style="stroke:#038048;stroke-width:1.0;"/><text fill="#000000" font-family="sans-serif" font-size="14" lengthAdjust="spacing" textLength="238" x="986" y="293.5801">«override» CreateUI() : VisualElement</text></g><!--MD5=[3d881c6a3fc3c462f0188c4e5b26742b]
class MultiChildModel--><g id="elem_MultiChildModel"><rect codeLine="1" fill="#F1F1F1" height="276.9219" id="MultiChildModel" rx="2.5" ry="2.5" style="stroke:#181818;stroke-width:0.5;" width="395" x="510" y="304.5"/><ellipse cx="652.75" cy="320.5" fill="#A9DCDF" rx="11" ry="11" style="stroke:#181818;stroke-width:1.0;"/><path d="M654.9375,322.2656 L650.7969,322.2656 L650.375,323.2969 L650.7969,323.2969 Q651.4063,323.2969 651.6719,323.5313 Q651.9375,323.7656 651.9375,324.1563 Q651.9375,324.5313 651.6719,324.7656 Q651.4063,325 650.7969,325 L648.5,325 Q647.8906,325 647.6406,324.7656 Q647.375,324.5313 647.375,324.1406 Q647.375,323.7656 647.6563,323.5313 Q647.9219,323.2813 648.5469,323.2969 L651.2188,316.6406 L650.1094,316.6406 Q649.5,316.6406 649.2344,316.4063 Q648.9688,316.1719 648.9688,315.7813 Q648.9688,315.4063 649.2344,315.1719 Q649.5,314.9375 650.1094,314.9375 L653.7813,314.9375 L657.1719,323.2969 Q657.7656,323.2969 657.9531,323.4375 Q658.3438,323.7031 658.3438,324.1563 Q658.3438,324.5313 658.0781,324.7656 Q657.8281,325 657.2188,325 L654.9219,325 Q654.3125,325 654.0469,324.7656 Q653.7813,324.5313 653.7813,324.1406 Q653.7813,323.7656 654.0469,323.5313 Q654.3125,323.2969 654.9219,323.2969 L655.3438,323.2969 L654.9375,322.2656 Z M654.2188,320.5625 L652.8594,317.1875 L651.4844,320.5625 L654.2188,320.5625 Z " fill="#000000"/><text fill="#000000" font-family="sans-serif" font-size="14" font-style="italic" lengthAdjust="spacing" textLength="101" x="673.25" y="326.2285">MultiChildModel</text><line style="stroke:#181818;stroke-width:0.5;" x1="511" x2="904" y1="336.5" y2="336.5"/><ellipse cx="521" cy="347.5" fill="none" rx="3" ry="3" style="stroke:#038048;stroke-width:1.0;"/><text fill="#000000" font-family="sans-serif" font-size="14" lengthAdjust="spacing" textLength="164" x="530" y="355.0332">staleTargets : bool = false</text><ellipse cx="521" cy="365.1094" fill="none" rx="3" ry="3" style="stroke:#038048;stroke-width:1.0;"/><text fill="#000000" font-family="sans-serif" font-size="14" lengthAdjust="spacing" textLength="106" x="530" y="372.6426">emitFrom : string</text><ellipse cx="521" cy="382.7188" fill="none" rx="3" ry="3" style="stroke:#038048;stroke-width:1.0;"/><text fill="#000000" font-family="sans-serif" font-size="14" lengthAdjust="spacing" textLength="135" x="530" y="390.252">emitFromPrev : string</text><line style="stroke:#181818;stroke-width:0.5;" x1="511" x2="904" y1="397.3281" y2="397.3281"/><ellipse cx="521" cy="408.3281" fill="#84BE84" rx="3" ry="3" style="stroke:#038048;stroke-width:1.0;"/><text fill="#000000" font-family="sans-serif" font-size="14" lengthAdjust="spacing" textLength="150" x="530" y="415.8613">«override» Start() : void</text><rect fill="#F24D5C" height="6" style="stroke:#C82930;stroke-width:1.0;" width="6" x="518" y="422.9375"/><text fill="#000000" font-family="sans-serif" font-size="14" lengthAdjust="spacing" textLength="336" x="530" y="433.4707">RecalculateTargets(parentAvatar:GameObject) : void</text><rect fill="#F24D5C" height="6" style="stroke:#C82930;stroke-width:1.0;" width="6" x="518" y="440.5469"/><text fill="#000000" font-family="sans-serif" font-size="14" lengthAdjust="spacing" textLength="180" x="530" y="451.0801">RemoveStaleObjects() : void</text><rect fill="#F24D5C" height="6" style="stroke:#C82930;stroke-width:1.0;" width="6" x="518" y="458.1563"/><text fill="#000000" font-family="sans-serif" font-size="14" lengthAdjust="spacing" textLength="183" x="530" y="468.6895">AddNewObjectsIfDirty() : void</text><rect fill="#F24D5C" height="6" style="stroke:#C82930;stroke-width:1.0;" width="6" x="518" y="475.7656"/><text fill="#000000" font-family="sans-serif" font-size="14" lengthAdjust="spacing" textLength="136" x="530" y="486.2988">UpdateEffects() : void</text><ellipse cx="521" cy="496.375" fill="#84BE84" rx="3" ry="3" style="stroke:#038048;stroke-width:1.0;"/><text fill="#000000" font-family="sans-serif" font-size="14" lengthAdjust="spacing" textLength="197" x="530" y="503.9082">«override» OnChanged() : void</text><rect fill="#F24D5C" height="6" style="stroke:#C82930;stroke-width:1.0;" width="6" x="518" y="510.9844"/><text fill="#000000" font-family="sans-serif" font-size="14" lengthAdjust="spacing" textLength="239" x="530" y="521.5176">SpawnEffects(target:Transform) : void</text><ellipse cx="521" cy="531.5938" fill="#84BE84" rx="3" ry="3" style="stroke:#038048;stroke-width:1.0;"/><text fill="#000000" font-family="sans-serif" font-size="14" lengthAdjust="spacing" textLength="369" x="530" y="539.127">«virtual» ChildSpawned(target:GameObject) : GameObject</text><ellipse cx="521" cy="549.2031" fill="#84BE84" rx="3" ry="3" style="stroke:#038048;stroke-width:1.0;"/><text fill="#000000" font-family="sans-serif" font-size="14" lengthAdjust="spacing" textLength="223" x="530" y="556.7363">«virtual» GetAvatar() : GameObject</text><ellipse cx="521" cy="566.8125" fill="#84BE84" rx="3" ry="3" style="stroke:#038048;stroke-width:1.0;"/><text fill="#000000" font-family="sans-serif" font-size="14" lengthAdjust="spacing" textLength="287" x="530" y="574.3457">«virtual» ChangeBase(go:GameObject) : void</text></g><!--MD5=[18eee71c88ab61f27581b8cbdd3ef5ee]
class Color--><g id="elem_Color"><rect fill="#F1F1F1" height="48" id="Color" rx="2.5" ry="2.5" style="stroke:#181818;stroke-width:0.5;" width="66" x="1127" y="336"/><ellipse cx="1142" cy="352" fill="#ADD1B2" rx="11" ry="11" style="stroke:#181818;stroke-width:1.0;"/><path d="M1144.7656,347.875 Q1144.9219,347.6563 1145.1094,347.5469 Q1145.2969,347.4375 1145.5156,347.4375 Q1145.8906,347.4375 1146.125,347.7031 Q1146.3594,347.9531 1146.3594,348.5625 L1146.3594,350.0156 Q1146.3594,350.625 1146.125,350.8906 Q1145.8906,351.1563 1145.5156,351.1563 Q1145.1719,351.1563 1144.9688,350.9531 Q1144.7656,350.7656 1144.6563,350.25 Q1144.6094,349.8906 1144.4219,349.7031 Q1144.0938,349.3281 1143.4844,349.1094 Q1142.875,348.8906 1142.25,348.8906 Q1141.4844,348.8906 1140.8438,349.2188 Q1140.2188,349.5469 1139.7188,350.2969 Q1139.2344,351.0469 1139.2344,352.0781 L1139.2344,353.1719 Q1139.2344,354.4063 1140.125,355.2344 Q1141.0156,356.0469 1142.6094,356.0469 Q1143.5469,356.0469 1144.2031,355.7969 Q1144.5938,355.6406 1145.0156,355.2031 Q1145.2813,354.9375 1145.4219,354.8594 Q1145.5781,354.7813 1145.7813,354.7813 Q1146.1094,354.7813 1146.3594,355.0469 Q1146.625,355.2969 1146.625,355.6406 Q1146.625,355.9844 1146.2813,356.3906 Q1145.7813,356.9688 1144.9844,357.2969 Q1143.9063,357.75 1142.6094,357.75 Q1141.0938,357.75 1139.8906,357.125 Q1138.9063,356.625 1138.2188,355.5625 Q1137.5313,354.4844 1137.5313,353.2031 L1137.5313,352.0469 Q1137.5313,350.7188 1138.1406,349.5781 Q1138.7656,348.4219 1139.8594,347.8125 Q1140.9531,347.1875 1142.1875,347.1875 Q1142.9219,347.1875 1143.5625,347.3594 Q1144.2188,347.5156 1144.7656,347.875 Z " fill="#000000"/><text fill="#000000" font-family="sans-serif" font-size="14" lengthAdjust="spacing" textLength="34" x="1156" y="357.7285">Color</text><line style="stroke:#181818;stroke-width:0.5;" x1="1128" x2="1192" y1="368" y2="368"/><line style="stroke:#181818;stroke-width:0.5;" x1="1128" x2="1192" y1="376" y2="376"/></g><!--MD5=[7e20e022571e30ec1001cf6eabd7f3e2]
class Model--><g id="elem_Model"><rect codeLine="1" fill="#F1F1F1" height="224.0938" id="Model" rx="2.5" ry="2.5" style="stroke:#181818;stroke-width:0.5;" width="250" x="199" y="331"/><ellipse cx="300.25" cy="347" fill="#A9DCDF" rx="11" ry="11" style="stroke:#181818;stroke-width:1.0;"/><path d="M302.4375,348.7656 L298.2969,348.7656 L297.875,349.7969 L298.2969,349.7969 Q298.9063,349.7969 299.1719,350.0313 Q299.4375,350.2656 299.4375,350.6563 Q299.4375,351.0313 299.1719,351.2656 Q298.9063,351.5 298.2969,351.5 L296,351.5 Q295.3906,351.5 295.1406,351.2656 Q294.875,351.0313 294.875,350.6406 Q294.875,350.2656 295.1563,350.0313 Q295.4219,349.7813 296.0469,349.7969 L298.7188,343.1406 L297.6094,343.1406 Q297,343.1406 296.7344,342.9063 Q296.4688,342.6719 296.4688,342.2813 Q296.4688,341.9063 296.7344,341.6719 Q297,341.4375 297.6094,341.4375 L301.2813,341.4375 L304.6719,349.7969 Q305.2656,349.7969 305.4531,349.9375 Q305.8438,350.2031 305.8438,350.6563 Q305.8438,351.0313 305.5781,351.2656 Q305.3281,351.5 304.7188,351.5 L302.4219,351.5 Q301.8125,351.5 301.5469,351.2656 Q301.2813,351.0313 301.2813,350.6406 Q301.2813,350.2656 301.5469,350.0313 Q301.8125,349.7969 302.4219,349.7969 L302.8438,349.7969 L302.4375,348.7656 Z M301.7188,347.0625 L300.3594,343.6875 L298.9844,347.0625 L301.7188,347.0625 Z " fill="#000000"/><text fill="#000000" font-family="sans-serif" font-size="14" font-style="italic" lengthAdjust="spacing" textLength="39" x="320.75" y="352.7285">Model</text><line style="stroke:#181818;stroke-width:0.5;" x1="200" x2="448" y1="363" y2="363"/><text fill="#000000" font-family="sans-serif" font-size="14" lengthAdjust="spacing" textLength="164" x="219" y="381.5332">shoudUpdate : bool = true</text><ellipse cx="210" cy="391.6094" fill="none" rx="3" ry="3" style="stroke:#038048;stroke-width:1.0;"/><text fill="#000000" font-family="sans-serif" font-size="14" lengthAdjust="spacing" textLength="154" x="219" y="399.1426">shouldDraw : bool = true</text><line style="stroke:#181818;stroke-width:0.5;" x1="200" x2="448" y1="406.2188" y2="406.2188"/><ellipse cx="210" cy="417.2188" fill="#84BE84" rx="3" ry="3" style="stroke:#038048;stroke-width:1.0;"/><text fill="#000000" font-family="sans-serif" font-size="14" lengthAdjust="spacing" textLength="136" x="219" y="424.752">«virtual» Start() : void</text><ellipse cx="210" cy="434.8281" fill="#84BE84" rx="3" ry="3" style="stroke:#038048;stroke-width:1.0;"/><text fill="#000000" font-family="sans-serif" font-size="14" lengthAdjust="spacing" textLength="224" x="219" y="442.3613">«virtual» CreateUI() : VisualElement</text><ellipse cx="210" cy="452.4375" fill="#84BE84" rx="3" ry="3" style="stroke:#038048;stroke-width:1.0;"/><text fill="#000000" font-family="sans-serif" font-size="14" lengthAdjust="spacing" textLength="183" x="219" y="459.9707">«virtual» OnChanged() : void</text><polygon fill="#FFFF44" points="210,465.0469,214,469.0469,210,473.0469,206,469.0469" style="stroke:#B38D22;stroke-width:1.0;"/><text fill="#000000" font-family="sans-serif" font-size="14" lengthAdjust="spacing" textLength="151" x="219" y="477.5801">«virtual» Update() : void</text><ellipse cx="210" cy="487.6563" fill="#84BE84" rx="3" ry="3" style="stroke:#038048;stroke-width:1.0;"/><text fill="#000000" font-family="sans-serif" font-size="14" lengthAdjust="spacing" textLength="180" x="219" y="495.1895">UpdateOnNextFrame() : void</text><ellipse cx="210" cy="505.2656" fill="#84BE84" rx="3" ry="3" style="stroke:#038048;stroke-width:1.0;"/><text fill="#000000" font-family="sans-serif" font-size="14" lengthAdjust="spacing" textLength="111" x="219" y="512.7988">OnEnable() : void</text><ellipse cx="210" cy="522.875" fill="#84BE84" rx="3" ry="3" style="stroke:#038048;stroke-width:1.0;"/><text fill="#000000" font-family="sans-serif" font-size="14" lengthAdjust="spacing" textLength="114" x="219" y="530.4082">OnDisable() : void</text><ellipse cx="210" cy="540.4844" fill="#84BE84" rx="3" ry="3" style="stroke:#038048;stroke-width:1.0;"/><text fill="#000000" font-family="sans-serif" font-size="14" lengthAdjust="spacing" textLength="118" x="219" y="548.0176">OnValidate() : void</text></g><!--MD5=[83b3cf3d23d77c6f1e1b5291a241bc2a]
class MonoBehaviour--><g id="elem_MonoBehaviour"><rect fill="#F1F1F1" height="48" id="MonoBehaviour" rx="2.5" ry="2.5" style="stroke:#181818;stroke-width:0.5;" width="131" x="7" y="419"/><ellipse cx="22" cy="435" fill="#ADD1B2" rx="11" ry="11" style="stroke:#181818;stroke-width:1.0;"/><path d="M24.7656,430.875 Q24.9219,430.6563 25.1094,430.5469 Q25.2969,430.4375 25.5156,430.4375 Q25.8906,430.4375 26.125,430.7031 Q26.3594,430.9531 26.3594,431.5625 L26.3594,433.0156 Q26.3594,433.625 26.125,433.8906 Q25.8906,434.1563 25.5156,434.1563 Q25.1719,434.1563 24.9688,433.9531 Q24.7656,433.7656 24.6563,433.25 Q24.6094,432.8906 24.4219,432.7031 Q24.0938,432.3281 23.4844,432.1094 Q22.875,431.8906 22.25,431.8906 Q21.4844,431.8906 20.8438,432.2188 Q20.2188,432.5469 19.7188,433.2969 Q19.2344,434.0469 19.2344,435.0781 L19.2344,436.1719 Q19.2344,437.4063 20.125,438.2344 Q21.0156,439.0469 22.6094,439.0469 Q23.5469,439.0469 24.2031,438.7969 Q24.5938,438.6406 25.0156,438.2031 Q25.2813,437.9375 25.4219,437.8594 Q25.5781,437.7813 25.7813,437.7813 Q26.1094,437.7813 26.3594,438.0469 Q26.625,438.2969 26.625,438.6406 Q26.625,438.9844 26.2813,439.3906 Q25.7813,439.9688 24.9844,440.2969 Q23.9063,440.75 22.6094,440.75 Q21.0938,440.75 19.8906,440.125 Q18.9063,439.625 18.2188,438.5625 Q17.5313,437.4844 17.5313,436.2031 L17.5313,435.0469 Q17.5313,433.7188 18.1406,432.5781 Q18.7656,431.4219 19.8594,430.8125 Q20.9531,430.1875 22.1875,430.1875 Q22.9219,430.1875 23.5625,430.3594 Q24.2188,430.5156 24.7656,430.875 Z " fill="#000000"/><text fill="#000000" font-family="sans-serif" font-size="14" lengthAdjust="spacing" textLength="99" x="36" y="440.7285">MonoBehaviour</text><line style="stroke:#181818;stroke-width:0.5;" x1="8" x2="137" y1="451" y2="451"/><line style="stroke:#181818;stroke-width:0.5;" x1="8" x2="137" y1="459" y2="459"/></g><!--MD5=[e644022de7dea015dd09463c37421447]
class List`1--><g id="elem_List`1"><rect codeLine="16" fill="#F1F1F1" height="48" id="List`1" rx="2.5" ry="2.5" style="stroke:#181818;stroke-width:0.5;" width="78" x="668.5" y="617"/><ellipse cx="683.5" cy="633" fill="#ADD1B2" rx="11" ry="11" style="stroke:#181818;stroke-width:1.0;"/><path d="M686.2656,628.875 Q686.4219,628.6563 686.6094,628.5469 Q686.7969,628.4375 687.0156,628.4375 Q687.3906,628.4375 687.625,628.7031 Q687.8594,628.9531 687.8594,629.5625 L687.8594,631.0156 Q687.8594,631.625 687.625,631.8906 Q687.3906,632.1563 687.0156,632.1563 Q686.6719,632.1563 686.4688,631.9531 Q686.2656,631.7656 686.1563,631.25 Q686.1094,630.8906 685.9219,630.7031 Q685.5938,630.3281 684.9844,630.1094 Q684.375,629.8906 683.75,629.8906 Q682.9844,629.8906 682.3438,630.2188 Q681.7188,630.5469 681.2188,631.2969 Q680.7344,632.0469 680.7344,633.0781 L680.7344,634.1719 Q680.7344,635.4063 681.625,636.2344 Q682.5156,637.0469 684.1094,637.0469 Q685.0469,637.0469 685.7031,636.7969 Q686.0938,636.6406 686.5156,636.2031 Q686.7813,635.9375 686.9219,635.8594 Q687.0781,635.7813 687.2813,635.7813 Q687.6094,635.7813 687.8594,636.0469 Q688.125,636.2969 688.125,636.6406 Q688.125,636.9844 687.7813,637.3906 Q687.2813,637.9688 686.4844,638.2969 Q685.4063,638.75 684.1094,638.75 Q682.5938,638.75 681.3906,638.125 Q680.4063,637.625 679.7188,636.5625 Q679.0313,635.4844 679.0313,634.2031 L679.0313,633.0469 Q679.0313,631.7188 679.6406,630.5781 Q680.2656,629.4219 681.3594,628.8125 Q682.4531,628.1875 683.6875,628.1875 Q684.4219,628.1875 685.0625,628.3594 Q685.7188,628.5156 686.2656,628.875 Z " fill="#000000"/><text fill="#000000" font-family="sans-serif" font-size="14" lengthAdjust="spacing" textLength="35" x="697.5" y="638.7285">List`1</text><rect fill="#FFFFFF" height="17.0938" style="stroke:#000000;stroke-width:1.0;stroke-dasharray:2.0,2.0;" width="9" x="740.5" y="614"/><text fill="#000000" font-family="sans-serif" font-size="12" font-style="italic" lengthAdjust="spacing" textLength="7" x="741.5" y="627.457">T</text><line style="stroke:#181818;stroke-width:0.5;" x1="669.5" x2="745.5" y1="649" y2="649"/><line style="stroke:#181818;stroke-width:0.5;" x1="669.5" x2="745.5" y1="657" y2="657"/></g><!--MD5=[064f7a74fee85463ec1a30143664ee17]
class GameObject--><g id="elem_GameObject"><rect fill="#F1F1F1" height="48" id="GameObject" rx="2.5" ry="2.5" style="stroke:#181818;stroke-width:0.5;" width="111" x="1104.5" y="419"/><ellipse cx="1119.5" cy="435" fill="#ADD1B2" rx="11" ry="11" style="stroke:#181818;stroke-width:1.0;"/><path d="M1122.2656,430.875 Q1122.4219,430.6563 1122.6094,430.5469 Q1122.7969,430.4375 1123.0156,430.4375 Q1123.3906,430.4375 1123.625,430.7031 Q1123.8594,430.9531 1123.8594,431.5625 L1123.8594,433.0156 Q1123.8594,433.625 1123.625,433.8906 Q1123.3906,434.1563 1123.0156,434.1563 Q1122.6719,434.1563 1122.4688,433.9531 Q1122.2656,433.7656 1122.1563,433.25 Q1122.1094,432.8906 1121.9219,432.7031 Q1121.5938,432.3281 1120.9844,432.1094 Q1120.375,431.8906 1119.75,431.8906 Q1118.9844,431.8906 1118.3438,432.2188 Q1117.7188,432.5469 1117.2188,433.2969 Q1116.7344,434.0469 1116.7344,435.0781 L1116.7344,436.1719 Q1116.7344,437.4063 1117.625,438.2344 Q1118.5156,439.0469 1120.1094,439.0469 Q1121.0469,439.0469 1121.7031,438.7969 Q1122.0938,438.6406 1122.5156,438.2031 Q1122.7813,437.9375 1122.9219,437.8594 Q1123.0781,437.7813 1123.2813,437.7813 Q1123.6094,437.7813 1123.8594,438.0469 Q1124.125,438.2969 1124.125,438.6406 Q1124.125,438.9844 1123.7813,439.3906 Q1123.2813,439.9688 1122.4844,440.2969 Q1121.4063,440.75 1120.1094,440.75 Q1118.5938,440.75 1117.3906,440.125 Q1116.4063,439.625 1115.7188,438.5625 Q1115.0313,437.4844 1115.0313,436.2031 L1115.0313,435.0469 Q1115.0313,433.7188 1115.6406,432.5781 Q1116.2656,431.4219 1117.3594,430.8125 Q1118.4531,430.1875 1119.6875,430.1875 Q1120.4219,430.1875 1121.0625,430.3594 Q1121.7188,430.5156 1122.2656,430.875 Z " fill="#000000"/><text fill="#000000" font-family="sans-serif" font-size="14" lengthAdjust="spacing" textLength="79" x="1133.5" y="440.7285">GameObject</text><line style="stroke:#181818;stroke-width:0.5;" x1="1105.5" x2="1214.5" y1="451" y2="451"/><line style="stroke:#181818;stroke-width:0.5;" x1="1105.5" x2="1214.5" y1="459" y2="459"/></g><!--MD5=[b2cf7e3b3c0cdc670aeae651104ea285]
class LineRendererView--><g id="elem_LineRendererView"><rect codeLine="1" fill="#F1F1F1" height="65.6094" id="LineRendererView" rx="2.5" ry="2.5" style="stroke:#181818;stroke-width:0.5;" width="406" x="1459" y="123"/><ellipse cx="1599.75" cy="139" fill="#ADD1B2" rx="11" ry="11" style="stroke:#181818;stroke-width:1.0;"/><path d="M1602.5156,134.875 Q1602.6719,134.6563 1602.8594,134.5469 Q1603.0469,134.4375 1603.2656,134.4375 Q1603.6406,134.4375 1603.875,134.7031 Q1604.1094,134.9531 1604.1094,135.5625 L1604.1094,137.0156 Q1604.1094,137.625 1603.875,137.8906 Q1603.6406,138.1563 1603.2656,138.1563 Q1602.9219,138.1563 1602.7188,137.9531 Q1602.5156,137.7656 1602.4063,137.25 Q1602.3594,136.8906 1602.1719,136.7031 Q1601.8438,136.3281 1601.2344,136.1094 Q1600.625,135.8906 1600,135.8906 Q1599.2344,135.8906 1598.5938,136.2188 Q1597.9688,136.5469 1597.4688,137.2969 Q1596.9844,138.0469 1596.9844,139.0781 L1596.9844,140.1719 Q1596.9844,141.4063 1597.875,142.2344 Q1598.7656,143.0469 1600.3594,143.0469 Q1601.2969,143.0469 1601.9531,142.7969 Q1602.3438,142.6406 1602.7656,142.2031 Q1603.0313,141.9375 1603.1719,141.8594 Q1603.3281,141.7813 1603.5313,141.7813 Q1603.8594,141.7813 1604.1094,142.0469 Q1604.375,142.2969 1604.375,142.6406 Q1604.375,142.9844 1604.0313,143.3906 Q1603.5313,143.9688 1602.7344,144.2969 Q1601.6563,144.75 1600.3594,144.75 Q1598.8438,144.75 1597.6406,144.125 Q1596.6563,143.625 1595.9688,142.5625 Q1595.2813,141.4844 1595.2813,140.2031 L1595.2813,139.0469 Q1595.2813,137.7188 1595.8906,136.5781 Q1596.5156,135.4219 1597.6094,134.8125 Q1598.7031,134.1875 1599.9375,134.1875 Q1600.6719,134.1875 1601.3125,134.3594 Q1601.9688,134.5156 1602.5156,134.875 Z " fill="#000000"/><text fill="#000000" font-family="sans-serif" font-size="14" lengthAdjust="spacing" textLength="116" x="1620.25" y="144.7285">LineRendererView</text><line style="stroke:#181818;stroke-width:0.5;" x1="1460" x2="1864" y1="155" y2="155"/><line style="stroke:#181818;stroke-width:0.5;" x1="1460" x2="1864" y1="163" y2="163"/><ellipse cx="1470" cy="174" fill="#84BE84" rx="3" ry="3" style="stroke:#038048;stroke-width:1.0;"/><text fill="#000000" font-family="sans-serif" font-size="14" lengthAdjust="spacing" textLength="380" x="1479" y="181.5332">LineRendererView(go:GameObject, isParentRigidBody:bool)</text></g><!--MD5=[e77834a0fda1b3f817ae7f2b19e4424d]
class VisualElement--><g id="elem_VisualElement"><rect fill="#F1F1F1" height="48" id="VisualElement" rx="2.5" ry="2.5" style="stroke:#181818;stroke-width:0.5;" width="121" x="1099.5" y="64"/><ellipse cx="1114.5" cy="80" fill="#ADD1B2" rx="11" ry="11" style="stroke:#181818;stroke-width:1.0;"/><path d="M1117.2656,75.875 Q1117.4219,75.6563 1117.6094,75.5469 Q1117.7969,75.4375 1118.0156,75.4375 Q1118.3906,75.4375 1118.625,75.7031 Q1118.8594,75.9531 1118.8594,76.5625 L1118.8594,78.0156 Q1118.8594,78.625 1118.625,78.8906 Q1118.3906,79.1563 1118.0156,79.1563 Q1117.6719,79.1563 1117.4688,78.9531 Q1117.2656,78.7656 1117.1563,78.25 Q1117.1094,77.8906 1116.9219,77.7031 Q1116.5938,77.3281 1115.9844,77.1094 Q1115.375,76.8906 1114.75,76.8906 Q1113.9844,76.8906 1113.3438,77.2188 Q1112.7188,77.5469 1112.2188,78.2969 Q1111.7344,79.0469 1111.7344,80.0781 L1111.7344,81.1719 Q1111.7344,82.4063 1112.625,83.2344 Q1113.5156,84.0469 1115.1094,84.0469 Q1116.0469,84.0469 1116.7031,83.7969 Q1117.0938,83.6406 1117.5156,83.2031 Q1117.7813,82.9375 1117.9219,82.8594 Q1118.0781,82.7813 1118.2813,82.7813 Q1118.6094,82.7813 1118.8594,83.0469 Q1119.125,83.2969 1119.125,83.6406 Q1119.125,83.9844 1118.7813,84.3906 Q1118.2813,84.9688 1117.4844,85.2969 Q1116.4063,85.75 1115.1094,85.75 Q1113.5938,85.75 1112.3906,85.125 Q1111.4063,84.625 1110.7188,83.5625 Q1110.0313,82.4844 1110.0313,81.2031 L1110.0313,80.0469 Q1110.0313,78.7188 1110.6406,77.5781 Q1111.2656,76.4219 1112.3594,75.8125 Q1113.4531,75.1875 1114.6875,75.1875 Q1115.4219,75.1875 1116.0625,75.3594 Q1116.7188,75.5156 1117.2656,75.875 Z " fill="#000000"/><text fill="#000000" font-family="sans-serif" font-size="14" lengthAdjust="spacing" textLength="89" x="1128.5" y="85.7285">VisualElement</text><line style="stroke:#181818;stroke-width:0.5;" x1="1100.5" x2="1219.5" y1="96" y2="96"/><line style="stroke:#181818;stroke-width:0.5;" x1="1100.5" x2="1219.5" y1="104" y2="104"/></g><!--MD5=[298883191722f47d612a790005ce591d]
class ComponentHeader--><g id="elem_ComponentHeader"><rect fill="#F1F1F1" height="48" id="ComponentHeader" rx="2.5" ry="2.5" style="stroke:#181818;stroke-width:0.5;" width="151" x="1926" y="7"/><ellipse cx="1941" cy="23" fill="#ADD1B2" rx="11" ry="11" style="stroke:#181818;stroke-width:1.0;"/><path d="M1943.7656,18.875 Q1943.9219,18.6563 1944.1094,18.5469 Q1944.2969,18.4375 1944.5156,18.4375 Q1944.8906,18.4375 1945.125,18.7031 Q1945.3594,18.9531 1945.3594,19.5625 L1945.3594,21.0156 Q1945.3594,21.625 1945.125,21.8906 Q1944.8906,22.1563 1944.5156,22.1563 Q1944.1719,22.1563 1943.9688,21.9531 Q1943.7656,21.7656 1943.6563,21.25 Q1943.6094,20.8906 1943.4219,20.7031 Q1943.0938,20.3281 1942.4844,20.1094 Q1941.875,19.8906 1941.25,19.8906 Q1940.4844,19.8906 1939.8438,20.2188 Q1939.2188,20.5469 1938.7188,21.2969 Q1938.2344,22.0469 1938.2344,23.0781 L1938.2344,24.1719 Q1938.2344,25.4063 1939.125,26.2344 Q1940.0156,27.0469 1941.6094,27.0469 Q1942.5469,27.0469 1943.2031,26.7969 Q1943.5938,26.6406 1944.0156,26.2031 Q1944.2813,25.9375 1944.4219,25.8594 Q1944.5781,25.7813 1944.7813,25.7813 Q1945.1094,25.7813 1945.3594,26.0469 Q1945.625,26.2969 1945.625,26.6406 Q1945.625,26.9844 1945.2813,27.3906 Q1944.7813,27.9688 1943.9844,28.2969 Q1942.9063,28.75 1941.6094,28.75 Q1940.0938,28.75 1938.8906,28.125 Q1937.9063,27.625 1937.2188,26.5625 Q1936.5313,25.4844 1936.5313,24.2031 L1936.5313,23.0469 Q1936.5313,21.7188 1937.1406,20.5781 Q1937.7656,19.4219 1938.8594,18.8125 Q1939.9531,18.1875 1941.1875,18.1875 Q1941.9219,18.1875 1942.5625,18.3594 Q1943.2188,18.5156 1943.7656,18.875 Z " fill="#000000"/><text fill="#000000" font-family="sans-serif" font-size="14" lengthAdjust="spacing" textLength="119" x="1955" y="28.7285">ComponentHeader</text><line style="stroke:#181818;stroke-width:0.5;" x1="1927" x2="2076" y1="39" y2="39"/><line style="stroke:#181818;stroke-width:0.5;" x1="1927" x2="2076" y1="47" y2="47"/></g><!--MD5=[41f8c580327acedeef39b1c4413de103]
class ColorField--><g id="elem_ColorField"><rect fill="#F1F1F1" height="48" id="ColorField" rx="2.5" ry="2.5" style="stroke:#181818;stroke-width:0.5;" width="97" x="1953" y="90"/><ellipse cx="1968" cy="106" fill="#ADD1B2" rx="11" ry="11" style="stroke:#181818;stroke-width:1.0;"/><path d="M1970.7656,101.875 Q1970.9219,101.6563 1971.1094,101.5469 Q1971.2969,101.4375 1971.5156,101.4375 Q1971.8906,101.4375 1972.125,101.7031 Q1972.3594,101.9531 1972.3594,102.5625 L1972.3594,104.0156 Q1972.3594,104.625 1972.125,104.8906 Q1971.8906,105.1563 1971.5156,105.1563 Q1971.1719,105.1563 1970.9688,104.9531 Q1970.7656,104.7656 1970.6563,104.25 Q1970.6094,103.8906 1970.4219,103.7031 Q1970.0938,103.3281 1969.4844,103.1094 Q1968.875,102.8906 1968.25,102.8906 Q1967.4844,102.8906 1966.8438,103.2188 Q1966.2188,103.5469 1965.7188,104.2969 Q1965.2344,105.0469 1965.2344,106.0781 L1965.2344,107.1719 Q1965.2344,108.4063 1966.125,109.2344 Q1967.0156,110.0469 1968.6094,110.0469 Q1969.5469,110.0469 1970.2031,109.7969 Q1970.5938,109.6406 1971.0156,109.2031 Q1971.2813,108.9375 1971.4219,108.8594 Q1971.5781,108.7813 1971.7813,108.7813 Q1972.1094,108.7813 1972.3594,109.0469 Q1972.625,109.2969 1972.625,109.6406 Q1972.625,109.9844 1972.2813,110.3906 Q1971.7813,110.9688 1970.9844,111.2969 Q1969.9063,111.75 1968.6094,111.75 Q1967.0938,111.75 1965.8906,111.125 Q1964.9063,110.625 1964.2188,109.5625 Q1963.5313,108.4844 1963.5313,107.2031 L1963.5313,106.0469 Q1963.5313,104.7188 1964.1406,103.5781 Q1964.7656,102.4219 1965.8594,101.8125 Q1966.9531,101.1875 1968.1875,101.1875 Q1968.9219,101.1875 1969.5625,101.3594 Q1970.2188,101.5156 1970.7656,101.875 Z " fill="#000000"/><text fill="#000000" font-family="sans-serif" font-size="14" lengthAdjust="spacing" textLength="65" x="1982" y="111.7285">ColorField</text><line style="stroke:#181818;stroke-width:0.5;" x1="1954" x2="2049" y1="122" y2="122"/><line style="stroke:#181818;stroke-width:0.5;" x1="1954" x2="2049" y1="130" y2="130"/></g><!--MD5=[e9b5ee0446a42629a7416d22a027c116]
class DropdownField--><g id="elem_DropdownField"><rect fill="#F1F1F1" height="48" id="DropdownField" rx="2.5" ry="2.5" style="stroke:#181818;stroke-width:0.5;" width="127" x="1938" y="173"/><ellipse cx="1953" cy="189" fill="#ADD1B2" rx="11" ry="11" style="stroke:#181818;stroke-width:1.0;"/><path d="M1955.7656,184.875 Q1955.9219,184.6563 1956.1094,184.5469 Q1956.2969,184.4375 1956.5156,184.4375 Q1956.8906,184.4375 1957.125,184.7031 Q1957.3594,184.9531 1957.3594,185.5625 L1957.3594,187.0156 Q1957.3594,187.625 1957.125,187.8906 Q1956.8906,188.1563 1956.5156,188.1563 Q1956.1719,188.1563 1955.9688,187.9531 Q1955.7656,187.7656 1955.6563,187.25 Q1955.6094,186.8906 1955.4219,186.7031 Q1955.0938,186.3281 1954.4844,186.1094 Q1953.875,185.8906 1953.25,185.8906 Q1952.4844,185.8906 1951.8438,186.2188 Q1951.2188,186.5469 1950.7188,187.2969 Q1950.2344,188.0469 1950.2344,189.0781 L1950.2344,190.1719 Q1950.2344,191.4063 1951.125,192.2344 Q1952.0156,193.0469 1953.6094,193.0469 Q1954.5469,193.0469 1955.2031,192.7969 Q1955.5938,192.6406 1956.0156,192.2031 Q1956.2813,191.9375 1956.4219,191.8594 Q1956.5781,191.7813 1956.7813,191.7813 Q1957.1094,191.7813 1957.3594,192.0469 Q1957.625,192.2969 1957.625,192.6406 Q1957.625,192.9844 1957.2813,193.3906 Q1956.7813,193.9688 1955.9844,194.2969 Q1954.9063,194.75 1953.6094,194.75 Q1952.0938,194.75 1950.8906,194.125 Q1949.9063,193.625 1949.2188,192.5625 Q1948.5313,191.4844 1948.5313,190.2031 L1948.5313,189.0469 Q1948.5313,187.7188 1949.1406,186.5781 Q1949.7656,185.4219 1950.8594,184.8125 Q1951.9531,184.1875 1953.1875,184.1875 Q1953.9219,184.1875 1954.5625,184.3594 Q1955.2188,184.5156 1955.7656,184.875 Z " fill="#000000"/><text fill="#000000" font-family="sans-serif" font-size="14" lengthAdjust="spacing" textLength="95" x="1967" y="194.7285">DropdownField</text><line style="stroke:#181818;stroke-width:0.5;" x1="1939" x2="2064" y1="205" y2="205"/><line style="stroke:#181818;stroke-width:0.5;" x1="1939" x2="2064" y1="213" y2="213"/></g><!--MD5=[5b63724585581d1714c92cb3ec182af9]
class Slider--><g id="elem_Slider"><rect fill="#F1F1F1" height="48" id="Slider" rx="2.5" ry="2.5" style="stroke:#181818;stroke-width:0.5;" width="68" x="1967.5" y="256"/><ellipse cx="1982.5" cy="272" fill="#ADD1B2" rx="11" ry="11" style="stroke:#181818;stroke-width:1.0;"/><path d="M1985.2656,267.875 Q1985.4219,267.6563 1985.6094,267.5469 Q1985.7969,267.4375 1986.0156,267.4375 Q1986.3906,267.4375 1986.625,267.7031 Q1986.8594,267.9531 1986.8594,268.5625 L1986.8594,270.0156 Q1986.8594,270.625 1986.625,270.8906 Q1986.3906,271.1563 1986.0156,271.1563 Q1985.6719,271.1563 1985.4688,270.9531 Q1985.2656,270.7656 1985.1563,270.25 Q1985.1094,269.8906 1984.9219,269.7031 Q1984.5938,269.3281 1983.9844,269.1094 Q1983.375,268.8906 1982.75,268.8906 Q1981.9844,268.8906 1981.3438,269.2188 Q1980.7188,269.5469 1980.2188,270.2969 Q1979.7344,271.0469 1979.7344,272.0781 L1979.7344,273.1719 Q1979.7344,274.4063 1980.625,275.2344 Q1981.5156,276.0469 1983.1094,276.0469 Q1984.0469,276.0469 1984.7031,275.7969 Q1985.0938,275.6406 1985.5156,275.2031 Q1985.7813,274.9375 1985.9219,274.8594 Q1986.0781,274.7813 1986.2813,274.7813 Q1986.6094,274.7813 1986.8594,275.0469 Q1987.125,275.2969 1987.125,275.6406 Q1987.125,275.9844 1986.7813,276.3906 Q1986.2813,276.9688 1985.4844,277.2969 Q1984.4063,277.75 1983.1094,277.75 Q1981.5938,277.75 1980.3906,277.125 Q1979.4063,276.625 1978.7188,275.5625 Q1978.0313,274.4844 1978.0313,273.2031 L1978.0313,272.0469 Q1978.0313,270.7188 1978.6406,269.5781 Q1979.2656,268.4219 1980.3594,267.8125 Q1981.4531,267.1875 1982.6875,267.1875 Q1983.4219,267.1875 1984.0625,267.3594 Q1984.7188,267.5156 1985.2656,267.875 Z " fill="#000000"/><text fill="#000000" font-family="sans-serif" font-size="14" lengthAdjust="spacing" textLength="36" x="1996.5" y="277.7285">Slider</text><line style="stroke:#181818;stroke-width:0.5;" x1="1968.5" x2="2034.5" y1="288" y2="288"/><line style="stroke:#181818;stroke-width:0.5;" x1="1968.5" x2="2034.5" y1="296" y2="296"/></g><!--MD5=[ff08adcde2b65c2e37ee7e5f7a11ce8c]
class FloatField--><g id="elem_FloatField"><rect fill="#F1F1F1" height="48" id="FloatField" rx="2.5" ry="2.5" style="stroke:#181818;stroke-width:0.5;" width="95" x="1954" y="339"/><ellipse cx="1969" cy="355" fill="#ADD1B2" rx="11" ry="11" style="stroke:#181818;stroke-width:1.0;"/><path d="M1971.7656,350.875 Q1971.9219,350.6563 1972.1094,350.5469 Q1972.2969,350.4375 1972.5156,350.4375 Q1972.8906,350.4375 1973.125,350.7031 Q1973.3594,350.9531 1973.3594,351.5625 L1973.3594,353.0156 Q1973.3594,353.625 1973.125,353.8906 Q1972.8906,354.1563 1972.5156,354.1563 Q1972.1719,354.1563 1971.9688,353.9531 Q1971.7656,353.7656 1971.6563,353.25 Q1971.6094,352.8906 1971.4219,352.7031 Q1971.0938,352.3281 1970.4844,352.1094 Q1969.875,351.8906 1969.25,351.8906 Q1968.4844,351.8906 1967.8438,352.2188 Q1967.2188,352.5469 1966.7188,353.2969 Q1966.2344,354.0469 1966.2344,355.0781 L1966.2344,356.1719 Q1966.2344,357.4063 1967.125,358.2344 Q1968.0156,359.0469 1969.6094,359.0469 Q1970.5469,359.0469 1971.2031,358.7969 Q1971.5938,358.6406 1972.0156,358.2031 Q1972.2813,357.9375 1972.4219,357.8594 Q1972.5781,357.7813 1972.7813,357.7813 Q1973.1094,357.7813 1973.3594,358.0469 Q1973.625,358.2969 1973.625,358.6406 Q1973.625,358.9844 1973.2813,359.3906 Q1972.7813,359.9688 1971.9844,360.2969 Q1970.9063,360.75 1969.6094,360.75 Q1968.0938,360.75 1966.8906,360.125 Q1965.9063,359.625 1965.2188,358.5625 Q1964.5313,357.4844 1964.5313,356.2031 L1964.5313,355.0469 Q1964.5313,353.7188 1965.1406,352.5781 Q1965.7656,351.4219 1966.8594,350.8125 Q1967.9531,350.1875 1969.1875,350.1875 Q1969.9219,350.1875 1970.5625,350.3594 Q1971.2188,350.5156 1971.7656,350.875 Z " fill="#000000"/><text fill="#000000" font-family="sans-serif" font-size="14" lengthAdjust="spacing" textLength="63" x="1983" y="360.7285">FloatField</text><line style="stroke:#181818;stroke-width:0.5;" x1="1955" x2="2048" y1="371" y2="371"/><line style="stroke:#181818;stroke-width:0.5;" x1="1955" x2="2048" y1="379" y2="379"/></g><!--MD5=[6bf51aa5f7b2eca227bca6ada95a0fc9]
reverse link MultiChildModel to LineRendererModel--><g id="link_MultiChildModel_LineRendererModel"><path codeLine="9" d="M923.1,338.68 C949.16,326.01 975.4,313.25 1000.44,301.08 " fill="none" id="MultiChildModel-backto-LineRendererModel" style="stroke:#181818;stroke-width:1.0;"/><polygon fill="none" points="926.16,344.97,905.11,347.42,920.04,332.38,926.16,344.97" style="stroke:#181818;stroke-width:1.0;"/></g><!--MD5=[d487098be7fbde91edb43b751a2ffe72]
link LineRendererModel to Color--><g id="link_LineRendererModel_Color"><path codeLine="10" d="M1182.2873,313.1517 C1182.2873,313.1517 1180.44,320.55 1179.37,323.7 " fill="none" id="LineRendererModel-Color" style="stroke:#181818;stroke-width:1.0;"/><polygon fill="#181818" points="1174.47,335.83,1181.5502,328.9838,1176.343,331.1941,1174.1327,325.9869,1174.47,335.83" style="stroke:#181818;stroke-width:1.0;"/><line style="stroke:#181818;stroke-width:1.0;" x1="1176.343" x2="1179.34" y1="331.1941" y2="323.775"/><polygon fill="none" points="1184.29,301.32,1179.3448,306.5683,1182.2873,313.1517,1187.2326,307.9034,1184.29,301.32" style="stroke:#181818;stroke-width:1.0;"/><text fill="#000000" font-family="sans-serif" font-size="13" lengthAdjust="spacing" textLength="102" x="1063.1092" y="325.1266">lineRendererColor</text></g><!--MD5=[d487098be7fbde91edb43b751a2ffe72]
link LineRendererModel to Color--><g id="link_LineRendererModel_Color"><path codeLine="11" d="M1135.71,301.32 C1136.71,311.29 1139.3,321.27 1143.49,331.24 " fill="none" id="LineRendererModel-to-Color" style="stroke:#181818;stroke-width:1.0;"/><polygon fill="#181818" points="1145.53,335.83,1145.5357,325.9811,1143.502,331.2598,1138.2233,329.226,1145.53,335.83" style="stroke:#181818;stroke-width:1.0;"/><text fill="#000000" font-family="sans-serif" font-size="13" lengthAdjust="spacing" textLength="51" x="1068.0499" y="338.7289">endColor</text></g><!--MD5=[f54166a4bfd7691965a2a28e4010c83f]
reverse link MonoBehaviour to Model--><g id="link_MonoBehaviour_Model"><path codeLine="13" d="M158.49,443 C171.45,443 185.05,443 198.65,443 " fill="none" id="MonoBehaviour-backto-Model" style="stroke:#181818;stroke-width:1.0;"/><polygon fill="none" points="158.08,450,138.08,443,158.08,436,158.08,450" style="stroke:#181818;stroke-width:1.0;"/></g><!--MD5=[3e65a36c9ef92e250a2ab0d1607ae4ce]
reverse link Model to MultiChildModel--><g id="link_Model_MultiChildModel"><path codeLine="18" d="M469.54,443 C482.71,443 496.21,443 509.74,443 " fill="none" id="Model-backto-MultiChildModel" style="stroke:#181818;stroke-width:1.0;"/><polygon fill="none" points="469.13,450,449.13,443,469.13,436,469.13,450" style="stroke:#181818;stroke-width:1.0;"/></g><!--MD5=[7705cbd0ca18043478d0247aa5faea30]
link MultiChildModel to List`1--><g id="link_MultiChildModel_List`1"><path codeLine="19" d="M728.848,593.2777 C728.848,593.2777 726.38,601.05 725.15,604.36 " fill="none" id="MultiChildModel-List`1" style="stroke:#181818;stroke-width:1.0;"/><polygon fill="#181818" points="720.13,616.64,727.2408,609.8256,722.0238,612.0125,719.8369,606.7955,720.13,616.64" style="stroke:#181818;stroke-width:1.0;"/><line style="stroke:#181818;stroke-width:1.0;" x1="722.0238" x2="725.045" y1="612.0125" y2="604.605"/><polygon fill="none" points="732.04,581.71,726.5881,586.4298,728.848,593.2777,734.2999,588.5578,732.04,581.71" style="stroke:#181818;stroke-width:1.0;"/><text fill="#000000" font-family="sans-serif" font-size="13" lengthAdjust="spacing" textLength="178" x="523.5148" y="606.2902">objectsInScene&lt;GameObject&gt;</text></g><!--MD5=[7705cbd0ca18043478d0247aa5faea30]
link MultiChildModel to List`1--><g id="link_MultiChildModel_List`1"><path codeLine="20" d="M686.152,593.2777 C686.152,593.2777 688.62,601.05 689.85,604.36 " fill="none" id="MultiChildModel-List`1-1" style="stroke:#181818;stroke-width:1.0;"/><polygon fill="#181818" points="694.87,616.64,695.1631,606.7955,692.9762,612.0125,687.7592,609.8256,694.87,616.64" style="stroke:#181818;stroke-width:1.0;"/><line style="stroke:#181818;stroke-width:1.0;" x1="692.9762" x2="689.955" y1="612.0125" y2="604.605"/><polygon fill="none" points="682.96,581.71,680.7001,588.5578,686.152,593.2777,688.4119,586.4298,682.96,581.71" style="stroke:#181818;stroke-width:1.0;"/><text fill="#000000" font-family="sans-serif" font-size="13" lengthAdjust="spacing" textLength="113" x="548.1691" y="622.2453">targets&lt;Transform&gt;</text></g><!--MD5=[95b24dd6e4a0ac765f288ca8caa46717]
link MultiChildModel to GameObject--><g id="link_MultiChildModel_GameObject"><path codeLine="21" d="M905.11,455.66 C975.44,456.11 1049.55,454.89 1099.42,451.98 " fill="none" id="MultiChildModel-to-GameObject" style="stroke:#181818;stroke-width:1.0;"/><polygon fill="#181818" points="1104.47,451.67,1095.246,448.2178,1099.479,451.9703,1095.7265,456.2033,1104.47,451.67" style="stroke:#181818;stroke-width:1.0;"/><text fill="#000000" font-family="sans-serif" font-size="13" lengthAdjust="spacing" textLength="66" x="1030.5853" y="466.6654">baseObject</text></g><!--MD5=[95b24dd6e4a0ac765f288ca8caa46717]
link MultiChildModel to GameObject--><g id="link_MultiChildModel_GameObject"><path codeLine="22" d="M905.11,429.6 C975.44,429.12 1049.55,430.42 1099.42,433.5 " fill="none" id="MultiChildModel-to-GameObject-1" style="stroke:#181818;stroke-width:1.0;"/><polygon fill="#181818" points="1104.47,433.82,1095.7387,429.2633,1099.4798,433.5063,1095.2368,437.2475,1104.47,433.82" style="stroke:#181818;stroke-width:1.0;"/><text fill="#000000" font-family="sans-serif" font-size="13" lengthAdjust="spacing" textLength="77" x="1019.3893" y="447.2288">previousBase</text></g><!--MD5=[4e5b1ab3f6b7b3003db917519a980c71]
reverse link VisualElement to LineRendererView--><g id="link_VisualElement_LineRendererView"><path codeLine="4" d="M1240.96,98.87 C1299.78,106.87 1382.46,118.12 1458.93,128.52 " fill="none" id="VisualElement-backto-LineRendererView" style="stroke:#181818;stroke-width:1.0;"/><polygon fill="none" points="1239.69,105.77,1220.82,96.13,1241.58,91.89,1239.69,105.77" style="stroke:#181818;stroke-width:1.0;"/></g><!--MD5=[d3b153ea67ae8fd435f936be0a200753]
link LineRendererView to ComponentHeader--><g id="link_LineRendererView_ComponentHeader"><path codeLine="5" d="M1752.12,122.99 C1807.93,102.32 1878.82,76.07 1930.57,56.9 " fill="none" id="LineRendererView-to-ComponentHeader" style="stroke:#181818;stroke-width:1.0;"/><polygon fill="#181818" points="1935.51,55.07,1925.6825,54.4224,1930.8173,56.7959,1928.4439,61.9307,1935.51,55.07" style="stroke:#181818;stroke-width:1.0;"/><text fill="#000000" font-family="sans-serif" font-size="13" lengthAdjust="spacing" textLength="39" x="1878.8777" y="75.2158">header</text></g><!--MD5=[7c0a73710b9740056e5b80eee1137d46]
link LineRendererView to ColorField--><g id="link_LineRendererView_ColorField"><path codeLine="6" d="M1865.17,143.37 C1895.58,139.17 1924.48,134.58 1947.71,130.14 " fill="none" id="LineRendererView-to-ColorField" style="stroke:#181818;stroke-width:1.0;"/><polygon fill="#181818" points="1952.88,129.13,1943.2801,126.9296,1947.9727,130.0886,1944.8138,134.7812,1952.88,129.13" style="stroke:#181818;stroke-width:1.0;"/><text fill="#000000" font-family="sans-serif" font-size="13" lengthAdjust="spacing" textLength="72" x="1873.0791" y="144.7736">colourPicker</text></g><!--MD5=[7c0a73710b9740056e5b80eee1137d46]
link LineRendererView to ColorField--><g id="link_LineRendererView_ColorField"><path codeLine="7" d="M1820.39,122.94 C1866.25,117.01 1913.24,112.28 1947.72,110.44 " fill="none" id="LineRendererView-to-ColorField-1" style="stroke:#181818;stroke-width:1.0;"/><polygon fill="#181818" points="1952.71,110.19,1943.5265,106.6313,1947.7159,110.4326,1943.9147,114.6219,1952.71,110.19" style="stroke:#181818;stroke-width:1.0;"/><text fill="#000000" font-family="sans-serif" font-size="13" lengthAdjust="spacing" textLength="95" x="1850.0369" y="106.758">endColourPicker</text></g><!--MD5=[a6bd74b68fce96e47db9b805a54adec5]
link LineRendererView to DropdownField--><g id="link_LineRendererView_DropdownField"><path codeLine="8" d="M1865.17,180.56 C1889.37,183.5 1912.62,186.32 1932.81,188.78 " fill="none" id="LineRendererView-to-DropdownField" style="stroke:#181818;stroke-width:1.0;"/><polygon fill="#181818" points="1937.87,189.39,1929.4141,184.3404,1932.906,188.7909,1928.4556,192.2828,1937.87,189.39" style="stroke:#181818;stroke-width:1.0;"/><text fill="#000000" font-family="sans-serif" font-size="13" lengthAdjust="spacing" textLength="55" x="1875.0385" y="202.9337">emitFrom</text></g><!--MD5=[949db3dcc9046ea1041ceb582678f0be]
link LineRendererView to Slider--><g id="link_LineRendererView_Slider"><path codeLine="9" d="M1753,189.07 C1821.48,214.23 1912.26,247.58 1962.67,266.1 " fill="none" id="LineRendererView-to-Slider" style="stroke:#181818;stroke-width:1.0;"/><polygon fill="#181818" points="1967.42,267.85,1960.3606,260.9823,1962.729,266.1195,1957.5918,268.4879,1967.42,267.85" style="stroke:#181818;stroke-width:1.0;"/><text fill="#000000" font-family="sans-serif" font-size="13" lengthAdjust="spacing" textLength="56" x="1903.466" y="280.8359">thickness</text></g><!--MD5=[187e2174856ad3c4930713d58c46399b]
link LineRendererView to FloatField--><g id="link_LineRendererView_FloatField"><path codeLine="10" d="M1714.46,189.28 C1767.16,223.13 1851.66,276.76 1926,321 C1934.4,326 1943.4,331.2 1952.14,336.17 " fill="none" id="LineRendererView-to-FloatField" style="stroke:#181818;stroke-width:1.0;"/><polygon fill="#181818" points="1956.97,338.91,1951.0955,331.0049,1952.6148,336.4539,1947.1658,337.9733,1956.97,338.91" style="stroke:#181818;stroke-width:1.0;"/><text fill="#000000" font-family="sans-serif" font-size="13" lengthAdjust="spacing" textLength="44" x="1901.951" y="331.1193">lifespan</text></g><!--MD5=[cc613cdb28ce34954f9a5ea0cca5be25]
link LineRendererModel to LineRendererView--><g id="link_LineRendererModel_LineRendererView"><path codeLine="7" d="M1354.31,197.71 C1386.79,193.29 1420.61,188.69 1453.43,184.23 " fill="none" id="LineRendererModel-to-LineRendererView" style="stroke:#181818;stroke-width:1.0;stroke-dasharray:1.0,3.0;"/><polygon fill="#181818" points="1458.69,183.51,1449.2346,180.7542,1453.7352,184.1811,1450.3083,188.6818,1458.69,183.51" style="stroke:#181818;stroke-width:1.0;"/><text fill="#000000" font-family="sans-serif" font-size="13" lengthAdjust="spacing" textLength="43" x="1385" y="184.4951">creates</text></g><!--MD5=[0e46d3ff7a795422e46f20475e761b7c]
@startuml
left to right direction
!include ..\..\..\out_puml\Scripts\Models\LineRendererModel.puml
!include ..\..\..\out_puml\Scripts\Models\Model.puml
!include ..\..\..\out_puml\Scripts\Models\MultiChildModel.puml
!include ..\..\..\out_puml\Scripts\Views\LineRendererView.puml

LineRendererModel -[dotted]-> LineRendererView : creates


@enduml

@startuml
left to right direction
class LineRendererModel {
    + thickness : float = 0.1f
    + lifespan : float = 1
    + <<override>> ChildSpawned(go:GameObject) : GameObject
    + <<override>> GetAvatar() : GameObject
    + <<override>> ChangeBase(go:GameObject) : void
    + <<override>> CreateUI() : VisualElement
}
MultiChildModel <|- - LineRendererModel
LineRendererModel o-> "lineRendererColor" Color
LineRendererModel - -> "endColor" Color
abstract class Model {
    shoudUpdate : bool = true
    + shouldDraw : bool = true
    + <<virtual>> Start() : void
    + <<virtual>> CreateUI() : VisualElement
    + <<virtual>> OnChanged() : void
    # <<virtual>> Update() : void
    + UpdateOnNextFrame() : void
    + OnEnable() : void
    + OnDisable() : void
    + OnValidate() : void
}
MonoBehaviour <|- - Model
abstract class MultiChildModel {
    + staleTargets : bool = false
    + emitFrom : string
    + emitFromPrev : string
    + <<override>> Start() : void
    - RecalculateTargets(parentAvatar:GameObject) : void
    - RemoveStaleObjects() : void
    - AddNewObjectsIfDirty() : void
    - UpdateEffects() : void
    + <<override>> OnChanged() : void
    - SpawnEffects(target:Transform) : void
    + <<virtual>> ChildSpawned(target:GameObject) : GameObject
    + <<virtual>> GetAvatar() : GameObject
    + <<virtual>> ChangeBase(go:GameObject) : void
}
class "List`1"<T> {
}
Model <|- - MultiChildModel
MultiChildModel o-> "objectsInScene<GameObject>" "List`1"
MultiChildModel o-> "targets<Transform>" "List`1"
MultiChildModel - -> "baseObject" GameObject
MultiChildModel - -> "previousBase" GameObject
class LineRendererView {
    + LineRendererView(go:GameObject, isParentRigidBody:bool)
}
VisualElement <|- - LineRendererView
LineRendererView - -> "header" ComponentHeader
LineRendererView - -> "colourPicker" ColorField
LineRendererView - -> "endColourPicker" ColorField
LineRendererView - -> "emitFrom" DropdownField
LineRendererView - -> "thickness" Slider
LineRendererView - -> "lifespan" FloatField

LineRendererModel -[dotted]-> LineRendererView : creates


@enduml

PlantUML version 1.2022.5(Sat Apr 30 20:55:52 AEST 2022)
(GPL source distribution)
Java Runtime: Java(TM) SE Runtime Environment
JVM: Java HotSpot(TM) 64-Bit Server VM
Default Encoding: Cp1252
Language: en
Country: AU
--></g></svg>