<?xml version="1.0" encoding="UTF-8" standalone="no"?><svg xmlns="http://www.w3.org/2000/svg" xmlns:xlink="http://www.w3.org/1999/xlink" contentStyleType="text/css" height="296px" preserveAspectRatio="none" style="width:297px;height:296px;background:#FFFFFF;" version="1.1" viewBox="0 0 297 296" width="297px" zoomAndPan="magnify"><defs/><g><!--MD5=[e08d287766ebf656fbcd2603d10a35da]
class SolidLightView--><g id="elem_SolidLightView"><rect codeLine="1" fill="#F1F1F1" height="65.6094" id="SolidLightView" rx="2.5" ry="2.5" style="stroke:#181818;stroke-width:0.5;" width="127" x="98" y="115"/><ellipse cx="114.8" cy="131" fill="#ADD1B2" rx="11" ry="11" style="stroke:#181818;stroke-width:1.0;"/><path d="M117.5656,126.875 Q117.7219,126.6563 117.9094,126.5469 Q118.0969,126.4375 118.3156,126.4375 Q118.6906,126.4375 118.925,126.7031 Q119.1594,126.9531 119.1594,127.5625 L119.1594,129.0156 Q119.1594,129.625 118.925,129.8906 Q118.6906,130.1563 118.3156,130.1563 Q117.9719,130.1563 117.7688,129.9531 Q117.5656,129.7656 117.4563,129.25 Q117.4094,128.8906 117.2219,128.7031 Q116.8938,128.3281 116.2844,128.1094 Q115.675,127.8906 115.05,127.8906 Q114.2844,127.8906 113.6438,128.2188 Q113.0188,128.5469 112.5188,129.2969 Q112.0344,130.0469 112.0344,131.0781 L112.0344,132.1719 Q112.0344,133.4063 112.925,134.2344 Q113.8156,135.0469 115.4094,135.0469 Q116.3469,135.0469 117.0031,134.7969 Q117.3938,134.6406 117.8156,134.2031 Q118.0813,133.9375 118.2219,133.8594 Q118.3781,133.7813 118.5813,133.7813 Q118.9094,133.7813 119.1594,134.0469 Q119.425,134.2969 119.425,134.6406 Q119.425,134.9844 119.0813,135.3906 Q118.5813,135.9688 117.7844,136.2969 Q116.7063,136.75 115.4094,136.75 Q113.8938,136.75 112.6906,136.125 Q111.7063,135.625 111.0188,134.5625 Q110.3313,133.4844 110.3313,132.2031 L110.3313,131.0469 Q110.3313,129.7188 110.9406,128.5781 Q111.5656,127.4219 112.6594,126.8125 Q113.7531,126.1875 114.9875,126.1875 Q115.7219,126.1875 116.3625,126.3594 Q117.0188,126.5156 117.5656,126.875 Z " fill="#000000"/><text fill="#000000" font-family="sans-serif" font-size="14" lengthAdjust="spacing" textLength="91" x="129.2" y="136.7285">SolidLightView</text><line style="stroke:#181818;stroke-width:0.5;" x1="99" x2="224" y1="147" y2="147"/><line style="stroke:#181818;stroke-width:0.5;" x1="99" x2="224" y1="155" y2="155"/><ellipse cx="109" cy="166" fill="#84BE84" rx="3" ry="3" style="stroke:#038048;stroke-width:1.0;"/><text fill="#000000" font-family="sans-serif" font-size="14" lengthAdjust="spacing" textLength="101" x="118" y="173.5332">SolidLightView()</text></g><!--MD5=[e77834a0fda1b3f817ae7f2b19e4424d]
class VisualElement--><g id="elem_VisualElement"><rect fill="#F1F1F1" height="48" id="VisualElement" rx="2.5" ry="2.5" style="stroke:#181818;stroke-width:0.5;" width="121" x="101" y="7"/><ellipse cx="116" cy="23" fill="#ADD1B2" rx="11" ry="11" style="stroke:#181818;stroke-width:1.0;"/><path d="M118.7656,18.875 Q118.9219,18.6563 119.1094,18.5469 Q119.2969,18.4375 119.5156,18.4375 Q119.8906,18.4375 120.125,18.7031 Q120.3594,18.9531 120.3594,19.5625 L120.3594,21.0156 Q120.3594,21.625 120.125,21.8906 Q119.8906,22.1563 119.5156,22.1563 Q119.1719,22.1563 118.9688,21.9531 Q118.7656,21.7656 118.6563,21.25 Q118.6094,20.8906 118.4219,20.7031 Q118.0938,20.3281 117.4844,20.1094 Q116.875,19.8906 116.25,19.8906 Q115.4844,19.8906 114.8438,20.2188 Q114.2188,20.5469 113.7188,21.2969 Q113.2344,22.0469 113.2344,23.0781 L113.2344,24.1719 Q113.2344,25.4063 114.125,26.2344 Q115.0156,27.0469 116.6094,27.0469 Q117.5469,27.0469 118.2031,26.7969 Q118.5938,26.6406 119.0156,26.2031 Q119.2813,25.9375 119.4219,25.8594 Q119.5781,25.7813 119.7813,25.7813 Q120.1094,25.7813 120.3594,26.0469 Q120.625,26.2969 120.625,26.6406 Q120.625,26.9844 120.2813,27.3906 Q119.7813,27.9688 118.9844,28.2969 Q117.9063,28.75 116.6094,28.75 Q115.0938,28.75 113.8906,28.125 Q112.9063,27.625 112.2188,26.5625 Q111.5313,25.4844 111.5313,24.2031 L111.5313,23.0469 Q111.5313,21.7188 112.1406,20.5781 Q112.7656,19.4219 113.8594,18.8125 Q114.9531,18.1875 116.1875,18.1875 Q116.9219,18.1875 117.5625,18.3594 Q118.2188,18.5156 118.7656,18.875 Z " fill="#000000"/><text fill="#000000" font-family="sans-serif" font-size="14" lengthAdjust="spacing" textLength="89" x="130" y="28.7285">VisualElement</text><line style="stroke:#181818;stroke-width:0.5;" x1="102" x2="221" y1="39" y2="39"/><line style="stroke:#181818;stroke-width:0.5;" x1="102" x2="221" y1="47" y2="47"/></g><!--MD5=[298883191722f47d612a790005ce591d]
class ComponentHeader--><g id="elem_ComponentHeader"><rect fill="#F1F1F1" height="48" id="ComponentHeader" rx="2.5" ry="2.5" style="stroke:#181818;stroke-width:0.5;" width="151" x="7" y="241"/><ellipse cx="22" cy="257" fill="#ADD1B2" rx="11" ry="11" style="stroke:#181818;stroke-width:1.0;"/><path d="M24.7656,252.875 Q24.9219,252.6563 25.1094,252.5469 Q25.2969,252.4375 25.5156,252.4375 Q25.8906,252.4375 26.125,252.7031 Q26.3594,252.9531 26.3594,253.5625 L26.3594,255.0156 Q26.3594,255.625 26.125,255.8906 Q25.8906,256.1563 25.5156,256.1563 Q25.1719,256.1563 24.9688,255.9531 Q24.7656,255.7656 24.6563,255.25 Q24.6094,254.8906 24.4219,254.7031 Q24.0938,254.3281 23.4844,254.1094 Q22.875,253.8906 22.25,253.8906 Q21.4844,253.8906 20.8438,254.2188 Q20.2188,254.5469 19.7188,255.2969 Q19.2344,256.0469 19.2344,257.0781 L19.2344,258.1719 Q19.2344,259.4063 20.125,260.2344 Q21.0156,261.0469 22.6094,261.0469 Q23.5469,261.0469 24.2031,260.7969 Q24.5938,260.6406 25.0156,260.2031 Q25.2813,259.9375 25.4219,259.8594 Q25.5781,259.7813 25.7813,259.7813 Q26.1094,259.7813 26.3594,260.0469 Q26.625,260.2969 26.625,260.6406 Q26.625,260.9844 26.2813,261.3906 Q25.7813,261.9688 24.9844,262.2969 Q23.9063,262.75 22.6094,262.75 Q21.0938,262.75 19.8906,262.125 Q18.9063,261.625 18.2188,260.5625 Q17.5313,259.4844 17.5313,258.2031 L17.5313,257.0469 Q17.5313,255.7188 18.1406,254.5781 Q18.7656,253.4219 19.8594,252.8125 Q20.9531,252.1875 22.1875,252.1875 Q22.9219,252.1875 23.5625,252.3594 Q24.2188,252.5156 24.7656,252.875 Z " fill="#000000"/><text fill="#000000" font-family="sans-serif" font-size="14" lengthAdjust="spacing" textLength="119" x="36" y="262.7285">ComponentHeader</text><line style="stroke:#181818;stroke-width:0.5;" x1="8" x2="157" y1="273" y2="273"/><line style="stroke:#181818;stroke-width:0.5;" x1="8" x2="157" y1="281" y2="281"/></g><!--MD5=[41f8c580327acedeef39b1c4413de103]
class ColorField--><g id="elem_ColorField"><rect fill="#F1F1F1" height="48" id="ColorField" rx="2.5" ry="2.5" style="stroke:#181818;stroke-width:0.5;" width="97" x="193" y="241"/><ellipse cx="208" cy="257" fill="#ADD1B2" rx="11" ry="11" style="stroke:#181818;stroke-width:1.0;"/><path d="M210.7656,252.875 Q210.9219,252.6563 211.1094,252.5469 Q211.2969,252.4375 211.5156,252.4375 Q211.8906,252.4375 212.125,252.7031 Q212.3594,252.9531 212.3594,253.5625 L212.3594,255.0156 Q212.3594,255.625 212.125,255.8906 Q211.8906,256.1563 211.5156,256.1563 Q211.1719,256.1563 210.9688,255.9531 Q210.7656,255.7656 210.6563,255.25 Q210.6094,254.8906 210.4219,254.7031 Q210.0938,254.3281 209.4844,254.1094 Q208.875,253.8906 208.25,253.8906 Q207.4844,253.8906 206.8438,254.2188 Q206.2188,254.5469 205.7188,255.2969 Q205.2344,256.0469 205.2344,257.0781 L205.2344,258.1719 Q205.2344,259.4063 206.125,260.2344 Q207.0156,261.0469 208.6094,261.0469 Q209.5469,261.0469 210.2031,260.7969 Q210.5938,260.6406 211.0156,260.2031 Q211.2813,259.9375 211.4219,259.8594 Q211.5781,259.7813 211.7813,259.7813 Q212.1094,259.7813 212.3594,260.0469 Q212.625,260.2969 212.625,260.6406 Q212.625,260.9844 212.2813,261.3906 Q211.7813,261.9688 210.9844,262.2969 Q209.9063,262.75 208.6094,262.75 Q207.0938,262.75 205.8906,262.125 Q204.9063,261.625 204.2188,260.5625 Q203.5313,259.4844 203.5313,258.2031 L203.5313,257.0469 Q203.5313,255.7188 204.1406,254.5781 Q204.7656,253.4219 205.8594,252.8125 Q206.9531,252.1875 208.1875,252.1875 Q208.9219,252.1875 209.5625,252.3594 Q210.2188,252.5156 210.7656,252.875 Z " fill="#000000"/><text fill="#000000" font-family="sans-serif" font-size="14" lengthAdjust="spacing" textLength="65" x="222" y="262.7285">ColorField</text><line style="stroke:#181818;stroke-width:0.5;" x1="194" x2="289" y1="273" y2="273"/><line style="stroke:#181818;stroke-width:0.5;" x1="194" x2="289" y1="281" y2="281"/></g><!--MD5=[1161b2138b1425f4b613357a7191f32d]
reverse link VisualElement to SolidLightView--><g id="link_VisualElement_SolidLightView"><path codeLine="4" d="M161.5,75.62 C161.5,88.56 161.5,102.51 161.5,114.61 " fill="none" id="VisualElement-backto-SolidLightView" style="stroke:#181818;stroke-width:1.0;"/><polygon fill="none" points="154.5,75.27,161.5,55.27,168.5,75.27,154.5,75.27" style="stroke:#181818;stroke-width:1.0;"/></g><!--MD5=[9d1c05d56a4ec68d538ca556f720e10c]
link SolidLightView to ComponentHeader--><g id="link_SolidLightView_ComponentHeader"><path codeLine="5" d="M139.49,181.03 C127.46,198.56 112.7,220.03 101.22,236.75 " fill="none" id="SolidLightView-to-ComponentHeader" style="stroke:#181818;stroke-width:1.0;"/><polygon fill="#181818" points="98.38,240.89,106.787,235.7595,101.2223,236.7765,100.2054,231.2118,98.38,240.89" style="stroke:#181818;stroke-width:1.0;"/><text fill="#000000" font-family="sans-serif" font-size="13" lengthAdjust="spacing" textLength="39" x="58.4524" y="230.202">header</text></g><!--MD5=[c4e96293a0cbe36edf5c9f41a49d31dc]
link SolidLightView to ColorField--><g id="link_SolidLightView_ColorField"><path codeLine="6" d="M183.78,181.03 C195.97,198.56 210.91,220.03 222.54,236.75 " fill="none" id="SolidLightView-to-ColorField" style="stroke:#181818;stroke-width:1.0;"/><polygon fill="#181818" points="225.42,240.89,223.5561,231.2191,222.5613,236.7878,216.9926,235.793,225.42,240.89" style="stroke:#181818;stroke-width:1.0;"/><text fill="#000000" font-family="sans-serif" font-size="13" lengthAdjust="spacing" textLength="28" x="189.712" y="230.202">color</text></g><!--MD5=[d8fc5648a22e763d127db762abb6257e]
@startuml
!include ..\..\..\out_puml\Scripts\Views\SolidLightView.puml
@enduml

@startuml
class SolidLightView {
    + SolidLightView()
}
VisualElement <|- - SolidLightView
SolidLightView - -> "header" ComponentHeader
SolidLightView - -> "color" ColorField
@enduml

PlantUML version 1.2022.5(Sat Apr 30 20:55:52 AEST 2022)
(GPL source distribution)
Java Runtime: Java(TM) SE Runtime Environment
JVM: Java HotSpot(TM) 64-Bit Server VM
Default Encoding: Cp1252
Language: en
Country: AU
--></g></svg>