<?xml version="1.0" encoding="UTF-8" standalone="no"?><svg xmlns="http://www.w3.org/2000/svg" xmlns:xlink="http://www.w3.org/1999/xlink" contentStyleType="text/css" height="401px" preserveAspectRatio="none" style="width:361px;height:401px;background:#FFFFFF;" version="1.1" viewBox="0 0 361 401" width="361px" zoomAndPan="magnify"><defs/><g><!--MD5=[b201e2425d845096b639851a89684e44]
class ModeChangeView--><g id="elem_ModeChangeView"><rect codeLine="1" fill="#F1F1F1" height="171.2656" id="ModeChangeView" rx="2.5" ry="2.5" style="stroke:#181818;stroke-width:0.5;" width="347" x="7" y="115"/><ellipse cx="119.25" cy="131" fill="#ADD1B2" rx="11" ry="11" style="stroke:#181818;stroke-width:1.0;"/><path d="M122.0156,126.875 Q122.1719,126.6563 122.3594,126.5469 Q122.5469,126.4375 122.7656,126.4375 Q123.1406,126.4375 123.375,126.7031 Q123.6094,126.9531 123.6094,127.5625 L123.6094,129.0156 Q123.6094,129.625 123.375,129.8906 Q123.1406,130.1563 122.7656,130.1563 Q122.4219,130.1563 122.2188,129.9531 Q122.0156,129.7656 121.9063,129.25 Q121.8594,128.8906 121.6719,128.7031 Q121.3438,128.3281 120.7344,128.1094 Q120.125,127.8906 119.5,127.8906 Q118.7344,127.8906 118.0938,128.2188 Q117.4688,128.5469 116.9688,129.2969 Q116.4844,130.0469 116.4844,131.0781 L116.4844,132.1719 Q116.4844,133.4063 117.375,134.2344 Q118.2656,135.0469 119.8594,135.0469 Q120.7969,135.0469 121.4531,134.7969 Q121.8438,134.6406 122.2656,134.2031 Q122.5313,133.9375 122.6719,133.8594 Q122.8281,133.7813 123.0313,133.7813 Q123.3594,133.7813 123.6094,134.0469 Q123.875,134.2969 123.875,134.6406 Q123.875,134.9844 123.5313,135.3906 Q123.0313,135.9688 122.2344,136.2969 Q121.1563,136.75 119.8594,136.75 Q118.3438,136.75 117.1406,136.125 Q116.1563,135.625 115.4688,134.5625 Q114.7813,133.4844 114.7813,132.2031 L114.7813,131.0469 Q114.7813,129.7188 115.3906,128.5781 Q116.0156,127.4219 117.1094,126.8125 Q118.2031,126.1875 119.4375,126.1875 Q120.1719,126.1875 120.8125,126.3594 Q121.4688,126.5156 122.0156,126.875 Z " fill="#000000"/><text fill="#000000" font-family="sans-serif" font-size="14" lengthAdjust="spacing" textLength="114" x="139.75" y="136.7285">ModeChangeView</text><line style="stroke:#181818;stroke-width:0.5;" x1="8" x2="353" y1="147" y2="147"/><ellipse cx="18" cy="158" fill="none" rx="3" ry="3" style="stroke:#038048;stroke-width:1.0;"/><text fill="#000000" font-family="sans-serif" font-size="14" lengthAdjust="spacing" textLength="317" x="27" y="165.5332">«event» onModeHasChanged : ModeHasChanged</text><text fill="#000000" font-family="sans-serif" font-size="14" lengthAdjust="spacing" textLength="249" x="27" y="183.1426">hasMoreThanOneWindow : bool = false</text><line style="stroke:#181818;stroke-width:0.5;" x1="8" x2="353" y1="190.2188" y2="190.2188"/><ellipse cx="18" cy="201.2188" fill="#84BE84" rx="3" ry="3" style="stroke:#038048;stroke-width:1.0;"/><text fill="#000000" font-family="sans-serif" font-size="14" lengthAdjust="spacing" textLength="124" x="27" y="208.752">ModeChangeView()</text><ellipse cx="18" cy="218.8281" fill="#84BE84" rx="3" ry="3" style="stroke:#038048;stroke-width:1.0;"/><text fill="#000000" font-family="sans-serif" font-size="14" lengthAdjust="spacing" textLength="262" x="27" y="226.3613">ModeChangeView(numberOfWindows:int)</text><rect fill="#F24D5C" height="6" style="stroke:#C82930;stroke-width:1.0;" width="6" x="15" y="233.4375"/><text fill="#000000" font-family="sans-serif" font-size="14" lengthAdjust="spacing" textLength="321" x="27" y="243.9707">modeChanged(state:PlayModeStateChange) : void</text><rect fill="#F24D5C" height="6" style="stroke:#C82930;stroke-width:1.0;" width="6" x="15" y="251.0469"/><text fill="#000000" font-family="sans-serif" font-size="14" lengthAdjust="spacing" textLength="212" x="27" y="261.5801">AddWarningBox() : VisualElement</text><rect fill="#F24D5C" height="6" style="stroke:#C82930;stroke-width:1.0;" width="6" x="15" y="268.6563"/><text fill="#000000" font-family="sans-serif" font-size="14" lengthAdjust="spacing" textLength="210" x="27" y="279.1895">DisplayWarningDialogBox() : void</text></g><!--MD5=[e77834a0fda1b3f817ae7f2b19e4424d]
class VisualElement--><g id="elem_VisualElement"><rect fill="#F1F1F1" height="48" id="VisualElement" rx="2.5" ry="2.5" style="stroke:#181818;stroke-width:0.5;" width="121" x="120" y="7"/><ellipse cx="135" cy="23" fill="#ADD1B2" rx="11" ry="11" style="stroke:#181818;stroke-width:1.0;"/><path d="M137.7656,18.875 Q137.9219,18.6563 138.1094,18.5469 Q138.2969,18.4375 138.5156,18.4375 Q138.8906,18.4375 139.125,18.7031 Q139.3594,18.9531 139.3594,19.5625 L139.3594,21.0156 Q139.3594,21.625 139.125,21.8906 Q138.8906,22.1563 138.5156,22.1563 Q138.1719,22.1563 137.9688,21.9531 Q137.7656,21.7656 137.6563,21.25 Q137.6094,20.8906 137.4219,20.7031 Q137.0938,20.3281 136.4844,20.1094 Q135.875,19.8906 135.25,19.8906 Q134.4844,19.8906 133.8438,20.2188 Q133.2188,20.5469 132.7188,21.2969 Q132.2344,22.0469 132.2344,23.0781 L132.2344,24.1719 Q132.2344,25.4063 133.125,26.2344 Q134.0156,27.0469 135.6094,27.0469 Q136.5469,27.0469 137.2031,26.7969 Q137.5938,26.6406 138.0156,26.2031 Q138.2813,25.9375 138.4219,25.8594 Q138.5781,25.7813 138.7813,25.7813 Q139.1094,25.7813 139.3594,26.0469 Q139.625,26.2969 139.625,26.6406 Q139.625,26.9844 139.2813,27.3906 Q138.7813,27.9688 137.9844,28.2969 Q136.9063,28.75 135.6094,28.75 Q134.0938,28.75 132.8906,28.125 Q131.9063,27.625 131.2188,26.5625 Q130.5313,25.4844 130.5313,24.2031 L130.5313,23.0469 Q130.5313,21.7188 131.1406,20.5781 Q131.7656,19.4219 132.8594,18.8125 Q133.9531,18.1875 135.1875,18.1875 Q135.9219,18.1875 136.5625,18.3594 Q137.2188,18.5156 137.7656,18.875 Z " fill="#000000"/><text fill="#000000" font-family="sans-serif" font-size="14" lengthAdjust="spacing" textLength="89" x="149" y="28.7285">VisualElement</text><line style="stroke:#181818;stroke-width:0.5;" x1="121" x2="240" y1="39" y2="39"/><line style="stroke:#181818;stroke-width:0.5;" x1="121" x2="240" y1="47" y2="47"/></g><!--MD5=[e84c991d4d3bbf916ee1653c86a9249d]
class Label--><g id="elem_Label"><rect fill="#F1F1F1" height="48" id="Label" rx="2.5" ry="2.5" style="stroke:#181818;stroke-width:0.5;" width="67" x="147" y="346"/><ellipse cx="162" cy="362" fill="#ADD1B2" rx="11" ry="11" style="stroke:#181818;stroke-width:1.0;"/><path d="M164.7656,357.875 Q164.9219,357.6563 165.1094,357.5469 Q165.2969,357.4375 165.5156,357.4375 Q165.8906,357.4375 166.125,357.7031 Q166.3594,357.9531 166.3594,358.5625 L166.3594,360.0156 Q166.3594,360.625 166.125,360.8906 Q165.8906,361.1563 165.5156,361.1563 Q165.1719,361.1563 164.9688,360.9531 Q164.7656,360.7656 164.6563,360.25 Q164.6094,359.8906 164.4219,359.7031 Q164.0938,359.3281 163.4844,359.1094 Q162.875,358.8906 162.25,358.8906 Q161.4844,358.8906 160.8438,359.2188 Q160.2188,359.5469 159.7188,360.2969 Q159.2344,361.0469 159.2344,362.0781 L159.2344,363.1719 Q159.2344,364.4063 160.125,365.2344 Q161.0156,366.0469 162.6094,366.0469 Q163.5469,366.0469 164.2031,365.7969 Q164.5938,365.6406 165.0156,365.2031 Q165.2813,364.9375 165.4219,364.8594 Q165.5781,364.7813 165.7813,364.7813 Q166.1094,364.7813 166.3594,365.0469 Q166.625,365.2969 166.625,365.6406 Q166.625,365.9844 166.2813,366.3906 Q165.7813,366.9688 164.9844,367.2969 Q163.9063,367.75 162.6094,367.75 Q161.0938,367.75 159.8906,367.125 Q158.9063,366.625 158.2188,365.5625 Q157.5313,364.4844 157.5313,363.2031 L157.5313,362.0469 Q157.5313,360.7188 158.1406,359.5781 Q158.7656,358.4219 159.8594,357.8125 Q160.9531,357.1875 162.1875,357.1875 Q162.9219,357.1875 163.5625,357.3594 Q164.2188,357.5156 164.7656,357.875 Z " fill="#000000"/><text fill="#000000" font-family="sans-serif" font-size="14" lengthAdjust="spacing" textLength="35" x="176" y="367.7285">Label</text><line style="stroke:#181818;stroke-width:0.5;" x1="148" x2="213" y1="378" y2="378"/><line style="stroke:#181818;stroke-width:0.5;" x1="148" x2="213" y1="386" y2="386"/></g><!--MD5=[17176c2a72318db6522555485ee13749]
reverse link VisualElement to ModeChangeView--><g id="link_VisualElement_ModeChangeView"><path codeLine="10" d="M180.5,75.7 C180.5,87.74 180.5,101.24 180.5,114.76 " fill="none" id="VisualElement-backto-ModeChangeView" style="stroke:#181818;stroke-width:1.0;"/><polygon fill="none" points="173.5,75.29,180.5,55.29,187.5,75.29,173.5,75.29" style="stroke:#181818;stroke-width:1.0;"/></g><!--MD5=[653478be0f5a71a708a8953ed5bedb61]
link ModeChangeView to Label--><g id="link_ModeChangeView_Label"><path codeLine="11" d="M167.75,286.23 C167.78,305.91 168.75,325.53 170.66,340.72 " fill="none" id="ModeChangeView-to-Label" style="stroke:#181818;stroke-width:1.0;"/><polygon fill="#181818" points="171.35,345.69,174.0791,336.2268,170.6649,340.7372,166.1545,337.323,171.35,345.69" style="stroke:#181818;stroke-width:1.0;"/><text fill="#000000" font-family="sans-serif" font-size="13" lengthAdjust="spacing" textLength="27" x="138.5459" y="334.9507">label</text></g><!--MD5=[653478be0f5a71a708a8953ed5bedb61]
link ModeChangeView to Label--><g id="link_ModeChangeView_Label"><path codeLine="12" d="M194,286.23 C193.97,305.91 192.94,325.53 190.92,340.72 " fill="none" id="ModeChangeView-to-Label-1" style="stroke:#181818;stroke-width:1.0;"/><polygon fill="#181818" points="190.19,345.69,195.4361,337.3546,190.9051,340.7414,187.5183,336.2104,190.19,345.69" style="stroke:#181818;stroke-width:1.0;"/><text fill="#000000" font-family="sans-serif" font-size="13" lengthAdjust="spacing" textLength="10" x="181.3918" y="334.9507">lb</text></g><!--MD5=[0a09bc4f1f1a3e64b697cd36b157b482]
@startuml
!include ..\..\..\out_puml\Scripts\Views\ModeChangeView.puml
@enduml

@startuml
class ModeChangeView {
    +  <<event>> onModeHasChanged : ModeHasChanged 
    hasMoreThanOneWindow : bool = false
    + ModeChangeView()
    + ModeChangeView(numberOfWindows:int)
    - modeChanged(state:PlayModeStateChange) : void
    - AddWarningBox() : VisualElement
    - DisplayWarningDialogBox() : void
}
VisualElement <|- - ModeChangeView
ModeChangeView - -> "label" Label
ModeChangeView - -> "lb" Label
@enduml

PlantUML version 1.2022.5(Sat Apr 30 20:55:52 AEST 2022)
(GPL source distribution)
Java Runtime: Java(TM) SE Runtime Environment
JVM: Java HotSpot(TM) 64-Bit Server VM
Default Encoding: Cp1252
Language: en
Country: AU
--></g></svg>