<?xml version="1.0" encoding="UTF-8" standalone="no"?><svg xmlns="http://www.w3.org/2000/svg" xmlns:xlink="http://www.w3.org/1999/xlink" contentStyleType="text/css" height="393px" preserveAspectRatio="none" style="width:1470px;height:393px;background:#FFFFFF;" version="1.1" viewBox="0 0 1470 393" width="1470px" zoomAndPan="magnify"><defs/><g><!--MD5=[2b1bb9161d0e33bd14f2e5a3fbcdebac]
class AmbientLightingModel--><g id="elem_AmbientLightingModel"><rect codeLine="1" fill="#F1F1F1" height="100.8281" id="AmbientLightingModel" rx="2.5" ry="2.5" style="stroke:#181818;stroke-width:0.5;" width="264" x="510" y="118.5"/><ellipse cx="568.25" cy="134.5" fill="#ADD1B2" rx="11" ry="11" style="stroke:#181818;stroke-width:1.0;"/><path d="M571.0156,130.375 Q571.1719,130.1563 571.3594,130.0469 Q571.5469,129.9375 571.7656,129.9375 Q572.1406,129.9375 572.375,130.2031 Q572.6094,130.4531 572.6094,131.0625 L572.6094,132.5156 Q572.6094,133.125 572.375,133.3906 Q572.1406,133.6563 571.7656,133.6563 Q571.4219,133.6563 571.2188,133.4531 Q571.0156,133.2656 570.9063,132.75 Q570.8594,132.3906 570.6719,132.2031 Q570.3438,131.8281 569.7344,131.6094 Q569.125,131.3906 568.5,131.3906 Q567.7344,131.3906 567.0938,131.7188 Q566.4688,132.0469 565.9688,132.7969 Q565.4844,133.5469 565.4844,134.5781 L565.4844,135.6719 Q565.4844,136.9063 566.375,137.7344 Q567.2656,138.5469 568.8594,138.5469 Q569.7969,138.5469 570.4531,138.2969 Q570.8438,138.1406 571.2656,137.7031 Q571.5313,137.4375 571.6719,137.3594 Q571.8281,137.2813 572.0313,137.2813 Q572.3594,137.2813 572.6094,137.5469 Q572.875,137.7969 572.875,138.1406 Q572.875,138.4844 572.5313,138.8906 Q572.0313,139.4688 571.2344,139.7969 Q570.1563,140.25 568.8594,140.25 Q567.3438,140.25 566.1406,139.625 Q565.1563,139.125 564.4688,138.0625 Q563.7813,136.9844 563.7813,135.7031 L563.7813,134.5469 Q563.7813,133.2188 564.3906,132.0781 Q565.0156,130.9219 566.1094,130.3125 Q567.2031,129.6875 568.4375,129.6875 Q569.1719,129.6875 569.8125,129.8594 Q570.4688,130.0156 571.0156,130.375 Z " fill="#000000"/><text fill="#000000" font-family="sans-serif" font-size="14" lengthAdjust="spacing" textLength="139" x="588.75" y="140.2285">AmbientLightingModel</text><line style="stroke:#181818;stroke-width:0.5;" x1="511" x2="773" y1="150.5" y2="150.5"/><ellipse cx="521" cy="161.5" fill="none" rx="3" ry="3" style="stroke:#038048;stroke-width:1.0;"/><text fill="#000000" font-family="sans-serif" font-size="14" lengthAdjust="spacing" textLength="191" x="530" y="169.0332">ambientLightingChoice : string</text><line style="stroke:#181818;stroke-width:0.5;" x1="511" x2="773" y1="176.1094" y2="176.1094"/><ellipse cx="521" cy="187.1094" fill="#84BE84" rx="3" ry="3" style="stroke:#038048;stroke-width:1.0;"/><text fill="#000000" font-family="sans-serif" font-size="14" lengthAdjust="spacing" textLength="197" x="530" y="194.6426">«override» OnChanged() : void</text><ellipse cx="521" cy="204.7188" fill="#84BE84" rx="3" ry="3" style="stroke:#038048;stroke-width:1.0;"/><text fill="#000000" font-family="sans-serif" font-size="14" lengthAdjust="spacing" textLength="238" x="530" y="212.252">«override» CreateUI() : VisualElement</text></g><!--MD5=[e644022de7dea015dd09463c37421447]
class List`1--><g id="elem_List`1"><rect codeLine="6" fill="#F1F1F1" height="48" id="List`1" rx="2.5" ry="2.5" style="stroke:#181818;stroke-width:0.5;" width="78" x="603" y="255"/><ellipse cx="618" cy="271" fill="#ADD1B2" rx="11" ry="11" style="stroke:#181818;stroke-width:1.0;"/><path d="M620.7656,266.875 Q620.9219,266.6563 621.1094,266.5469 Q621.2969,266.4375 621.5156,266.4375 Q621.8906,266.4375 622.125,266.7031 Q622.3594,266.9531 622.3594,267.5625 L622.3594,269.0156 Q622.3594,269.625 622.125,269.8906 Q621.8906,270.1563 621.5156,270.1563 Q621.1719,270.1563 620.9688,269.9531 Q620.7656,269.7656 620.6563,269.25 Q620.6094,268.8906 620.4219,268.7031 Q620.0938,268.3281 619.4844,268.1094 Q618.875,267.8906 618.25,267.8906 Q617.4844,267.8906 616.8438,268.2188 Q616.2188,268.5469 615.7188,269.2969 Q615.2344,270.0469 615.2344,271.0781 L615.2344,272.1719 Q615.2344,273.4063 616.125,274.2344 Q617.0156,275.0469 618.6094,275.0469 Q619.5469,275.0469 620.2031,274.7969 Q620.5938,274.6406 621.0156,274.2031 Q621.2813,273.9375 621.4219,273.8594 Q621.5781,273.7813 621.7813,273.7813 Q622.1094,273.7813 622.3594,274.0469 Q622.625,274.2969 622.625,274.6406 Q622.625,274.9844 622.2813,275.3906 Q621.7813,275.9688 620.9844,276.2969 Q619.9063,276.75 618.6094,276.75 Q617.0938,276.75 615.8906,276.125 Q614.9063,275.625 614.2188,274.5625 Q613.5313,273.4844 613.5313,272.2031 L613.5313,271.0469 Q613.5313,269.7188 614.1406,268.5781 Q614.7656,267.4219 615.8594,266.8125 Q616.9531,266.1875 618.1875,266.1875 Q618.9219,266.1875 619.5625,266.3594 Q620.2188,266.5156 620.7656,266.875 Z " fill="#000000"/><text fill="#000000" font-family="sans-serif" font-size="14" lengthAdjust="spacing" textLength="35" x="632" y="276.7285">List`1</text><rect fill="#FFFFFF" height="17.0938" style="stroke:#000000;stroke-width:1.0;stroke-dasharray:2.0,2.0;" width="9" x="675" y="252"/><text fill="#000000" font-family="sans-serif" font-size="12" font-style="italic" lengthAdjust="spacing" textLength="7" x="676" y="265.457">T</text><line style="stroke:#181818;stroke-width:0.5;" x1="604" x2="680" y1="287" y2="287"/><line style="stroke:#181818;stroke-width:0.5;" x1="604" x2="680" y1="295" y2="295"/></g><!--MD5=[7e20e022571e30ec1001cf6eabd7f3e2]
class Model--><g id="elem_Model"><rect codeLine="1" fill="#F1F1F1" height="224.0938" id="Model" rx="2.5" ry="2.5" style="stroke:#181818;stroke-width:0.5;" width="250" x="199" y="57"/><ellipse cx="300.25" cy="73" fill="#A9DCDF" rx="11" ry="11" style="stroke:#181818;stroke-width:1.0;"/><path d="M302.4375,74.7656 L298.2969,74.7656 L297.875,75.7969 L298.2969,75.7969 Q298.9063,75.7969 299.1719,76.0313 Q299.4375,76.2656 299.4375,76.6563 Q299.4375,77.0313 299.1719,77.2656 Q298.9063,77.5 298.2969,77.5 L296,77.5 Q295.3906,77.5 295.1406,77.2656 Q294.875,77.0313 294.875,76.6406 Q294.875,76.2656 295.1563,76.0313 Q295.4219,75.7813 296.0469,75.7969 L298.7188,69.1406 L297.6094,69.1406 Q297,69.1406 296.7344,68.9063 Q296.4688,68.6719 296.4688,68.2813 Q296.4688,67.9063 296.7344,67.6719 Q297,67.4375 297.6094,67.4375 L301.2813,67.4375 L304.6719,75.7969 Q305.2656,75.7969 305.4531,75.9375 Q305.8438,76.2031 305.8438,76.6563 Q305.8438,77.0313 305.5781,77.2656 Q305.3281,77.5 304.7188,77.5 L302.4219,77.5 Q301.8125,77.5 301.5469,77.2656 Q301.2813,77.0313 301.2813,76.6406 Q301.2813,76.2656 301.5469,76.0313 Q301.8125,75.7969 302.4219,75.7969 L302.8438,75.7969 L302.4375,74.7656 Z M301.7188,73.0625 L300.3594,69.6875 L298.9844,73.0625 L301.7188,73.0625 Z " fill="#000000"/><text fill="#000000" font-family="sans-serif" font-size="14" font-style="italic" lengthAdjust="spacing" textLength="39" x="320.75" y="78.7285">Model</text><line style="stroke:#181818;stroke-width:0.5;" x1="200" x2="448" y1="89" y2="89"/><text fill="#000000" font-family="sans-serif" font-size="14" lengthAdjust="spacing" textLength="164" x="219" y="107.5332">shoudUpdate : bool = true</text><ellipse cx="210" cy="117.6094" fill="none" rx="3" ry="3" style="stroke:#038048;stroke-width:1.0;"/><text fill="#000000" font-family="sans-serif" font-size="14" lengthAdjust="spacing" textLength="154" x="219" y="125.1426">shouldDraw : bool = true</text><line style="stroke:#181818;stroke-width:0.5;" x1="200" x2="448" y1="132.2188" y2="132.2188"/><ellipse cx="210" cy="143.2188" fill="#84BE84" rx="3" ry="3" style="stroke:#038048;stroke-width:1.0;"/><text fill="#000000" font-family="sans-serif" font-size="14" lengthAdjust="spacing" textLength="136" x="219" y="150.752">«virtual» Start() : void</text><ellipse cx="210" cy="160.8281" fill="#84BE84" rx="3" ry="3" style="stroke:#038048;stroke-width:1.0;"/><text fill="#000000" font-family="sans-serif" font-size="14" lengthAdjust="spacing" textLength="224" x="219" y="168.3613">«virtual» CreateUI() : VisualElement</text><ellipse cx="210" cy="178.4375" fill="#84BE84" rx="3" ry="3" style="stroke:#038048;stroke-width:1.0;"/><text fill="#000000" font-family="sans-serif" font-size="14" lengthAdjust="spacing" textLength="183" x="219" y="185.9707">«virtual» OnChanged() : void</text><polygon fill="#FFFF44" points="210,191.0469,214,195.0469,210,199.0469,206,195.0469" style="stroke:#B38D22;stroke-width:1.0;"/><text fill="#000000" font-family="sans-serif" font-size="14" lengthAdjust="spacing" textLength="151" x="219" y="203.5801">«virtual» Update() : void</text><ellipse cx="210" cy="213.6563" fill="#84BE84" rx="3" ry="3" style="stroke:#038048;stroke-width:1.0;"/><text fill="#000000" font-family="sans-serif" font-size="14" lengthAdjust="spacing" textLength="180" x="219" y="221.1895">UpdateOnNextFrame() : void</text><ellipse cx="210" cy="231.2656" fill="#84BE84" rx="3" ry="3" style="stroke:#038048;stroke-width:1.0;"/><text fill="#000000" font-family="sans-serif" font-size="14" lengthAdjust="spacing" textLength="111" x="219" y="238.7988">OnEnable() : void</text><ellipse cx="210" cy="248.875" fill="#84BE84" rx="3" ry="3" style="stroke:#038048;stroke-width:1.0;"/><text fill="#000000" font-family="sans-serif" font-size="14" lengthAdjust="spacing" textLength="114" x="219" y="256.4082">OnDisable() : void</text><ellipse cx="210" cy="266.4844" fill="#84BE84" rx="3" ry="3" style="stroke:#038048;stroke-width:1.0;"/><text fill="#000000" font-family="sans-serif" font-size="14" lengthAdjust="spacing" textLength="118" x="219" y="274.0176">OnValidate() : void</text></g><!--MD5=[18eee71c88ab61f27581b8cbdd3ef5ee]
class Color--><g id="elem_Color"><rect fill="#F1F1F1" height="48" id="Color" rx="2.5" ry="2.5" style="stroke:#181818;stroke-width:0.5;" width="66" x="609" y="338"/><ellipse cx="624" cy="354" fill="#ADD1B2" rx="11" ry="11" style="stroke:#181818;stroke-width:1.0;"/><path d="M626.7656,349.875 Q626.9219,349.6563 627.1094,349.5469 Q627.2969,349.4375 627.5156,349.4375 Q627.8906,349.4375 628.125,349.7031 Q628.3594,349.9531 628.3594,350.5625 L628.3594,352.0156 Q628.3594,352.625 628.125,352.8906 Q627.8906,353.1563 627.5156,353.1563 Q627.1719,353.1563 626.9688,352.9531 Q626.7656,352.7656 626.6563,352.25 Q626.6094,351.8906 626.4219,351.7031 Q626.0938,351.3281 625.4844,351.1094 Q624.875,350.8906 624.25,350.8906 Q623.4844,350.8906 622.8438,351.2188 Q622.2188,351.5469 621.7188,352.2969 Q621.2344,353.0469 621.2344,354.0781 L621.2344,355.1719 Q621.2344,356.4063 622.125,357.2344 Q623.0156,358.0469 624.6094,358.0469 Q625.5469,358.0469 626.2031,357.7969 Q626.5938,357.6406 627.0156,357.2031 Q627.2813,356.9375 627.4219,356.8594 Q627.5781,356.7813 627.7813,356.7813 Q628.1094,356.7813 628.3594,357.0469 Q628.625,357.2969 628.625,357.6406 Q628.625,357.9844 628.2813,358.3906 Q627.7813,358.9688 626.9844,359.2969 Q625.9063,359.75 624.6094,359.75 Q623.0938,359.75 621.8906,359.125 Q620.9063,358.625 620.2188,357.5625 Q619.5313,356.4844 619.5313,355.2031 L619.5313,354.0469 Q619.5313,352.7188 620.1406,351.5781 Q620.7656,350.4219 621.8594,349.8125 Q622.9531,349.1875 624.1875,349.1875 Q624.9219,349.1875 625.5625,349.3594 Q626.2188,349.5156 626.7656,349.875 Z " fill="#000000"/><text fill="#000000" font-family="sans-serif" font-size="14" lengthAdjust="spacing" textLength="34" x="638" y="359.7285">Color</text><line style="stroke:#181818;stroke-width:0.5;" x1="610" x2="674" y1="370" y2="370"/><line style="stroke:#181818;stroke-width:0.5;" x1="610" x2="674" y1="378" y2="378"/></g><!--MD5=[83b3cf3d23d77c6f1e1b5291a241bc2a]
class MonoBehaviour--><g id="elem_MonoBehaviour"><rect fill="#F1F1F1" height="48" id="MonoBehaviour" rx="2.5" ry="2.5" style="stroke:#181818;stroke-width:0.5;" width="131" x="7" y="145"/><ellipse cx="22" cy="161" fill="#ADD1B2" rx="11" ry="11" style="stroke:#181818;stroke-width:1.0;"/><path d="M24.7656,156.875 Q24.9219,156.6563 25.1094,156.5469 Q25.2969,156.4375 25.5156,156.4375 Q25.8906,156.4375 26.125,156.7031 Q26.3594,156.9531 26.3594,157.5625 L26.3594,159.0156 Q26.3594,159.625 26.125,159.8906 Q25.8906,160.1563 25.5156,160.1563 Q25.1719,160.1563 24.9688,159.9531 Q24.7656,159.7656 24.6563,159.25 Q24.6094,158.8906 24.4219,158.7031 Q24.0938,158.3281 23.4844,158.1094 Q22.875,157.8906 22.25,157.8906 Q21.4844,157.8906 20.8438,158.2188 Q20.2188,158.5469 19.7188,159.2969 Q19.2344,160.0469 19.2344,161.0781 L19.2344,162.1719 Q19.2344,163.4063 20.125,164.2344 Q21.0156,165.0469 22.6094,165.0469 Q23.5469,165.0469 24.2031,164.7969 Q24.5938,164.6406 25.0156,164.2031 Q25.2813,163.9375 25.4219,163.8594 Q25.5781,163.7813 25.7813,163.7813 Q26.1094,163.7813 26.3594,164.0469 Q26.625,164.2969 26.625,164.6406 Q26.625,164.9844 26.2813,165.3906 Q25.7813,165.9688 24.9844,166.2969 Q23.9063,166.75 22.6094,166.75 Q21.0938,166.75 19.8906,166.125 Q18.9063,165.625 18.2188,164.5625 Q17.5313,163.4844 17.5313,162.2031 L17.5313,161.0469 Q17.5313,159.7188 18.1406,158.5781 Q18.7656,157.4219 19.8594,156.8125 Q20.9531,156.1875 22.1875,156.1875 Q22.9219,156.1875 23.5625,156.3594 Q24.2188,156.5156 24.7656,156.875 Z " fill="#000000"/><text fill="#000000" font-family="sans-serif" font-size="14" lengthAdjust="spacing" textLength="99" x="36" y="166.7285">MonoBehaviour</text><line style="stroke:#181818;stroke-width:0.5;" x1="8" x2="137" y1="177" y2="177"/><line style="stroke:#181818;stroke-width:0.5;" x1="8" x2="137" y1="185" y2="185"/></g><!--MD5=[d6e9188767775bb3a8d8a86e7a275c96]
class AmbientLightingView--><g id="elem_AmbientLightingView"><rect codeLine="1" fill="#F1F1F1" height="65.6094" id="AmbientLightingView" rx="2.5" ry="2.5" style="stroke:#181818;stroke-width:0.5;" width="372" x="879" y="81"/><ellipse cx="995.75" cy="97" fill="#ADD1B2" rx="11" ry="11" style="stroke:#181818;stroke-width:1.0;"/><path d="M998.5156,92.875 Q998.6719,92.6563 998.8594,92.5469 Q999.0469,92.4375 999.2656,92.4375 Q999.6406,92.4375 999.875,92.7031 Q1000.1094,92.9531 1000.1094,93.5625 L1000.1094,95.0156 Q1000.1094,95.625 999.875,95.8906 Q999.6406,96.1563 999.2656,96.1563 Q998.9219,96.1563 998.7188,95.9531 Q998.5156,95.7656 998.4063,95.25 Q998.3594,94.8906 998.1719,94.7031 Q997.8438,94.3281 997.2344,94.1094 Q996.625,93.8906 996,93.8906 Q995.2344,93.8906 994.5938,94.2188 Q993.9688,94.5469 993.4688,95.2969 Q992.9844,96.0469 992.9844,97.0781 L992.9844,98.1719 Q992.9844,99.4063 993.875,100.2344 Q994.7656,101.0469 996.3594,101.0469 Q997.2969,101.0469 997.9531,100.7969 Q998.3438,100.6406 998.7656,100.2031 Q999.0313,99.9375 999.1719,99.8594 Q999.3281,99.7813 999.5313,99.7813 Q999.8594,99.7813 1000.1094,100.0469 Q1000.375,100.2969 1000.375,100.6406 Q1000.375,100.9844 1000.0313,101.3906 Q999.5313,101.9688 998.7344,102.2969 Q997.6563,102.75 996.3594,102.75 Q994.8438,102.75 993.6406,102.125 Q992.6563,101.625 991.9688,100.5625 Q991.2813,99.4844 991.2813,98.2031 L991.2813,97.0469 Q991.2813,95.7188 991.8906,94.5781 Q992.5156,93.4219 993.6094,92.8125 Q994.7031,92.1875 995.9375,92.1875 Q996.6719,92.1875 997.3125,92.3594 Q997.9688,92.5156 998.5156,92.875 Z " fill="#000000"/><text fill="#000000" font-family="sans-serif" font-size="14" lengthAdjust="spacing" textLength="130" x="1016.25" y="102.7285">AmbientLightingView</text><line style="stroke:#181818;stroke-width:0.5;" x1="880" x2="1250" y1="113" y2="113"/><line style="stroke:#181818;stroke-width:0.5;" x1="880" x2="1250" y1="121" y2="121"/><ellipse cx="890" cy="132" fill="#84BE84" rx="3" ry="3" style="stroke:#038048;stroke-width:1.0;"/><text fill="#000000" font-family="sans-serif" font-size="14" lengthAdjust="spacing" textLength="346" x="899" y="139.5332">AmbientLightingView(choices:List&lt;string&gt;, value:string)</text></g><!--MD5=[e77834a0fda1b3f817ae7f2b19e4424d]
class VisualElement--><g id="elem_VisualElement"><rect fill="#F1F1F1" height="48" id="VisualElement" rx="2.5" ry="2.5" style="stroke:#181818;stroke-width:0.5;" width="121" x="581.5" y="35"/><ellipse cx="596.5" cy="51" fill="#ADD1B2" rx="11" ry="11" style="stroke:#181818;stroke-width:1.0;"/><path d="M599.2656,46.875 Q599.4219,46.6563 599.6094,46.5469 Q599.7969,46.4375 600.0156,46.4375 Q600.3906,46.4375 600.625,46.7031 Q600.8594,46.9531 600.8594,47.5625 L600.8594,49.0156 Q600.8594,49.625 600.625,49.8906 Q600.3906,50.1563 600.0156,50.1563 Q599.6719,50.1563 599.4688,49.9531 Q599.2656,49.7656 599.1563,49.25 Q599.1094,48.8906 598.9219,48.7031 Q598.5938,48.3281 597.9844,48.1094 Q597.375,47.8906 596.75,47.8906 Q595.9844,47.8906 595.3438,48.2188 Q594.7188,48.5469 594.2188,49.2969 Q593.7344,50.0469 593.7344,51.0781 L593.7344,52.1719 Q593.7344,53.4063 594.625,54.2344 Q595.5156,55.0469 597.1094,55.0469 Q598.0469,55.0469 598.7031,54.7969 Q599.0938,54.6406 599.5156,54.2031 Q599.7813,53.9375 599.9219,53.8594 Q600.0781,53.7813 600.2813,53.7813 Q600.6094,53.7813 600.8594,54.0469 Q601.125,54.2969 601.125,54.6406 Q601.125,54.9844 600.7813,55.3906 Q600.2813,55.9688 599.4844,56.2969 Q598.4063,56.75 597.1094,56.75 Q595.5938,56.75 594.3906,56.125 Q593.4063,55.625 592.7188,54.5625 Q592.0313,53.4844 592.0313,52.2031 L592.0313,51.0469 Q592.0313,49.7188 592.6406,48.5781 Q593.2656,47.4219 594.3594,46.8125 Q595.4531,46.1875 596.6875,46.1875 Q597.4219,46.1875 598.0625,46.3594 Q598.7188,46.5156 599.2656,46.875 Z " fill="#000000"/><text fill="#000000" font-family="sans-serif" font-size="14" lengthAdjust="spacing" textLength="89" x="610.5" y="56.7285">VisualElement</text><line style="stroke:#181818;stroke-width:0.5;" x1="582.5" x2="701.5" y1="67" y2="67"/><line style="stroke:#181818;stroke-width:0.5;" x1="582.5" x2="701.5" y1="75" y2="75"/></g><!--MD5=[298883191722f47d612a790005ce591d]
class ComponentHeader--><g id="elem_ComponentHeader"><rect fill="#F1F1F1" height="48" id="ComponentHeader" rx="2.5" ry="2.5" style="stroke:#181818;stroke-width:0.5;" width="151" x="1312" y="7"/><ellipse cx="1327" cy="23" fill="#ADD1B2" rx="11" ry="11" style="stroke:#181818;stroke-width:1.0;"/><path d="M1329.7656,18.875 Q1329.9219,18.6563 1330.1094,18.5469 Q1330.2969,18.4375 1330.5156,18.4375 Q1330.8906,18.4375 1331.125,18.7031 Q1331.3594,18.9531 1331.3594,19.5625 L1331.3594,21.0156 Q1331.3594,21.625 1331.125,21.8906 Q1330.8906,22.1563 1330.5156,22.1563 Q1330.1719,22.1563 1329.9688,21.9531 Q1329.7656,21.7656 1329.6563,21.25 Q1329.6094,20.8906 1329.4219,20.7031 Q1329.0938,20.3281 1328.4844,20.1094 Q1327.875,19.8906 1327.25,19.8906 Q1326.4844,19.8906 1325.8438,20.2188 Q1325.2188,20.5469 1324.7188,21.2969 Q1324.2344,22.0469 1324.2344,23.0781 L1324.2344,24.1719 Q1324.2344,25.4063 1325.125,26.2344 Q1326.0156,27.0469 1327.6094,27.0469 Q1328.5469,27.0469 1329.2031,26.7969 Q1329.5938,26.6406 1330.0156,26.2031 Q1330.2813,25.9375 1330.4219,25.8594 Q1330.5781,25.7813 1330.7813,25.7813 Q1331.1094,25.7813 1331.3594,26.0469 Q1331.625,26.2969 1331.625,26.6406 Q1331.625,26.9844 1331.2813,27.3906 Q1330.7813,27.9688 1329.9844,28.2969 Q1328.9063,28.75 1327.6094,28.75 Q1326.0938,28.75 1324.8906,28.125 Q1323.9063,27.625 1323.2188,26.5625 Q1322.5313,25.4844 1322.5313,24.2031 L1322.5313,23.0469 Q1322.5313,21.7188 1323.1406,20.5781 Q1323.7656,19.4219 1324.8594,18.8125 Q1325.9531,18.1875 1327.1875,18.1875 Q1327.9219,18.1875 1328.5625,18.3594 Q1329.2188,18.5156 1329.7656,18.875 Z " fill="#000000"/><text fill="#000000" font-family="sans-serif" font-size="14" lengthAdjust="spacing" textLength="119" x="1341" y="28.7285">ComponentHeader</text><line style="stroke:#181818;stroke-width:0.5;" x1="1313" x2="1462" y1="39" y2="39"/><line style="stroke:#181818;stroke-width:0.5;" x1="1313" x2="1462" y1="47" y2="47"/></g><!--MD5=[41f8c580327acedeef39b1c4413de103]
class ColorField--><g id="elem_ColorField"><rect fill="#F1F1F1" height="48" id="ColorField" rx="2.5" ry="2.5" style="stroke:#181818;stroke-width:0.5;" width="97" x="1339" y="90"/><ellipse cx="1354" cy="106" fill="#ADD1B2" rx="11" ry="11" style="stroke:#181818;stroke-width:1.0;"/><path d="M1356.7656,101.875 Q1356.9219,101.6563 1357.1094,101.5469 Q1357.2969,101.4375 1357.5156,101.4375 Q1357.8906,101.4375 1358.125,101.7031 Q1358.3594,101.9531 1358.3594,102.5625 L1358.3594,104.0156 Q1358.3594,104.625 1358.125,104.8906 Q1357.8906,105.1563 1357.5156,105.1563 Q1357.1719,105.1563 1356.9688,104.9531 Q1356.7656,104.7656 1356.6563,104.25 Q1356.6094,103.8906 1356.4219,103.7031 Q1356.0938,103.3281 1355.4844,103.1094 Q1354.875,102.8906 1354.25,102.8906 Q1353.4844,102.8906 1352.8438,103.2188 Q1352.2188,103.5469 1351.7188,104.2969 Q1351.2344,105.0469 1351.2344,106.0781 L1351.2344,107.1719 Q1351.2344,108.4063 1352.125,109.2344 Q1353.0156,110.0469 1354.6094,110.0469 Q1355.5469,110.0469 1356.2031,109.7969 Q1356.5938,109.6406 1357.0156,109.2031 Q1357.2813,108.9375 1357.4219,108.8594 Q1357.5781,108.7813 1357.7813,108.7813 Q1358.1094,108.7813 1358.3594,109.0469 Q1358.625,109.2969 1358.625,109.6406 Q1358.625,109.9844 1358.2813,110.3906 Q1357.7813,110.9688 1356.9844,111.2969 Q1355.9063,111.75 1354.6094,111.75 Q1353.0938,111.75 1351.8906,111.125 Q1350.9063,110.625 1350.2188,109.5625 Q1349.5313,108.4844 1349.5313,107.2031 L1349.5313,106.0469 Q1349.5313,104.7188 1350.1406,103.5781 Q1350.7656,102.4219 1351.8594,101.8125 Q1352.9531,101.1875 1354.1875,101.1875 Q1354.9219,101.1875 1355.5625,101.3594 Q1356.2188,101.5156 1356.7656,101.875 Z " fill="#000000"/><text fill="#000000" font-family="sans-serif" font-size="14" lengthAdjust="spacing" textLength="65" x="1368" y="111.7285">ColorField</text><line style="stroke:#181818;stroke-width:0.5;" x1="1340" x2="1435" y1="122" y2="122"/><line style="stroke:#181818;stroke-width:0.5;" x1="1340" x2="1435" y1="130" y2="130"/></g><!--MD5=[e9b5ee0446a42629a7416d22a027c116]
class DropdownField--><g id="elem_DropdownField"><rect fill="#F1F1F1" height="48" id="DropdownField" rx="2.5" ry="2.5" style="stroke:#181818;stroke-width:0.5;" width="127" x="1324" y="173"/><ellipse cx="1339" cy="189" fill="#ADD1B2" rx="11" ry="11" style="stroke:#181818;stroke-width:1.0;"/><path d="M1341.7656,184.875 Q1341.9219,184.6563 1342.1094,184.5469 Q1342.2969,184.4375 1342.5156,184.4375 Q1342.8906,184.4375 1343.125,184.7031 Q1343.3594,184.9531 1343.3594,185.5625 L1343.3594,187.0156 Q1343.3594,187.625 1343.125,187.8906 Q1342.8906,188.1563 1342.5156,188.1563 Q1342.1719,188.1563 1341.9688,187.9531 Q1341.7656,187.7656 1341.6563,187.25 Q1341.6094,186.8906 1341.4219,186.7031 Q1341.0938,186.3281 1340.4844,186.1094 Q1339.875,185.8906 1339.25,185.8906 Q1338.4844,185.8906 1337.8438,186.2188 Q1337.2188,186.5469 1336.7188,187.2969 Q1336.2344,188.0469 1336.2344,189.0781 L1336.2344,190.1719 Q1336.2344,191.4063 1337.125,192.2344 Q1338.0156,193.0469 1339.6094,193.0469 Q1340.5469,193.0469 1341.2031,192.7969 Q1341.5938,192.6406 1342.0156,192.2031 Q1342.2813,191.9375 1342.4219,191.8594 Q1342.5781,191.7813 1342.7813,191.7813 Q1343.1094,191.7813 1343.3594,192.0469 Q1343.625,192.2969 1343.625,192.6406 Q1343.625,192.9844 1343.2813,193.3906 Q1342.7813,193.9688 1341.9844,194.2969 Q1340.9063,194.75 1339.6094,194.75 Q1338.0938,194.75 1336.8906,194.125 Q1335.9063,193.625 1335.2188,192.5625 Q1334.5313,191.4844 1334.5313,190.2031 L1334.5313,189.0469 Q1334.5313,187.7188 1335.1406,186.5781 Q1335.7656,185.4219 1336.8594,184.8125 Q1337.9531,184.1875 1339.1875,184.1875 Q1339.9219,184.1875 1340.5625,184.3594 Q1341.2188,184.5156 1341.7656,184.875 Z " fill="#000000"/><text fill="#000000" font-family="sans-serif" font-size="14" lengthAdjust="spacing" textLength="95" x="1353" y="194.7285">DropdownField</text><line style="stroke:#181818;stroke-width:0.5;" x1="1325" x2="1450" y1="205" y2="205"/><line style="stroke:#181818;stroke-width:0.5;" x1="1325" x2="1450" y1="213" y2="213"/></g><!--MD5=[df0b04ccc0204a8504b018b9c65e6653]
reverse link Model to AmbientLightingModel--><g id="link_Model_AmbientLightingModel"><path codeLine="8" d="M469.66,169 C483.08,169 496.63,169 509.91,169 " fill="none" id="Model-backto-AmbientLightingModel" style="stroke:#181818;stroke-width:1.0;"/><polygon fill="none" points="469.44,176,449.44,169,469.44,162,469.44,176" style="stroke:#181818;stroke-width:1.0;"/></g><!--MD5=[f00c7b4aa496f38d781de36d6a124d50]
link AmbientLightingModel to Color--><g id="link_AmbientLightingModel_Color"><path codeLine="9" d="M502.4729,227.5091 C502.4729,227.5091 485.38,245.35 479.5,255.5 C468.81,273.96 468.81,285.04 479.5,303.5 C502.6,343.39 556.57,356.47 595.99,360.55 " fill="none" id="AmbientLightingModel-Color" style="stroke:#181818;stroke-width:1.0;"/><polygon fill="#181818" points="609,361.63,600.3602,356.9019,604.017,361.218,599.701,364.8747,609,361.63" style="stroke:#181818;stroke-width:1.0;"/><line style="stroke:#181818;stroke-width:1.0;" x1="604.017" x2="596.045" y1="361.218" y2="360.555"/><polygon fill="none" points="511.61,219.73,504.4484,220.5738,502.4729,227.5091,509.6345,226.6652,511.61,219.73" style="stroke:#181818;stroke-width:1.0;"/><text fill="#000000" font-family="sans-serif" font-size="13" lengthAdjust="spacing" textLength="83" x="517.8516" y="375.9789">ambientColour</text></g><!--MD5=[0a237f77bff2560a394ada8eb1000248]
link AmbientLightingModel to List`1--><g id="link_AmbientLightingModel_List`1"><path codeLine="10" d="M642,231.69 C642,231.69 642,238.74 642,241.72 " fill="none" id="AmbientLightingModel-List`1" style="stroke:#181818;stroke-width:1.0;"/><polygon fill="#181818" points="642,254.94,646,245.94,642,249.94,638,245.94,642,254.94" style="stroke:#181818;stroke-width:1.0;"/><line style="stroke:#181818;stroke-width:1.0;" x1="642" x2="642" y1="249.94" y2="241.94"/><polygon fill="none" points="642,219.69,638,225.69,642,231.69,646,225.69,642,219.69" style="stroke:#181818;stroke-width:1.0;"/><text fill="#000000" font-family="sans-serif" font-size="13" lengthAdjust="spacing" textLength="93" x="537.0844" y="244.2648">choices&lt;string&gt;</text></g><!--MD5=[f54166a4bfd7691965a2a28e4010c83f]
reverse link MonoBehaviour to Model--><g id="link_MonoBehaviour_Model"><path codeLine="13" d="M158.49,169 C171.45,169 185.05,169 198.65,169 " fill="none" id="MonoBehaviour-backto-Model" style="stroke:#181818;stroke-width:1.0;"/><polygon fill="none" points="158.08,176,138.08,169,158.08,162,158.08,176" style="stroke:#181818;stroke-width:1.0;"/></g><!--MD5=[b7218175d6bdefc7150cb57c7cb289e1]
reverse link VisualElement to AmbientLightingView--><g id="link_VisualElement_AmbientLightingView"><path codeLine="4" d="M722.9,69.44 C767.2,75.23 824.26,82.68 878.99,89.83 " fill="none" id="VisualElement-backto-AmbientLightingView" style="stroke:#181818;stroke-width:1.0;"/><polygon fill="none" points="721.8,76.35,702.87,66.82,723.61,62.47,721.8,76.35" style="stroke:#181818;stroke-width:1.0;"/></g><!--MD5=[60943837936a1079fc3fd1f0f71822da]
link AmbientLightingView to ComponentHeader--><g id="link_AmbientLightingView_ComponentHeader"><path codeLine="5" d="M1193.59,80.96 C1231.86,71.05 1272.72,60.47 1306.94,51.6 " fill="none" id="AmbientLightingView-to-ComponentHeader" style="stroke:#181818;stroke-width:1.0;"/><polygon fill="#181818" points="1311.94,50.31,1302.2237,48.6997,1307.1004,51.5663,1304.2338,56.443,1311.94,50.31" style="stroke:#181818;stroke-width:1.0;"/><text fill="#000000" font-family="sans-serif" font-size="13" lengthAdjust="spacing" textLength="39" x="1265.0678" y="66.0813">header</text></g><!--MD5=[aa30ee6f3e02f9881f720056fbfc440f]
link AmbientLightingView to ColorField--><g id="link_AmbientLightingView_ColorField"><path codeLine="6" d="M1251.04,114 C1281.24,114 1310.23,114 1333.59,114 " fill="none" id="AmbientLightingView-to-ColorField" style="stroke:#181818;stroke-width:1.0;"/><polygon fill="#181818" points="1338.79,114,1329.79,110,1333.79,114,1329.79,118,1338.79,114" style="stroke:#181818;stroke-width:1.0;"/><text fill="#000000" font-family="sans-serif" font-size="13" lengthAdjust="spacing" textLength="28" x="1303.1472" y="128.4915">color</text></g><!--MD5=[43a9b587f37db017638b3674de336f97]
link AmbientLightingView to DropdownField--><g id="link_AmbientLightingView_DropdownField"><path codeLine="7" d="M1193.59,147.04 C1236.53,158.16 1282.73,170.13 1319.15,179.56 " fill="none" id="AmbientLightingView-to-DropdownField" style="stroke:#181818;stroke-width:1.0;"/><polygon fill="#181818" points="1324,180.81,1316.2812,174.6928,1319.1578,179.5636,1314.287,182.4403,1324,180.81" style="stroke:#181818;stroke-width:1.0;"/><text fill="#000000" font-family="sans-serif" font-size="13" lengthAdjust="spacing" textLength="49" x="1266.8875" y="193.5663">selected</text></g><!--MD5=[8cab0262ece1501f8e6a07b645b91c57]
link AmbientLightingModel to AmbientLightingView--><g id="link_AmbientLightingModel_AmbientLightingView"><path codeLine="6" d="M774.19,151.86 C805.81,147.73 840.24,143.23 873.95,138.83 " fill="none" id="AmbientLightingModel-to-AmbientLightingView" style="stroke:#181818;stroke-width:1.0;stroke-dasharray:1.0,3.0;"/><polygon fill="#181818" points="878.92,138.18,869.4803,135.3707,873.9615,138.823,870.5092,143.3042,878.92,138.18" style="stroke:#181818;stroke-width:1.0;"/><text fill="#000000" font-family="sans-serif" font-size="13" lengthAdjust="spacing" textLength="43" x="805" y="139.4951">creates</text></g><!--MD5=[c3c5d9a17eb634f5350271cbd454afde]
@startuml
left to right direction
!include ..\..\..\out_puml\Scripts\Models\AmbientLightingModel.puml
!include ..\..\..\out_puml\Scripts\Models\Model.puml
!include ..\..\..\out_puml\Scripts\Views\AmbientLightingView.puml

AmbientLightingModel -[dotted]-> AmbientLightingView : creates
@enduml

@startuml
left to right direction
class AmbientLightingModel {
    + ambientLightingChoice : string
    + <<override>> OnChanged() : void
    + <<override>> CreateUI() : VisualElement
}
class "List`1"<T> {
}
Model <|- - AmbientLightingModel
AmbientLightingModel o-> "ambientColour" Color
AmbientLightingModel o-> "choices<string>" "List`1"
abstract class Model {
    shoudUpdate : bool = true
    + shouldDraw : bool = true
    + <<virtual>> Start() : void
    + <<virtual>> CreateUI() : VisualElement
    + <<virtual>> OnChanged() : void
    # <<virtual>> Update() : void
    + UpdateOnNextFrame() : void
    + OnEnable() : void
    + OnDisable() : void
    + OnValidate() : void
}
MonoBehaviour <|- - Model
class AmbientLightingView {
    + AmbientLightingView(choices:List<string>, value:string)
}
VisualElement <|- - AmbientLightingView
AmbientLightingView - -> "header" ComponentHeader
AmbientLightingView - -> "color" ColorField
AmbientLightingView - -> "selected" DropdownField

AmbientLightingModel -[dotted]-> AmbientLightingView : creates
@enduml

PlantUML version 1.2022.5(Sat Apr 30 20:55:52 AEST 2022)
(GPL source distribution)
Java Runtime: Java(TM) SE Runtime Environment
JVM: Java HotSpot(TM) 64-Bit Server VM
Default Encoding: Cp1252
Language: en
Country: AU
--></g></svg>