<?xml version="1.0" encoding="UTF-8" standalone="no"?><svg xmlns="http://www.w3.org/2000/svg" xmlns:xlink="http://www.w3.org/1999/xlink" contentStyleType="text/css" height="205px" preserveAspectRatio="none" style="width:281px;height:205px;background:#FFFFFF;" version="1.1" viewBox="0 0 281 205" width="281px" zoomAndPan="magnify"><defs/><g><!--MD5=[d61f97fdeb52b7770a005c48cc26ef5b]
class ObjectSearchView--><g id="elem_ObjectSearchView"><rect codeLine="1" fill="#F1F1F1" height="83.2188" id="ObjectSearchView" rx="2.5" ry="2.5" style="stroke:#181818;stroke-width:0.5;" width="267" x="7" y="115"/><ellipse cx="78.75" cy="131" fill="#ADD1B2" rx="11" ry="11" style="stroke:#181818;stroke-width:1.0;"/><path d="M81.5156,126.875 Q81.6719,126.6563 81.8594,126.5469 Q82.0469,126.4375 82.2656,126.4375 Q82.6406,126.4375 82.875,126.7031 Q83.1094,126.9531 83.1094,127.5625 L83.1094,129.0156 Q83.1094,129.625 82.875,129.8906 Q82.6406,130.1563 82.2656,130.1563 Q81.9219,130.1563 81.7188,129.9531 Q81.5156,129.7656 81.4063,129.25 Q81.3594,128.8906 81.1719,128.7031 Q80.8438,128.3281 80.2344,128.1094 Q79.625,127.8906 79,127.8906 Q78.2344,127.8906 77.5938,128.2188 Q76.9688,128.5469 76.4688,129.2969 Q75.9844,130.0469 75.9844,131.0781 L75.9844,132.1719 Q75.9844,133.4063 76.875,134.2344 Q77.7656,135.0469 79.3594,135.0469 Q80.2969,135.0469 80.9531,134.7969 Q81.3438,134.6406 81.7656,134.2031 Q82.0313,133.9375 82.1719,133.8594 Q82.3281,133.7813 82.5313,133.7813 Q82.8594,133.7813 83.1094,134.0469 Q83.375,134.2969 83.375,134.6406 Q83.375,134.9844 83.0313,135.3906 Q82.5313,135.9688 81.7344,136.2969 Q80.6563,136.75 79.3594,136.75 Q77.8438,136.75 76.6406,136.125 Q75.6563,135.625 74.9688,134.5625 Q74.2813,133.4844 74.2813,132.2031 L74.2813,131.0469 Q74.2813,129.7188 74.8906,128.5781 Q75.5156,127.4219 76.6094,126.8125 Q77.7031,126.1875 78.9375,126.1875 Q79.6719,126.1875 80.3125,126.3594 Q80.9688,126.5156 81.5156,126.875 Z " fill="#000000"/><text fill="#000000" font-family="sans-serif" font-size="14" lengthAdjust="spacing" textLength="115" x="99.25" y="136.7285">ObjectSearchView</text><line style="stroke:#181818;stroke-width:0.5;" x1="8" x2="273" y1="147" y2="147"/><text fill="#000000" font-family="sans-serif" font-size="14" lengthAdjust="spacing" textLength="124" x="13" y="165.5332">parentName : string</text><line style="stroke:#181818;stroke-width:0.5;" x1="8" x2="273" y1="172.6094" y2="172.6094"/><ellipse cx="18" cy="183.6094" fill="#84BE84" rx="3" ry="3" style="stroke:#038048;stroke-width:1.0;"/><text fill="#000000" font-family="sans-serif" font-size="14" lengthAdjust="spacing" textLength="241" x="27" y="191.1426">ObjectSearchView(parentName:string)</text></g><!--MD5=[f01bc9769c39eb32511ec98885c444e4]
class SearchBoxView--><g id="elem_SearchBoxView"><rect fill="#F1F1F1" height="48" id="SearchBoxView" rx="2.5" ry="2.5" style="stroke:#181818;stroke-width:0.5;" width="129" x="76" y="7"/><ellipse cx="91" cy="23" fill="#ADD1B2" rx="11" ry="11" style="stroke:#181818;stroke-width:1.0;"/><path d="M93.7656,18.875 Q93.9219,18.6563 94.1094,18.5469 Q94.2969,18.4375 94.5156,18.4375 Q94.8906,18.4375 95.125,18.7031 Q95.3594,18.9531 95.3594,19.5625 L95.3594,21.0156 Q95.3594,21.625 95.125,21.8906 Q94.8906,22.1563 94.5156,22.1563 Q94.1719,22.1563 93.9688,21.9531 Q93.7656,21.7656 93.6563,21.25 Q93.6094,20.8906 93.4219,20.7031 Q93.0938,20.3281 92.4844,20.1094 Q91.875,19.8906 91.25,19.8906 Q90.4844,19.8906 89.8438,20.2188 Q89.2188,20.5469 88.7188,21.2969 Q88.2344,22.0469 88.2344,23.0781 L88.2344,24.1719 Q88.2344,25.4063 89.125,26.2344 Q90.0156,27.0469 91.6094,27.0469 Q92.5469,27.0469 93.2031,26.7969 Q93.5938,26.6406 94.0156,26.2031 Q94.2813,25.9375 94.4219,25.8594 Q94.5781,25.7813 94.7813,25.7813 Q95.1094,25.7813 95.3594,26.0469 Q95.625,26.2969 95.625,26.6406 Q95.625,26.9844 95.2813,27.3906 Q94.7813,27.9688 93.9844,28.2969 Q92.9063,28.75 91.6094,28.75 Q90.0938,28.75 88.8906,28.125 Q87.9063,27.625 87.2188,26.5625 Q86.5313,25.4844 86.5313,24.2031 L86.5313,23.0469 Q86.5313,21.7188 87.1406,20.5781 Q87.7656,19.4219 88.8594,18.8125 Q89.9531,18.1875 91.1875,18.1875 Q91.9219,18.1875 92.5625,18.3594 Q93.2188,18.5156 93.7656,18.875 Z " fill="#000000"/><text fill="#000000" font-family="sans-serif" font-size="14" lengthAdjust="spacing" textLength="97" x="105" y="28.7285">SearchBoxView</text><line style="stroke:#181818;stroke-width:0.5;" x1="77" x2="204" y1="39" y2="39"/><line style="stroke:#181818;stroke-width:0.5;" x1="77" x2="204" y1="47" y2="47"/></g><!--MD5=[031503c8af2660f2a37558ec6e1a3ccd]
reverse link SearchBoxView to ObjectSearchView--><g id="link_SearchBoxView_ObjectSearchView"><path codeLine="5" d="M140.5,75.31 C140.5,88.16 140.5,102.19 140.5,114.87 " fill="none" id="SearchBoxView-backto-ObjectSearchView" style="stroke:#181818;stroke-width:1.0;"/><polygon fill="none" points="133.5,75.23,140.5,55.23,147.5,75.23,133.5,75.23" style="stroke:#181818;stroke-width:1.0;"/></g><!--MD5=[78d4211b77e6f5ec1212ca0cf2737ead]
@startuml
!include ..\..\..\out_puml\Scripts\Views\ObjectSearchView.puml
@enduml

@startuml
class ObjectSearchView {
    parentName : string
    + ObjectSearchView(parentName:string)
}
SearchBoxView <|- - ObjectSearchView
@enduml

PlantUML version 1.2022.5(Sat Apr 30 20:55:52 AEST 2022)
(GPL source distribution)
Java Runtime: Java(TM) SE Runtime Environment
JVM: Java HotSpot(TM) 64-Bit Server VM
Default Encoding: Cp1252
Language: en
Country: AU
--></g></svg>