<?xml version="1.0" encoding="UTF-8" standalone="no"?><svg xmlns="http://www.w3.org/2000/svg" xmlns:xlink="http://www.w3.org/1999/xlink" contentStyleType="text/css" height="401px" preserveAspectRatio="none" style="width:588px;height:401px;background:#FFFFFF;" version="1.1" viewBox="0 0 588 401" width="588px" zoomAndPan="magnify"><defs/><g><!--MD5=[f327e35fd29c7060b56b74d5a7c2865c]
class PreviewView--><g id="elem_PreviewView"><rect codeLine="1" fill="#F1F1F1" height="171.2656" id="PreviewView" rx="2.5" ry="2.5" style="stroke:#181818;stroke-width:0.5;" width="378" x="7" y="115"/><ellipse cx="152.75" cy="131" fill="#ADD1B2" rx="11" ry="11" style="stroke:#181818;stroke-width:1.0;"/><path d="M155.5156,126.875 Q155.6719,126.6563 155.8594,126.5469 Q156.0469,126.4375 156.2656,126.4375 Q156.6406,126.4375 156.875,126.7031 Q157.1094,126.9531 157.1094,127.5625 L157.1094,129.0156 Q157.1094,129.625 156.875,129.8906 Q156.6406,130.1563 156.2656,130.1563 Q155.9219,130.1563 155.7188,129.9531 Q155.5156,129.7656 155.4063,129.25 Q155.3594,128.8906 155.1719,128.7031 Q154.8438,128.3281 154.2344,128.1094 Q153.625,127.8906 153,127.8906 Q152.2344,127.8906 151.5938,128.2188 Q150.9688,128.5469 150.4688,129.2969 Q149.9844,130.0469 149.9844,131.0781 L149.9844,132.1719 Q149.9844,133.4063 150.875,134.2344 Q151.7656,135.0469 153.3594,135.0469 Q154.2969,135.0469 154.9531,134.7969 Q155.3438,134.6406 155.7656,134.2031 Q156.0313,133.9375 156.1719,133.8594 Q156.3281,133.7813 156.5313,133.7813 Q156.8594,133.7813 157.1094,134.0469 Q157.375,134.2969 157.375,134.6406 Q157.375,134.9844 157.0313,135.3906 Q156.5313,135.9688 155.7344,136.2969 Q154.6563,136.75 153.3594,136.75 Q151.8438,136.75 150.6406,136.125 Q149.6563,135.625 148.9688,134.5625 Q148.2813,133.4844 148.2813,132.2031 L148.2813,131.0469 Q148.2813,129.7188 148.8906,128.5781 Q149.5156,127.4219 150.6094,126.8125 Q151.7031,126.1875 152.9375,126.1875 Q153.6719,126.1875 154.3125,126.3594 Q154.9688,126.5156 155.5156,126.875 Z " fill="#000000"/><text fill="#000000" font-family="sans-serif" font-size="14" lengthAdjust="spacing" textLength="78" x="173.25" y="136.7285">PreviewView</text><line style="stroke:#181818;stroke-width:0.5;" x1="8" x2="384" y1="147" y2="147"/><line style="stroke:#181818;stroke-width:0.5;" x1="8" x2="384" y1="155" y2="155"/><ellipse cx="18" cy="166" fill="#84BE84" rx="3" ry="3" style="stroke:#038048;stroke-width:1.0;"/><text fill="#000000" font-family="sans-serif" font-size="14" lengthAdjust="spacing" textLength="352" x="27" y="173.5332">PreviewView(gameObject:GameObject, imageSize:Rect)</text><ellipse cx="18" cy="183.6094" fill="#84BE84" rx="3" ry="3" style="stroke:#038048;stroke-width:1.0;"/><text fill="#000000" font-family="sans-serif" font-size="14" lengthAdjust="spacing" textLength="203" x="27" y="191.1426">GetGameObject() : GameObject</text><rect fill="#F24D5C" height="6" style="stroke:#C82930;stroke-width:1.0;" width="6" x="15" y="198.2188"/><text fill="#000000" font-family="sans-serif" font-size="14" lengthAdjust="spacing" textLength="112" x="27" y="208.752">OnUpdate() : void</text><text fill="#000000" font-family="sans-serif" font-size="14" lengthAdjust="spacing" textLength="116" x="27" y="226.3613">BeginDraw() : void</text><text fill="#000000" font-family="sans-serif" font-size="14" lengthAdjust="spacing" textLength="145" x="27" y="243.9707">EndDraw() : Texture2D</text><ellipse cx="18" cy="254.0469" fill="#84BE84" rx="3" ry="3" style="stroke:#038048;stroke-width:1.0;"/><text fill="#000000" font-family="sans-serif" font-size="14" lengthAdjust="spacing" textLength="211" x="27" y="261.5801">CopyObjectPreview() : Texture2D</text><ellipse cx="18" cy="271.6563" fill="#84BE84" rx="3" ry="3" style="stroke:#038048;stroke-width:1.0;"/><text fill="#000000" font-family="sans-serif" font-size="14" lengthAdjust="spacing" textLength="177" x="27" y="279.1895">CalculateBounds() : Bounds</text></g><!--MD5=[e77834a0fda1b3f817ae7f2b19e4424d]
class VisualElement--><g id="elem_VisualElement"><rect fill="#F1F1F1" height="48" id="VisualElement" rx="2.5" ry="2.5" style="stroke:#181818;stroke-width:0.5;" width="121" x="135.5" y="7"/><ellipse cx="150.5" cy="23" fill="#ADD1B2" rx="11" ry="11" style="stroke:#181818;stroke-width:1.0;"/><path d="M153.2656,18.875 Q153.4219,18.6563 153.6094,18.5469 Q153.7969,18.4375 154.0156,18.4375 Q154.3906,18.4375 154.625,18.7031 Q154.8594,18.9531 154.8594,19.5625 L154.8594,21.0156 Q154.8594,21.625 154.625,21.8906 Q154.3906,22.1563 154.0156,22.1563 Q153.6719,22.1563 153.4688,21.9531 Q153.2656,21.7656 153.1563,21.25 Q153.1094,20.8906 152.9219,20.7031 Q152.5938,20.3281 151.9844,20.1094 Q151.375,19.8906 150.75,19.8906 Q149.9844,19.8906 149.3438,20.2188 Q148.7188,20.5469 148.2188,21.2969 Q147.7344,22.0469 147.7344,23.0781 L147.7344,24.1719 Q147.7344,25.4063 148.625,26.2344 Q149.5156,27.0469 151.1094,27.0469 Q152.0469,27.0469 152.7031,26.7969 Q153.0938,26.6406 153.5156,26.2031 Q153.7813,25.9375 153.9219,25.8594 Q154.0781,25.7813 154.2813,25.7813 Q154.6094,25.7813 154.8594,26.0469 Q155.125,26.2969 155.125,26.6406 Q155.125,26.9844 154.7813,27.3906 Q154.2813,27.9688 153.4844,28.2969 Q152.4063,28.75 151.1094,28.75 Q149.5938,28.75 148.3906,28.125 Q147.4063,27.625 146.7188,26.5625 Q146.0313,25.4844 146.0313,24.2031 L146.0313,23.0469 Q146.0313,21.7188 146.6406,20.5781 Q147.2656,19.4219 148.3594,18.8125 Q149.4531,18.1875 150.6875,18.1875 Q151.4219,18.1875 152.0625,18.3594 Q152.7188,18.5156 153.2656,18.875 Z " fill="#000000"/><text fill="#000000" font-family="sans-serif" font-size="14" lengthAdjust="spacing" textLength="89" x="164.5" y="28.7285">VisualElement</text><line style="stroke:#181818;stroke-width:0.5;" x1="136.5" x2="255.5" y1="39" y2="39"/><line style="stroke:#181818;stroke-width:0.5;" x1="136.5" x2="255.5" y1="47" y2="47"/></g><!--MD5=[064f7a74fee85463ec1a30143664ee17]
class GameObject--><g id="elem_GameObject"><rect fill="#F1F1F1" height="48" id="GameObject" rx="2.5" ry="2.5" style="stroke:#181818;stroke-width:0.5;" width="111" x="77.5" y="346"/><ellipse cx="92.5" cy="362" fill="#ADD1B2" rx="11" ry="11" style="stroke:#181818;stroke-width:1.0;"/><path d="M95.2656,357.875 Q95.4219,357.6563 95.6094,357.5469 Q95.7969,357.4375 96.0156,357.4375 Q96.3906,357.4375 96.625,357.7031 Q96.8594,357.9531 96.8594,358.5625 L96.8594,360.0156 Q96.8594,360.625 96.625,360.8906 Q96.3906,361.1563 96.0156,361.1563 Q95.6719,361.1563 95.4688,360.9531 Q95.2656,360.7656 95.1563,360.25 Q95.1094,359.8906 94.9219,359.7031 Q94.5938,359.3281 93.9844,359.1094 Q93.375,358.8906 92.75,358.8906 Q91.9844,358.8906 91.3438,359.2188 Q90.7188,359.5469 90.2188,360.2969 Q89.7344,361.0469 89.7344,362.0781 L89.7344,363.1719 Q89.7344,364.4063 90.625,365.2344 Q91.5156,366.0469 93.1094,366.0469 Q94.0469,366.0469 94.7031,365.7969 Q95.0938,365.6406 95.5156,365.2031 Q95.7813,364.9375 95.9219,364.8594 Q96.0781,364.7813 96.2813,364.7813 Q96.6094,364.7813 96.8594,365.0469 Q97.125,365.2969 97.125,365.6406 Q97.125,365.9844 96.7813,366.3906 Q96.2813,366.9688 95.4844,367.2969 Q94.4063,367.75 93.1094,367.75 Q91.5938,367.75 90.3906,367.125 Q89.4063,366.625 88.7188,365.5625 Q88.0313,364.4844 88.0313,363.2031 L88.0313,362.0469 Q88.0313,360.7188 88.6406,359.5781 Q89.2656,358.4219 90.3594,357.8125 Q91.4531,357.1875 92.6875,357.1875 Q93.4219,357.1875 94.0625,357.3594 Q94.7188,357.5156 95.2656,357.875 Z " fill="#000000"/><text fill="#000000" font-family="sans-serif" font-size="14" lengthAdjust="spacing" textLength="79" x="106.5" y="367.7285">GameObject</text><line style="stroke:#181818;stroke-width:0.5;" x1="78.5" x2="187.5" y1="378" y2="378"/><line style="stroke:#181818;stroke-width:0.5;" x1="78.5" x2="187.5" y1="386" y2="386"/></g><!--MD5=[964f074a2dd77d134c21b891bb53e381]
class Image--><g id="elem_Image"><rect fill="#F1F1F1" height="48" id="Image" rx="2.5" ry="2.5" style="stroke:#181818;stroke-width:0.5;" width="70" x="224" y="346"/><ellipse cx="239" cy="362" fill="#ADD1B2" rx="11" ry="11" style="stroke:#181818;stroke-width:1.0;"/><path d="M241.7656,357.875 Q241.9219,357.6563 242.1094,357.5469 Q242.2969,357.4375 242.5156,357.4375 Q242.8906,357.4375 243.125,357.7031 Q243.3594,357.9531 243.3594,358.5625 L243.3594,360.0156 Q243.3594,360.625 243.125,360.8906 Q242.8906,361.1563 242.5156,361.1563 Q242.1719,361.1563 241.9688,360.9531 Q241.7656,360.7656 241.6563,360.25 Q241.6094,359.8906 241.4219,359.7031 Q241.0938,359.3281 240.4844,359.1094 Q239.875,358.8906 239.25,358.8906 Q238.4844,358.8906 237.8438,359.2188 Q237.2188,359.5469 236.7188,360.2969 Q236.2344,361.0469 236.2344,362.0781 L236.2344,363.1719 Q236.2344,364.4063 237.125,365.2344 Q238.0156,366.0469 239.6094,366.0469 Q240.5469,366.0469 241.2031,365.7969 Q241.5938,365.6406 242.0156,365.2031 Q242.2813,364.9375 242.4219,364.8594 Q242.5781,364.7813 242.7813,364.7813 Q243.1094,364.7813 243.3594,365.0469 Q243.625,365.2969 243.625,365.6406 Q243.625,365.9844 243.2813,366.3906 Q242.7813,366.9688 241.9844,367.2969 Q240.9063,367.75 239.6094,367.75 Q238.0938,367.75 236.8906,367.125 Q235.9063,366.625 235.2188,365.5625 Q234.5313,364.4844 234.5313,363.2031 L234.5313,362.0469 Q234.5313,360.7188 235.1406,359.5781 Q235.7656,358.4219 236.8594,357.8125 Q237.9531,357.1875 239.1875,357.1875 Q239.9219,357.1875 240.5625,357.3594 Q241.2188,357.5156 241.7656,357.875 Z " fill="#000000"/><text fill="#000000" font-family="sans-serif" font-size="14" lengthAdjust="spacing" textLength="38" x="253" y="367.7285">Image</text><line style="stroke:#181818;stroke-width:0.5;" x1="225" x2="293" y1="378" y2="378"/><line style="stroke:#181818;stroke-width:0.5;" x1="225" x2="293" y1="386" y2="386"/></g><!--MD5=[55ad33296c8fe7070978f83b83836a70]
class PreviewRenderUtility--><g id="elem_PreviewRenderUtility"><rect fill="#F1F1F1" height="48" id="PreviewRenderUtility" rx="2.5" ry="2.5" style="stroke:#181818;stroke-width:0.5;" width="161" x="420.5" y="176.5"/><ellipse cx="435.5" cy="192.5" fill="#ADD1B2" rx="11" ry="11" style="stroke:#181818;stroke-width:1.0;"/><path d="M438.2656,188.375 Q438.4219,188.1563 438.6094,188.0469 Q438.7969,187.9375 439.0156,187.9375 Q439.3906,187.9375 439.625,188.2031 Q439.8594,188.4531 439.8594,189.0625 L439.8594,190.5156 Q439.8594,191.125 439.625,191.3906 Q439.3906,191.6563 439.0156,191.6563 Q438.6719,191.6563 438.4688,191.4531 Q438.2656,191.2656 438.1563,190.75 Q438.1094,190.3906 437.9219,190.2031 Q437.5938,189.8281 436.9844,189.6094 Q436.375,189.3906 435.75,189.3906 Q434.9844,189.3906 434.3438,189.7188 Q433.7188,190.0469 433.2188,190.7969 Q432.7344,191.5469 432.7344,192.5781 L432.7344,193.6719 Q432.7344,194.9063 433.625,195.7344 Q434.5156,196.5469 436.1094,196.5469 Q437.0469,196.5469 437.7031,196.2969 Q438.0938,196.1406 438.5156,195.7031 Q438.7813,195.4375 438.9219,195.3594 Q439.0781,195.2813 439.2813,195.2813 Q439.6094,195.2813 439.8594,195.5469 Q440.125,195.7969 440.125,196.1406 Q440.125,196.4844 439.7813,196.8906 Q439.2813,197.4688 438.4844,197.7969 Q437.4063,198.25 436.1094,198.25 Q434.5938,198.25 433.3906,197.625 Q432.4063,197.125 431.7188,196.0625 Q431.0313,194.9844 431.0313,193.7031 L431.0313,192.5469 Q431.0313,191.2188 431.6406,190.0781 Q432.2656,188.9219 433.3594,188.3125 Q434.4531,187.6875 435.6875,187.6875 Q436.4219,187.6875 437.0625,187.8594 Q437.7188,188.0156 438.2656,188.375 Z " fill="#000000"/><text fill="#000000" font-family="sans-serif" font-size="14" lengthAdjust="spacing" textLength="129" x="449.5" y="198.2285">PreviewRenderUtility</text><line style="stroke:#181818;stroke-width:0.5;" x1="421.5" x2="580.5" y1="208.5" y2="208.5"/><line style="stroke:#181818;stroke-width:0.5;" x1="421.5" x2="580.5" y1="216.5" y2="216.5"/></g><!--MD5=[f3e902e8e978ff376c789f1724075ffe]
class Rect--><g id="elem_Rect"><rect fill="#F1F1F1" height="48" id="Rect" rx="2.5" ry="2.5" style="stroke:#181818;stroke-width:0.5;" width="61" x="329.5" y="346"/><ellipse cx="344.5" cy="362" fill="#ADD1B2" rx="11" ry="11" style="stroke:#181818;stroke-width:1.0;"/><path d="M347.2656,357.875 Q347.4219,357.6563 347.6094,357.5469 Q347.7969,357.4375 348.0156,357.4375 Q348.3906,357.4375 348.625,357.7031 Q348.8594,357.9531 348.8594,358.5625 L348.8594,360.0156 Q348.8594,360.625 348.625,360.8906 Q348.3906,361.1563 348.0156,361.1563 Q347.6719,361.1563 347.4688,360.9531 Q347.2656,360.7656 347.1563,360.25 Q347.1094,359.8906 346.9219,359.7031 Q346.5938,359.3281 345.9844,359.1094 Q345.375,358.8906 344.75,358.8906 Q343.9844,358.8906 343.3438,359.2188 Q342.7188,359.5469 342.2188,360.2969 Q341.7344,361.0469 341.7344,362.0781 L341.7344,363.1719 Q341.7344,364.4063 342.625,365.2344 Q343.5156,366.0469 345.1094,366.0469 Q346.0469,366.0469 346.7031,365.7969 Q347.0938,365.6406 347.5156,365.2031 Q347.7813,364.9375 347.9219,364.8594 Q348.0781,364.7813 348.2813,364.7813 Q348.6094,364.7813 348.8594,365.0469 Q349.125,365.2969 349.125,365.6406 Q349.125,365.9844 348.7813,366.3906 Q348.2813,366.9688 347.4844,367.2969 Q346.4063,367.75 345.1094,367.75 Q343.5938,367.75 342.3906,367.125 Q341.4063,366.625 340.7188,365.5625 Q340.0313,364.4844 340.0313,363.2031 L340.0313,362.0469 Q340.0313,360.7188 340.6406,359.5781 Q341.2656,358.4219 342.3594,357.8125 Q343.4531,357.1875 344.6875,357.1875 Q345.4219,357.1875 346.0625,357.3594 Q346.7188,357.5156 347.2656,357.875 Z " fill="#000000"/><text fill="#000000" font-family="sans-serif" font-size="14" lengthAdjust="spacing" textLength="29" x="358.5" y="367.7285">Rect</text><line style="stroke:#181818;stroke-width:0.5;" x1="330.5" x2="389.5" y1="378" y2="378"/><line style="stroke:#181818;stroke-width:0.5;" x1="330.5" x2="389.5" y1="386" y2="386"/></g><!--MD5=[d1296ee075c5e47ce041de6ec891e98d]
reverse link VisualElement to PreviewView--><g id="link_VisualElement_PreviewView"><path codeLine="10" d="M196,75.7 C196,87.74 196,101.24 196,114.76 " fill="none" id="VisualElement-backto-PreviewView" style="stroke:#181818;stroke-width:1.0;"/><polygon fill="none" points="189,75.29,196,55.29,203,75.29,189,75.29" style="stroke:#181818;stroke-width:1.0;"/></g><!--MD5=[bcffcfa91ac32f519e9ae8ee56fce896]
link PreviewView to GameObject--><g id="link_PreviewView_GameObject"><path codeLine="11" d="M151.38,286.23 C144.01,305.91 137.6,325.53 133.8,340.72 " fill="none" id="PreviewView-to-GameObject" style="stroke:#181818;stroke-width:1.0;"/><polygon fill="#181818" points="132.61,345.69,138.5817,337.8581,133.7655,340.8254,130.7982,336.0092,132.61,345.69" style="stroke:#181818;stroke-width:1.0;"/><text fill="#000000" font-family="sans-serif" font-size="13" lengthAdjust="spacing" textLength="70" x="53.5413" y="334.9507">gameObject</text></g><!--MD5=[bcffcfa91ac32f519e9ae8ee56fce896]
link PreviewView to GameObject--><g id="link_PreviewView_GameObject"><path codeLine="12" d="M177.63,286.23 C170.13,306.09 161.64,325.87 153.85,341.11 " fill="none" id="PreviewView-to-GameObject-1" style="stroke:#181818;stroke-width:1.0;"/><polygon fill="#181818" points="151.46,345.69,159.1654,339.5559,153.7699,341.2556,152.0703,335.8601,151.46,345.69" style="stroke:#181818;stroke-width:1.0;"/><text fill="#000000" font-family="sans-serif" font-size="13" lengthAdjust="spacing" textLength="115" x="170.9248" y="334.9507">previewGameObject</text></g><!--MD5=[d799fcededbd0f12a09dd469c8c5f490]
link PreviewView to Image--><g id="link_PreviewView_Image"><path codeLine="13" d="M227.87,286.23 C235.27,305.91 242.65,325.53 248.36,340.72 " fill="none" id="PreviewView-to-Image" style="stroke:#181818;stroke-width:1.0;"/><polygon fill="#181818" points="250.23,345.69,250.789,335.857,248.4619,341.0131,243.3058,338.686,250.23,345.69" style="stroke:#181818;stroke-width:1.0;"/><text fill="#000000" font-family="sans-serif" font-size="13" lengthAdjust="spacing" textLength="35" x="252.4671" y="334.9507">image</text></g><!--MD5=[5a192f8e5d612ca618c30214ae3dabf9]
link PreviewView to PreviewRenderUtility--><g id="link_PreviewView_PreviewRenderUtility"><path codeLine="14" d="M397.14,200.5 C397.14,200.5 404.35,200.5 407.34,200.5 " fill="none" id="PreviewView-PreviewRenderUtility" style="stroke:#181818;stroke-width:1.0;"/><polygon fill="#181818" points="420.44,200.5,411.44,196.5,415.44,200.5,411.44,204.5,420.44,200.5" style="stroke:#181818;stroke-width:1.0;"/><line style="stroke:#181818;stroke-width:1.0;" x1="415.44" x2="407.44" y1="200.5" y2="200.5"/><polygon fill="none" points="385.14,200.5,391.14,204.5,397.14,200.5,391.14,196.5,385.14,200.5" style="stroke:#181818;stroke-width:1.0;"/><text fill="#000000" font-family="sans-serif" font-size="13" lengthAdjust="spacing" textLength="75" x="338.095" y="188.1889">prevRenderer</text></g><!--MD5=[62f93d732175ffeceb0f009d9b64ecd8]
link PreviewView to Rect--><g id="link_PreviewView_Rect"><path codeLine="15" d="M278.96,286.23 C298.74,306.43 318.44,326.55 333.46,341.89 " fill="none" id="PreviewView-to-Rect" style="stroke:#181818;stroke-width:1.0;"/><polygon fill="#181818" points="337.18,345.69,333.7375,336.4624,333.6804,342.1189,328.0238,342.0618,337.18,345.69" style="stroke:#181818;stroke-width:1.0;"/><text fill="#000000" font-family="sans-serif" font-size="13" lengthAdjust="spacing" textLength="61" x="339.148" y="334.9507">imageSize</text></g><!--MD5=[1a123b0e02d54082996a899382aea5af]
@startuml
!include ..\..\..\out_puml\Scripts\Views\PreviewView.puml
@enduml

@startuml
class PreviewView {
    + PreviewView(gameObject:GameObject, imageSize:Rect)
    + GetGameObject() : GameObject
    - OnUpdate() : void
    BeginDraw() : void
    EndDraw() : Texture2D
    + CopyObjectPreview() : Texture2D
    + CalculateBounds() : Bounds
}
VisualElement <|- - PreviewView
PreviewView - -> "gameObject" GameObject
PreviewView - -> "previewGameObject" GameObject
PreviewView - -> "image" Image
PreviewView o-> "prevRenderer" PreviewRenderUtility
PreviewView - -> "imageSize" Rect
@enduml

PlantUML version 1.2022.5(Sat Apr 30 20:55:52 AEST 2022)
(GPL source distribution)
Java Runtime: Java(TM) SE Runtime Environment
JVM: Java HotSpot(TM) 64-Bit Server VM
Default Encoding: Cp1252
Language: en
Country: AU
--></g></svg>