<?xml version="1.0" encoding="UTF-8" standalone="no"?><svg xmlns="http://www.w3.org/2000/svg" xmlns:xlink="http://www.w3.org/1999/xlink" contentStyleType="text/css" height="296px" preserveAspectRatio="none" style="width:414px;height:296px;background:#FFFFFF;" version="1.1" viewBox="0 0 414 296" width="414px" zoomAndPan="magnify"><defs/><g><!--MD5=[784aef51971db029a5049780b266750a]
class ThreePointLightView--><g id="elem_ThreePointLightView"><rect codeLine="1" fill="#F1F1F1" height="65.6094" id="ThreePointLightView" rx="2.5" ry="2.5" style="stroke:#181818;stroke-width:0.5;" width="166" x="158.5" y="115"/><ellipse cx="175.3" cy="131" fill="#ADD1B2" rx="11" ry="11" style="stroke:#181818;stroke-width:1.0;"/><path d="M178.0656,126.875 Q178.2219,126.6563 178.4094,126.5469 Q178.5969,126.4375 178.8156,126.4375 Q179.1906,126.4375 179.425,126.7031 Q179.6594,126.9531 179.6594,127.5625 L179.6594,129.0156 Q179.6594,129.625 179.425,129.8906 Q179.1906,130.1563 178.8156,130.1563 Q178.4719,130.1563 178.2688,129.9531 Q178.0656,129.7656 177.9563,129.25 Q177.9094,128.8906 177.7219,128.7031 Q177.3938,128.3281 176.7844,128.1094 Q176.175,127.8906 175.55,127.8906 Q174.7844,127.8906 174.1438,128.2188 Q173.5188,128.5469 173.0188,129.2969 Q172.5344,130.0469 172.5344,131.0781 L172.5344,132.1719 Q172.5344,133.4063 173.425,134.2344 Q174.3156,135.0469 175.9094,135.0469 Q176.8469,135.0469 177.5031,134.7969 Q177.8938,134.6406 178.3156,134.2031 Q178.5813,133.9375 178.7219,133.8594 Q178.8781,133.7813 179.0813,133.7813 Q179.4094,133.7813 179.6594,134.0469 Q179.925,134.2969 179.925,134.6406 Q179.925,134.9844 179.5813,135.3906 Q179.0813,135.9688 178.2844,136.2969 Q177.2063,136.75 175.9094,136.75 Q174.3938,136.75 173.1906,136.125 Q172.2063,135.625 171.5188,134.5625 Q170.8313,133.4844 170.8313,132.2031 L170.8313,131.0469 Q170.8313,129.7188 171.4406,128.5781 Q172.0656,127.4219 173.1594,126.8125 Q174.2531,126.1875 175.4875,126.1875 Q176.2219,126.1875 176.8625,126.3594 Q177.5188,126.5156 178.0656,126.875 Z " fill="#000000"/><text fill="#000000" font-family="sans-serif" font-size="14" lengthAdjust="spacing" textLength="130" x="189.7" y="136.7285">ThreePointLightView</text><line style="stroke:#181818;stroke-width:0.5;" x1="159.5" x2="323.5" y1="147" y2="147"/><line style="stroke:#181818;stroke-width:0.5;" x1="159.5" x2="323.5" y1="155" y2="155"/><ellipse cx="169.5" cy="166" fill="#84BE84" rx="3" ry="3" style="stroke:#038048;stroke-width:1.0;"/><text fill="#000000" font-family="sans-serif" font-size="14" lengthAdjust="spacing" textLength="140" x="178.5" y="173.5332">ThreePointLightView()</text></g><!--MD5=[e77834a0fda1b3f817ae7f2b19e4424d]
class VisualElement--><g id="elem_VisualElement"><rect fill="#F1F1F1" height="48" id="VisualElement" rx="2.5" ry="2.5" style="stroke:#181818;stroke-width:0.5;" width="121" x="181" y="7"/><ellipse cx="196" cy="23" fill="#ADD1B2" rx="11" ry="11" style="stroke:#181818;stroke-width:1.0;"/><path d="M198.7656,18.875 Q198.9219,18.6563 199.1094,18.5469 Q199.2969,18.4375 199.5156,18.4375 Q199.8906,18.4375 200.125,18.7031 Q200.3594,18.9531 200.3594,19.5625 L200.3594,21.0156 Q200.3594,21.625 200.125,21.8906 Q199.8906,22.1563 199.5156,22.1563 Q199.1719,22.1563 198.9688,21.9531 Q198.7656,21.7656 198.6563,21.25 Q198.6094,20.8906 198.4219,20.7031 Q198.0938,20.3281 197.4844,20.1094 Q196.875,19.8906 196.25,19.8906 Q195.4844,19.8906 194.8438,20.2188 Q194.2188,20.5469 193.7188,21.2969 Q193.2344,22.0469 193.2344,23.0781 L193.2344,24.1719 Q193.2344,25.4063 194.125,26.2344 Q195.0156,27.0469 196.6094,27.0469 Q197.5469,27.0469 198.2031,26.7969 Q198.5938,26.6406 199.0156,26.2031 Q199.2813,25.9375 199.4219,25.8594 Q199.5781,25.7813 199.7813,25.7813 Q200.1094,25.7813 200.3594,26.0469 Q200.625,26.2969 200.625,26.6406 Q200.625,26.9844 200.2813,27.3906 Q199.7813,27.9688 198.9844,28.2969 Q197.9063,28.75 196.6094,28.75 Q195.0938,28.75 193.8906,28.125 Q192.9063,27.625 192.2188,26.5625 Q191.5313,25.4844 191.5313,24.2031 L191.5313,23.0469 Q191.5313,21.7188 192.1406,20.5781 Q192.7656,19.4219 193.8594,18.8125 Q194.9531,18.1875 196.1875,18.1875 Q196.9219,18.1875 197.5625,18.3594 Q198.2188,18.5156 198.7656,18.875 Z " fill="#000000"/><text fill="#000000" font-family="sans-serif" font-size="14" lengthAdjust="spacing" textLength="89" x="210" y="28.7285">VisualElement</text><line style="stroke:#181818;stroke-width:0.5;" x1="182" x2="301" y1="39" y2="39"/><line style="stroke:#181818;stroke-width:0.5;" x1="182" x2="301" y1="47" y2="47"/></g><!--MD5=[298883191722f47d612a790005ce591d]
class ComponentHeader--><g id="elem_ComponentHeader"><rect fill="#F1F1F1" height="48" id="ComponentHeader" rx="2.5" ry="2.5" style="stroke:#181818;stroke-width:0.5;" width="151" x="7" y="241"/><ellipse cx="22" cy="257" fill="#ADD1B2" rx="11" ry="11" style="stroke:#181818;stroke-width:1.0;"/><path d="M24.7656,252.875 Q24.9219,252.6563 25.1094,252.5469 Q25.2969,252.4375 25.5156,252.4375 Q25.8906,252.4375 26.125,252.7031 Q26.3594,252.9531 26.3594,253.5625 L26.3594,255.0156 Q26.3594,255.625 26.125,255.8906 Q25.8906,256.1563 25.5156,256.1563 Q25.1719,256.1563 24.9688,255.9531 Q24.7656,255.7656 24.6563,255.25 Q24.6094,254.8906 24.4219,254.7031 Q24.0938,254.3281 23.4844,254.1094 Q22.875,253.8906 22.25,253.8906 Q21.4844,253.8906 20.8438,254.2188 Q20.2188,254.5469 19.7188,255.2969 Q19.2344,256.0469 19.2344,257.0781 L19.2344,258.1719 Q19.2344,259.4063 20.125,260.2344 Q21.0156,261.0469 22.6094,261.0469 Q23.5469,261.0469 24.2031,260.7969 Q24.5938,260.6406 25.0156,260.2031 Q25.2813,259.9375 25.4219,259.8594 Q25.5781,259.7813 25.7813,259.7813 Q26.1094,259.7813 26.3594,260.0469 Q26.625,260.2969 26.625,260.6406 Q26.625,260.9844 26.2813,261.3906 Q25.7813,261.9688 24.9844,262.2969 Q23.9063,262.75 22.6094,262.75 Q21.0938,262.75 19.8906,262.125 Q18.9063,261.625 18.2188,260.5625 Q17.5313,259.4844 17.5313,258.2031 L17.5313,257.0469 Q17.5313,255.7188 18.1406,254.5781 Q18.7656,253.4219 19.8594,252.8125 Q20.9531,252.1875 22.1875,252.1875 Q22.9219,252.1875 23.5625,252.3594 Q24.2188,252.5156 24.7656,252.875 Z " fill="#000000"/><text fill="#000000" font-family="sans-serif" font-size="14" lengthAdjust="spacing" textLength="119" x="36" y="262.7285">ComponentHeader</text><line style="stroke:#181818;stroke-width:0.5;" x1="8" x2="157" y1="273" y2="273"/><line style="stroke:#181818;stroke-width:0.5;" x1="8" x2="157" y1="281" y2="281"/></g><!--MD5=[41f8c580327acedeef39b1c4413de103]
class ColorField--><g id="elem_ColorField"><rect fill="#F1F1F1" height="48" id="ColorField" rx="2.5" ry="2.5" style="stroke:#181818;stroke-width:0.5;" width="97" x="193" y="241"/><ellipse cx="208" cy="257" fill="#ADD1B2" rx="11" ry="11" style="stroke:#181818;stroke-width:1.0;"/><path d="M210.7656,252.875 Q210.9219,252.6563 211.1094,252.5469 Q211.2969,252.4375 211.5156,252.4375 Q211.8906,252.4375 212.125,252.7031 Q212.3594,252.9531 212.3594,253.5625 L212.3594,255.0156 Q212.3594,255.625 212.125,255.8906 Q211.8906,256.1563 211.5156,256.1563 Q211.1719,256.1563 210.9688,255.9531 Q210.7656,255.7656 210.6563,255.25 Q210.6094,254.8906 210.4219,254.7031 Q210.0938,254.3281 209.4844,254.1094 Q208.875,253.8906 208.25,253.8906 Q207.4844,253.8906 206.8438,254.2188 Q206.2188,254.5469 205.7188,255.2969 Q205.2344,256.0469 205.2344,257.0781 L205.2344,258.1719 Q205.2344,259.4063 206.125,260.2344 Q207.0156,261.0469 208.6094,261.0469 Q209.5469,261.0469 210.2031,260.7969 Q210.5938,260.6406 211.0156,260.2031 Q211.2813,259.9375 211.4219,259.8594 Q211.5781,259.7813 211.7813,259.7813 Q212.1094,259.7813 212.3594,260.0469 Q212.625,260.2969 212.625,260.6406 Q212.625,260.9844 212.2813,261.3906 Q211.7813,261.9688 210.9844,262.2969 Q209.9063,262.75 208.6094,262.75 Q207.0938,262.75 205.8906,262.125 Q204.9063,261.625 204.2188,260.5625 Q203.5313,259.4844 203.5313,258.2031 L203.5313,257.0469 Q203.5313,255.7188 204.1406,254.5781 Q204.7656,253.4219 205.8594,252.8125 Q206.9531,252.1875 208.1875,252.1875 Q208.9219,252.1875 209.5625,252.3594 Q210.2188,252.5156 210.7656,252.875 Z " fill="#000000"/><text fill="#000000" font-family="sans-serif" font-size="14" lengthAdjust="spacing" textLength="65" x="222" y="262.7285">ColorField</text><line style="stroke:#181818;stroke-width:0.5;" x1="194" x2="289" y1="273" y2="273"/><line style="stroke:#181818;stroke-width:0.5;" x1="194" x2="289" y1="281" y2="281"/></g><!--MD5=[c04ab2e2195716d19d8594462482892c]
class Toggle--><g id="elem_Toggle"><rect fill="#F1F1F1" height="48" id="Toggle" rx="2.5" ry="2.5" style="stroke:#181818;stroke-width:0.5;" width="76" x="325.5" y="241"/><ellipse cx="340.5" cy="257" fill="#ADD1B2" rx="11" ry="11" style="stroke:#181818;stroke-width:1.0;"/><path d="M343.2656,252.875 Q343.4219,252.6563 343.6094,252.5469 Q343.7969,252.4375 344.0156,252.4375 Q344.3906,252.4375 344.625,252.7031 Q344.8594,252.9531 344.8594,253.5625 L344.8594,255.0156 Q344.8594,255.625 344.625,255.8906 Q344.3906,256.1563 344.0156,256.1563 Q343.6719,256.1563 343.4688,255.9531 Q343.2656,255.7656 343.1563,255.25 Q343.1094,254.8906 342.9219,254.7031 Q342.5938,254.3281 341.9844,254.1094 Q341.375,253.8906 340.75,253.8906 Q339.9844,253.8906 339.3438,254.2188 Q338.7188,254.5469 338.2188,255.2969 Q337.7344,256.0469 337.7344,257.0781 L337.7344,258.1719 Q337.7344,259.4063 338.625,260.2344 Q339.5156,261.0469 341.1094,261.0469 Q342.0469,261.0469 342.7031,260.7969 Q343.0938,260.6406 343.5156,260.2031 Q343.7813,259.9375 343.9219,259.8594 Q344.0781,259.7813 344.2813,259.7813 Q344.6094,259.7813 344.8594,260.0469 Q345.125,260.2969 345.125,260.6406 Q345.125,260.9844 344.7813,261.3906 Q344.2813,261.9688 343.4844,262.2969 Q342.4063,262.75 341.1094,262.75 Q339.5938,262.75 338.3906,262.125 Q337.4063,261.625 336.7188,260.5625 Q336.0313,259.4844 336.0313,258.2031 L336.0313,257.0469 Q336.0313,255.7188 336.6406,254.5781 Q337.2656,253.4219 338.3594,252.8125 Q339.4531,252.1875 340.6875,252.1875 Q341.4219,252.1875 342.0625,252.3594 Q342.7188,252.5156 343.2656,252.875 Z " fill="#000000"/><text fill="#000000" font-family="sans-serif" font-size="14" lengthAdjust="spacing" textLength="44" x="354.5" y="262.7285">Toggle</text><line style="stroke:#181818;stroke-width:0.5;" x1="326.5" x2="400.5" y1="273" y2="273"/><line style="stroke:#181818;stroke-width:0.5;" x1="326.5" x2="400.5" y1="281" y2="281"/></g><!--MD5=[d523b40538f9e24ec8a1c42f6501ade7]
reverse link VisualElement to ThreePointLightView--><g id="link_VisualElement_ThreePointLightView"><path codeLine="4" d="M241.5,75.62 C241.5,88.56 241.5,102.51 241.5,114.61 " fill="none" id="VisualElement-backto-ThreePointLightView" style="stroke:#181818;stroke-width:1.0;"/><polygon fill="none" points="234.5,75.27,241.5,55.27,248.5,75.27,234.5,75.27" style="stroke:#181818;stroke-width:1.0;"/></g><!--MD5=[5aff198a2f6b0687e301c7487f652230]
link ThreePointLightView to ComponentHeader--><g id="link_ThreePointLightView_ComponentHeader"><path codeLine="5" d="M197.21,181.03 C172.47,198.93 142.03,220.94 118.72,237.8 " fill="none" id="ThreePointLightView-to-ComponentHeader" style="stroke:#181818;stroke-width:1.0;"/><polygon fill="#181818" points="114.46,240.89,124.0952,238.8496,118.5092,237.9568,119.4021,232.3709,114.46,240.89" style="stroke:#181818;stroke-width:1.0;"/><text fill="#000000" font-family="sans-serif" font-size="13" lengthAdjust="spacing" textLength="39" x="78.6529" y="230.202">header</text></g><!--MD5=[d0ad87eae8530e51e60f2fa48c0ce1ab]
link ThreePointLightView to ColorField--><g id="link_ThreePointLightView_ColorField"><path codeLine="6" d="M217.69,181.03 C214.17,198.26 214.46,219.31 218.57,235.89 " fill="none" id="ThreePointLightView-to-ColorField" style="stroke:#181818;stroke-width:1.0;"/><polygon fill="#181818" points="219.97,240.89,221.4048,231.1462,218.6266,236.0738,213.699,233.2956,219.97,240.89" style="stroke:#181818;stroke-width:1.0;"/><text fill="#000000" font-family="sans-serif" font-size="13" lengthAdjust="spacing" textLength="45" x="163.6873" y="230.202">leftcolor</text></g><!--MD5=[d0ad87eae8530e51e60f2fa48c0ce1ab]
link ThreePointLightView to ColorField--><g id="link_ThreePointLightView_ColorField"><path codeLine="7" d="M241.5,181.03 C241.5,198.11 241.5,218.94 241.5,235.46 " fill="none" id="ThreePointLightView-to-ColorField-1" style="stroke:#181818;stroke-width:1.0;"/><polygon fill="#181818" points="241.5,240.89,245.5,231.89,241.5,235.89,237.5,231.89,241.5,240.89" style="stroke:#181818;stroke-width:1.0;"/><text fill="#000000" font-family="sans-serif" font-size="13" lengthAdjust="spacing" textLength="53" x="248.2906" y="230.202">rightcolor</text></g><!--MD5=[d0ad87eae8530e51e60f2fa48c0ce1ab]
link ThreePointLightView to ColorField--><g id="link_ThreePointLightView_ColorField"><path codeLine="8" d="M265.31,181.03 C268.83,198.26 268.54,219.31 264.43,235.89 " fill="none" id="ThreePointLightView-to-ColorField-2" style="stroke:#181818;stroke-width:1.0;"/><polygon fill="#181818" points="263.03,240.89,269.301,233.2956,264.3734,236.0738,261.5952,231.1462,263.03,240.89" style="stroke:#181818;stroke-width:1.0;"/><text fill="#000000" font-family="sans-serif" font-size="13" lengthAdjust="spacing" textLength="53" x="280.6237" y="229.829">frontcolor</text></g><!--MD5=[9d3e7fc284e88d0c4056bacf4098a882]
link ThreePointLightView to Toggle--><g id="link_ThreePointLightView_Toggle"><path codeLine="9" d="M275.48,181.03 C294.23,198.71 317.24,220.4 335.04,237.17 " fill="none" id="ThreePointLightView-to-Toggle" style="stroke:#181818;stroke-width:1.0;"/><polygon fill="#181818" points="338.98,240.89,335.1677,231.8089,335.339,237.4632,329.6847,237.6345,338.98,240.89" style="stroke:#181818;stroke-width:1.0;"/><text fill="#000000" font-family="sans-serif" font-size="13" lengthAdjust="spacing" textLength="66" x="341.153" y="230.202">makeSame</text></g><!--MD5=[45d401e98ec0460d0b992d3e56f1c2c1]
@startuml
!include ..\..\..\out_puml\Scripts\Views\ThreePointLightView.puml
@enduml

@startuml
class ThreePointLightView {
    + ThreePointLightView()
}
VisualElement <|- - ThreePointLightView
ThreePointLightView - -> "header" ComponentHeader
ThreePointLightView - -> "leftcolor" ColorField
ThreePointLightView - -> "rightcolor" ColorField
ThreePointLightView - -> "frontcolor" ColorField
ThreePointLightView - -> "makeSame" Toggle
@enduml

PlantUML version 1.2022.5(Sat Apr 30 20:55:52 AEST 2022)
(GPL source distribution)
Java Runtime: Java(TM) SE Runtime Environment
JVM: Java HotSpot(TM) 64-Bit Server VM
Default Encoding: Cp1252
Language: en
Country: AU
--></g></svg>