<?xml version="1.0" encoding="UTF-8" standalone="no"?><svg xmlns="http://www.w3.org/2000/svg" xmlns:xlink="http://www.w3.org/1999/xlink" contentStyleType="text/css" height="166px" preserveAspectRatio="none" style="width:892px;height:166px;background:#FFFFFF;" version="1.1" viewBox="0 0 892 166" width="892px" zoomAndPan="magnify"><defs/><g><!--MD5=[97cbd117c89b44122c332e7b1e68f35d]
class AvatarConfigurationsToBones--><g id="elem_AvatarConfigurationsToBones"><rect codeLine="1" fill="#F1F1F1" height="118.4375" id="AvatarConfigurationsToBones" rx="2.5" ry="2.5" style="stroke:#181818;stroke-width:0.5;" width="388" x="7" y="41"/><ellipse cx="101.75" cy="57" fill="#ADD1B2" rx="11" ry="11" style="stroke:#181818;stroke-width:1.0;"/><path d="M104.5156,52.875 Q104.6719,52.6563 104.8594,52.5469 Q105.0469,52.4375 105.2656,52.4375 Q105.6406,52.4375 105.875,52.7031 Q106.1094,52.9531 106.1094,53.5625 L106.1094,55.0156 Q106.1094,55.625 105.875,55.8906 Q105.6406,56.1563 105.2656,56.1563 Q104.9219,56.1563 104.7188,55.9531 Q104.5156,55.7656 104.4063,55.25 Q104.3594,54.8906 104.1719,54.7031 Q103.8438,54.3281 103.2344,54.1094 Q102.625,53.8906 102,53.8906 Q101.2344,53.8906 100.5938,54.2188 Q99.9688,54.5469 99.4688,55.2969 Q98.9844,56.0469 98.9844,57.0781 L98.9844,58.1719 Q98.9844,59.4063 99.875,60.2344 Q100.7656,61.0469 102.3594,61.0469 Q103.2969,61.0469 103.9531,60.7969 Q104.3438,60.6406 104.7656,60.2031 Q105.0313,59.9375 105.1719,59.8594 Q105.3281,59.7813 105.5313,59.7813 Q105.8594,59.7813 106.1094,60.0469 Q106.375,60.2969 106.375,60.6406 Q106.375,60.9844 106.0313,61.3906 Q105.5313,61.9688 104.7344,62.2969 Q103.6563,62.75 102.3594,62.75 Q100.8438,62.75 99.6406,62.125 Q98.6563,61.625 97.9688,60.5625 Q97.2813,59.4844 97.2813,58.2031 L97.2813,57.0469 Q97.2813,55.7188 97.8906,54.5781 Q98.5156,53.4219 99.6094,52.8125 Q100.7031,52.1875 101.9375,52.1875 Q102.6719,52.1875 103.3125,52.3594 Q103.9688,52.5156 104.5156,52.875 Z " fill="#000000"/><text fill="#000000" font-family="sans-serif" font-size="14" lengthAdjust="spacing" textLength="190" x="122.25" y="62.7285">AvatarConfigurationsToBones</text><line style="stroke:#181818;stroke-width:0.5;" x1="8" x2="394" y1="73" y2="73"/><line style="stroke:#181818;stroke-width:0.5;" x1="8" x2="394" y1="81" y2="81"/><text fill="#000000" font-family="sans-serif" font-size="14" lengthAdjust="spacing" textLength="200" x="27" y="99.5332">AvatarConfigurationsToBones()</text><ellipse cx="18" cy="109.6094" fill="#84BE84" rx="3" ry="3" style="stroke:#038048;stroke-width:1.0;"/><text fill="#000000" font-family="sans-serif" font-size="14" lengthAdjust="spacing" text-decoration="underline" textLength="265" x="27" y="117.1426">Instance() : AvatarConfigurationsToBones</text><ellipse cx="18" cy="127.2188" fill="#84BE84" rx="3" ry="3" style="stroke:#038048;stroke-width:1.0;"/><text fill="#000000" font-family="sans-serif" font-size="14" lengthAdjust="spacing" textLength="362" x="27" y="134.752">GetConfig() : Dictionary&lt;string, List&lt;HumanBodyBones&gt;&gt;</text><ellipse cx="18" cy="144.8281" fill="#84BE84" rx="3" ry="3" style="stroke:#038048;stroke-width:1.0;"/><text fill="#000000" font-family="sans-serif" font-size="14" lengthAdjust="spacing" textLength="102" x="27" y="152.3613">Default() : string</text></g><!--MD5=[2e1ff885372daab8d802f213ced6c836]
class Dictionary`2--><g id="elem_Dictionary`2"><rect codeLine="7" fill="#F1F1F1" height="48" id="Dictionary`2" rx="2.5" ry="2.5" style="stroke:#181818;stroke-width:0.5;" width="143" x="455" y="76"/><ellipse cx="470" cy="92" fill="#ADD1B2" rx="11" ry="11" style="stroke:#181818;stroke-width:1.0;"/><path d="M472.7656,87.875 Q472.9219,87.6563 473.1094,87.5469 Q473.2969,87.4375 473.5156,87.4375 Q473.8906,87.4375 474.125,87.7031 Q474.3594,87.9531 474.3594,88.5625 L474.3594,90.0156 Q474.3594,90.625 474.125,90.8906 Q473.8906,91.1563 473.5156,91.1563 Q473.1719,91.1563 472.9688,90.9531 Q472.7656,90.7656 472.6563,90.25 Q472.6094,89.8906 472.4219,89.7031 Q472.0938,89.3281 471.4844,89.1094 Q470.875,88.8906 470.25,88.8906 Q469.4844,88.8906 468.8438,89.2188 Q468.2188,89.5469 467.7188,90.2969 Q467.2344,91.0469 467.2344,92.0781 L467.2344,93.1719 Q467.2344,94.4063 468.125,95.2344 Q469.0156,96.0469 470.6094,96.0469 Q471.5469,96.0469 472.2031,95.7969 Q472.5938,95.6406 473.0156,95.2031 Q473.2813,94.9375 473.4219,94.8594 Q473.5781,94.7813 473.7813,94.7813 Q474.1094,94.7813 474.3594,95.0469 Q474.625,95.2969 474.625,95.6406 Q474.625,95.9844 474.2813,96.3906 Q473.7813,96.9688 472.9844,97.2969 Q471.9063,97.75 470.6094,97.75 Q469.0938,97.75 467.8906,97.125 Q466.9063,96.625 466.2188,95.5625 Q465.5313,94.4844 465.5313,93.2031 L465.5313,92.0469 Q465.5313,90.7188 466.1406,89.5781 Q466.7656,88.4219 467.8594,87.8125 Q468.9531,87.1875 470.1875,87.1875 Q470.9219,87.1875 471.5625,87.3594 Q472.2188,87.5156 472.7656,87.875 Z " fill="#000000"/><text fill="#000000" font-family="sans-serif" font-size="14" lengthAdjust="spacing" textLength="76" x="484" y="97.7285">Dictionary`2</text><rect fill="#FFFFFF" height="17.0938" style="stroke:#000000;stroke-width:1.0;stroke-dasharray:2.0,2.0;" width="33" x="568" y="73"/><text fill="#000000" font-family="sans-serif" font-size="12" font-style="italic" lengthAdjust="spacing" textLength="31" x="569" y="86.457">T1,T2</text><line style="stroke:#181818;stroke-width:0.5;" x1="456" x2="597" y1="108" y2="108"/><line style="stroke:#181818;stroke-width:0.5;" x1="456" x2="597" y1="116" y2="116"/></g><!--MD5=[c57dce0122cb034145f99c7a89d3d715]
link AvatarConfigurationsToBones to AvatarConfigurationsToBones--><g id="link_AvatarConfigurationsToBones_AvatarConfigurationsToBones"><path codeLine="9" d="M140.25,40.79 C140.57,21.42 160.82,6 201,6 C237.42,6 257.46,18.67 261.13,35.46 " fill="none" id="AvatarConfigurationsToBones-to-AvatarConfigurationsToBones" style="stroke:#181818;stroke-width:1.0;"/><polygon fill="#181818" points="261.75,40.79,264.693,31.3911,261.1774,35.8229,256.7457,32.3073,261.75,40.79" style="stroke:#181818;stroke-width:1.0;"/><text fill="#000000" font-family="sans-serif" font-size="13" lengthAdjust="spacing" textLength="49" x="217.168" y="30.0887">instance</text></g><!--MD5=[6a95eedd05c7dc96ed800c5d7cd1532f]
link AvatarConfigurationsToBones to Dictionary`2--><g id="link_AvatarConfigurationsToBones_Dictionary`2"><path codeLine="10" d="M395.32,100 C414.4,100 432.86,100 449.6,100 " fill="none" id="AvatarConfigurationsToBones-to-Dictionary`2" style="stroke:#181818;stroke-width:1.0;"/><polygon fill="#181818" points="454.74,100,445.74,96,449.74,100,445.74,104,454.74,100" style="stroke:#181818;stroke-width:1.0;"/><text fill="#000000" font-family="sans-serif" font-size="13" lengthAdjust="spacing" textLength="282" x="603.606" y="131.073">configToBones&lt;string,List&lt;HumanBodyBones&gt;&gt;</text></g><!--MD5=[62d50c5f7937a28e25ad135deb23a973]
@startuml
left to right direction
!include ..\..\..\out_puml\Scripts\Models\AvatarConfigurationsToBones.puml

@enduml

@startuml
left to right direction
class AvatarConfigurationsToBones {
    AvatarConfigurationsToBones()
    + {static} Instance() : AvatarConfigurationsToBones
    + GetConfig() : Dictionary<string, List<HumanBodyBones>>
    + Default() : string
}
class "Dictionary`2"<T1,T2> {
}
AvatarConfigurationsToBones - -> "instance" AvatarConfigurationsToBones
AvatarConfigurationsToBones - -> "configToBones<string,List<HumanBodyBones>>" "Dictionary`2"

@enduml

PlantUML version 1.2022.5(Sat Apr 30 20:55:52 AEST 2022)
(GPL source distribution)
Java Runtime: Java(TM) SE Runtime Environment
JVM: Java HotSpot(TM) 64-Bit Server VM
Default Encoding: Cp1252
Language: en
Country: AU
--></g></svg>