<?xml version="1.0" encoding="UTF-8" standalone="no"?><svg xmlns="http://www.w3.org/2000/svg" xmlns:xlink="http://www.w3.org/1999/xlink" contentStyleType="text/css" height="308px" preserveAspectRatio="none" style="width:2005px;height:308px;background:#FFFFFF;" version="1.1" viewBox="0 0 2005 308" width="2005px" zoomAndPan="magnify"><defs/><g><!--MD5=[ea6ee67eef2024076e80218c666a883d]
class EffectSelectorModel--><g id="elem_EffectSelectorModel"><rect codeLine="1" fill="#F1F1F1" height="83.2188" id="EffectSelectorModel" rx="2.5" ry="2.5" style="stroke:#181818;stroke-width:0.5;" width="264" x="967" y="90.5"/><ellipse cx="1031.75" cy="106.5" fill="#ADD1B2" rx="11" ry="11" style="stroke:#181818;stroke-width:1.0;"/><path d="M1034.5156,102.375 Q1034.6719,102.1563 1034.8594,102.0469 Q1035.0469,101.9375 1035.2656,101.9375 Q1035.6406,101.9375 1035.875,102.2031 Q1036.1094,102.4531 1036.1094,103.0625 L1036.1094,104.5156 Q1036.1094,105.125 1035.875,105.3906 Q1035.6406,105.6563 1035.2656,105.6563 Q1034.9219,105.6563 1034.7188,105.4531 Q1034.5156,105.2656 1034.4063,104.75 Q1034.3594,104.3906 1034.1719,104.2031 Q1033.8438,103.8281 1033.2344,103.6094 Q1032.625,103.3906 1032,103.3906 Q1031.2344,103.3906 1030.5938,103.7188 Q1029.9688,104.0469 1029.4688,104.7969 Q1028.9844,105.5469 1028.9844,106.5781 L1028.9844,107.6719 Q1028.9844,108.9063 1029.875,109.7344 Q1030.7656,110.5469 1032.3594,110.5469 Q1033.2969,110.5469 1033.9531,110.2969 Q1034.3438,110.1406 1034.7656,109.7031 Q1035.0313,109.4375 1035.1719,109.3594 Q1035.3281,109.2813 1035.5313,109.2813 Q1035.8594,109.2813 1036.1094,109.5469 Q1036.375,109.7969 1036.375,110.1406 Q1036.375,110.4844 1036.0313,110.8906 Q1035.5313,111.4688 1034.7344,111.7969 Q1033.6563,112.25 1032.3594,112.25 Q1030.8438,112.25 1029.6406,111.625 Q1028.6563,111.125 1027.9688,110.0625 Q1027.2813,108.9844 1027.2813,107.7031 L1027.2813,106.5469 Q1027.2813,105.2188 1027.8906,104.0781 Q1028.5156,102.9219 1029.6094,102.3125 Q1030.7031,101.6875 1031.9375,101.6875 Q1032.6719,101.6875 1033.3125,101.8594 Q1033.9688,102.0156 1034.5156,102.375 Z " fill="#000000"/><text fill="#000000" font-family="sans-serif" font-size="14" lengthAdjust="spacing" textLength="126" x="1052.25" y="112.2285">EffectSelectorModel</text><line style="stroke:#181818;stroke-width:0.5;" x1="968" x2="1230" y1="122.5" y2="122.5"/><line style="stroke:#181818;stroke-width:0.5;" x1="968" x2="1230" y1="130.5" y2="130.5"/><text fill="#000000" font-family="sans-serif" font-size="14" lengthAdjust="spacing" textLength="136" x="987" y="149.0332">EffectSelectorModel()</text><ellipse cx="978" cy="159.1094" fill="#84BE84" rx="3" ry="3" style="stroke:#038048;stroke-width:1.0;"/><text fill="#000000" font-family="sans-serif" font-size="14" lengthAdjust="spacing" textLength="238" x="987" y="166.6426">«override» CreateUI() : VisualElement</text></g><!--MD5=[e2229889de355d722c3809d9bde2e185]
class SelectorModel--><g id="elem_SelectorModel"><rect codeLine="1" fill="#F1F1F1" height="171.2656" id="SelectorModel" rx="2.5" ry="2.5" style="stroke:#181818;stroke-width:0.5;" width="396" x="510" y="46.5"/><ellipse cx="658.75" cy="62.5" fill="#ADD1B2" rx="11" ry="11" style="stroke:#181818;stroke-width:1.0;"/><path d="M661.5156,58.375 Q661.6719,58.1563 661.8594,58.0469 Q662.0469,57.9375 662.2656,57.9375 Q662.6406,57.9375 662.875,58.2031 Q663.1094,58.4531 663.1094,59.0625 L663.1094,60.5156 Q663.1094,61.125 662.875,61.3906 Q662.6406,61.6563 662.2656,61.6563 Q661.9219,61.6563 661.7188,61.4531 Q661.5156,61.2656 661.4063,60.75 Q661.3594,60.3906 661.1719,60.2031 Q660.8438,59.8281 660.2344,59.6094 Q659.625,59.3906 659,59.3906 Q658.2344,59.3906 657.5938,59.7188 Q656.9688,60.0469 656.4688,60.7969 Q655.9844,61.5469 655.9844,62.5781 L655.9844,63.6719 Q655.9844,64.9063 656.875,65.7344 Q657.7656,66.5469 659.3594,66.5469 Q660.2969,66.5469 660.9531,66.2969 Q661.3438,66.1406 661.7656,65.7031 Q662.0313,65.4375 662.1719,65.3594 Q662.3281,65.2813 662.5313,65.2813 Q662.8594,65.2813 663.1094,65.5469 Q663.375,65.7969 663.375,66.1406 Q663.375,66.4844 663.0313,66.8906 Q662.5313,67.4688 661.7344,67.7969 Q660.6563,68.25 659.3594,68.25 Q657.8438,68.25 656.6406,67.625 Q655.6563,67.125 654.9688,66.0625 Q654.2813,64.9844 654.2813,63.7031 L654.2813,62.5469 Q654.2813,61.2188 654.8906,60.0781 Q655.5156,58.9219 656.6094,58.3125 Q657.7031,57.6875 658.9375,57.6875 Q659.6719,57.6875 660.3125,57.8594 Q660.9688,58.0156 661.5156,58.375 Z " fill="#000000"/><text fill="#000000" font-family="sans-serif" font-size="14" lengthAdjust="spacing" textLength="90" x="679.25" y="68.2285">SelectorModel</text><line style="stroke:#181818;stroke-width:0.5;" x1="511" x2="905" y1="78.5" y2="78.5"/><ellipse cx="521" cy="89.5" fill="none" rx="3" ry="3" style="stroke:#038048;stroke-width:1.0;"/><text fill="#000000" font-family="sans-serif" font-size="14" lengthAdjust="spacing" textLength="126" x="530" y="97.0332">selected : string = ""</text><ellipse cx="521" cy="107.1094" fill="none" rx="3" ry="3" style="stroke:#038048;stroke-width:1.0;"/><text fill="#000000" font-family="sans-serif" font-size="14" lengthAdjust="spacing" textLength="275" x="530" y="114.6426">shouldDrawSeparatelyChildren : bool = true</text><line style="stroke:#181818;stroke-width:0.5;" x1="511" x2="905" y1="121.7188" y2="121.7188"/><text fill="#000000" font-family="sans-serif" font-size="14" lengthAdjust="spacing" textLength="290" x="530" y="140.252">ComponentIndex(component:Component) : int</text><text fill="#000000" font-family="sans-serif" font-size="14" lengthAdjust="spacing" textLength="370" x="530" y="157.8613">MoveComponentTo(end:int, component:Component) : void</text><ellipse cx="521" cy="167.9375" fill="#84BE84" rx="3" ry="3" style="stroke:#038048;stroke-width:1.0;"/><text fill="#000000" font-family="sans-serif" font-size="14" lengthAdjust="spacing" textLength="197" x="530" y="175.4707">«override» OnChanged() : void</text><ellipse cx="521" cy="185.5469" fill="#84BE84" rx="3" ry="3" style="stroke:#038048;stroke-width:1.0;"/><text fill="#000000" font-family="sans-serif" font-size="14" lengthAdjust="spacing" textLength="138" x="530" y="193.0801">GetSelected() : Model</text><ellipse cx="521" cy="203.1563" fill="#84BE84" rx="3" ry="3" style="stroke:#038048;stroke-width:1.0;"/><text fill="#000000" font-family="sans-serif" font-size="14" lengthAdjust="spacing" textLength="247" x="530" y="210.6895">CreateSelectedVisual() : VisualElement</text></g><!--MD5=[7e20e022571e30ec1001cf6eabd7f3e2]
class Model--><g id="elem_Model"><rect codeLine="1" fill="#F1F1F1" height="224.0938" id="Model" rx="2.5" ry="2.5" style="stroke:#181818;stroke-width:0.5;" width="250" x="199" y="20"/><ellipse cx="300.25" cy="36" fill="#A9DCDF" rx="11" ry="11" style="stroke:#181818;stroke-width:1.0;"/><path d="M302.4375,37.7656 L298.2969,37.7656 L297.875,38.7969 L298.2969,38.7969 Q298.9063,38.7969 299.1719,39.0313 Q299.4375,39.2656 299.4375,39.6563 Q299.4375,40.0313 299.1719,40.2656 Q298.9063,40.5 298.2969,40.5 L296,40.5 Q295.3906,40.5 295.1406,40.2656 Q294.875,40.0313 294.875,39.6406 Q294.875,39.2656 295.1563,39.0313 Q295.4219,38.7813 296.0469,38.7969 L298.7188,32.1406 L297.6094,32.1406 Q297,32.1406 296.7344,31.9063 Q296.4688,31.6719 296.4688,31.2813 Q296.4688,30.9063 296.7344,30.6719 Q297,30.4375 297.6094,30.4375 L301.2813,30.4375 L304.6719,38.7969 Q305.2656,38.7969 305.4531,38.9375 Q305.8438,39.2031 305.8438,39.6563 Q305.8438,40.0313 305.5781,40.2656 Q305.3281,40.5 304.7188,40.5 L302.4219,40.5 Q301.8125,40.5 301.5469,40.2656 Q301.2813,40.0313 301.2813,39.6406 Q301.2813,39.2656 301.5469,39.0313 Q301.8125,38.7969 302.4219,38.7969 L302.8438,38.7969 L302.4375,37.7656 Z M301.7188,36.0625 L300.3594,32.6875 L298.9844,36.0625 L301.7188,36.0625 Z " fill="#000000"/><text fill="#000000" font-family="sans-serif" font-size="14" font-style="italic" lengthAdjust="spacing" textLength="39" x="320.75" y="41.7285">Model</text><line style="stroke:#181818;stroke-width:0.5;" x1="200" x2="448" y1="52" y2="52"/><text fill="#000000" font-family="sans-serif" font-size="14" lengthAdjust="spacing" textLength="164" x="219" y="70.5332">shoudUpdate : bool = true</text><ellipse cx="210" cy="80.6094" fill="none" rx="3" ry="3" style="stroke:#038048;stroke-width:1.0;"/><text fill="#000000" font-family="sans-serif" font-size="14" lengthAdjust="spacing" textLength="154" x="219" y="88.1426">shouldDraw : bool = true</text><line style="stroke:#181818;stroke-width:0.5;" x1="200" x2="448" y1="95.2188" y2="95.2188"/><ellipse cx="210" cy="106.2188" fill="#84BE84" rx="3" ry="3" style="stroke:#038048;stroke-width:1.0;"/><text fill="#000000" font-family="sans-serif" font-size="14" lengthAdjust="spacing" textLength="136" x="219" y="113.752">«virtual» Start() : void</text><ellipse cx="210" cy="123.8281" fill="#84BE84" rx="3" ry="3" style="stroke:#038048;stroke-width:1.0;"/><text fill="#000000" font-family="sans-serif" font-size="14" lengthAdjust="spacing" textLength="224" x="219" y="131.3613">«virtual» CreateUI() : VisualElement</text><ellipse cx="210" cy="141.4375" fill="#84BE84" rx="3" ry="3" style="stroke:#038048;stroke-width:1.0;"/><text fill="#000000" font-family="sans-serif" font-size="14" lengthAdjust="spacing" textLength="183" x="219" y="148.9707">«virtual» OnChanged() : void</text><polygon fill="#FFFF44" points="210,154.0469,214,158.0469,210,162.0469,206,158.0469" style="stroke:#B38D22;stroke-width:1.0;"/><text fill="#000000" font-family="sans-serif" font-size="14" lengthAdjust="spacing" textLength="151" x="219" y="166.5801">«virtual» Update() : void</text><ellipse cx="210" cy="176.6563" fill="#84BE84" rx="3" ry="3" style="stroke:#038048;stroke-width:1.0;"/><text fill="#000000" font-family="sans-serif" font-size="14" lengthAdjust="spacing" textLength="180" x="219" y="184.1895">UpdateOnNextFrame() : void</text><ellipse cx="210" cy="194.2656" fill="#84BE84" rx="3" ry="3" style="stroke:#038048;stroke-width:1.0;"/><text fill="#000000" font-family="sans-serif" font-size="14" lengthAdjust="spacing" textLength="111" x="219" y="201.7988">OnEnable() : void</text><ellipse cx="210" cy="211.875" fill="#84BE84" rx="3" ry="3" style="stroke:#038048;stroke-width:1.0;"/><text fill="#000000" font-family="sans-serif" font-size="14" lengthAdjust="spacing" textLength="114" x="219" y="219.4082">OnDisable() : void</text><ellipse cx="210" cy="229.4844" fill="#84BE84" rx="3" ry="3" style="stroke:#038048;stroke-width:1.0;"/><text fill="#000000" font-family="sans-serif" font-size="14" lengthAdjust="spacing" textLength="118" x="219" y="237.0176">OnValidate() : void</text></g><!--MD5=[83b3cf3d23d77c6f1e1b5291a241bc2a]
class MonoBehaviour--><g id="elem_MonoBehaviour"><rect fill="#F1F1F1" height="48" id="MonoBehaviour" rx="2.5" ry="2.5" style="stroke:#181818;stroke-width:0.5;" width="131" x="7" y="108"/><ellipse cx="22" cy="124" fill="#ADD1B2" rx="11" ry="11" style="stroke:#181818;stroke-width:1.0;"/><path d="M24.7656,119.875 Q24.9219,119.6563 25.1094,119.5469 Q25.2969,119.4375 25.5156,119.4375 Q25.8906,119.4375 26.125,119.7031 Q26.3594,119.9531 26.3594,120.5625 L26.3594,122.0156 Q26.3594,122.625 26.125,122.8906 Q25.8906,123.1563 25.5156,123.1563 Q25.1719,123.1563 24.9688,122.9531 Q24.7656,122.7656 24.6563,122.25 Q24.6094,121.8906 24.4219,121.7031 Q24.0938,121.3281 23.4844,121.1094 Q22.875,120.8906 22.25,120.8906 Q21.4844,120.8906 20.8438,121.2188 Q20.2188,121.5469 19.7188,122.2969 Q19.2344,123.0469 19.2344,124.0781 L19.2344,125.1719 Q19.2344,126.4063 20.125,127.2344 Q21.0156,128.0469 22.6094,128.0469 Q23.5469,128.0469 24.2031,127.7969 Q24.5938,127.6406 25.0156,127.2031 Q25.2813,126.9375 25.4219,126.8594 Q25.5781,126.7813 25.7813,126.7813 Q26.1094,126.7813 26.3594,127.0469 Q26.625,127.2969 26.625,127.6406 Q26.625,127.9844 26.2813,128.3906 Q25.7813,128.9688 24.9844,129.2969 Q23.9063,129.75 22.6094,129.75 Q21.0938,129.75 19.8906,129.125 Q18.9063,128.625 18.2188,127.5625 Q17.5313,126.4844 17.5313,125.2031 L17.5313,124.0469 Q17.5313,122.7188 18.1406,121.5781 Q18.7656,120.4219 19.8594,119.8125 Q20.9531,119.1875 22.1875,119.1875 Q22.9219,119.1875 23.5625,119.3594 Q24.2188,119.5156 24.7656,119.875 Z " fill="#000000"/><text fill="#000000" font-family="sans-serif" font-size="14" lengthAdjust="spacing" textLength="99" x="36" y="129.7285">MonoBehaviour</text><line style="stroke:#181818;stroke-width:0.5;" x1="8" x2="137" y1="140" y2="140"/><line style="stroke:#181818;stroke-width:0.5;" x1="8" x2="137" y1="148" y2="148"/></g><!--MD5=[e644022de7dea015dd09463c37421447]
class List`1--><g id="elem_List`1"><rect codeLine="10" fill="#F1F1F1" height="48" id="List`1" rx="2.5" ry="2.5" style="stroke:#181818;stroke-width:0.5;" width="78" x="669" y="253"/><ellipse cx="684" cy="269" fill="#ADD1B2" rx="11" ry="11" style="stroke:#181818;stroke-width:1.0;"/><path d="M686.7656,264.875 Q686.9219,264.6563 687.1094,264.5469 Q687.2969,264.4375 687.5156,264.4375 Q687.8906,264.4375 688.125,264.7031 Q688.3594,264.9531 688.3594,265.5625 L688.3594,267.0156 Q688.3594,267.625 688.125,267.8906 Q687.8906,268.1563 687.5156,268.1563 Q687.1719,268.1563 686.9688,267.9531 Q686.7656,267.7656 686.6563,267.25 Q686.6094,266.8906 686.4219,266.7031 Q686.0938,266.3281 685.4844,266.1094 Q684.875,265.8906 684.25,265.8906 Q683.4844,265.8906 682.8438,266.2188 Q682.2188,266.5469 681.7188,267.2969 Q681.2344,268.0469 681.2344,269.0781 L681.2344,270.1719 Q681.2344,271.4063 682.125,272.2344 Q683.0156,273.0469 684.6094,273.0469 Q685.5469,273.0469 686.2031,272.7969 Q686.5938,272.6406 687.0156,272.2031 Q687.2813,271.9375 687.4219,271.8594 Q687.5781,271.7813 687.7813,271.7813 Q688.1094,271.7813 688.3594,272.0469 Q688.625,272.2969 688.625,272.6406 Q688.625,272.9844 688.2813,273.3906 Q687.7813,273.9688 686.9844,274.2969 Q685.9063,274.75 684.6094,274.75 Q683.0938,274.75 681.8906,274.125 Q680.9063,273.625 680.2188,272.5625 Q679.5313,271.4844 679.5313,270.2031 L679.5313,269.0469 Q679.5313,267.7188 680.1406,266.5781 Q680.7656,265.4219 681.8594,264.8125 Q682.9531,264.1875 684.1875,264.1875 Q684.9219,264.1875 685.5625,264.3594 Q686.2188,264.5156 686.7656,264.875 Z " fill="#000000"/><text fill="#000000" font-family="sans-serif" font-size="14" lengthAdjust="spacing" textLength="35" x="698" y="274.7285">List`1</text><rect fill="#FFFFFF" height="17.0938" style="stroke:#000000;stroke-width:1.0;stroke-dasharray:2.0,2.0;" width="9" x="741" y="250"/><text fill="#000000" font-family="sans-serif" font-size="12" font-style="italic" lengthAdjust="spacing" textLength="7" x="742" y="263.457">T</text><line style="stroke:#181818;stroke-width:0.5;" x1="670" x2="746" y1="285" y2="285"/><line style="stroke:#181818;stroke-width:0.5;" x1="670" x2="746" y1="293" y2="293"/></g><!--MD5=[6978854a4f5a024f75fedb9865e7fa1e]
class EffectSelector--><g id="elem_EffectSelector"><rect codeLine="1" fill="#F1F1F1" height="65.6094" id="EffectSelector" rx="2.5" ry="2.5" style="stroke:#181818;stroke-width:0.5;" width="450" x="1336" y="49"/><ellipse cx="1512.75" cy="65" fill="#ADD1B2" rx="11" ry="11" style="stroke:#181818;stroke-width:1.0;"/><path d="M1515.5156,60.875 Q1515.6719,60.6563 1515.8594,60.5469 Q1516.0469,60.4375 1516.2656,60.4375 Q1516.6406,60.4375 1516.875,60.7031 Q1517.1094,60.9531 1517.1094,61.5625 L1517.1094,63.0156 Q1517.1094,63.625 1516.875,63.8906 Q1516.6406,64.1563 1516.2656,64.1563 Q1515.9219,64.1563 1515.7188,63.9531 Q1515.5156,63.7656 1515.4063,63.25 Q1515.3594,62.8906 1515.1719,62.7031 Q1514.8438,62.3281 1514.2344,62.1094 Q1513.625,61.8906 1513,61.8906 Q1512.2344,61.8906 1511.5938,62.2188 Q1510.9688,62.5469 1510.4688,63.2969 Q1509.9844,64.0469 1509.9844,65.0781 L1509.9844,66.1719 Q1509.9844,67.4063 1510.875,68.2344 Q1511.7656,69.0469 1513.3594,69.0469 Q1514.2969,69.0469 1514.9531,68.7969 Q1515.3438,68.6406 1515.7656,68.2031 Q1516.0313,67.9375 1516.1719,67.8594 Q1516.3281,67.7813 1516.5313,67.7813 Q1516.8594,67.7813 1517.1094,68.0469 Q1517.375,68.2969 1517.375,68.6406 Q1517.375,68.9844 1517.0313,69.3906 Q1516.5313,69.9688 1515.7344,70.2969 Q1514.6563,70.75 1513.3594,70.75 Q1511.8438,70.75 1510.6406,70.125 Q1509.6563,69.625 1508.9688,68.5625 Q1508.2813,67.4844 1508.2813,66.2031 L1508.2813,65.0469 Q1508.2813,63.7188 1508.8906,62.5781 Q1509.5156,61.4219 1510.6094,60.8125 Q1511.7031,60.1875 1512.9375,60.1875 Q1513.6719,60.1875 1514.3125,60.3594 Q1514.9688,60.5156 1515.5156,60.875 Z " fill="#000000"/><text fill="#000000" font-family="sans-serif" font-size="14" lengthAdjust="spacing" textLength="88" x="1533.25" y="70.7285">EffectSelector</text><line style="stroke:#181818;stroke-width:0.5;" x1="1337" x2="1785" y1="81" y2="81"/><line style="stroke:#181818;stroke-width:0.5;" x1="1337" x2="1785" y1="89" y2="89"/><ellipse cx="1347" cy="100" fill="#84BE84" rx="3" ry="3" style="stroke:#038048;stroke-width:1.0;"/><text fill="#000000" font-family="sans-serif" font-size="14" lengthAdjust="spacing" textLength="424" x="1356" y="107.5332">EffectSelector(labelName:string, choices:List&lt;string&gt;, choice:string)</text></g><!--MD5=[e77834a0fda1b3f817ae7f2b19e4424d]
class VisualElement--><g id="elem_VisualElement"><rect fill="#F1F1F1" height="48" id="VisualElement" rx="2.5" ry="2.5" style="stroke:#181818;stroke-width:0.5;" width="121" x="1038.5" y="7"/><ellipse cx="1053.5" cy="23" fill="#ADD1B2" rx="11" ry="11" style="stroke:#181818;stroke-width:1.0;"/><path d="M1056.2656,18.875 Q1056.4219,18.6563 1056.6094,18.5469 Q1056.7969,18.4375 1057.0156,18.4375 Q1057.3906,18.4375 1057.625,18.7031 Q1057.8594,18.9531 1057.8594,19.5625 L1057.8594,21.0156 Q1057.8594,21.625 1057.625,21.8906 Q1057.3906,22.1563 1057.0156,22.1563 Q1056.6719,22.1563 1056.4688,21.9531 Q1056.2656,21.7656 1056.1563,21.25 Q1056.1094,20.8906 1055.9219,20.7031 Q1055.5938,20.3281 1054.9844,20.1094 Q1054.375,19.8906 1053.75,19.8906 Q1052.9844,19.8906 1052.3438,20.2188 Q1051.7188,20.5469 1051.2188,21.2969 Q1050.7344,22.0469 1050.7344,23.0781 L1050.7344,24.1719 Q1050.7344,25.4063 1051.625,26.2344 Q1052.5156,27.0469 1054.1094,27.0469 Q1055.0469,27.0469 1055.7031,26.7969 Q1056.0938,26.6406 1056.5156,26.2031 Q1056.7813,25.9375 1056.9219,25.8594 Q1057.0781,25.7813 1057.2813,25.7813 Q1057.6094,25.7813 1057.8594,26.0469 Q1058.125,26.2969 1058.125,26.6406 Q1058.125,26.9844 1057.7813,27.3906 Q1057.2813,27.9688 1056.4844,28.2969 Q1055.4063,28.75 1054.1094,28.75 Q1052.5938,28.75 1051.3906,28.125 Q1050.4063,27.625 1049.7188,26.5625 Q1049.0313,25.4844 1049.0313,24.2031 L1049.0313,23.0469 Q1049.0313,21.7188 1049.6406,20.5781 Q1050.2656,19.4219 1051.3594,18.8125 Q1052.4531,18.1875 1053.6875,18.1875 Q1054.4219,18.1875 1055.0625,18.3594 Q1055.7188,18.5156 1056.2656,18.875 Z " fill="#000000"/><text fill="#000000" font-family="sans-serif" font-size="14" lengthAdjust="spacing" textLength="89" x="1067.5" y="28.7285">VisualElement</text><line style="stroke:#181818;stroke-width:0.5;" x1="1039.5" x2="1158.5" y1="39" y2="39"/><line style="stroke:#181818;stroke-width:0.5;" x1="1039.5" x2="1158.5" y1="47" y2="47"/></g><!--MD5=[298883191722f47d612a790005ce591d]
class ComponentHeader--><g id="elem_ComponentHeader"><rect fill="#F1F1F1" height="48" id="ComponentHeader" rx="2.5" ry="2.5" style="stroke:#181818;stroke-width:0.5;" width="151" x="1847" y="16"/><ellipse cx="1862" cy="32" fill="#ADD1B2" rx="11" ry="11" style="stroke:#181818;stroke-width:1.0;"/><path d="M1864.7656,27.875 Q1864.9219,27.6563 1865.1094,27.5469 Q1865.2969,27.4375 1865.5156,27.4375 Q1865.8906,27.4375 1866.125,27.7031 Q1866.3594,27.9531 1866.3594,28.5625 L1866.3594,30.0156 Q1866.3594,30.625 1866.125,30.8906 Q1865.8906,31.1563 1865.5156,31.1563 Q1865.1719,31.1563 1864.9688,30.9531 Q1864.7656,30.7656 1864.6563,30.25 Q1864.6094,29.8906 1864.4219,29.7031 Q1864.0938,29.3281 1863.4844,29.1094 Q1862.875,28.8906 1862.25,28.8906 Q1861.4844,28.8906 1860.8438,29.2188 Q1860.2188,29.5469 1859.7188,30.2969 Q1859.2344,31.0469 1859.2344,32.0781 L1859.2344,33.1719 Q1859.2344,34.4063 1860.125,35.2344 Q1861.0156,36.0469 1862.6094,36.0469 Q1863.5469,36.0469 1864.2031,35.7969 Q1864.5938,35.6406 1865.0156,35.2031 Q1865.2813,34.9375 1865.4219,34.8594 Q1865.5781,34.7813 1865.7813,34.7813 Q1866.1094,34.7813 1866.3594,35.0469 Q1866.625,35.2969 1866.625,35.6406 Q1866.625,35.9844 1866.2813,36.3906 Q1865.7813,36.9688 1864.9844,37.2969 Q1863.9063,37.75 1862.6094,37.75 Q1861.0938,37.75 1859.8906,37.125 Q1858.9063,36.625 1858.2188,35.5625 Q1857.5313,34.4844 1857.5313,33.2031 L1857.5313,32.0469 Q1857.5313,30.7188 1858.1406,29.5781 Q1858.7656,28.4219 1859.8594,27.8125 Q1860.9531,27.1875 1862.1875,27.1875 Q1862.9219,27.1875 1863.5625,27.3594 Q1864.2188,27.5156 1864.7656,27.875 Z " fill="#000000"/><text fill="#000000" font-family="sans-serif" font-size="14" lengthAdjust="spacing" textLength="119" x="1876" y="37.7285">ComponentHeader</text><line style="stroke:#181818;stroke-width:0.5;" x1="1848" x2="1997" y1="48" y2="48"/><line style="stroke:#181818;stroke-width:0.5;" x1="1848" x2="1997" y1="56" y2="56"/></g><!--MD5=[e9b5ee0446a42629a7416d22a027c116]
class DropdownField--><g id="elem_DropdownField"><rect fill="#F1F1F1" height="48" id="DropdownField" rx="2.5" ry="2.5" style="stroke:#181818;stroke-width:0.5;" width="127" x="1859" y="99"/><ellipse cx="1874" cy="115" fill="#ADD1B2" rx="11" ry="11" style="stroke:#181818;stroke-width:1.0;"/><path d="M1876.7656,110.875 Q1876.9219,110.6563 1877.1094,110.5469 Q1877.2969,110.4375 1877.5156,110.4375 Q1877.8906,110.4375 1878.125,110.7031 Q1878.3594,110.9531 1878.3594,111.5625 L1878.3594,113.0156 Q1878.3594,113.625 1878.125,113.8906 Q1877.8906,114.1563 1877.5156,114.1563 Q1877.1719,114.1563 1876.9688,113.9531 Q1876.7656,113.7656 1876.6563,113.25 Q1876.6094,112.8906 1876.4219,112.7031 Q1876.0938,112.3281 1875.4844,112.1094 Q1874.875,111.8906 1874.25,111.8906 Q1873.4844,111.8906 1872.8438,112.2188 Q1872.2188,112.5469 1871.7188,113.2969 Q1871.2344,114.0469 1871.2344,115.0781 L1871.2344,116.1719 Q1871.2344,117.4063 1872.125,118.2344 Q1873.0156,119.0469 1874.6094,119.0469 Q1875.5469,119.0469 1876.2031,118.7969 Q1876.5938,118.6406 1877.0156,118.2031 Q1877.2813,117.9375 1877.4219,117.8594 Q1877.5781,117.7813 1877.7813,117.7813 Q1878.1094,117.7813 1878.3594,118.0469 Q1878.625,118.2969 1878.625,118.6406 Q1878.625,118.9844 1878.2813,119.3906 Q1877.7813,119.9688 1876.9844,120.2969 Q1875.9063,120.75 1874.6094,120.75 Q1873.0938,120.75 1871.8906,120.125 Q1870.9063,119.625 1870.2188,118.5625 Q1869.5313,117.4844 1869.5313,116.2031 L1869.5313,115.0469 Q1869.5313,113.7188 1870.1406,112.5781 Q1870.7656,111.4219 1871.8594,110.8125 Q1872.9531,110.1875 1874.1875,110.1875 Q1874.9219,110.1875 1875.5625,110.3594 Q1876.2188,110.5156 1876.7656,110.875 Z " fill="#000000"/><text fill="#000000" font-family="sans-serif" font-size="14" lengthAdjust="spacing" textLength="95" x="1888" y="120.7285">DropdownField</text><line style="stroke:#181818;stroke-width:0.5;" x1="1860" x2="1985" y1="131" y2="131"/><line style="stroke:#181818;stroke-width:0.5;" x1="1860" x2="1985" y1="139" y2="139"/></g><!--MD5=[9f766a4b8606c634e8e0d3babf40a428]
reverse link SelectorModel to EffectSelectorModel--><g id="link_SelectorModel_EffectSelectorModel"><path codeLine="5" d="M926.31,132 C940.08,132 953.69,132 966.87,132 " fill="none" id="SelectorModel-backto-EffectSelectorModel" style="stroke:#181818;stroke-width:1.0;"/><polygon fill="none" points="926.06,139,906.06,132,926.06,125,926.06,139" style="stroke:#181818;stroke-width:1.0;"/></g><!--MD5=[f54166a4bfd7691965a2a28e4010c83f]
reverse link MonoBehaviour to Model--><g id="link_MonoBehaviour_Model"><path codeLine="13" d="M158.49,132 C171.45,132 185.05,132 198.65,132 " fill="none" id="MonoBehaviour-backto-Model" style="stroke:#181818;stroke-width:1.0;"/><polygon fill="none" points="158.08,139,138.08,132,158.08,125,158.08,139" style="stroke:#181818;stroke-width:1.0;"/></g><!--MD5=[5aabb6fed87c654cd2530397fa43af1c]
reverse link Model to SelectorModel--><g id="link_Model_SelectorModel"><path codeLine="12" d="M469.47,132 C482.67,132 496.19,132 509.75,132 " fill="none" id="Model-backto-SelectorModel" style="stroke:#181818;stroke-width:1.0;"/><polygon fill="none" points="469.02,139,449.02,132,469.02,125,469.02,139" style="stroke:#181818;stroke-width:1.0;"/></g><!--MD5=[a877728672192b0dbb2ebe3002d686d1]
link SelectorModel to List`1--><g id="link_SelectorModel_List`1"><path codeLine="13" d="M733.6438,229.6858 C733.6438,229.6858 731.23,237.57 729.87,240.91 " fill="none" id="SelectorModel-List`1" style="stroke:#181818;stroke-width:1.0;"/><polygon fill="#181818" points="724.2,252.93,731.656,246.4951,726.3322,248.4074,724.4198,243.0836,724.2,252.93" style="stroke:#181818;stroke-width:1.0;"/><line style="stroke:#181818;stroke-width:1.0;" x1="726.3322" x2="729.745" y1="248.4074" y2="241.17"/><polygon fill="none" points="736.24,217.97,731.0366,222.9625,733.6438,229.6858,738.8472,224.6933,736.24,217.97" style="stroke:#181818;stroke-width:1.0;"/><text fill="#000000" font-family="sans-serif" font-size="13" lengthAdjust="spacing" textLength="125" x="587.3356" y="242.2522">types&lt;System.Type&gt;</text></g><!--MD5=[a877728672192b0dbb2ebe3002d686d1]
link SelectorModel to List`1--><g id="link_SelectorModel_List`1"><path codeLine="14" d="M679.76,217.97 C681.28,228.08 684.49,238.18 689.42,248.29 " fill="none" id="SelectorModel-to-List`1" style="stroke:#181818;stroke-width:1.0;"/><polygon fill="#181818" points="691.8,252.93,691.2524,243.0964,689.5184,248.4809,684.1339,246.7469,691.8,252.93" style="stroke:#181818;stroke-width:1.0;"/><text fill="#000000" font-family="sans-serif" font-size="13" lengthAdjust="spacing" textLength="87" x="574.2037" y="258.2793">names&lt;string&gt;</text></g><!--MD5=[ed5d7b61c5f6f9cc1fabe35355298c0a]
reverse link VisualElement to EffectSelector--><g id="link_VisualElement_EffectSelector"><path codeLine="4" d="M1179.69,39.83 C1223.32,44.67 1279.8,50.93 1335.82,57.14 " fill="none" id="VisualElement-backto-EffectSelector" style="stroke:#181818;stroke-width:1.0;"/><polygon fill="none" points="1178.77,46.78,1159.67,37.62,1180.31,32.86,1178.77,46.78" style="stroke:#181818;stroke-width:1.0;"/></g><!--MD5=[8345d71ce5052483cc91114f8ff43b69]
link EffectSelector to ComponentHeader--><g id="link_EffectSelector_ComponentHeader"><path codeLine="5" d="M1786.1,55.82 C1805.71,53.53 1824.57,51.32 1841.66,49.33 " fill="none" id="EffectSelector-to-ComponentHeader" style="stroke:#181818;stroke-width:1.0;"/><polygon fill="#181818" points="1846.91,48.71,1837.5028,45.7937,1841.9445,49.2967,1838.4415,53.7384,1846.91,48.71" style="stroke:#181818;stroke-width:1.0;"/><text fill="#000000" font-family="sans-serif" font-size="13" lengthAdjust="spacing" textLength="39" x="1800.0354" y="63.6035">header</text></g><!--MD5=[a107cc734b8fe41e9c2b5b9cdd862faf]
link EffectSelector to DropdownField--><g id="link_EffectSelector_DropdownField"><path codeLine="6" d="M1786.1,107.56 C1810.51,110.34 1833.76,112.99 1853.88,115.29 " fill="none" id="EffectSelector-to-DropdownField" style="stroke:#181818;stroke-width:1.0;"/><polygon fill="#181818" points="1858.93,115.86,1850.4456,110.8584,1853.9627,115.289,1849.5321,118.8061,1858.93,115.86" style="stroke:#181818;stroke-width:1.0;"/><text fill="#000000" font-family="sans-serif" font-size="13" lengthAdjust="spacing" textLength="49" x="1802.0863" y="129.4474">selected</text></g><!--MD5=[e6a46a5eb71c5c0b2d9d19951f65b93f]
link EffectSelectorModel to EffectSelector--><g id="link_EffectSelectorModel_EffectSelector"><path codeLine="9" d="M1231.2,117.74 C1262.33,114.36 1296.45,110.65 1330.55,106.94 " fill="none" id="EffectSelectorModel-to-EffectSelector" style="stroke:#181818;stroke-width:1.0;stroke-dasharray:1.0,3.0;"/><polygon fill="#181818" points="1335.58,106.39,1326.2075,103.364,1330.608,106.9186,1327.0533,111.3191,1335.58,106.39" style="stroke:#181818;stroke-width:1.0;"/><text fill="#000000" font-family="sans-serif" font-size="13" lengthAdjust="spacing" textLength="43" x="1262" y="105.4951">creates</text></g><!--MD5=[e9e16d641a803848d2a2583f1e23053f]
@startuml


left to right direction
!include ..\..\..\out_puml\Scripts\Models\EffectSelectorModel.puml
!include ..\..\..\out_puml\Scripts\Models\Model.puml
!include ..\..\..\out_puml\Scripts\Models\SelectorModel.puml
!include ..\..\..\out_puml\Scripts\Views\EffectSelector.puml

EffectSelectorModel -[dotted]-> EffectSelector : creates



@enduml

@startuml


left to right direction
class EffectSelectorModel {
    EffectSelectorModel()
    + <<override>> CreateUI() : VisualElement
}
SelectorModel <|- - EffectSelectorModel
abstract class Model {
    shoudUpdate : bool = true
    + shouldDraw : bool = true
    + <<virtual>> Start() : void
    + <<virtual>> CreateUI() : VisualElement
    + <<virtual>> OnChanged() : void
    # <<virtual>> Update() : void
    + UpdateOnNextFrame() : void
    + OnEnable() : void
    + OnDisable() : void
    + OnValidate() : void
}
MonoBehaviour <|- - Model
class SelectorModel {
    + selected : string = ""
    + shouldDrawSeparatelyChildren : bool = true
    ComponentIndex(component:Component) : int
    MoveComponentTo(end:int, component:Component) : void
    + <<override>> OnChanged() : void
    + GetSelected() : Model
    + CreateSelectedVisual() : VisualElement
}
class "List`1"<T> {
}
Model <|- - SelectorModel
SelectorModel o-> "types<System.Type>" "List`1"
SelectorModel - -> "names<string>" "List`1"
class EffectSelector {
    + EffectSelector(labelName:string, choices:List<string>, choice:string)
}
VisualElement <|- - EffectSelector
EffectSelector - -> "header" ComponentHeader
EffectSelector - -> "selected" DropdownField

EffectSelectorModel -[dotted]-> EffectSelector : creates



@enduml

PlantUML version 1.2022.5(Sat Apr 30 20:55:52 AEST 2022)
(GPL source distribution)
Java Runtime: Java(TM) SE Runtime Environment
JVM: Java HotSpot(TM) 64-Bit Server VM
Default Encoding: Cp1252
Language: en
Country: AU
--></g></svg>