<?xml version="1.0" encoding="UTF-8" standalone="no"?><svg xmlns="http://www.w3.org/2000/svg" xmlns:xlink="http://www.w3.org/1999/xlink" contentStyleType="text/css" height="222px" preserveAspectRatio="none" style="width:635px;height:222px;background:#FFFFFF;" version="1.1" viewBox="0 0 635 222" width="635px" zoomAndPan="magnify"><defs/><g><!--MD5=[34aa44afce17f5bd91ed70547120b567]
class ObjectView--><g id="elem_ObjectView"><rect codeLine="1" fill="#F1F1F1" height="100.8281" id="ObjectView" rx="2.5" ry="2.5" style="stroke:#181818;stroke-width:0.5;" width="475" x="7" y="115"/><ellipse cx="205.25" cy="131" fill="#ADD1B2" rx="11" ry="11" style="stroke:#181818;stroke-width:1.0;"/><path d="M208.0156,126.875 Q208.1719,126.6563 208.3594,126.5469 Q208.5469,126.4375 208.7656,126.4375 Q209.1406,126.4375 209.375,126.7031 Q209.6094,126.9531 209.6094,127.5625 L209.6094,129.0156 Q209.6094,129.625 209.375,129.8906 Q209.1406,130.1563 208.7656,130.1563 Q208.4219,130.1563 208.2188,129.9531 Q208.0156,129.7656 207.9063,129.25 Q207.8594,128.8906 207.6719,128.7031 Q207.3438,128.3281 206.7344,128.1094 Q206.125,127.8906 205.5,127.8906 Q204.7344,127.8906 204.0938,128.2188 Q203.4688,128.5469 202.9688,129.2969 Q202.4844,130.0469 202.4844,131.0781 L202.4844,132.1719 Q202.4844,133.4063 203.375,134.2344 Q204.2656,135.0469 205.8594,135.0469 Q206.7969,135.0469 207.4531,134.7969 Q207.8438,134.6406 208.2656,134.2031 Q208.5313,133.9375 208.6719,133.8594 Q208.8281,133.7813 209.0313,133.7813 Q209.3594,133.7813 209.6094,134.0469 Q209.875,134.2969 209.875,134.6406 Q209.875,134.9844 209.5313,135.3906 Q209.0313,135.9688 208.2344,136.2969 Q207.1563,136.75 205.8594,136.75 Q204.3438,136.75 203.1406,136.125 Q202.1563,135.625 201.4688,134.5625 Q200.7813,133.4844 200.7813,132.2031 L200.7813,131.0469 Q200.7813,129.7188 201.3906,128.5781 Q202.0156,127.4219 203.1094,126.8125 Q204.2031,126.1875 205.4375,126.1875 Q206.1719,126.1875 206.8125,126.3594 Q207.4688,126.5156 208.0156,126.875 Z " fill="#000000"/><text fill="#000000" font-family="sans-serif" font-size="14" lengthAdjust="spacing" textLength="70" x="225.75" y="136.7285">ObjectView</text><line style="stroke:#181818;stroke-width:0.5;" x1="8" x2="481" y1="147" y2="147"/><line style="stroke:#181818;stroke-width:0.5;" x1="8" x2="481" y1="155" y2="155"/><rect fill="#F24D5C" height="6" style="stroke:#C82930;stroke-width:1.0;" width="6" x="15" y="163"/><text fill="#000000" font-family="sans-serif" font-size="14" lengthAdjust="spacing" textLength="217" x="27" y="173.5332">Handle(models:List&lt;Model&gt;) : void</text><ellipse cx="18" cy="183.6094" fill="#84BE84" rx="3" ry="3" style="stroke:#038048;stroke-width:1.0;"/><text fill="#000000" font-family="sans-serif" font-size="14" lengthAdjust="spacing" textLength="258" x="27" y="191.1426">ChangeSelection(obj:GameObject) : void</text><rect fill="#F24D5C" height="6" style="stroke:#C82930;stroke-width:1.0;" width="6" x="15" y="198.2188"/><text fill="#000000" font-family="sans-serif" font-size="14" lengthAdjust="spacing" textLength="449" x="27" y="208.752">ChangeSelection(obj:GameObject, modelsChanged:List&lt;Model&gt;) : void</text></g><!--MD5=[e77834a0fda1b3f817ae7f2b19e4424d]
class VisualElement--><g id="elem_VisualElement"><rect fill="#F1F1F1" height="48" id="VisualElement" rx="2.5" ry="2.5" style="stroke:#181818;stroke-width:0.5;" width="121" x="184" y="7"/><ellipse cx="199" cy="23" fill="#ADD1B2" rx="11" ry="11" style="stroke:#181818;stroke-width:1.0;"/><path d="M201.7656,18.875 Q201.9219,18.6563 202.1094,18.5469 Q202.2969,18.4375 202.5156,18.4375 Q202.8906,18.4375 203.125,18.7031 Q203.3594,18.9531 203.3594,19.5625 L203.3594,21.0156 Q203.3594,21.625 203.125,21.8906 Q202.8906,22.1563 202.5156,22.1563 Q202.1719,22.1563 201.9688,21.9531 Q201.7656,21.7656 201.6563,21.25 Q201.6094,20.8906 201.4219,20.7031 Q201.0938,20.3281 200.4844,20.1094 Q199.875,19.8906 199.25,19.8906 Q198.4844,19.8906 197.8438,20.2188 Q197.2188,20.5469 196.7188,21.2969 Q196.2344,22.0469 196.2344,23.0781 L196.2344,24.1719 Q196.2344,25.4063 197.125,26.2344 Q198.0156,27.0469 199.6094,27.0469 Q200.5469,27.0469 201.2031,26.7969 Q201.5938,26.6406 202.0156,26.2031 Q202.2813,25.9375 202.4219,25.8594 Q202.5781,25.7813 202.7813,25.7813 Q203.1094,25.7813 203.3594,26.0469 Q203.625,26.2969 203.625,26.6406 Q203.625,26.9844 203.2813,27.3906 Q202.7813,27.9688 201.9844,28.2969 Q200.9063,28.75 199.6094,28.75 Q198.0938,28.75 196.8906,28.125 Q195.9063,27.625 195.2188,26.5625 Q194.5313,25.4844 194.5313,24.2031 L194.5313,23.0469 Q194.5313,21.7188 195.1406,20.5781 Q195.7656,19.4219 196.8594,18.8125 Q197.9531,18.1875 199.1875,18.1875 Q199.9219,18.1875 200.5625,18.3594 Q201.2188,18.5156 201.7656,18.875 Z " fill="#000000"/><text fill="#000000" font-family="sans-serif" font-size="14" lengthAdjust="spacing" textLength="89" x="213" y="28.7285">VisualElement</text><line style="stroke:#181818;stroke-width:0.5;" x1="185" x2="304" y1="39" y2="39"/><line style="stroke:#181818;stroke-width:0.5;" x1="185" x2="304" y1="47" y2="47"/></g><!--MD5=[064f7a74fee85463ec1a30143664ee17]
class GameObject--><g id="elem_GameObject"><rect fill="#F1F1F1" height="48" id="GameObject" rx="2.5" ry="2.5" style="stroke:#181818;stroke-width:0.5;" width="111" x="517" y="141.5"/><ellipse cx="532" cy="157.5" fill="#ADD1B2" rx="11" ry="11" style="stroke:#181818;stroke-width:1.0;"/><path d="M534.7656,153.375 Q534.9219,153.1563 535.1094,153.0469 Q535.2969,152.9375 535.5156,152.9375 Q535.8906,152.9375 536.125,153.2031 Q536.3594,153.4531 536.3594,154.0625 L536.3594,155.5156 Q536.3594,156.125 536.125,156.3906 Q535.8906,156.6563 535.5156,156.6563 Q535.1719,156.6563 534.9688,156.4531 Q534.7656,156.2656 534.6563,155.75 Q534.6094,155.3906 534.4219,155.2031 Q534.0938,154.8281 533.4844,154.6094 Q532.875,154.3906 532.25,154.3906 Q531.4844,154.3906 530.8438,154.7188 Q530.2188,155.0469 529.7188,155.7969 Q529.2344,156.5469 529.2344,157.5781 L529.2344,158.6719 Q529.2344,159.9063 530.125,160.7344 Q531.0156,161.5469 532.6094,161.5469 Q533.5469,161.5469 534.2031,161.2969 Q534.5938,161.1406 535.0156,160.7031 Q535.2813,160.4375 535.4219,160.3594 Q535.5781,160.2813 535.7813,160.2813 Q536.1094,160.2813 536.3594,160.5469 Q536.625,160.7969 536.625,161.1406 Q536.625,161.4844 536.2813,161.8906 Q535.7813,162.4688 534.9844,162.7969 Q533.9063,163.25 532.6094,163.25 Q531.0938,163.25 529.8906,162.625 Q528.9063,162.125 528.2188,161.0625 Q527.5313,159.9844 527.5313,158.7031 L527.5313,157.5469 Q527.5313,156.2188 528.1406,155.0781 Q528.7656,153.9219 529.8594,153.3125 Q530.9531,152.6875 532.1875,152.6875 Q532.9219,152.6875 533.5625,152.8594 Q534.2188,153.0156 534.7656,153.375 Z " fill="#000000"/><text fill="#000000" font-family="sans-serif" font-size="14" lengthAdjust="spacing" textLength="79" x="546" y="163.2285">GameObject</text><line style="stroke:#181818;stroke-width:0.5;" x1="518" x2="627" y1="173.5" y2="173.5"/><line style="stroke:#181818;stroke-width:0.5;" x1="518" x2="627" y1="181.5" y2="181.5"/></g><!--MD5=[33fce9dbf08da3255eac6eb9829d1468]
reverse link VisualElement to ObjectView--><g id="link_VisualElement_ObjectView"><path codeLine="6" d="M244.5,75.34 C244.5,87.95 244.5,101.82 244.5,114.8 " fill="none" id="VisualElement-backto-ObjectView" style="stroke:#181818;stroke-width:1.0;"/><polygon fill="none" points="237.5,75.08,244.5,55.08,251.5,75.08,237.5,75.08" style="stroke:#181818;stroke-width:1.0;"/></g><!--MD5=[d434b1af28dc8426efc76f96c28d50c5]
link ObjectView to GameObject--><g id="link_ObjectView_GameObject"><path codeLine="7" d="M494.17,165.5 C494.17,165.5 500.97,165.5 503.75,165.5 " fill="none" id="ObjectView-GameObject" style="stroke:#181818;stroke-width:1.0;"/><polygon fill="#181818" points="516.75,165.5,507.75,161.5,511.75,165.5,507.75,169.5,516.75,165.5" style="stroke:#181818;stroke-width:1.0;"/><line style="stroke:#181818;stroke-width:1.0;" x1="511.75" x2="503.75" y1="165.5" y2="165.5"/><polygon fill="none" points="482.17,165.5,488.17,169.5,494.17,165.5,488.17,161.5,482.17,165.5" style="stroke:#181818;stroke-width:1.0;"/><text fill="#000000" font-family="sans-serif" font-size="13" lengthAdjust="spacing" textLength="52" x="457.0357" y="157.1315">selection</text></g><!--MD5=[6ba6e36f90acebe44b6804d9f6acf867]
@startuml
!include ..\..\..\out_puml\Scripts\Views\ObjectView.puml
@enduml

@startuml
class ObjectView {
    - Handle(models:List<Model>) : void
    + ChangeSelection(obj:GameObject) : void
    - ChangeSelection(obj:GameObject, modelsChanged:List<Model>) : void
}
VisualElement <|- - ObjectView
ObjectView o-> "selection" GameObject
@enduml

PlantUML version 1.2022.5(Sat Apr 30 20:55:52 AEST 2022)
(GPL source distribution)
Java Runtime: Java(TM) SE Runtime Environment
JVM: Java HotSpot(TM) 64-Bit Server VM
Default Encoding: Cp1252
Language: en
Country: AU
--></g></svg>