<?xml version="1.0" encoding="UTF-8" standalone="no"?><svg xmlns="http://www.w3.org/2000/svg" xmlns:xlink="http://www.w3.org/1999/xlink" contentStyleType="text/css" height="296px" preserveAspectRatio="none" style="width:230px;height:296px;background:#FFFFFF;" version="1.1" viewBox="0 0 230 296" width="230px" zoomAndPan="magnify"><defs/><g><!--MD5=[298883191722f47d612a790005ce591d]
class ComponentHeader--><g id="elem_ComponentHeader"><rect codeLine="1" fill="#F1F1F1" height="65.6094" id="ComponentHeader" rx="2.5" ry="2.5" style="stroke:#181818;stroke-width:0.5;" width="216" x="7" y="115"/><ellipse cx="51.25" cy="131" fill="#ADD1B2" rx="11" ry="11" style="stroke:#181818;stroke-width:1.0;"/><path d="M54.0156,126.875 Q54.1719,126.6563 54.3594,126.5469 Q54.5469,126.4375 54.7656,126.4375 Q55.1406,126.4375 55.375,126.7031 Q55.6094,126.9531 55.6094,127.5625 L55.6094,129.0156 Q55.6094,129.625 55.375,129.8906 Q55.1406,130.1563 54.7656,130.1563 Q54.4219,130.1563 54.2188,129.9531 Q54.0156,129.7656 53.9063,129.25 Q53.8594,128.8906 53.6719,128.7031 Q53.3438,128.3281 52.7344,128.1094 Q52.125,127.8906 51.5,127.8906 Q50.7344,127.8906 50.0938,128.2188 Q49.4688,128.5469 48.9688,129.2969 Q48.4844,130.0469 48.4844,131.0781 L48.4844,132.1719 Q48.4844,133.4063 49.375,134.2344 Q50.2656,135.0469 51.8594,135.0469 Q52.7969,135.0469 53.4531,134.7969 Q53.8438,134.6406 54.2656,134.2031 Q54.5313,133.9375 54.6719,133.8594 Q54.8281,133.7813 55.0313,133.7813 Q55.3594,133.7813 55.6094,134.0469 Q55.875,134.2969 55.875,134.6406 Q55.875,134.9844 55.5313,135.3906 Q55.0313,135.9688 54.2344,136.2969 Q53.1563,136.75 51.8594,136.75 Q50.3438,136.75 49.1406,136.125 Q48.1563,135.625 47.4688,134.5625 Q46.7813,133.4844 46.7813,132.2031 L46.7813,131.0469 Q46.7813,129.7188 47.3906,128.5781 Q48.0156,127.4219 49.1094,126.8125 Q50.2031,126.1875 51.4375,126.1875 Q52.1719,126.1875 52.8125,126.3594 Q53.4688,126.5156 54.0156,126.875 Z " fill="#000000"/><text fill="#000000" font-family="sans-serif" font-size="14" lengthAdjust="spacing" textLength="119" x="71.75" y="136.7285">ComponentHeader</text><line style="stroke:#181818;stroke-width:0.5;" x1="8" x2="222" y1="147" y2="147"/><line style="stroke:#181818;stroke-width:0.5;" x1="8" x2="222" y1="155" y2="155"/><ellipse cx="18" cy="166" fill="#84BE84" rx="3" ry="3" style="stroke:#038048;stroke-width:1.0;"/><text fill="#000000" font-family="sans-serif" font-size="14" lengthAdjust="spacing" textLength="190" x="27" y="173.5332">ComponentHeader(title:string)</text></g><!--MD5=[e77834a0fda1b3f817ae7f2b19e4424d]
class VisualElement--><g id="elem_VisualElement"><rect fill="#F1F1F1" height="48" id="VisualElement" rx="2.5" ry="2.5" style="stroke:#181818;stroke-width:0.5;" width="121" x="54.5" y="7"/><ellipse cx="69.5" cy="23" fill="#ADD1B2" rx="11" ry="11" style="stroke:#181818;stroke-width:1.0;"/><path d="M72.2656,18.875 Q72.4219,18.6563 72.6094,18.5469 Q72.7969,18.4375 73.0156,18.4375 Q73.3906,18.4375 73.625,18.7031 Q73.8594,18.9531 73.8594,19.5625 L73.8594,21.0156 Q73.8594,21.625 73.625,21.8906 Q73.3906,22.1563 73.0156,22.1563 Q72.6719,22.1563 72.4688,21.9531 Q72.2656,21.7656 72.1563,21.25 Q72.1094,20.8906 71.9219,20.7031 Q71.5938,20.3281 70.9844,20.1094 Q70.375,19.8906 69.75,19.8906 Q68.9844,19.8906 68.3438,20.2188 Q67.7188,20.5469 67.2188,21.2969 Q66.7344,22.0469 66.7344,23.0781 L66.7344,24.1719 Q66.7344,25.4063 67.625,26.2344 Q68.5156,27.0469 70.1094,27.0469 Q71.0469,27.0469 71.7031,26.7969 Q72.0938,26.6406 72.5156,26.2031 Q72.7813,25.9375 72.9219,25.8594 Q73.0781,25.7813 73.2813,25.7813 Q73.6094,25.7813 73.8594,26.0469 Q74.125,26.2969 74.125,26.6406 Q74.125,26.9844 73.7813,27.3906 Q73.2813,27.9688 72.4844,28.2969 Q71.4063,28.75 70.1094,28.75 Q68.5938,28.75 67.3906,28.125 Q66.4063,27.625 65.7188,26.5625 Q65.0313,25.4844 65.0313,24.2031 L65.0313,23.0469 Q65.0313,21.7188 65.6406,20.5781 Q66.2656,19.4219 67.3594,18.8125 Q68.4531,18.1875 69.6875,18.1875 Q70.4219,18.1875 71.0625,18.3594 Q71.7188,18.5156 72.2656,18.875 Z " fill="#000000"/><text fill="#000000" font-family="sans-serif" font-size="14" lengthAdjust="spacing" textLength="89" x="83.5" y="28.7285">VisualElement</text><line style="stroke:#181818;stroke-width:0.5;" x1="55.5" x2="174.5" y1="39" y2="39"/><line style="stroke:#181818;stroke-width:0.5;" x1="55.5" x2="174.5" y1="47" y2="47"/></g><!--MD5=[e84c991d4d3bbf916ee1653c86a9249d]
class Label--><g id="elem_Label"><rect fill="#F1F1F1" height="48" id="Label" rx="2.5" ry="2.5" style="stroke:#181818;stroke-width:0.5;" width="67" x="81.5" y="241"/><ellipse cx="96.5" cy="257" fill="#ADD1B2" rx="11" ry="11" style="stroke:#181818;stroke-width:1.0;"/><path d="M99.2656,252.875 Q99.4219,252.6563 99.6094,252.5469 Q99.7969,252.4375 100.0156,252.4375 Q100.3906,252.4375 100.625,252.7031 Q100.8594,252.9531 100.8594,253.5625 L100.8594,255.0156 Q100.8594,255.625 100.625,255.8906 Q100.3906,256.1563 100.0156,256.1563 Q99.6719,256.1563 99.4688,255.9531 Q99.2656,255.7656 99.1563,255.25 Q99.1094,254.8906 98.9219,254.7031 Q98.5938,254.3281 97.9844,254.1094 Q97.375,253.8906 96.75,253.8906 Q95.9844,253.8906 95.3438,254.2188 Q94.7188,254.5469 94.2188,255.2969 Q93.7344,256.0469 93.7344,257.0781 L93.7344,258.1719 Q93.7344,259.4063 94.625,260.2344 Q95.5156,261.0469 97.1094,261.0469 Q98.0469,261.0469 98.7031,260.7969 Q99.0938,260.6406 99.5156,260.2031 Q99.7813,259.9375 99.9219,259.8594 Q100.0781,259.7813 100.2813,259.7813 Q100.6094,259.7813 100.8594,260.0469 Q101.125,260.2969 101.125,260.6406 Q101.125,260.9844 100.7813,261.3906 Q100.2813,261.9688 99.4844,262.2969 Q98.4063,262.75 97.1094,262.75 Q95.5938,262.75 94.3906,262.125 Q93.4063,261.625 92.7188,260.5625 Q92.0313,259.4844 92.0313,258.2031 L92.0313,257.0469 Q92.0313,255.7188 92.6406,254.5781 Q93.2656,253.4219 94.3594,252.8125 Q95.4531,252.1875 96.6875,252.1875 Q97.4219,252.1875 98.0625,252.3594 Q98.7188,252.5156 99.2656,252.875 Z " fill="#000000"/><text fill="#000000" font-family="sans-serif" font-size="14" lengthAdjust="spacing" textLength="35" x="110.5" y="262.7285">Label</text><line style="stroke:#181818;stroke-width:0.5;" x1="82.5" x2="147.5" y1="273" y2="273"/><line style="stroke:#181818;stroke-width:0.5;" x1="82.5" x2="147.5" y1="281" y2="281"/></g><!--MD5=[507d314e5bbc1d9b21daf4a5c2696825]
reverse link VisualElement to ComponentHeader--><g id="link_VisualElement_ComponentHeader"><path codeLine="4" d="M115,75.62 C115,88.56 115,102.51 115,114.61 " fill="none" id="VisualElement-backto-ComponentHeader" style="stroke:#181818;stroke-width:1.0;"/><polygon fill="none" points="108,75.27,115,55.27,122,75.27,108,75.27" style="stroke:#181818;stroke-width:1.0;"/></g><!--MD5=[59be685cae59b1d86b6b5aa27a616e94]
link ComponentHeader to Label--><g id="link_ComponentHeader_Label"><path codeLine="5" d="M115,181.03 C115,198.11 115,218.94 115,235.46 " fill="none" id="ComponentHeader-to-Label" style="stroke:#181818;stroke-width:1.0;"/><polygon fill="#181818" points="115,240.89,119,231.89,115,235.89,111,231.89,115,240.89" style="stroke:#181818;stroke-width:1.0;"/><text fill="#000000" font-family="sans-serif" font-size="13" lengthAdjust="spacing" textLength="27" x="84.5406" y="230.202">label</text></g><!--MD5=[79eba715012f31a49859c54d5dc14f17]
@startuml
!include ..\..\..\out_puml\Scripts\Views\ComponentHeader.puml
@enduml

@startuml
class ComponentHeader {
    + ComponentHeader(title:string)
}
VisualElement <|- - ComponentHeader
ComponentHeader - -> "label" Label
@enduml

PlantUML version 1.2022.5(Sat Apr 30 20:55:52 AEST 2022)
(GPL source distribution)
Java Runtime: Java(TM) SE Runtime Environment
JVM: Java HotSpot(TM) 64-Bit Server VM
Default Encoding: Cp1252
Language: en
Country: AU
--></g></svg>