<?xml version="1.0" encoding="UTF-8" standalone="no"?><svg xmlns="http://www.w3.org/2000/svg" xmlns:xlink="http://www.w3.org/1999/xlink" contentStyleType="text/css" height="296px" preserveAspectRatio="none" style="width:459px;height:296px;background:#FFFFFF;" version="1.1" viewBox="0 0 459 296" width="459px" zoomAndPan="magnify"><defs/><g><!--MD5=[d6e9188767775bb3a8d8a86e7a275c96]
class AmbientLightingView--><g id="elem_AmbientLightingView"><rect codeLine="1" fill="#F1F1F1" height="65.6094" id="AmbientLightingView" rx="2.5" ry="2.5" style="stroke:#181818;stroke-width:0.5;" width="372" x="55.5" y="115"/><ellipse cx="172.25" cy="131" fill="#ADD1B2" rx="11" ry="11" style="stroke:#181818;stroke-width:1.0;"/><path d="M175.0156,126.875 Q175.1719,126.6563 175.3594,126.5469 Q175.5469,126.4375 175.7656,126.4375 Q176.1406,126.4375 176.375,126.7031 Q176.6094,126.9531 176.6094,127.5625 L176.6094,129.0156 Q176.6094,129.625 176.375,129.8906 Q176.1406,130.1563 175.7656,130.1563 Q175.4219,130.1563 175.2188,129.9531 Q175.0156,129.7656 174.9063,129.25 Q174.8594,128.8906 174.6719,128.7031 Q174.3438,128.3281 173.7344,128.1094 Q173.125,127.8906 172.5,127.8906 Q171.7344,127.8906 171.0938,128.2188 Q170.4688,128.5469 169.9688,129.2969 Q169.4844,130.0469 169.4844,131.0781 L169.4844,132.1719 Q169.4844,133.4063 170.375,134.2344 Q171.2656,135.0469 172.8594,135.0469 Q173.7969,135.0469 174.4531,134.7969 Q174.8438,134.6406 175.2656,134.2031 Q175.5313,133.9375 175.6719,133.8594 Q175.8281,133.7813 176.0313,133.7813 Q176.3594,133.7813 176.6094,134.0469 Q176.875,134.2969 176.875,134.6406 Q176.875,134.9844 176.5313,135.3906 Q176.0313,135.9688 175.2344,136.2969 Q174.1563,136.75 172.8594,136.75 Q171.3438,136.75 170.1406,136.125 Q169.1563,135.625 168.4688,134.5625 Q167.7813,133.4844 167.7813,132.2031 L167.7813,131.0469 Q167.7813,129.7188 168.3906,128.5781 Q169.0156,127.4219 170.1094,126.8125 Q171.2031,126.1875 172.4375,126.1875 Q173.1719,126.1875 173.8125,126.3594 Q174.4688,126.5156 175.0156,126.875 Z " fill="#000000"/><text fill="#000000" font-family="sans-serif" font-size="14" lengthAdjust="spacing" textLength="130" x="192.75" y="136.7285">AmbientLightingView</text><line style="stroke:#181818;stroke-width:0.5;" x1="56.5" x2="426.5" y1="147" y2="147"/><line style="stroke:#181818;stroke-width:0.5;" x1="56.5" x2="426.5" y1="155" y2="155"/><ellipse cx="66.5" cy="166" fill="#84BE84" rx="3" ry="3" style="stroke:#038048;stroke-width:1.0;"/><text fill="#000000" font-family="sans-serif" font-size="14" lengthAdjust="spacing" textLength="346" x="75.5" y="173.5332">AmbientLightingView(choices:List&lt;string&gt;, value:string)</text></g><!--MD5=[e77834a0fda1b3f817ae7f2b19e4424d]
class VisualElement--><g id="elem_VisualElement"><rect fill="#F1F1F1" height="48" id="VisualElement" rx="2.5" ry="2.5" style="stroke:#181818;stroke-width:0.5;" width="121" x="181" y="7"/><ellipse cx="196" cy="23" fill="#ADD1B2" rx="11" ry="11" style="stroke:#181818;stroke-width:1.0;"/><path d="M198.7656,18.875 Q198.9219,18.6563 199.1094,18.5469 Q199.2969,18.4375 199.5156,18.4375 Q199.8906,18.4375 200.125,18.7031 Q200.3594,18.9531 200.3594,19.5625 L200.3594,21.0156 Q200.3594,21.625 200.125,21.8906 Q199.8906,22.1563 199.5156,22.1563 Q199.1719,22.1563 198.9688,21.9531 Q198.7656,21.7656 198.6563,21.25 Q198.6094,20.8906 198.4219,20.7031 Q198.0938,20.3281 197.4844,20.1094 Q196.875,19.8906 196.25,19.8906 Q195.4844,19.8906 194.8438,20.2188 Q194.2188,20.5469 193.7188,21.2969 Q193.2344,22.0469 193.2344,23.0781 L193.2344,24.1719 Q193.2344,25.4063 194.125,26.2344 Q195.0156,27.0469 196.6094,27.0469 Q197.5469,27.0469 198.2031,26.7969 Q198.5938,26.6406 199.0156,26.2031 Q199.2813,25.9375 199.4219,25.8594 Q199.5781,25.7813 199.7813,25.7813 Q200.1094,25.7813 200.3594,26.0469 Q200.625,26.2969 200.625,26.6406 Q200.625,26.9844 200.2813,27.3906 Q199.7813,27.9688 198.9844,28.2969 Q197.9063,28.75 196.6094,28.75 Q195.0938,28.75 193.8906,28.125 Q192.9063,27.625 192.2188,26.5625 Q191.5313,25.4844 191.5313,24.2031 L191.5313,23.0469 Q191.5313,21.7188 192.1406,20.5781 Q192.7656,19.4219 193.8594,18.8125 Q194.9531,18.1875 196.1875,18.1875 Q196.9219,18.1875 197.5625,18.3594 Q198.2188,18.5156 198.7656,18.875 Z " fill="#000000"/><text fill="#000000" font-family="sans-serif" font-size="14" lengthAdjust="spacing" textLength="89" x="210" y="28.7285">VisualElement</text><line style="stroke:#181818;stroke-width:0.5;" x1="182" x2="301" y1="39" y2="39"/><line style="stroke:#181818;stroke-width:0.5;" x1="182" x2="301" y1="47" y2="47"/></g><!--MD5=[298883191722f47d612a790005ce591d]
class ComponentHeader--><g id="elem_ComponentHeader"><rect fill="#F1F1F1" height="48" id="ComponentHeader" rx="2.5" ry="2.5" style="stroke:#181818;stroke-width:0.5;" width="151" x="7" y="241"/><ellipse cx="22" cy="257" fill="#ADD1B2" rx="11" ry="11" style="stroke:#181818;stroke-width:1.0;"/><path d="M24.7656,252.875 Q24.9219,252.6563 25.1094,252.5469 Q25.2969,252.4375 25.5156,252.4375 Q25.8906,252.4375 26.125,252.7031 Q26.3594,252.9531 26.3594,253.5625 L26.3594,255.0156 Q26.3594,255.625 26.125,255.8906 Q25.8906,256.1563 25.5156,256.1563 Q25.1719,256.1563 24.9688,255.9531 Q24.7656,255.7656 24.6563,255.25 Q24.6094,254.8906 24.4219,254.7031 Q24.0938,254.3281 23.4844,254.1094 Q22.875,253.8906 22.25,253.8906 Q21.4844,253.8906 20.8438,254.2188 Q20.2188,254.5469 19.7188,255.2969 Q19.2344,256.0469 19.2344,257.0781 L19.2344,258.1719 Q19.2344,259.4063 20.125,260.2344 Q21.0156,261.0469 22.6094,261.0469 Q23.5469,261.0469 24.2031,260.7969 Q24.5938,260.6406 25.0156,260.2031 Q25.2813,259.9375 25.4219,259.8594 Q25.5781,259.7813 25.7813,259.7813 Q26.1094,259.7813 26.3594,260.0469 Q26.625,260.2969 26.625,260.6406 Q26.625,260.9844 26.2813,261.3906 Q25.7813,261.9688 24.9844,262.2969 Q23.9063,262.75 22.6094,262.75 Q21.0938,262.75 19.8906,262.125 Q18.9063,261.625 18.2188,260.5625 Q17.5313,259.4844 17.5313,258.2031 L17.5313,257.0469 Q17.5313,255.7188 18.1406,254.5781 Q18.7656,253.4219 19.8594,252.8125 Q20.9531,252.1875 22.1875,252.1875 Q22.9219,252.1875 23.5625,252.3594 Q24.2188,252.5156 24.7656,252.875 Z " fill="#000000"/><text fill="#000000" font-family="sans-serif" font-size="14" lengthAdjust="spacing" textLength="119" x="36" y="262.7285">ComponentHeader</text><line style="stroke:#181818;stroke-width:0.5;" x1="8" x2="157" y1="273" y2="273"/><line style="stroke:#181818;stroke-width:0.5;" x1="8" x2="157" y1="281" y2="281"/></g><!--MD5=[41f8c580327acedeef39b1c4413de103]
class ColorField--><g id="elem_ColorField"><rect fill="#F1F1F1" height="48" id="ColorField" rx="2.5" ry="2.5" style="stroke:#181818;stroke-width:0.5;" width="97" x="193" y="241"/><ellipse cx="208" cy="257" fill="#ADD1B2" rx="11" ry="11" style="stroke:#181818;stroke-width:1.0;"/><path d="M210.7656,252.875 Q210.9219,252.6563 211.1094,252.5469 Q211.2969,252.4375 211.5156,252.4375 Q211.8906,252.4375 212.125,252.7031 Q212.3594,252.9531 212.3594,253.5625 L212.3594,255.0156 Q212.3594,255.625 212.125,255.8906 Q211.8906,256.1563 211.5156,256.1563 Q211.1719,256.1563 210.9688,255.9531 Q210.7656,255.7656 210.6563,255.25 Q210.6094,254.8906 210.4219,254.7031 Q210.0938,254.3281 209.4844,254.1094 Q208.875,253.8906 208.25,253.8906 Q207.4844,253.8906 206.8438,254.2188 Q206.2188,254.5469 205.7188,255.2969 Q205.2344,256.0469 205.2344,257.0781 L205.2344,258.1719 Q205.2344,259.4063 206.125,260.2344 Q207.0156,261.0469 208.6094,261.0469 Q209.5469,261.0469 210.2031,260.7969 Q210.5938,260.6406 211.0156,260.2031 Q211.2813,259.9375 211.4219,259.8594 Q211.5781,259.7813 211.7813,259.7813 Q212.1094,259.7813 212.3594,260.0469 Q212.625,260.2969 212.625,260.6406 Q212.625,260.9844 212.2813,261.3906 Q211.7813,261.9688 210.9844,262.2969 Q209.9063,262.75 208.6094,262.75 Q207.0938,262.75 205.8906,262.125 Q204.9063,261.625 204.2188,260.5625 Q203.5313,259.4844 203.5313,258.2031 L203.5313,257.0469 Q203.5313,255.7188 204.1406,254.5781 Q204.7656,253.4219 205.8594,252.8125 Q206.9531,252.1875 208.1875,252.1875 Q208.9219,252.1875 209.5625,252.3594 Q210.2188,252.5156 210.7656,252.875 Z " fill="#000000"/><text fill="#000000" font-family="sans-serif" font-size="14" lengthAdjust="spacing" textLength="65" x="222" y="262.7285">ColorField</text><line style="stroke:#181818;stroke-width:0.5;" x1="194" x2="289" y1="273" y2="273"/><line style="stroke:#181818;stroke-width:0.5;" x1="194" x2="289" y1="281" y2="281"/></g><!--MD5=[e9b5ee0446a42629a7416d22a027c116]
class DropdownField--><g id="elem_DropdownField"><rect fill="#F1F1F1" height="48" id="DropdownField" rx="2.5" ry="2.5" style="stroke:#181818;stroke-width:0.5;" width="127" x="325" y="241"/><ellipse cx="340" cy="257" fill="#ADD1B2" rx="11" ry="11" style="stroke:#181818;stroke-width:1.0;"/><path d="M342.7656,252.875 Q342.9219,252.6563 343.1094,252.5469 Q343.2969,252.4375 343.5156,252.4375 Q343.8906,252.4375 344.125,252.7031 Q344.3594,252.9531 344.3594,253.5625 L344.3594,255.0156 Q344.3594,255.625 344.125,255.8906 Q343.8906,256.1563 343.5156,256.1563 Q343.1719,256.1563 342.9688,255.9531 Q342.7656,255.7656 342.6563,255.25 Q342.6094,254.8906 342.4219,254.7031 Q342.0938,254.3281 341.4844,254.1094 Q340.875,253.8906 340.25,253.8906 Q339.4844,253.8906 338.8438,254.2188 Q338.2188,254.5469 337.7188,255.2969 Q337.2344,256.0469 337.2344,257.0781 L337.2344,258.1719 Q337.2344,259.4063 338.125,260.2344 Q339.0156,261.0469 340.6094,261.0469 Q341.5469,261.0469 342.2031,260.7969 Q342.5938,260.6406 343.0156,260.2031 Q343.2813,259.9375 343.4219,259.8594 Q343.5781,259.7813 343.7813,259.7813 Q344.1094,259.7813 344.3594,260.0469 Q344.625,260.2969 344.625,260.6406 Q344.625,260.9844 344.2813,261.3906 Q343.7813,261.9688 342.9844,262.2969 Q341.9063,262.75 340.6094,262.75 Q339.0938,262.75 337.8906,262.125 Q336.9063,261.625 336.2188,260.5625 Q335.5313,259.4844 335.5313,258.2031 L335.5313,257.0469 Q335.5313,255.7188 336.1406,254.5781 Q336.7656,253.4219 337.8594,252.8125 Q338.9531,252.1875 340.1875,252.1875 Q340.9219,252.1875 341.5625,252.3594 Q342.2188,252.5156 342.7656,252.875 Z " fill="#000000"/><text fill="#000000" font-family="sans-serif" font-size="14" lengthAdjust="spacing" textLength="95" x="354" y="262.7285">DropdownField</text><line style="stroke:#181818;stroke-width:0.5;" x1="326" x2="451" y1="273" y2="273"/><line style="stroke:#181818;stroke-width:0.5;" x1="326" x2="451" y1="281" y2="281"/></g><!--MD5=[b7218175d6bdefc7150cb57c7cb289e1]
reverse link VisualElement to AmbientLightingView--><g id="link_VisualElement_AmbientLightingView"><path codeLine="4" d="M241.5,75.62 C241.5,88.56 241.5,102.51 241.5,114.61 " fill="none" id="VisualElement-backto-AmbientLightingView" style="stroke:#181818;stroke-width:1.0;"/><polygon fill="none" points="234.5,75.27,241.5,55.27,248.5,75.27,234.5,75.27" style="stroke:#181818;stroke-width:1.0;"/></g><!--MD5=[60943837936a1079fc3fd1f0f71822da]
link AmbientLightingView to ComponentHeader--><g id="link_AmbientLightingView_ComponentHeader"><path codeLine="5" d="M197.21,181.03 C172.47,198.93 142.03,220.94 118.72,237.8 " fill="none" id="AmbientLightingView-to-ComponentHeader" style="stroke:#181818;stroke-width:1.0;"/><polygon fill="#181818" points="114.46,240.89,124.0952,238.8496,118.5092,237.9568,119.4021,232.3709,114.46,240.89" style="stroke:#181818;stroke-width:1.0;"/><text fill="#000000" font-family="sans-serif" font-size="13" lengthAdjust="spacing" textLength="39" x="78.6529" y="230.202">header</text></g><!--MD5=[aa30ee6f3e02f9881f720056fbfc440f]
link AmbientLightingView to ColorField--><g id="link_AmbientLightingView_ColorField"><path codeLine="6" d="M241.5,181.03 C241.5,198.11 241.5,218.94 241.5,235.46 " fill="none" id="AmbientLightingView-to-ColorField" style="stroke:#181818;stroke-width:1.0;"/><polygon fill="#181818" points="241.5,240.89,245.5,231.89,241.5,235.89,237.5,231.89,241.5,240.89" style="stroke:#181818;stroke-width:1.0;"/><text fill="#000000" font-family="sans-serif" font-size="13" lengthAdjust="spacing" textLength="28" x="209.9125" y="230.202">color</text></g><!--MD5=[43a9b587f37db017638b3674de336f97]
link AmbientLightingView to DropdownField--><g id="link_AmbientLightingView_DropdownField"><path codeLine="7" d="M282.45,181.03 C305.32,198.93 333.46,220.94 355.01,237.8 " fill="none" id="AmbientLightingView-to-DropdownField" style="stroke:#181818;stroke-width:1.0;"/><polygon fill="#181818" points="358.95,240.89,354.3234,232.1955,355.011,237.8104,349.396,238.4979,358.95,240.89" style="stroke:#181818;stroke-width:1.0;"/><text fill="#000000" font-family="sans-serif" font-size="13" lengthAdjust="spacing" textLength="49" x="296.0997" y="230.202">selected</text></g><!--MD5=[4a38ba59a4b2afe8028e606a4ae70224]
@startuml
!include ..\..\..\out_puml\Scripts\Views\AmbientLightingView.puml


@enduml

@startuml
class AmbientLightingView {
    + AmbientLightingView(choices:List<string>, value:string)
}
VisualElement <|- - AmbientLightingView
AmbientLightingView - -> "header" ComponentHeader
AmbientLightingView - -> "color" ColorField
AmbientLightingView - -> "selected" DropdownField


@enduml

PlantUML version 1.2022.5(Sat Apr 30 20:55:52 AEST 2022)
(GPL source distribution)
Java Runtime: Java(TM) SE Runtime Environment
JVM: Java HotSpot(TM) 64-Bit Server VM
Default Encoding: Cp1252
Language: en
Country: AU
--></g></svg>