<?xml version="1.0" encoding="UTF-8" standalone="no"?><svg xmlns="http://www.w3.org/2000/svg" xmlns:xlink="http://www.w3.org/1999/xlink" contentStyleType="text/css" height="296px" preserveAspectRatio="none" style="width:391px;height:296px;background:#FFFFFF;" version="1.1" viewBox="0 0 391 296" width="391px" zoomAndPan="magnify"><defs/><g><!--MD5=[f99a61b05f244388a61f84bcb65b3ee0]
class BackgroundSelector--><g id="elem_BackgroundSelector"><rect codeLine="1" fill="#F1F1F1" height="65.6094" id="BackgroundSelector" rx="2.5" ry="2.5" style="stroke:#181818;stroke-width:0.5;" width="377" x="7" y="115"/><ellipse cx="127.25" cy="131" fill="#ADD1B2" rx="11" ry="11" style="stroke:#181818;stroke-width:1.0;"/><path d="M130.0156,126.875 Q130.1719,126.6563 130.3594,126.5469 Q130.5469,126.4375 130.7656,126.4375 Q131.1406,126.4375 131.375,126.7031 Q131.6094,126.9531 131.6094,127.5625 L131.6094,129.0156 Q131.6094,129.625 131.375,129.8906 Q131.1406,130.1563 130.7656,130.1563 Q130.4219,130.1563 130.2188,129.9531 Q130.0156,129.7656 129.9063,129.25 Q129.8594,128.8906 129.6719,128.7031 Q129.3438,128.3281 128.7344,128.1094 Q128.125,127.8906 127.5,127.8906 Q126.7344,127.8906 126.0938,128.2188 Q125.4688,128.5469 124.9688,129.2969 Q124.4844,130.0469 124.4844,131.0781 L124.4844,132.1719 Q124.4844,133.4063 125.375,134.2344 Q126.2656,135.0469 127.8594,135.0469 Q128.7969,135.0469 129.4531,134.7969 Q129.8438,134.6406 130.2656,134.2031 Q130.5313,133.9375 130.6719,133.8594 Q130.8281,133.7813 131.0313,133.7813 Q131.3594,133.7813 131.6094,134.0469 Q131.875,134.2969 131.875,134.6406 Q131.875,134.9844 131.5313,135.3906 Q131.0313,135.9688 130.2344,136.2969 Q129.1563,136.75 127.8594,136.75 Q126.3438,136.75 125.1406,136.125 Q124.1563,135.625 123.4688,134.5625 Q122.7813,133.4844 122.7813,132.2031 L122.7813,131.0469 Q122.7813,129.7188 123.3906,128.5781 Q124.0156,127.4219 125.1094,126.8125 Q126.2031,126.1875 127.4375,126.1875 Q128.1719,126.1875 128.8125,126.3594 Q129.4688,126.5156 130.0156,126.875 Z " fill="#000000"/><text fill="#000000" font-family="sans-serif" font-size="14" lengthAdjust="spacing" textLength="128" x="147.75" y="136.7285">BackgroundSelector</text><line style="stroke:#181818;stroke-width:0.5;" x1="8" x2="383" y1="147" y2="147"/><line style="stroke:#181818;stroke-width:0.5;" x1="8" x2="383" y1="155" y2="155"/><ellipse cx="18" cy="166" fill="#84BE84" rx="3" ry="3" style="stroke:#038048;stroke-width:1.0;"/><text fill="#000000" font-family="sans-serif" font-size="14" lengthAdjust="spacing" textLength="351" x="27" y="173.5332">BackgroundSelector(choices:List&lt;string&gt;, choice:string)</text></g><!--MD5=[e77834a0fda1b3f817ae7f2b19e4424d]
class VisualElement--><g id="elem_VisualElement"><rect fill="#F1F1F1" height="48" id="VisualElement" rx="2.5" ry="2.5" style="stroke:#181818;stroke-width:0.5;" width="121" x="135" y="7"/><ellipse cx="150" cy="23" fill="#ADD1B2" rx="11" ry="11" style="stroke:#181818;stroke-width:1.0;"/><path d="M152.7656,18.875 Q152.9219,18.6563 153.1094,18.5469 Q153.2969,18.4375 153.5156,18.4375 Q153.8906,18.4375 154.125,18.7031 Q154.3594,18.9531 154.3594,19.5625 L154.3594,21.0156 Q154.3594,21.625 154.125,21.8906 Q153.8906,22.1563 153.5156,22.1563 Q153.1719,22.1563 152.9688,21.9531 Q152.7656,21.7656 152.6563,21.25 Q152.6094,20.8906 152.4219,20.7031 Q152.0938,20.3281 151.4844,20.1094 Q150.875,19.8906 150.25,19.8906 Q149.4844,19.8906 148.8438,20.2188 Q148.2188,20.5469 147.7188,21.2969 Q147.2344,22.0469 147.2344,23.0781 L147.2344,24.1719 Q147.2344,25.4063 148.125,26.2344 Q149.0156,27.0469 150.6094,27.0469 Q151.5469,27.0469 152.2031,26.7969 Q152.5938,26.6406 153.0156,26.2031 Q153.2813,25.9375 153.4219,25.8594 Q153.5781,25.7813 153.7813,25.7813 Q154.1094,25.7813 154.3594,26.0469 Q154.625,26.2969 154.625,26.6406 Q154.625,26.9844 154.2813,27.3906 Q153.7813,27.9688 152.9844,28.2969 Q151.9063,28.75 150.6094,28.75 Q149.0938,28.75 147.8906,28.125 Q146.9063,27.625 146.2188,26.5625 Q145.5313,25.4844 145.5313,24.2031 L145.5313,23.0469 Q145.5313,21.7188 146.1406,20.5781 Q146.7656,19.4219 147.8594,18.8125 Q148.9531,18.1875 150.1875,18.1875 Q150.9219,18.1875 151.5625,18.3594 Q152.2188,18.5156 152.7656,18.875 Z " fill="#000000"/><text fill="#000000" font-family="sans-serif" font-size="14" lengthAdjust="spacing" textLength="89" x="164" y="28.7285">VisualElement</text><line style="stroke:#181818;stroke-width:0.5;" x1="136" x2="255" y1="39" y2="39"/><line style="stroke:#181818;stroke-width:0.5;" x1="136" x2="255" y1="47" y2="47"/></g><!--MD5=[298883191722f47d612a790005ce591d]
class ComponentHeader--><g id="elem_ComponentHeader"><rect fill="#F1F1F1" height="48" id="ComponentHeader" rx="2.5" ry="2.5" style="stroke:#181818;stroke-width:0.5;" width="151" x="33" y="241"/><ellipse cx="48" cy="257" fill="#ADD1B2" rx="11" ry="11" style="stroke:#181818;stroke-width:1.0;"/><path d="M50.7656,252.875 Q50.9219,252.6563 51.1094,252.5469 Q51.2969,252.4375 51.5156,252.4375 Q51.8906,252.4375 52.125,252.7031 Q52.3594,252.9531 52.3594,253.5625 L52.3594,255.0156 Q52.3594,255.625 52.125,255.8906 Q51.8906,256.1563 51.5156,256.1563 Q51.1719,256.1563 50.9688,255.9531 Q50.7656,255.7656 50.6563,255.25 Q50.6094,254.8906 50.4219,254.7031 Q50.0938,254.3281 49.4844,254.1094 Q48.875,253.8906 48.25,253.8906 Q47.4844,253.8906 46.8438,254.2188 Q46.2188,254.5469 45.7188,255.2969 Q45.2344,256.0469 45.2344,257.0781 L45.2344,258.1719 Q45.2344,259.4063 46.125,260.2344 Q47.0156,261.0469 48.6094,261.0469 Q49.5469,261.0469 50.2031,260.7969 Q50.5938,260.6406 51.0156,260.2031 Q51.2813,259.9375 51.4219,259.8594 Q51.5781,259.7813 51.7813,259.7813 Q52.1094,259.7813 52.3594,260.0469 Q52.625,260.2969 52.625,260.6406 Q52.625,260.9844 52.2813,261.3906 Q51.7813,261.9688 50.9844,262.2969 Q49.9063,262.75 48.6094,262.75 Q47.0938,262.75 45.8906,262.125 Q44.9063,261.625 44.2188,260.5625 Q43.5313,259.4844 43.5313,258.2031 L43.5313,257.0469 Q43.5313,255.7188 44.1406,254.5781 Q44.7656,253.4219 45.8594,252.8125 Q46.9531,252.1875 48.1875,252.1875 Q48.9219,252.1875 49.5625,252.3594 Q50.2188,252.5156 50.7656,252.875 Z " fill="#000000"/><text fill="#000000" font-family="sans-serif" font-size="14" lengthAdjust="spacing" textLength="119" x="62" y="262.7285">ComponentHeader</text><line style="stroke:#181818;stroke-width:0.5;" x1="34" x2="183" y1="273" y2="273"/><line style="stroke:#181818;stroke-width:0.5;" x1="34" x2="183" y1="281" y2="281"/></g><!--MD5=[e9b5ee0446a42629a7416d22a027c116]
class DropdownField--><g id="elem_DropdownField"><rect fill="#F1F1F1" height="48" id="DropdownField" rx="2.5" ry="2.5" style="stroke:#181818;stroke-width:0.5;" width="127" x="219" y="241"/><ellipse cx="234" cy="257" fill="#ADD1B2" rx="11" ry="11" style="stroke:#181818;stroke-width:1.0;"/><path d="M236.7656,252.875 Q236.9219,252.6563 237.1094,252.5469 Q237.2969,252.4375 237.5156,252.4375 Q237.8906,252.4375 238.125,252.7031 Q238.3594,252.9531 238.3594,253.5625 L238.3594,255.0156 Q238.3594,255.625 238.125,255.8906 Q237.8906,256.1563 237.5156,256.1563 Q237.1719,256.1563 236.9688,255.9531 Q236.7656,255.7656 236.6563,255.25 Q236.6094,254.8906 236.4219,254.7031 Q236.0938,254.3281 235.4844,254.1094 Q234.875,253.8906 234.25,253.8906 Q233.4844,253.8906 232.8438,254.2188 Q232.2188,254.5469 231.7188,255.2969 Q231.2344,256.0469 231.2344,257.0781 L231.2344,258.1719 Q231.2344,259.4063 232.125,260.2344 Q233.0156,261.0469 234.6094,261.0469 Q235.5469,261.0469 236.2031,260.7969 Q236.5938,260.6406 237.0156,260.2031 Q237.2813,259.9375 237.4219,259.8594 Q237.5781,259.7813 237.7813,259.7813 Q238.1094,259.7813 238.3594,260.0469 Q238.625,260.2969 238.625,260.6406 Q238.625,260.9844 238.2813,261.3906 Q237.7813,261.9688 236.9844,262.2969 Q235.9063,262.75 234.6094,262.75 Q233.0938,262.75 231.8906,262.125 Q230.9063,261.625 230.2188,260.5625 Q229.5313,259.4844 229.5313,258.2031 L229.5313,257.0469 Q229.5313,255.7188 230.1406,254.5781 Q230.7656,253.4219 231.8594,252.8125 Q232.9531,252.1875 234.1875,252.1875 Q234.9219,252.1875 235.5625,252.3594 Q236.2188,252.5156 236.7656,252.875 Z " fill="#000000"/><text fill="#000000" font-family="sans-serif" font-size="14" lengthAdjust="spacing" textLength="95" x="248" y="262.7285">DropdownField</text><line style="stroke:#181818;stroke-width:0.5;" x1="220" x2="345" y1="273" y2="273"/><line style="stroke:#181818;stroke-width:0.5;" x1="220" x2="345" y1="281" y2="281"/></g><!--MD5=[c25894331d620725459927bf65591aaf]
reverse link VisualElement to BackgroundSelector--><g id="link_VisualElement_BackgroundSelector"><path codeLine="4" d="M195.5,75.62 C195.5,88.56 195.5,102.51 195.5,114.61 " fill="none" id="VisualElement-backto-BackgroundSelector" style="stroke:#181818;stroke-width:1.0;"/><polygon fill="none" points="188.5,75.27,195.5,55.27,202.5,75.27,188.5,75.27" style="stroke:#181818;stroke-width:1.0;"/></g><!--MD5=[220c716e3ffd5bccb69db7d21038dbce]
link BackgroundSelector to ComponentHeader--><g id="link_BackgroundSelector_ComponentHeader"><path codeLine="5" d="M171.27,181.03 C158.01,198.56 141.76,220.03 129.12,236.75 " fill="none" id="BackgroundSelector-to-ComponentHeader" style="stroke:#181818;stroke-width:1.0;"/><polygon fill="#181818" points="125.99,240.89,134.6091,236.1245,129.006,236.902,128.2284,231.2989,125.99,240.89" style="stroke:#181818;stroke-width:1.0;"/><text fill="#000000" font-family="sans-serif" font-size="13" lengthAdjust="spacing" textLength="39" x="86.4749" y="230.202">header</text></g><!--MD5=[e08f734ed70dd8f85e1be2fc4a502406]
link BackgroundSelector to DropdownField--><g id="link_BackgroundSelector_DropdownField"><path codeLine="6" d="M219.73,181.03 C232.99,198.56 249.24,220.03 261.88,236.75 " fill="none" id="BackgroundSelector-to-DropdownField" style="stroke:#181818;stroke-width:1.0;"/><polygon fill="#181818" points="265.01,240.89,262.7716,231.2989,261.994,236.902,256.3909,236.1245,265.01,240.89" style="stroke:#181818;stroke-width:1.0;"/><text fill="#000000" font-family="sans-serif" font-size="13" lengthAdjust="spacing" textLength="49" x="205.2501" y="230.202">selected</text></g><!--MD5=[e3c93790b167b6d0615ee43813a6d7a2]
@startuml
!include ..\..\..\out_puml\Scripts\Views\BackgroundSelector.puml
@enduml

@startuml
class BackgroundSelector {
    + BackgroundSelector(choices:List<string>, choice:string)
}
VisualElement <|- - BackgroundSelector
BackgroundSelector - -> "header" ComponentHeader
BackgroundSelector - -> "selected" DropdownField
@enduml

PlantUML version 1.2022.5(Sat Apr 30 20:55:52 AEST 2022)
(GPL source distribution)
Java Runtime: Java(TM) SE Runtime Environment
JVM: Java HotSpot(TM) 64-Bit Server VM
Default Encoding: Cp1252
Language: en
Country: AU
--></g></svg>